<?xml version="1.0" encoding="utf-8"?>
<!-- Generator: Adobe Illustrator 22.1.0, SVG Export Plug-In . SVG Version: 6.00 Build 0)  -->
<svg version="1.1" id="Слой_1" xmlns="http://www.w3.org/2000/svg" xmlns:xlink="http://www.w3.org/1999/xlink" x="0px" y="0px"
	 viewBox="0 0 1920 978.4" style="enable-background:new 0 0 1920 978.4;" xml:space="preserve">
<style type="text/css">
	.st0{fill:#F3F3F3;}
	.st1{fill:#FEFEFE;}
	.st2{fill:#FFC035;}
	.st3{fill:none;stroke:#FFC035;stroke-width:15;}
	.st4{fill:none;stroke:#FFC035;stroke-width:10;}
	.st5{fill:none;stroke:#FFC035;stroke-width:19;}
</style>
<g>
	<path class="st0" d="M875.5,132.6C762.7,132.6,244.8,48.9,0,8.6v899.4c201.5-75.5,292.3-40.4,393.5-32
		c126.5,10.5,328,109.8,842.5,32s278.5-21,686.5,23.5V0.1c0.5-0.8-57.7,2.8-294.5,24C1332,50.6,1192.5,132.6,875.5,132.6z"/>
	<path class="st1" d="M512.9,861.9c-287.8-76.4-473.8-2.5-530.9,44v22c99.8-53.5,236.2-63.6,358.3-41.5
		c610.8,110.5,592.2,61,1022.7,19.5c344.4-33.2,539.1,33.5,593.4,71l22.6-58.5c-120.9-85.5-410-113-659-56.5
		C1070.9,918.4,872.6,957.4,512.9,861.9z"/>
	<g>
		<path class="st2" d="M80.2,638.6l-17.8,12.3l62.2,90.3l17.8-12.3L80.2,638.6z"/>
		<path class="st2" d="M154.2,667.3l-12.3-17.8l-90.3,62.2l12.3,17.8L154.2,667.3z"/>
	</g>
	<g>
		<path class="st2" d="M1762.4,865.9l-20.6,6.7l34,104.3l20.6-6.7L1762.4,865.9z"/>
		<path class="st2" d="M1825.3,914.5l-6.7-20.6l-104.3,34l6.7,20.6L1825.3,914.5z"/>
	</g>
	<circle class="st3" cx="348.6" cy="884.9" r="31"/>
	<circle class="st4" cx="1427.3" cy="772.5" r="21.8"/>
	
		<rect x="1874.7" y="543.2" transform="matrix(0.7741 -0.633 0.633 0.7741 67.2877 1335.425)" class="st5" width="60.5" height="60.5"/>
</g>
</svg>
