<?xml version="1.0" encoding="utf-8"?>
<!-- Generator: Adobe Illustrator 24.0.1, SVG Export Plug-In . SVG Version: 6.00 Build 0)  -->
<svg version="1.1" id="Слой_1" xmlns="http://www.w3.org/2000/svg" xmlns:xlink="http://www.w3.org/1999/xlink" x="0px" y="0px"
	 viewBox="0 0 1920 821" style="enable-background:new 0 0 1920 821;" xml:space="preserve">
<style type="text/css">
	.st0{fill:#EEEEEE;}
	.st1{fill:#F7F7F7;}
	.st2{opacity:0.5;fill:none;stroke:#FFFFFF;stroke-width:8;enable-background:new    ;}
	.st3{opacity:0.5;fill:none;stroke:#FFFFFF;stroke-width:12;enable-background:new    ;}
	.st4{opacity:0.5;}
	.st5{fill:#FFFFFF;}
</style>
<path class="st0" d="M0.39,88.73c37.5-5.06,88.17,3.29,182.5-44.5c76-38.5,226.49-39.96,289.5-28.5c71.5,13,304.16,89,405.5,89
	c153.5,0,335.19-27.34,398.5-49.5c140-49,355.96-5.82,439,26.5c110.5,43,168,52.03,216.5,61.5c48.5,9.47-13-72.84,57-89.5
	c28.1-6.69,30.8-32.54,31-39.67v-1.83c0,0,0.03,0.66,0,1.83v585.17c-22.33-2.94-174.6,5.99-209,5.99c-218,0-665.3,173.12-824,163.63
	c-385-23.03-600-145.5-749.5-163.62c-119.6-14.5-218.33,7.67-237,13.71V88.73z"/>
<path class="st1" d="M389.4,637.2C177.45,564.67,39.49,584.11-3,602.89v21.07c167.46-39.69,349.91,56.16,509.87,114.17
	c186.45,67.62,263.63,114.86,714.31,0c450.69-114.86,657-85.1,703.82-55.86v-91.14c-241.44-37.73-583.35,77.42-791.29,129.85
	C925.76,773.42,654.33,727.85,389.4,637.2z"/>
<circle class="st2" cx="137.8" cy="189.64" r="12"/>
<rect x="519.43" y="416.75" transform="matrix(0.6853 -0.7282 0.7282 0.6853 -146.2677 525.088)" class="st3" width="30.11" height="30.11"/>
<circle class="st2" cx="626.8" cy="361.64" r="12"/>
<g class="st4">
	<path class="st5" d="M187.77,47.96l10.87,3.75l-18.99,55.04l-10.87-3.75L187.77,47.96z"/>
	<path class="st5" d="M153.96,73.18l3.75-10.87l55.04,18.99l-3.75,10.87L153.96,73.18z"/>
</g>
<circle class="st2" cx="1701.51" cy="196.35" r="17.13"/>
<g class="st4">
	<path class="st5" d="M1474.77,464.96l10.87,3.75l-18.99,55.04l-10.87-3.75L1474.77,464.96z"/>
	<path class="st5" d="M1440.96,490.18l3.75-10.87l55.04,18.99l-3.75,10.87L1440.96,490.18z"/>
</g>
</svg>
