<?xml version="1.0" encoding="utf-8"?>
<!-- Generator: Adobe Illustrator 24.0.1, SVG Export Plug-In . SVG Version: 6.00 Build 0)  -->
<svg version="1.1" id="Слой_1" xmlns="http://www.w3.org/2000/svg" xmlns:xlink="http://www.w3.org/1999/xlink" x="0px" y="0px"
	 viewBox="0 0 1920 884" style="enable-background:new 0 0 1920 884;" xml:space="preserve">
<style type="text/css">
	.st0{fill:#FCA53F;}
	.st1{fill:#FFEDC5;}
	.st2{fill:none;stroke:#FFEDC5;stroke-width:12;}
	.st3{fill:none;stroke:#FFEDC5;stroke-width:8;}
</style>
<g>
	<path class="st0" d="M-1,867.5v-873L1920-8v892c-12.7-3.2-74.3-18.9-219.5-56.5c-181.5-47-538-21.5-833,0
		C641.9,843.9,276.8,866-1,867.5z"/>
	<g>
		<path class="st1" d="M259.6,334.3l9.9-2.2l11.2,50.1l-9.9,2.2L259.6,334.3z"/>
		<path class="st1" d="M245.9,368.8l-2.2-9.9l50.1-11.2l2.2,9.9L245.9,368.8z"/>
	</g>
</g>
<rect x="583.3" y="679.7" transform="matrix(0.6853 -0.7282 0.7282 0.6853 -317.6549 654.3133)" class="st2" width="30.1" height="30.1"/>
<ellipse class="st3" cx="1618.4" cy="420.7" rx="16.4" ry="17.3"/>
<circle class="st3" cx="181.1" cy="410.5" r="12"/>
<g>
	<path class="st1" d="M1719,522.6l9.9-2.2l11.2,50.1l-9.9,2.2L1719,522.6z"/>
	<path class="st1" d="M1705.3,557.2l-2.2-9.9l50.1-11.2l2.2,9.9L1705.3,557.2z"/>
</g>
</svg>
