<?xml version="1.0" encoding="utf-8"?>
<!-- Generator: Adobe Illustrator 24.0.1, SVG Export Plug-In . SVG Version: 6.00 Build 0)  -->
<svg version="1.1" id="Слой_1" xmlns="http://www.w3.org/2000/svg" xmlns:xlink="http://www.w3.org/1999/xlink" x="0px" y="0px"
	 viewBox="0 0 1920 968" style="enable-background:new 0 0 1920 968;" xml:space="preserve">
<style type="text/css">
	.st0{fill:#FBF9F5;}
	.st1{fill:#F1F1F1;}
	.st2{fill:#F9F9F9;fill-opacity:0.9;}
	.st3{fill:none;stroke:#F9F9F9;stroke-width:2;}
</style>
<path class="st0" d="M0,145.96V30.46c34.02,49.6,113.56,68.33,149.08,71.5l223.12-63c5.34-2.5,28.91-11.6,80.54-28
	c51.63-16.4,156.58-6.83,202.6,0c72.37,13.67,218.51,41.5,224.12,43.5c7,2.5,155.58,27.5,163.58,29c8,1.5,114.56,17,133.57,19.5
	c19.01,2.5,102.05,6.5,136.57,6.5c34.51,0,75.53-8,88.04-11c12.5-3,51.02-16.5,71.54-30.5c20.51-14,62.04-40.5,90.05-55
	c28.01-14.5,101.05-18,176.59-4.5c60.43,10.8,138.24,51.5,169.59,70.5l11.01,67H0z"/>
<path class="st0" d="M0,814.46v99.5c94.03-23,271.09-18,313.1-19.5s222.57,12,241.58,13.5c15.2,1.2,153.05,18.17,220.07,26.5
	c37.68,6.5,122.94,21.2,162.55,28c49.52,8.5,124.04,4.5,158.56,0c27.61-3.6,66.85-21.17,83.03-29.5c17.67-11.17,61.91-37.4,97.53-53
	c35.61-15.6,104.87-8.83,135.05-3.5l188.06,34c58.19,9.5,178.26,29,193.07,31c14.8,2,90.86,12.5,127.04,17.5v-25l-1-119.5H0z"/>
<path class="st1" d="M0,853.96v-727.5c48.53-3.5,93.05-11.5,137.57-23.5c44.52-12,140.07-92.5,393.2-56.5c0,0,413.72,50,647.84,83.5
	c187.29,26.8,330.84-30.17,379.2-62c21.01-12,69.53-19.5,133.06-20.5c63.75-1,180.1,17,229.12,34.5v852
	c-194.1-27.5-589.71-117.51-680.35-80c-64.03,26.5-123.56,59.5-235.13,75c-110.81,15.4-253.13-9.5-359.18-29.5
	C560.49,883.46,208.11,857.96,0,853.96z"/>
<g>
	<path class="st2" d="M1606.15,156.99c-100.31-18.09-153.15,57.02-167.51,112.12c-6.59,16.46,2.52,110.14,10.53,129.96
		c15.32,37.9,31.27,129,107.21,158.62c130.51,50.91,318.98-29.11,352.25-59.24c34.46-31.21,79.07-108.92,7.66-184.74
		C1866.19,260.51,1731.55,179.61,1606.15,156.99z"/>
	<path class="st3" d="M1583.42,97.13c-125.88-22.74-192.18,71.68-210.2,140.95c-8.27,20.69,3.16,138.46,13.21,163.37
		c19.22,47.65,39.24,162.17,134.52,199.41c163.77,64,400.26-36.59,442.01-74.48c43.24-39.24,99.21-136.92,9.61-232.25
		C1909.72,227.27,1740.76,125.56,1583.42,97.13z"/>
</g>
</svg>
