<svg width="90" height="79" viewBox="0 0 90 79" fill="none" xmlns="http://www.w3.org/2000/svg">
<path fill-rule="evenodd" clip-rule="evenodd" d="M30.1075 1.49338C26.918 3.25188 24.828 5.40438 23.21 8.59738C21.4705 12.0299 21.4775 18.0454 23.2245 21.4099C25.293 25.3934 26.337 26.6349 29.071 28.3584C31.344 29.7919 32.141 30.0184 34.907 30.0184C42.673 30.0184 47.974 23.9889 47.9925 15.1354C48.0035 9.77138 47.2395 7.83938 43.709 4.30938C39.0975 -0.302616 34.93 -1.16512 30.1075 1.49338ZM38 6.08138C41.3455 8.10638 42.9805 11.2794 42.9905 15.7684C42.9985 19.2559 41.384 21.8849 37.9475 23.9799C35.7875 25.2969 34.3655 25.2879 31.9725 23.9429C29.506 22.5569 27 18.0589 27 15.0184C27 12.0434 29.496 7.50788 31.9 6.11388C34.2435 4.75538 35.7955 4.74688 38 6.08138ZM58.171 8.45838C54.2015 10.6474 52.4025 12.6809 50.971 16.5974C48.6305 23.0014 50.6955 29.7159 56 32.9484C57.3755 33.7864 58.5525 34.0149 61.5 34.0149C65.815 34.0149 67.423 33.2724 70.725 29.7539C73.4225 26.8804 75.478 20.7844 74.5835 18.3109C74.2625 17.4234 73.999 16.2634 73.998 15.7329C73.996 14.5569 72.247 11.6039 70.8065 10.3439C70.2255 9.83538 68.6885 8.87888 67.3915 8.21888C64.188 6.58838 61.433 6.65988 58.171 8.45838ZM66 13C67.364 13.6915 68.0575 14.9974 68.4005 15.7499C69.397 17.9369 69.153 22.8604 67.941 25.0164C66.084 28.3209 61.905 29.8649 58.7315 28.4189C57.384 27.8049 55 23.8019 55 22.1529C55 20.9639 56.776 16.1404 57.5635 15.1924C58.047 14.6089 60.5 12.5 62.8915 12.0419C63.9616 11.8369 64.6885 12.3355 66 13ZM8.5 17.5924C4.183 19.3419 3.1485 20.1269 1.594 22.8329C0.198 25.2634 0 26.0654 0 29.2839C0 31.3054 0.5 33.2684 0.5 33.2684L1.001 34.4229C1.001 34.4229 1.6765 36.0559 2.5 37.0184C3.3235 37.9809 4.33822 39.29 5 40C5.38799 40.4163 7.4835 41.6744 9.5 42.3859C12.2205 43.3459 13.873 43.1449 17.0095 41.4729C19.448 40.1734 20.155 39.4664 21.4545 37.0279C24.1105 32.0454 23.428 26.1704 19.75 22.3474C16.972 19.4599 16.439 19.0924 13.421 17.9894C10.4395 16.8999 8.75568 17.4888 8.5 17.5924ZM13.8575 24.0024C15.4805 24.9919 18.0065 29.1919 17.9925 30.8769C17.977 32.7204 16.586 35.6879 15.4395 36.3234C13.5495 37.3714 9.879 37.1959 8.5915 35.9964C7.1755 34.6769 4.9995 30.3814 5.002 28.9099C5.004 27.6329 6.695 24.6149 7.9385 23.6679C9.1615 22.7369 12.0495 22.8999 13.8575 24.0024ZM74.171 31.4584C70.2015 33.6474 68.4025 35.6809 66.971 39.5974C65.803 42.7934 65.772 44.0714 66.791 46.9984C68.078 50.6944 69.061 51.9114 72.0425 53.5004C75.371 55.2749 76.8065 55.3684 80.421 54.0474C84.27 52.6404 86.149 51.0059 88.499 47.0204C89.7845 44.8399 90 43.9679 90 40.9484C90 37.2804 89.4295 35.9439 86.675 33.1599C83.1655 29.6124 78.637 28.9959 74.171 31.4584ZM35.5 32.9824C28.9325 35.5194 26.0035 37.7679 23.043 42.5444C22.1145 44.0424 19.374 48.3059 16.953 52.0184C12.282 59.1809 10.7415 62.7014 11.1755 65.2199C12.237 71.3784 14.0805 74.4074 18 76.4329C22.404 78.7084 24.773 79.3014 26.69 78.6084C27.587 78.2839 28.71 78.0184 29.1855 78.0184C29.6605 78.0184 30.7695 77.6389 31.65 77.1754C34.7125 75.5614 43.0915 74.6029 46.2185 75.5084C47.336 75.8319 50.454 76.7954 53.147 77.6499C57.43 79.0084 58.25 79.1289 59.6825 78.6109C60.584 78.2849 61.755 78.0174 62.2855 78.0164C63.5695 78.0139 66.3565 76.2779 68.1385 74.3699C70.8065 71.5144 72 68.4444 72 64.4399C72 60.3059 71.5875 59.4794 63.3075 47.0254C57.1045 37.6959 54.144 34.9564 47.9215 32.7894C44.9675 31.7604 38.3995 31.8629 35.5 32.9824ZM81.547 35.7929C83.269 36.6834 84.9955 39.2429 84.998 40.9099C85.0015 42.8194 82.581 46.9839 80.8575 48.0344C78.426 49.5169 74.9825 49.3644 73.318 47.7004C72.204 46.5859 72 45.9434 72 43.5479C72 41.0439 72.1905 40.5059 73.635 38.9284C75.3805 37.0229 78.33 35.0234 79.4 35.0204C79.757 35.0194 80.7235 35.3669 81.547 35.7929ZM45.75 37.8909C48.3075 38.4819 51.6255 40.1874 53.0995 41.6694C54.1835 42.7594 57.7045 48.0194 64.1765 58.2179C67.1705 62.9359 67.499 64.3349 66.3575 67.5184C65.42 70.1339 64.92 70.7944 63 71.9559C60.776 73.3014 55.722 73.4209 53.35 72.1839C50.912 70.9124 48.2335 70.4019 42.75 70.1624C37.776 69.9449 36.9905 70.0684 30.6845 72.0534C26.3665 73.4129 22.1325 73.3464 20.4435 71.8929C18.0905 69.8684 17.004 67.5179 17.002 64.4499C17 61.7859 17.21 61.3059 20.8265 55.6999C22.931 52.4374 25.4445 48.5309 26.411 47.0184C31.441 39.1509 37.935 36.0859 45.75 37.8909Z" fill="black"/>
</svg>
