<svg width="95" height="38" viewBox="0 0 95 38" fill="none" xmlns="http://www.w3.org/2000/svg">
<path d="M39.5835 14.2483H45.9166V17.4151H39.5835V14.2483Z" fill="#1D1D1D"/>
<path d="M93.6412 9.51484L82.8859 7.97907C80.9248 6.77442 78.8896 5.69603 76.7912 4.7497C69.8616 1.61117 62.3405 -0.00834238 54.7324 3.23147e-05H52.8641C43.8857 0.00647421 35.0509 2.25923 27.1652 6.55281L21.7373 9.51355C15.3836 9.58505 9.15235 11.2748 3.63234 14.4211C1.38902 15.7075 0.00386556 18.0943 0 20.6794V30.0802C0 30.955 0.708686 31.6637 1.58359 31.6637H6.90002C8.62922 36.5963 14.03 39.1937 18.9631 37.4647C21.6787 36.5132 23.8131 34.3783 24.7647 31.6637H67.0668C68.796 36.5963 74.1968 39.1937 79.1299 37.4647C81.8448 36.5132 83.9799 34.3783 84.9315 31.6637H85.4997C85.7014 31.6637 85.9011 31.6256 86.0886 31.5509L91.2169 29.4934C93.5079 28.5863 95.0083 26.369 95 23.9062V11.0822C95 10.295 94.4208 9.62693 93.6412 9.51484ZM22.0382 29.7639C21.3379 33.1904 17.9922 35.4006 14.5654 34.7004C11.138 34.0002 8.92751 30.6548 9.62782 27.2277C10.3288 23.8012 13.6744 21.591 17.1012 22.2912C20.05 22.8935 22.167 25.4877 22.1664 28.4974C22.1664 28.9226 22.1232 29.3471 22.0382 29.7639ZM50.6665 28.4974H25.3329C25.3329 23.2511 21.0802 18.9981 15.8333 18.9981C10.5865 18.9981 6.33307 23.2511 6.33307 28.4974H3.16654V20.6794C3.16847 19.2293 3.94545 17.8901 5.20433 17.1698C10.3713 14.2201 16.2173 12.6675 22.1664 12.6656H50.6665V28.4974ZM50.6665 9.49938H28.3764L28.6818 9.33253C35.451 5.65416 42.9702 3.56889 50.6665 3.23584V9.49938ZM53.8331 3.16627H54.7292C61.11 3.15918 67.4327 4.37027 73.3593 6.73512L70.5948 9.49938H53.8331V3.16627ZM82.205 29.7639C81.5047 33.1904 78.159 35.4006 74.7315 34.7004C71.3047 34.0002 69.0943 30.6548 69.7946 27.2277C70.4949 23.8012 73.8412 21.591 77.268 22.2912C80.2168 22.8935 82.3338 25.4877 82.3332 28.4974C82.3332 28.9226 82.29 29.3471 82.205 29.7639ZM91.8334 14.2484H87.0833V17.4153H91.8334V23.9062C91.8373 25.0729 91.126 26.1229 90.0411 26.5513L85.4997 28.375C85.4997 28.2294 85.481 28.0851 85.4714 27.9395C85.4617 27.794 85.4585 27.6232 85.443 27.4648C85.4269 27.3063 85.3953 27.1478 85.3702 26.99C85.3444 26.8315 85.3258 26.6731 85.2942 26.5294C85.2626 26.3851 85.2162 26.2253 85.175 26.0746C85.1338 25.9245 85.1022 25.7725 85.0545 25.6249C85.0075 25.4781 84.9502 25.337 84.8967 25.1927C84.8426 25.049 84.7936 24.9002 84.7382 24.7572C84.6828 24.6148 84.6081 24.4854 84.5417 24.3507C84.4753 24.2161 84.4103 24.0686 84.3362 23.9326C84.2614 23.7967 84.1777 23.6808 84.1062 23.5545C84.0353 23.4276 83.9483 23.2833 83.8581 23.1538C83.7673 23.0237 83.6835 22.9212 83.5966 22.804C83.5096 22.6868 83.411 22.5489 83.3099 22.4271C83.2087 22.3054 83.114 22.21 83.0154 22.1102C82.9175 22.011 82.808 21.8764 82.6991 21.7656C82.5896 21.6548 82.482 21.5671 82.3731 21.4692C82.2636 21.3713 82.1463 21.2553 82.0259 21.1523C81.906 21.0498 81.7836 20.9706 81.6638 20.8804C81.5433 20.7902 81.4228 20.6936 81.2966 20.6092C81.1696 20.5255 81.0273 20.4514 80.8913 20.3625C80.7547 20.2736 80.6439 20.204 80.5157 20.1364C80.3875 20.0681 80.2277 19.9966 80.0821 19.927C79.9365 19.8574 79.8225 19.7956 79.6878 19.7389C79.5532 19.6816 79.3709 19.6217 79.213 19.565C79.0545 19.5076 78.9515 19.4632 78.8168 19.4207C78.6364 19.3653 78.4515 19.3253 78.2672 19.2796C78.1468 19.2512 78.0314 19.2132 77.9097 19.1881C77.7151 19.1482 77.5154 19.1263 77.3176 19.0973C77.2003 19.0818 77.0882 19.0561 76.971 19.0451C76.654 19.0135 76.3377 18.9961 76.0053 18.9961C70.7603 19.0013 66.5102 23.2511 66.505 28.4955H53.8337V12.665H71.25C71.67 12.665 72.0727 12.4981 72.369 12.2011L76.4749 8.09567C78.1983 8.91573 79.874 9.83243 81.4943 10.8412C81.6812 10.9578 81.8899 11.0345 82.1083 11.0661L91.8334 12.4543V14.2484Z" fill="#1D1D1D"/>
</svg>
