<svg width="90" height="90" viewBox="0 0 90 90" fill="none" xmlns="http://www.w3.org/2000/svg">
<path d="M88.2422 36.2989H73.8281V32.5781C73.8281 31.6073 73.041 30.8203 72.0703 30.8203H34.1016C33.1309 30.8203 32.3438 31.6073 32.3438 32.5781C32.3438 33.5489 33.1309 34.3359 34.1016 34.3359H70.3125V47.8124C70.3125 59.6509 63.9919 70.6537 53.7859 76.6405H20.0422C9.83619 70.6539 3.51562 59.6509 3.51562 47.8125V34.3361H15.293C16.2636 34.3361 17.0508 33.5491 17.0508 32.5783C17.0508 31.6074 16.2636 30.8205 15.293 30.8205H1.75781C0.787148 30.8205 0 31.6074 0 32.5783V47.8125C0 54.4571 1.78594 60.9722 5.1648 66.6533C7.44346 70.4848 10.4001 73.8682 13.8625 76.6407H1.75781C0.787148 76.6407 0 77.4276 0 78.3985C0 84.7957 5.20436 90 11.6016 90H66.4453C72.8425 90 78.0469 84.7957 78.0469 78.3985C78.0469 77.4276 77.2597 76.6407 76.2891 76.6407H59.9657C63.1524 74.089 65.9092 71.0187 68.1047 67.5586H73.0665C82.4036 67.5586 90 59.9622 90 50.625V38.0567C90 37.0858 89.213 36.2989 88.2422 36.2989ZM74.3388 80.1563C73.534 83.7725 70.3004 86.4844 66.4453 86.4844H11.6016C7.7465 86.4844 4.51301 83.7725 3.70811 80.1563H74.3388ZM73.8281 47.8125V46.8457H79.4531V50.625C79.4531 54.1466 76.5881 57.0117 73.0665 57.0117H72.6673C73.4346 54.0224 73.8281 50.9318 73.8281 47.8125ZM86.4844 50.625C86.4844 58.0237 80.4651 64.043 73.0665 64.043H70.0747C70.6359 62.8967 71.1373 61.7232 71.5753 60.5273H73.0665C78.5268 60.5273 82.9688 56.0852 82.9688 50.625V45.0879C82.9688 44.1171 82.1816 43.3301 81.2109 43.3301H73.8281V39.8145H86.4844V50.625Z" fill="#1D1D1D"/>
<path d="M38.5913 9.72832L37.6767 8.57994C36.3341 6.89455 36.3322 4.53856 37.672 2.8507C38.2756 2.09027 38.1484 0.98461 37.3879 0.381153C36.6273 -0.222656 35.5218 -0.0952142 34.9182 0.665215C32.5554 3.64225 32.5589 7.79754 34.9268 10.7704L35.8414 11.9187C37.5959 14.1213 37.5985 17.2001 35.8477 19.406L34.9105 20.5869C34.3068 21.3473 34.4341 22.4529 35.1945 23.0564C35.5178 23.3129 35.9033 23.4375 36.2861 23.4375C36.804 23.4375 37.3171 23.2097 37.6643 22.7723L38.6015 21.5914C41.3754 18.0966 41.3713 13.2183 38.5913 9.72832Z" fill="#1D1D1D"/>
<path d="M48.3384 13.6805L47.4238 12.5323C46.0812 10.8468 46.0793 8.49077 47.4191 6.80292C48.0227 6.04249 47.8955 4.93682 47.135 4.33337C46.3744 3.72956 45.2689 3.857 44.6653 4.61743C42.3024 7.59446 42.306 11.7498 44.6739 14.7227L45.5885 15.8711C47.3428 18.0738 47.3454 21.1528 45.5947 23.3585L44.6576 24.5392C44.0539 25.2997 44.1812 26.4053 44.9416 27.0088C45.2649 27.2653 45.6504 27.3897 46.0332 27.3897C46.5511 27.3897 47.0644 27.1617 47.4114 26.7246L48.3483 25.5438C51.1223 22.0491 51.1182 17.1708 48.3384 13.6805Z" fill="#1D1D1D"/>
<path d="M28.8512 13.6807L27.9367 12.5325C26.594 10.8471 26.5921 8.49096 27.9317 6.8031C28.5354 6.04267 28.4081 4.93701 27.6477 4.33338C26.8871 3.72974 25.7816 3.85736 25.1779 4.61744C22.8153 7.59447 22.8188 11.7499 25.1867 14.7228L26.1013 15.8711C27.8556 18.0738 27.8583 21.1528 26.1077 23.3584L25.1704 24.5391C24.5667 25.2995 24.6938 26.4052 25.4543 27.0088C25.7775 27.2653 26.1628 27.3899 26.5459 27.3899C27.0637 27.3899 27.5768 27.1621 27.9238 26.7249L28.8613 25.544C31.6351 22.0493 31.6311 17.171 28.8512 13.6807Z" fill="#1D1D1D"/>
<path d="M26.4148 31.3348C26.0878 31.0078 25.6343 30.8197 25.172 30.8197C24.7097 30.8197 24.2562 31.0078 23.9292 31.3348C23.6025 31.6635 23.4142 32.1152 23.4142 32.5775C23.4142 33.0399 23.6023 33.4934 23.9292 33.8221C24.2562 34.149 24.7097 34.3354 25.172 34.3354C25.6343 34.3354 26.0878 34.149 26.4148 33.8221C26.7433 33.4934 26.9298 33.0416 26.9298 32.5775C26.9298 32.1152 26.7433 31.6617 26.4148 31.3348Z" fill="#1D1D1D"/>
<path d="M63.6314 46.0547C62.6607 46.0547 61.8736 46.8417 61.8736 47.8125C61.8736 54.3374 59.227 60.7497 54.6124 65.4053C53.929 66.0947 53.9341 67.2077 54.6235 67.8912C54.9662 68.231 55.4136 68.4006 55.861 68.4006C56.3134 68.4004 56.7659 68.2267 57.1095 67.8799C62.3714 62.5713 65.3892 55.2571 65.3892 47.8125C65.3892 46.8417 64.602 46.0547 63.6314 46.0547Z" fill="#1D1D1D"/>
<path d="M51.6595 70.1763C51.1824 69.3306 50.1104 69.032 49.2648 69.5089L49.2248 69.5315C48.3791 70.0086 48.0804 71.0807 48.5573 71.9262C48.8804 72.4989 49.4761 72.8208 50.09 72.8208C50.3825 72.8208 50.6792 72.7475 50.952 72.5937L50.9921 72.571C51.8378 72.0939 52.1364 71.0218 51.6595 70.1763Z" fill="#1D1D1D"/>
</svg>
