<svg width="90" height="90" viewBox="0 0 90 90" fill="none" xmlns="http://www.w3.org/2000/svg">
<path d="M79.6704 61.1369C78.6108 52.7945 74.6174 46.4482 71.0436 40.8392C68.3407 36.5976 65.9674 32.8641 65.4375 29.1118C65.6161 29.0348 65.7903 28.9695 65.9717 28.8795C71.4965 26.1157 81.3964 24.6771 81.4965 24.6626L82.742 24.4841V17.4192C82.742 14.7424 81.9422 13.2037 77.3174 11.6636L63.8713 7.99684V0H58.0649C47.6598 0 39.1941 8.46571 39.1941 18.8707V26.1287C39.1941 30.7782 40.1304 34.6757 41.8607 37.711L41.8593 37.7226L41.868 37.7241C42.8725 39.482 44.1368 40.9553 45.6581 42.0977H21.5529L19.1795 27.8619C18.8732 26.017 17.2924 24.6771 15.4228 24.6771C13.3223 24.6771 11.6138 26.3857 11.6138 28.4861V42.0963H8.71061V53.7091H12.344C10.3683 59.1612 10.1811 66.2958 10.1666 73.4159C8.07336 71.8076 6.03677 69.8174 4.03793 67.3178C3.53858 66.6936 2.75472 66.4744 2.04779 66.7589C0.0997461 67.5442 -0.0396074 72.2067 0.0068437 72.7119C1.57892 89.999 28.7601 89.999 45.0005 89.999C74.8598 89.999 90 84.1389 90 72.5798C90 67.7678 88.1071 62.1327 79.6704 61.1369ZM79.8388 17.4192V21.9859C76.8964 22.478 69.4614 23.8904 64.674 26.2826C60.3381 28.4484 58.1447 24.4826 57.9125 24.0283L55.3156 25.3274C56.2809 27.2581 58.8458 30.0669 62.6258 29.8259C63.3284 34.1023 65.8904 38.1523 68.5977 42.4011C71.9247 47.624 75.6321 53.5189 76.7193 60.9801C72.0162 61.0962 68.2261 64.9473 68.2261 69.6766C68.2261 72.4564 69.5354 74.9372 71.5705 76.5325C68.467 77.3251 63.4474 78.4225 57.2288 79.1309C63.4808 70.3937 64.6566 61.5477 60.5878 53.7091H65.3229V52.2575C65.3229 46.8851 61.1278 42.4839 55.8425 42.1311C51.4906 37.5426 49.3553 30.8871 49.3553 21.7739C49.3553 13.3082 55.2198 10.2308 60.7779 10.1626L76.4755 14.4405C79.8388 15.5626 79.8388 16.0677 79.8388 17.4192ZM35.1558 53.7091H57.2505C62.0858 61.5317 60.7198 70.4169 53.2891 79.5083C50.6734 79.7129 47.8965 79.8378 45.0005 79.8378C43.5155 79.8378 42.0625 79.8479 40.6385 79.8596C34.1658 79.906 28.4552 79.9365 23.244 79.0089C23.4211 66.0055 27.7323 56.8271 35.1558 53.7091ZM56.4086 7.82991C55.7743 7.99975 55.1733 8.21458 54.5912 8.45555L52.7433 3.83367C53.6201 3.52157 54.5303 3.28641 55.4694 3.13254L56.4086 7.82991ZM52.0277 9.86505C51.8332 10.0015 51.6343 10.1321 51.4485 10.2802L47.265 7.1433C48.1287 6.34638 49.078 5.64381 50.1014 5.05155L52.0277 9.86505ZM49.393 12.3676C48.9982 12.8742 48.6484 13.4215 48.329 13.9934L43.6201 12.1092C44.0889 11.1134 44.655 10.1757 45.3097 9.30473L49.393 12.3676ZM47.1953 16.6672C47.0037 17.2914 46.8339 17.9301 46.7178 18.6051L42.1583 17.6935C42.2309 16.7151 42.392 15.7643 42.633 14.8426L47.1953 16.6672ZM46.4623 21.5141C46.4623 21.6027 46.4521 21.6854 46.4521 21.7739C46.4521 22.671 46.4957 23.5202 46.5349 24.3752L42.0973 23.4868V20.6417L46.4623 21.5141ZM46.7686 27.3815C46.8687 28.3119 46.995 29.2177 47.1474 30.0945L42.2686 29.2816C42.1728 28.3802 42.1162 27.4381 42.106 26.4481L46.7686 27.3815ZM47.8181 33.1501C48.075 34.1082 48.3668 35.0328 48.6992 35.9183L43.7391 35.0909C43.3588 34.2388 43.0452 33.3127 42.797 32.3125L47.8181 33.1501ZM60.9681 7.25798C60.3874 7.25798 59.8228 7.28556 59.2697 7.33491L58.3842 2.90319H60.9681V7.25798ZM50.1392 39.1016C50.6342 40.0249 51.1756 40.9031 51.7722 41.7334C49.364 41.2036 47.3826 40.0742 45.8512 38.3875L50.1392 39.1016ZM14.517 28.4861C14.517 27.9868 14.9234 27.5803 15.4228 27.5803C15.8684 27.5803 16.2429 27.8997 16.317 28.3366L18.6105 42.0963H14.517V28.4861ZM11.6138 44.9995H55.1617C58.6673 44.9995 61.5995 47.4977 62.2731 50.8059H11.6138V44.9995ZM15.4852 53.7091H29.6223C23.9001 58.4645 20.6166 67.1145 20.3553 78.3876C17.8179 77.7199 15.4025 76.7357 13.0654 75.3611C13.0654 67.386 13.106 59.2004 15.4852 53.7091ZM45.0005 87.0958C29.7515 87.0958 4.22954 87.0958 2.89842 72.4477C2.85923 72.0224 2.94052 71.33 3.06826 70.684C13.797 82.9544 25.7132 82.8644 40.6602 82.7613C42.0756 82.7511 43.5228 82.741 45.0005 82.741C62.1424 82.741 74.9368 78.6431 75.9021 78.3252C76.2403 78.3644 76.5858 78.3862 76.9356 78.3862C80.1379 78.3862 82.742 75.782 82.742 72.5798C82.742 69.3776 80.1379 66.7734 76.9356 66.7734H75.484V69.6766H76.9356C78.5367 69.6766 79.8388 70.9787 79.8388 72.5798C79.8388 74.1809 78.5367 75.483 76.9356 75.483C73.7334 75.483 71.1292 72.8788 71.1292 69.6766C71.1292 66.4744 73.7334 63.8702 76.9356 63.8702C83.8685 63.8702 87.0968 66.637 87.0968 72.5798C87.0968 82.0761 72.5402 87.0958 45.0005 87.0958Z" fill="#1D1D1D"/>
<path d="M60.9704 15.9676C61.7721 15.9676 62.422 15.3177 62.422 14.516C62.422 13.7143 61.7721 13.0644 60.9704 13.0644C60.1687 13.0644 59.5188 13.7143 59.5188 14.516C59.5188 15.3177 60.1687 15.9676 60.9704 15.9676Z" fill="#1D1D1D"/>
</svg>
