<svg width="110" height="90" viewBox="0 0 110 90" fill="none" xmlns="http://www.w3.org/2000/svg">
<path fill-rule="evenodd" clip-rule="evenodd" d="M7.067 0.721038C4.919 1.49904 2.412 3.73654 0.991 6.14504C-0.0630001 7.93204 -0.0765001 8.07954 0.7365 8.97754C1.8815 10.2425 2.5375 9.89654 3.914 7.30104C5.047 5.16554 5.6655 4.68704 8.8195 3.50554C11.7725 2.39904 17 5.12104 17 7.76554C17 8.40804 17.225 9.07254 17.5 9.24254C18.249 9.70554 18.157 24.1355 17.4 24.8925C16.573 25.7195 16.36 25.668 14.703 24.243C13.527 23.2315 12.7155 22.9935 10.443 22.993C8.0765 22.9925 7.4295 23.1995 6.318 24.3105C5.201 25.428 5 26.065 5 28.4925C5 30.8845 5.207 31.563 6.257 32.613C6.9485 33.3045 8.186 34.0045 9.007 34.169C10.688 34.505 13.382 34.0875 13.79 33.428C13.938 33.1885 14.4955 32.9925 15.0295 32.9925C15.9095 32.9925 16 33.3665 16 36.9925C16 41.4995 15.888 41.598 12.692 39.9055C10.8705 38.9405 10.456 38.8895 9.08 39.4595C8.225 39.8135 6.9575 40.6715 6.263 41.366C5.2065 42.4225 5 43.097 5 45.4925C5 47.8845 5.207 48.563 6.257 49.613C6.9485 50.3045 8.186 51.0045 9.007 51.169C10.688 51.505 13.382 51.0875 13.79 50.428C13.938 50.1885 14.4955 49.9925 15.0295 49.9925C15.9095 49.9925 16 50.3665 16 53.9925C16 58.513 15.8955 58.602 12.625 56.8695L10.5 55.744L8.316 56.903C5.782 58.247 4.7725 59.8395 4.7725 62.4925C4.7725 64.8365 5.7175 66.6725 7.381 67.5625C8.9005 68.3755 12.813 68.3795 13.6235 67.569C14.4145 66.778 16 66.842 16 67.665C16 68.6035 14.5895 69.67 12.3385 70.4345C10.833 70.946 10.0895 70.957 8.8385 70.4875C5.736 69.3235 5.115 68.87 4.064 66.999C3.018 65.138 3 64.6845 3 39.8605C3 18.03 2.8985 14.5305 2.25 13.9925C1.6515 13.496 1.3485 13.496 0.75 13.9925C0.101 14.531 0.000500013 18.0915 0.00200001 40.4285C0.00350001 65.7755 0.0225 66.2735 1.0545 67.966C2.4265 70.217 4.715 72.3265 7.108 73.5475L9.0305 74.5285L8.89 80.6355L8.75 86.7425L6.75 86.9045C4.532 87.084 2.9225 88.209 3.337 89.2895C3.551 89.8465 5.039 89.9925 10.5 89.9925C15.961 89.9925 17.449 89.8465 17.663 89.2895C18.0775 88.209 16.468 87.084 14.25 86.9045L12.25 86.7425L12.11 80.638L11.9695 74.534L13.36 73.832C14.952 73.028 16 73.23 16 74.341C16 75.744 18.0745 78.8205 19.672 79.7875C20.8615 80.507 22.5435 80.804 26.5 80.9925L31.75 81.2425L31.9005 84.731C32.1025 89.412 32.665 89.9925 37 89.9925C41.335 89.9925 41.8975 89.412 42.0995 84.731L42.25 81.2425H55H67.75L67.8955 84.809C68.089 89.539 68.68 90.093 73.316 89.8915L76.75 89.7425L77 85.4925L77.25 81.2425L82.5 80.931C88.8765 80.553 90.113 80.2435 91.738 78.6185C92.6555 77.701 93 76.8245 93 75.4085C93 73.0155 93.922 72.5315 96.311 73.671L98.031 74.491L97.8905 80.617L97.75 86.7425L95.75 86.9045C93.532 87.084 91.9225 88.209 92.337 89.2895C92.551 89.8465 94.039 89.9925 99.5 89.9925C104.961 89.9925 106.449 89.8465 106.663 89.2895C107.077 88.209 105.468 87.084 103.25 86.9045L101.25 86.7425L101.108 80.8C100.989 75.793 101.1 74.711 101.811 73.925C102.275 73.412 103.026 72.9925 103.48 72.9925C104.547 72.9925 107.578 70.209 108.936 67.9825C109.985 66.2615 109.996 65.919 109.996 36.9925C109.996 8.03654 109.985 7.72504 108.932 5.99254C106.651 2.24104 102.879 0.0155374 98.7745 3.73965e-05C95.7585 -0.0114626 91.713 2.63104 90.201 5.60104C89.1105 7.74254 89 8.57404 89 14.6485C89 23.1765 89.157 22.9925 81.897 22.9925C77.8185 22.9925 76.4815 23.1625 76 23.7425C75.5035 24.341 75.5035 24.644 76 25.2425C76.4885 25.831 77.8835 25.9925 82.4835 25.9925C87.527 25.9925 88.4605 26.12 89.1725 26.907C89.918 27.7305 90 30.174 90 51.5795C90 73.961 89.947 75.3855 89.0855 76.165C88.254 76.9175 85.158 76.9925 54.904 76.9925H21.6365L20.318 75.6745L19 74.356V51.4925V28.629L20.318 27.3105L21.6365 25.9925H45.9905C68.67 25.9925 70.4 25.9315 71.147 25.106C72.9925 23.067 72.3295 23.008 46.2235 22.872L21.25 22.7425L21 14.9675C20.79 8.43654 20.597 6.95654 19.794 5.71754C16.7465 1.01554 11.712 -0.960462 7.067 0.721038ZM102.291 4.11754C104.07 4.98104 104.887 5.79104 105.804 7.60104L107 9.95954V36.9925V64.0255L105.759 66.4735C105.077 67.82 104.233 69.1045 103.884 69.328C102.826 70.0055 99.813 70.977 98.75 70.983C97.595 70.9895 94.5555 69.244 93.6495 68.054C92.15 66.0845 93.6855 65.195 95.564 66.945C97.18 68.45 99.6565 68.688 101.883 67.552C104.119 66.4115 105.007 64.7775 104.984 61.844C104.966 59.4205 104.41 58.5325 101.991 57.0575C99.7255 55.6765 99.135 55.714 96.4655 57.407C95.239 58.1845 93.9575 58.7285 93.618 58.615C93.1855 58.471 93 56.994 93 53.701C93 48.5875 93.4305 47.957 95.564 49.945C97.906 52.1265 102.086 51.656 103.875 49.009C105.137 47.1415 105.395 43.3035 104.351 41.931C103.529 40.851 100.448 38.9965 99.473 38.9945C99.0455 38.9935 97.692 39.629 96.4655 40.407C95.239 41.1845 93.9575 41.7285 93.618 41.615C93.1895 41.4725 93 40.054 93 36.9925C93 32.143 93.378 31.538 95.5 32.991C98.262 34.8815 101.628 34.7275 103.743 32.613C105.44 30.916 105.493 27.3735 103.857 24.9415C102.797 23.3635 102.502 23.2325 99.7325 23.105C97.15 22.986 96.555 23.137 95.297 24.23C93.642 25.6685 93.4285 25.721 92.6 24.8925C91.849 24.1415 91.7505 12.4925 92.4955 12.4925C92.768 12.4925 93.499 13.2695 94.1205 14.2195C94.7415 15.169 96.0485 16.3955 97.0245 16.945C98.6265 17.8465 98.989 17.8785 100.748 17.2735C103.855 16.2055 105 14.789 105 12.014C105 10.371 104.648 9.11754 103.857 7.94154C102.794 6.35954 102.51 6.23404 99.7325 6.12104C96.498 5.98904 95.884 6.28704 94.0725 8.86754C91.994 11.8285 91.1195 10.2045 93.0625 6.99254C94.1915 5.12604 94.873 4.58754 97.25 3.68254C99.4315 2.85254 99.739 2.87904 102.291 4.11754ZM6.497 7.14354C5.8875 7.77704 5.0875 9.17204 4.719 10.244C4.111 12.0125 4.145 12.364 5.0835 14.034C5.6525 15.0465 6.946 16.34 7.9585 16.909C9.6285 17.8475 9.98 17.8815 11.7485 17.2735C15.0755 16.1295 16 14.847 16 11.373C16 8.70504 15.842 8.22304 14.625 7.17654C12.667 5.49204 8.104 5.47404 6.497 7.14354ZM12.0855 9.82004C13.462 11.0655 13.279 13.387 11.75 14.0835C8.893 15.385 6.7025 12.2545 8.8275 9.90704C9.8545 8.77254 10.897 8.74454 12.0855 9.82004ZM101.086 9.82004C102.277 10.898 102.243 12.043 100.98 13.398C99.7155 14.7565 98.789 14.7815 97.5 13.4925C94.8505 10.843 98.3055 7.30404 101.086 9.82004ZM12.21 26.9485C12.7215 27.5135 13.0085 28.484 12.9125 29.3235C12.761 30.648 12.6 30.7425 10.5 30.7425C8.3135 30.7425 8.2455 30.695 8.09 29.07C8.0015 28.15 8.051 27.081 8.199 26.695C8.592 25.671 11.2035 25.836 12.21 26.9485ZM101.086 26.82C102.22 27.847 102.248 28.8895 101.173 30.078C99.927 31.4545 97.6055 31.2715 96.909 29.7425C95.6075 26.8855 98.738 24.695 101.086 26.82ZM22.8275 28.907C22.084 29.728 22 32.035 22 51.5795C22 72.0235 22.055 73.3875 22.9145 74.165C23.723 74.897 25.592 74.9925 39.103 74.9925C52.0705 74.9925 54.4715 74.879 55 74.2425C55.4935 73.648 55.495 73.3385 55.006 72.75C54.492 72.13 51.9815 71.9855 39.82 71.875L25.25 71.7425V51.4925V31.2425H55H84.75V51.4925V71.7425L72.274 71.8765C59.2515 72.0165 58.142 72.2155 59.853 74.106C60.581 74.911 61.8385 74.9925 73.5 74.9925C85.309 74.9925 86.412 74.919 87.1725 74.078C87.916 73.257 88 70.95 88 51.4055C88 30.9615 87.945 29.5975 87.0855 28.82C86.2555 28.0685 83.2975 27.9925 54.913 27.9925C25.2655 27.9925 23.6125 28.0395 22.8275 28.907ZM12.0855 43.82C13.22 44.847 13.248 45.8895 12.1725 47.078C11.1455 48.2125 10.103 48.2405 8.9145 47.165C8.0235 46.3585 7.6655 43.9935 8.3335 43.326C8.959 42.7 11.1695 42.991 12.0855 43.82ZM101.086 43.82C102.22 44.847 102.248 45.8895 101.173 47.078C99.927 48.4545 97.6055 48.2715 96.909 46.7425C95.6075 43.8855 98.738 41.695 101.086 43.82ZM12.0855 60.82C13.22 61.847 13.248 62.8895 12.1725 64.078C11.1455 65.2125 10.103 65.2405 8.9145 64.165C8.0235 63.3585 7.6655 60.9935 8.3335 60.326C8.959 59.7 11.1695 59.991 12.0855 60.82ZM101.086 60.82C102.22 61.847 102.248 62.8895 101.173 64.078C100.094 65.269 98.9495 65.2355 97.5945 63.973C96.365 62.8275 96.2735 62.35 97.0175 60.9595C97.6595 59.76 99.832 59.6855 101.086 60.82ZM38 83.9925C38 85.6425 37.906 86.9925 37.791 86.9925C36.488 86.9925 36 86.1715 36 83.9805C36 81.78 36.3375 81.1675 37.625 81.032C37.831 81.0105 38 82.3425 38 83.9925ZM73.75 83.9925C73.75 86.5925 73.682 86.7425 72.5 86.7425C71.3815 86.7425 71.2335 86.513 71.0935 84.5605C70.888 81.6935 71.2425 80.8865 72.623 81.0825C73.6365 81.2265 73.75 81.5195 73.75 83.9925Z" fill="black"/>
</svg>
