<svg width="35" height="34" viewBox="0 0 35 34" fill="none" xmlns="http://www.w3.org/2000/svg">
<path d="M13.1251 6.87473C15.0001 6.25005 17.9348 5.8113 20.3261 6.79069C22.7174 7.77008 22.9167 12.5039 22.7174 14.7485C23.1159 15.3606 23.6739 16.9521 22.7174 18.4212C21.5217 20.2575 20.9239 21.4818 19.7283 22.706C18.7717 23.6854 19.7283 24.7464 20.3261 25.1545L28.75 28.125C27.7536 29.3492 23.2391 32.0103 17.5 32.5M13.4239 6.79069C11.0326 7.77008 10.8333 12.504 11.0326 14.7485C10.6341 15.3606 10.0761 16.9521 11.0326 18.4212C12.2283 20.2575 12.8261 21.4818 14.0218 22.706C14.9783 23.6854 14.0218 24.7464 13.4239 25.1545L5.62501 28.125C6.62138 29.3492 11.0326 32.6726 16.25 32.5" stroke="white"/>
<path d="M35 16.8966C35 26.2283 27.165 33.7931 17.5 33.7931C7.83502 33.7931 0 26.2283 0 16.8966C0 7.56485 7.83502 0 17.5 0C27.165 0 35 7.56485 35 16.8966ZM1.95702 16.8966C1.95702 25.1847 8.91585 31.9036 17.5 31.9036C26.0842 31.9036 33.043 25.1847 33.043 16.8966C33.043 8.60841 26.0842 1.88953 17.5 1.88953C8.91585 1.88953 1.95702 8.60841 1.95702 16.8966Z" fill="white"/>
</svg>
