<svg width="91" height="81" viewBox="0 0 91 81" fill="none" xmlns="http://www.w3.org/2000/svg">
<path fill-rule="evenodd" clip-rule="evenodd" d="M40.0135 2.625C38.006 4.069 31.3545 8.9625 25.2325 13.5C19.1105 18.0375 11.66 23.545 8.67601 25.7395C5.69151 27.9335 2.50901 30.3975 1.60351 31.2145C-0.335485 32.9635 -0.357985 34.517 1.54601 35.1835C3.11951 35.7345 5.26102 34.3575 20.582 22.9395C41.5195 7.3355 44.09 5.5 45.003 5.5C45.516 5.5 50.5405 8.9315 56.169 13.125C88.7265 37.384 86.706 36.022 88.75 35.091C91.33 33.9155 90.12 32.1675 83.315 27.238C81.426 25.8695 74.8705 21.0375 68.747 16.5C47.3175 0.6205 46.425 0 45.016 0C44.182 0 42.2655 1.006 40.0135 2.625ZM11.0815 36.799C10.0025 37.555 10 37.605 10 58.201C10 77.5655 10.0565 78.8965 10.9145 79.6725C11.713 80.395 13.382 80.5 24.087 80.5C35.3275 80.5 36.4135 80.424 37.1725 79.5855C37.8965 78.7855 38 77.0845 38.002 65.9605C38.0035 54.236 38.0795 53.126 38.98 51.6495C41.625 47.311 48.919 47.492 51.2255 51.953C51.865 53.1895 52 55.662 52 66.1475C52 77.8135 52.0745 78.912 52.9145 79.6725C53.713 80.395 55.382 80.5 66.087 80.5C77.3275 80.5 78.4135 80.424 79.1725 79.5855C79.9145 78.7655 80 76.5285 80 57.9355C80 42.4745 79.8475 37.0475 79.4 36.6C78.4805 35.6805 77.286 35.8815 76.087 37.157C75.0125 38.301 75 38.522 75 56.307C75 69.635 74.8445 74.4555 74.4 74.9C73.5155 75.7845 58.3195 75.7375 57.5815 74.848C57.2485 74.447 56.9605 70.262 56.833 63.973C56.719 58.3505 56.4615 52.9175 56.261 51.8995C55.857 49.85 52.799 46.277 49.975 44.5555C47.9825 43.3405 44.5715 43.1685 41.4325 44.125C38.855 44.91 35.912 47.72 34.267 50.966C33.0315 53.4045 33 53.726 33 63.8835C33 71.3185 32.8285 74.4715 32.4 74.9C31.56 75.74 16.44 75.74 15.6 74.9C15.1555 74.4555 15 69.617 15 56.2275C15 39.635 14.9285 38.0935 14.125 37.4035C12.6125 36.1045 12.1925 36.021 11.0815 36.799Z" fill="black"/>
</svg>
