<svg width="91" height="90" viewBox="0 0 91 90" fill="none" xmlns="http://www.w3.org/2000/svg">
<path fill-rule="evenodd" clip-rule="evenodd" d="M1.5 1C1.5 1 0 2.206 0 4.383V45.007V85.6315C0 87.7415 1 88 1 88C1 88 2.5 90 4.3685 90H28.595H52.821C54.7855 90 55.5 88.5 55.5 88.5C55.5 88.5 56.75 87.7415 56.75 85.4835L57 73.3665L57.25 61.25L60.25 60.865C61.9 60.653 64.7125 60.2635 66.5 59.999C68.2875 59.735 71.325 59.3385 73.25 59.119C77.0045 58.69 79 57.879 79 56.782C79 56.4065 77.651 53.8835 76.002 51.175C74.353 48.466 73.003 45.735 73.002 45.105C73.001 44.4755 73.45 43.078 74 42C75.291 39.469 75.26 38.477 73.7985 35.6085C72.366 32.7965 70.1705 31.345 66.828 31L64.406 30.75L61.578 26.138C58.5305 21.168 57.269 19.5 56.558 19.5C55.903 19.5 53.406 21.968 52.0045 24C51.3405 24.9625 50.4385 26.0875 50 26.5C49.5615 26.9125 48.6615 28.0375 48.0005 29C47.339 29.9625 46.664 30.8625 46.5 31C46.336 31.1375 45.661 32.0375 44.9995 33C44.3385 33.9625 43.4385 35.0875 43 35.5C42.5615 35.9125 41.6615 37.0375 41.0005 38C40.339 38.9625 39.664 39.8625 39.5 40C39.336 40.1375 38.659 41.0375 37.995 42C36.2835 44.4825 34.137 46.4135 31.7825 47.5885C28.003 49.4745 24.0905 52.212 23.327 53.5045C21.909 55.9045 21.6637 56.8528 21.5 59.5C21.4507 60.2979 22 62 22 62C22 62 24.396 66.7805 26.931 67.9675C28.8535 68.868 29.9735 69.053 32.5415 68.894C34.306 68.7845 36.129 68.52 36.592 68.3065C37.2305 68.012 37.805 68.43 38.967 70.034C39.8105 71.198 40.5 72.344 40.5 72.5815C40.5 72.8185 32.344 72.9535 22.375 72.881L4.25 72.75V44V15.25L28.166 15.12C51.6995 14.9925 52.1055 15.007 53.544 16.031C56.365 18.04 56.7335 17.4575 56.8895 10.739L57.029 4.74C57 3 55.5 1.5 55.5 1.5C55.5 1.5 54.5 0 52.7385 0L28.494 0.0145001L4.25 0.029C2.125 0.029 1.5 1 1.5 1ZM52.202 4.947C52.822 5.632 53.0165 6.5665 52.9045 8.322L52.75 10.75H28.5H4.25L4.0955 8.322C3.9835 6.5665 4.178 5.632 4.798 4.947C5.615 4.044 6.716 4 28.5 4C50.284 4 51.385 4.044 52.202 4.947ZM21 6.75C20.5035 7.3485 20.5035 7.6515 21 8.25C21.912 9.3485 35.088 9.3485 36 8.25C36.4965 7.6515 36.4965 7.3485 36 6.75C35.088 5.6515 21.912 5.6515 21 6.75ZM71.8485 19.344C70.705 21.6105 70.385 24.7825 71.2295 25.483C73.1175 27.05 74.4275 24.96 74.666 20C74.7355 18.548 74.5635 18.2235 73.654 18.094C72.868 17.982 72.357 18.3365 71.8485 19.344ZM8.007 20.742C7.501 21.351 7.501 21.649 8.007 22.258C8.545 22.907 10.523 22.997 21.693 22.883L34.75 22.75V21.5V20.25L21.693 20.117C10.523 20.003 8.545 20.093 8.007 20.742ZM57.664 26.785C58.678 28.4105 65.0345 39.3095 68.141 44.75C69.2405 46.675 70.93 49.577 71.896 51.1985C73.887 54.5415 73.7005 55.645 71.1 55.905C69.717 56.043 69.434 55.8285 68.4645 53.905C67.867 52.7195 66.6495 50.5125 65.7585 49C64.8675 47.4875 62.502 43.4375 60.5015 40C58.501 36.5625 56.22 32.6665 55.432 31.342C53.794 28.587 53.645 27.221 54.8385 25.902C55.8905 24.74 56.5085 24.933 57.664 26.785ZM84.25 26.9015C78.8545 29.7915 77.9305 30.5125 78.1 31.699C78.3055 33.14 80.596 33.353 82.376 32.0965C83.1315 31.563 85.1565 30.42 86.875 29.556C90.1905 27.89 90.919 26.527 89.033 25.5175C87.8165 24.8665 88.32 24.721 84.25 26.9015ZM8.375 28.786C6.758 29.663 6.682 30.057 7.9145 31.1725C8.692 31.876 10.139 32 17.587 32C25.71 32 26.4105 31.9275 27.25 31C28.1235 30.035 28.1235 29.965 27.25 29C26.4125 28.075 25.724 28.0015 18.0475 28.02C11.6695 28.0355 9.432 28.2125 8.375 28.786ZM32.6 29.1C31.849 29.851 31.8215 31.331 32.5505 31.781C32.853 31.9685 33.566 31.6565 34.1345 31.088C34.997 30.2255 35.061 29.926 34.5225 29.2775C33.747 28.343 33.39 28.31 32.6 29.1ZM52.664 33.785C53.1665 34.591 55.28 38.175 57.36 41.75C59.4405 45.325 62.029 49.757 63.113 51.599C65.71 56.013 65.5535 56.6455 61.745 57.135C60.098 57.347 57.175 57.751 55.25 58.0325C47.966 59.0975 45.7405 59.1425 44.992 58.24C43.818 56.826 39.4915 49.3145 39.197 48.179C38.8785 46.9535 39.979 44.572 41.638 42.8955C42.2615 42.2655 43.3185 40.9625 43.987 40C44.655 39.0375 45.336 38.1375 45.5 38C45.664 37.8625 46.339 36.9625 47.0005 36C48.4825 33.843 50.581 31.9475 51.25 32.161C51.525 32.2485 52.1615 32.9795 52.664 33.785ZM70.237 36.475C71.1735 38.286 71.258 40.668 70.375 40.378C69.67 40.146 67.521 36.583 67.508 35.625C67.492 34.383 69.4745 35.0005 70.237 36.475ZM8 37.75C7.228 38.68 8.127 40 9.5315 40C10.8915 40 11.2105 39.061 10.2215 37.9685C9.167 36.8035 8.8145 36.7685 8 37.75ZM14.181 37.75C14.0225 38.1625 14.0225 38.8375 14.181 39.25C14.42 39.8735 15.817 40 22.455 40C30.813 40 31.8215 39.7365 30.2215 37.9685C29.4295 37.093 28.6295 37 21.907 37C15.7565 37 14.419 37.13 14.181 37.75ZM81.1 40.6C80.1835 41.5165 80.359 41.9285 82.125 43.0055C84.6285 44.532 88.5 44.1595 88.5 42.3925C88.5 42.1685 87.7685 41.5395 86.875 40.9945C85.062 39.889 82.0185 39.6815 81.1 40.6ZM36.04 50.7985C37.5025 52.56 41.5065 59.795 41.3825 60.451C41.195 61.445 33.503 65.9875 32 65.9925C29.0675 66.0015 25.0015 62.27 25.0005 59.568C24.9995 56.4825 26.776 54.2345 30.959 52.0295C33.044 50.9305 34.891 50.024 35.064 50.0155C35.2365 50.007 35.6755 50.3595 36.04 50.7985ZM52.893 67.125C52.9745 69.8915 52.8355 72 52.5725 72C52.317 72 51.9805 71.494 51.824 70.875C51.668 70.256 50.7395 68.422 49.761 66.7995C48.066 63.9885 48.0225 63.804 48.8405 62.9C49.407 62.2745 50.218 62.0025 51.2245 62.1005L52.75 62.25L52.893 67.125ZM45.7905 67.212C47.673 70.0475 47.772 71.597 46.1105 72.2345C45.155 72.601 44.174 71.5785 42.1215 68.076C40.871 65.9415 40.858 65.8405 41.7585 65.182C43.2915 64.061 43.9025 64.3685 45.7905 67.212ZM52.75 81.5V85.75H28.5H4.25L4.1015 82.047C4.02 80.01 4.07 78.039 4.2125 77.667C4.427 77.1085 8.69 77.013 28.611 77.12L52.75 77.25V81.5ZM27.1945 80.715C26.6965 82.0125 27.394 83.0845 28.623 82.91C29.449 82.7925 29.75 82.4165 29.75 81.5C29.75 80.5835 29.449 80.2075 28.623 80.09C27.9465 79.994 27.375 80.244 27.1945 80.715Z" fill="black"/>
</svg>
