<svg width="90" height="91" viewBox="0 0 90 91" fill="none" xmlns="http://www.w3.org/2000/svg">
<path fill-rule="evenodd" clip-rule="evenodd" d="M48.75 1.56986C46.863 2.65236 45.592 3.00736 43.568 3.01636C40.462 3.02986 37.586 4.40236 36.374 6.44986C35.2555 8.33986 34.0095 9.64586 32 11.0354C28.5495 13.4204 27.0045 15.8574 27.002 18.9174C27.0005 20.2974 26.468 22.1104 25.5 24.0279C24.423 26.1619 24 27.7119 24 29.5279C24 31.3439 24.423 32.8939 25.5 35.0279C26.58 37.1674 27 38.7109 27 40.5404C27 43.7059 28.415 45.9564 31.867 48.2814C33.219 49.1919 34.7385 50.5759 35.2435 51.3574C37.495 54.8394 41.2815 57.0049 45.145 57.0204C46.187 57.0244 47.922 57.4779 49 58.0279C51.5495 59.3284 57.318 59.4134 59.65 58.1849C60.53 57.7209 62.375 57.1494 63.75 56.9139C65.125 56.6789 66.991 56.3574 67.897 56.1999C68.9755 56.0124 70.27 55.1409 71.647 53.6769C75.242 49.8534 76.2775 48.8269 78.1015 47.2779C80.6505 45.1134 81.996 42.6484 81.998 40.1384C81.9995 38.7584 82.532 36.9454 83.5 35.0279C85.5775 30.9124 85.3745 27.6034 82.7315 22.4924C82.3295 21.7144 81.999 20.1099 81.998 18.9279C81.9955 15.8594 80.462 13.4354 77 11.0279C74.7965 9.49536 74.397 9.10486 73.2655 7.37436C72.761 6.60286 71.3855 5.30886 70.209 4.49936C68.5065 3.32836 67.527 3.02586 65.41 3.01886C63.4075 3.01186 62.081 2.64086 60.045 1.51886C56.3395 -0.523642 52.367 -0.505642 48.75 1.56986ZM58 4.52786C60.1535 5.61486 61.6795 6.02786 63.5425 6.02786C66.602 6.02786 69.4345 7.43586 70.7065 9.58836C71.8095 11.4564 73.5715 13.2184 75.4395 14.3214C77.4255 15.4949 79 18.4459 79 20.9959C79 22.1409 79.3295 23.7144 79.7315 24.4924C80.134 25.2709 80.795 26.8694 81.2 28.0449C81.913 30.1154 81.89 30.2739 80.468 33.0909C79.398 35.2104 78.9995 36.7154 78.998 38.6384C78.996 41.9414 77.7395 44.1304 75.0615 45.4964C73.974 46.0514 72.569 47.2414 71.939 48.1414C71.3095 49.0414 70.009 50.5094 69.0495 51.4029C67.533 52.8149 66.955 53.0279 64.638 53.0279C62.669 53.0279 61.1945 53.4204 59 54.5279C55.7125 56.1874 53.666 56.3979 51.5355 55.2964C49.0065 53.9884 45.7915 53.0424 43.85 53.0354C41.938 53.0279 39 51.8524 39 51.0944C39 50.4929 35.003 46.4154 33.1175 45.0934C30.9375 43.5649 30 41.6014 30 38.5624C30 36.7394 29.5575 35.1494 28.3925 32.7874L26.7855 29.5279L28.3925 26.2684C29.5815 23.8574 30 22.3284 30.0005 20.3934C30.0015 17.5109 30.8135 16.2179 34 14.0279C36.006 12.6494 37.2525 11.3449 38.374 9.44986C39.5805 7.41186 42.462 6.03136 45.568 6.00436C47.532 5.98686 48.986 5.59186 51 4.52786C52.5125 3.72886 54.0375 3.06436 54.3895 3.05136C54.741 3.03836 56.3655 3.70286 58 4.52786ZM61.063 16.0279C57.1665 22.1084 53.912 27.3079 50.891 32.2779C49.3865 34.7529 46.9855 38.6674 45.555 40.9764C42.8455 45.3519 42.5615 46.6774 44.2825 46.9249C45.649 47.1214 46.254 46.3739 50.879 38.7779C53.0555 35.2029 56.035 30.3654 57.5005 28.0279C66.1465 14.2339 66.2175 14.0969 65.2415 13.0184C64.7485 12.4734 64.1835 12.0279 63.9855 12.0279C63.788 12.0279 62.4725 13.8279 61.063 16.0279ZM41.9295 14.1069C38.1115 16.3204 36.979 21.0469 39.211 25.4509C40.599 28.1894 41.0245 28.5724 43.689 29.4789C45.4565 30.0804 45.8475 30.0359 48.1095 28.9764C50.09 28.0489 50.835 27.3339 51.7955 25.4374C53.1435 22.7779 53.28 21.1004 52.3575 18.5279C51.42 15.9124 50.92 15.2519 49 14.0904C46.7845 12.7499 44.2585 12.7559 41.9295 14.1069ZM47.682 17.3459C48.7885 18.4529 49 19.1084 49 21.4319C49 24.8714 48.109 26.0279 45.459 26.0279C43.4485 26.0279 41.774 24.5429 41.1985 22.2504C40.696 20.2484 43.6315 16.0279 45.526 16.0279C45.9865 16.0279 46.957 16.6209 47.682 17.3459ZM59.4435 31.1534C54.1535 35.7054 55.161 42.9754 61.5415 46.2954C62.5995 46.8454 63.167 46.8529 64.6745 46.3344C71.6305 43.9429 73.1455 35.9629 67.5565 31.1534C66.5445 30.2824 65.6305 30.0289 63.5 30.0289C61.3695 30.0289 60.4555 30.2824 59.4435 31.1534ZM65.682 34.3459C66.805 35.4694 67 36.0959 67 38.5834C67 41.3099 66.903 41.5524 65.525 42.2649C62.497 43.8309 60.86 43.0954 59.671 39.6364C58.986 37.6439 59.578 35.9254 61.5995 34.0424C63.055 32.6864 64.1 32.7639 65.682 34.3459ZM1.3335 56.3614C1.15 56.5444 1 58.8939 1 61.5819C1 64.3004 0.778 66.6059 0.5 66.7778C0.1925 66.9678 0 71.1104 0 77.5398C0 87.3624 0.0585 88.0238 0.967 88.5103C1.499 88.7948 4.975 89.0278 8.6915 89.0278H15.449L16.8065 87.2483C17.553 86.2698 18.7905 85.1448 19.557 84.7483C21.142 83.9288 24.9375 83.8029 27.2145 84.4939C28.059 84.7504 29.7625 85.2178 31 85.5333C32.2375 85.8489 34.7125 86.5213 36.5 87.0278C38.2875 87.5343 40.7625 88.2309 42 88.5753C43.2375 88.9199 44.464 89.3878 44.725 89.6148C45.4055 90.2063 54.879 90.1283 55.25 89.5278C55.42 89.2529 55.926 89.0278 56.3745 89.0278C57.4695 89.0278 62.1075 86.2139 75.305 77.5418C81.3855 73.5469 87.1795 69.7693 88.18 69.1483C90.1765 67.9089 90.434 66.8293 89.114 65.2333C87.3225 63.0678 85.1905 62.0279 82.541 62.0279C80.3735 62.0279 78.913 62.5658 72.899 65.5783L65.8115 69.1288L64.884 67.8559C63.812 66.3839 61.0205 64.5499 58.5 63.6604C57.4185 63.2789 53.9265 63.0399 49.3605 63.0354C42.2735 63.0284 41.8545 62.9704 39.1105 61.6184C37.5375 60.8434 35.294 59.9434 34.125 59.6184C32.956 59.2939 31.122 58.7739 30.049 58.4639C28.09 57.8979 27.1625 57.9744 23 59.0454C19.213 60.0199 17.3025 59.9334 17.085 58.7779C16.6165 56.2884 15.8035 56.0279 8.506 56.0279C4.7445 56.0279 1.5165 56.1779 1.3335 56.3614ZM10.5 59.9519L13.75 60.2779L13.658 68.5278C13.6075 73.0654 13.3825 78.8028 13.158 81.2778L12.75 85.7778L11.25 85.6233C10.425 85.5383 8.4 85.3529 6.75 85.2113L3.75 84.9543L3.89 72.6163C3.9675 65.8304 4.139 59.9709 4.2715 59.5959C4.44 59.1179 4.9225 59.0204 5.881 59.2694C6.634 59.4654 8.7125 59.7724 10.5 59.9519ZM34.637 63.3474C39.2085 65.6639 40.203 65.8468 54 66.9143C58.984 67.2999 60.4445 67.8158 61.7245 69.6428C63.3425 71.9529 63.0875 72.0278 53.6 72.0278C44.9955 72.0278 43.5 72.2658 43.5 73.6353C43.5 73.8594 44.2315 74.4883 45.125 75.0333C46.5895 75.9264 47.6605 76.0244 55.9605 76.0258C63.8315 76.0274 65.3045 75.9073 66.0855 75.2003C66.5885 74.7454 67 73.9738 67 73.4868C67 72.2788 68.626 71.1088 73.297 68.9558C81.9555 64.9654 82.392 64.8184 83.7445 65.4343C84.435 65.7489 85 66.2354 85 66.5158C85 67.1258 61.7505 82.5698 57.489 84.7903C52.935 87.1633 48.1175 87.1679 40.5 84.8064C38.9875 84.3374 36.175 83.5038 34.25 82.9533C32.325 82.4034 29.3705 81.5199 27.6845 80.9903C24.0785 79.8584 21.238 79.7843 19.5 80.7778C17.0345 82.1873 17 82.0889 17 73.6053C17 64.7914 16.8845 65.1144 20.75 63.1094C22.3405 62.2844 23.7 62.0674 27.3915 62.0499C31.4425 62.0309 32.3645 62.1959 34.637 63.3474Z" fill="black"/>
</svg>
