<svg width="20" height="20" viewBox="0 0 20 20" fill="none" xmlns="http://www.w3.org/2000/svg">
<path d="M17.0685 2.93037C13.1613 -0.97679 6.8308 -0.97679 2.92774 2.93037C-0.829842 6.68789 -0.971167 12.6983 2.50792 16.6262L2.61184 16.7093C2.23358 17.524 1.58515 18.5299 0.554311 19.037C0.213469 19.2033 0.292444 19.7104 0.66654 19.7686C1.79298 19.9431 3.40991 19.7478 4.91876 18.6089L4.93954 18.6255C8.77194 20.8784 13.7848 20.3629 17.0769 17.071C20.9758 13.168 20.9758 6.83337 17.0685 2.93037ZM13.2943 14.2778C13.074 14.5022 12.8413 14.71 12.6334 14.9428C12.33 15.2836 11.9476 15.3917 11.5153 15.3668C10.8835 15.3335 10.2974 15.1215 9.73628 14.8472C8.48514 14.2403 7.41688 13.3966 6.52321 12.3325C5.86231 11.5469 5.31779 10.6907 4.95617 9.72217C4.78159 9.25248 4.65689 8.77448 4.6943 8.26738C4.71924 7.95564 4.83563 7.68962 5.06424 7.46932C5.31364 7.2324 5.54641 6.98716 5.79165 6.74608C6.11171 6.43019 6.51074 6.43434 6.8308 6.74608C7.03032 6.94144 7.22152 7.1368 7.41688 7.33216C7.60809 7.52336 7.79929 7.7104 7.98634 7.9016C8.31887 8.23829 8.31887 8.629 7.98634 8.96568C7.74941 9.20676 7.51249 9.44784 7.26725 9.68061C7.2049 9.74296 7.19658 9.79284 7.22984 9.87181C7.38779 10.2542 7.62056 10.595 7.87827 10.9109C8.39785 11.5511 8.98808 12.1205 9.69471 12.5611C9.84435 12.6567 10.0106 12.7232 10.1686 12.8105C10.2475 12.8562 10.3057 12.8396 10.3681 12.7731C10.605 12.5278 10.8502 12.2868 11.0913 12.0457C11.4114 11.7298 11.8104 11.7298 12.1263 12.0457C12.5171 12.4322 12.9036 12.8188 13.2902 13.2095C13.6227 13.5504 13.6227 13.9494 13.2943 14.2778ZM9.60742 7.81847L9.73212 6.92897C10.5925 7.04951 11.374 7.44023 11.9892 8.0554C12.5752 8.64147 12.9577 9.37718 13.0948 10.1877L12.2095 10.3415C12.1014 9.71386 11.8063 9.14441 11.3532 8.69135C10.8752 8.21335 10.2725 7.90992 9.60742 7.81847ZM14.5413 10.1877C14.3418 9.02387 13.7931 7.96811 12.9577 7.12849C12.0765 6.2473 10.9583 5.69032 9.72381 5.51574L9.8485 4.62624C11.2742 4.82576 12.5711 5.47002 13.5895 6.49253C14.558 7.46101 15.1939 8.68719 15.4267 10.0339L14.5413 10.1877Z" fill="white"/>
</svg>
