<svg width="82" height="89" viewBox="0 0 82 89" fill="none" xmlns="http://www.w3.org/2000/svg">
<path fill-rule="evenodd" clip-rule="evenodd" d="M49.75 0.5C49.58 0.775 49.114 1 48.7145 1C48.315 1 46.872 1.731 45.507 2.625C43.708 3.8035 42.5935 5.056 41.4535 7.1815C40.036 9.8245 39.881 10.541 39.881 14.456C39.881 18.1325 40.0785 19.1885 41.171 21.344C41.8805 22.744 42.7635 24.1955 43.133 24.5695C44.0445 25.4915 46.5 29.147 46.5 29.582C46.5 29.774 44.419 30.0385 41.875 30.17C34.923 30.5285 33.824 30.8445 31.328 33.2015C27.738 36.593 27.0035 38.1715 27.0035 42.5C27.0035 45.388 27.237 46.6325 28.0185 47.914C31.1365 53.029 35.385 55 43.2905 55C47.645 55 48.4655 54.8665 49.2165 54.037C49.6955 53.5075 50.009 52.664 49.9135 52.162C49.7575 51.348 49.0125 51.223 42.969 51C37.3995 50.7945 35.9375 50.5785 34.7245 49.7835C28.651 45.8015 28.4 39.128 34.1765 35.203C35.8785 34.0465 36.2825 34 44.629 34C52.2515 34 53.43 33.8915 54.2805 33.1115C54.814 32.6225 56.0375 31.6735 57 31.0025C61.0905 28.1505 65.29 22.544 66.109 18.8425C67.05 14.5905 67.0745 13.602 66.2935 11.3015C64.453 5.8815 62.926 3.815 59.091 1.5535C56.8835 0.252 55.937 0 53.2575 0C51.4985 0 49.92 0.225 49.75 0.5ZM59.09 5.635C62.217 8.4995 62.996 10.276 62.998 14.5475C63 18.147 62.893 18.5105 60.946 21.523C58.7255 24.9585 54.774 29 53.6355 29C52.5385 29 48.754 26.2125 47.7345 24.6535C47.2295 23.8815 46.5115 22.944 46.1385 22.5695C44.779 21.2055 43 16.9855 43.0075 15.1415C43.0115 14.101 43.364 12.2465 43.791 11.02C45.6985 5.541 47.799 4.029 53.5275 4.0115C57.1035 4.0005 57.3995 4.087 59.09 5.635ZM48.9905 8.625C48.114 9.519 47.096 11.1315 46.7285 12.2085C45.9415 14.516 46.5175 16.0525 49.095 18.5155C50.325 19.691 51.0965 20 52.8005 20C55.7095 20 57.222 19.2195 58.731 16.939C60.307 14.5575 60.316 13.591 58.792 10.5825C57.419 7.8735 55.9505 7 52.7685 7C50.965 7 50.307 7.283 48.9905 8.625ZM54.525 10.763C55.7805 11.412 56 11.8195 56 13.5C56 15.198 55.785 15.5855 54.464 16.2685C53.1845 16.9305 52.788 16.9535 52.089 16.4065C49.6595 14.5055 49.458 13.178 51.318 11.318C52.8705 9.766 52.6655 9.8015 54.525 10.763ZM54.3545 51.312C53.752 51.915 53.9625 53.3465 54.75 54C55.753 54.832 57.108 53.756 56.899 52.294C56.7515 51.259 55.06 50.6065 54.3545 51.312ZM61.3335 51.3335C60.712 51.9545 60.996 53.3415 61.9145 54.1725C62.627 54.8175 63.853 55 67.4715 55C72.949 55 75.2345 55.966 76.941 59.002C79.183 62.9905 77.9275 69.646 74.5575 71.6365C71.2995 73.561 68.885 73.9855 61.1505 73.9925L53.551 74L52.1505 72.125C49.317 68.331 47.193 67.0045 43.949 67.002C42.1115 67.0005 41.3525 66.7175 40.18 65.597C37.805 63.327 34.069 60.939 31.323 59.9355C29.193 59.157 27.32 59 20.1495 59C10.237 59 10.511 58.865 10.0155 64L9.75 66.75L7.75 67C4.7805 67.371 2.566 68.9295 1.2015 71.6085C-0.280997 74.518 -0.319996 76.719 1.07 79C2.129 80.7375 4.4155 82.998 5.115 82.9995C5.3155 82.9995 5.9435 83.909 6.51 85.0195C7.9145 87.7725 10.0645 88.996 13.5 88.9975C16.4585 88.999 17.93 88.1425 19.724 85.375C20.613 84.0025 20.6265 84 26.529 84H32.4435L33.3015 85.453C35.229 88.7155 40.578 90.0155 43.855 88.0175C44.7375 87.4795 45.9235 86.1305 46.49 85.0195C47.0565 83.909 47.7185 83 47.96 83C48.789 83 51.935 79.4655 52.0925 78.3575C52.248 77.265 52.3865 77.2465 62.5 77C71.8955 76.771 72.925 76.6565 74.8495 75.628C80.96 72.362 83.3925 66.045 81.029 59.579C78.77 53.3995 74.627 51 66.2155 51C63.7135 51 61.5165 51.15 61.3335 51.3335ZM29.3955 62.962C32.6475 64.1505 35.102 65.5565 35.38 66.3895C35.5455 66.8865 33.3305 66.9915 24.92 66.885L14.25 66.75L14.09 65.0775C13.7985 62.0345 13.8715 62 20.6165 62C25.4375 62 27.332 62.2075 29.3955 62.962ZM47.682 72.318C49.3675 74.004 49.4995 76.893 47.955 78.291C46.9285 79.2195 46.897 79.2185 46.2065 78.2435C44.678 76.0845 43.5385 75.2225 41.374 74.587C39.251 73.9635 38.964 74.0015 36.5585 75.2205C35.151 75.9335 34 76.7075 34 76.94C34 77.173 33.407 77.957 32.682 78.682C31.4385 79.9255 31.0885 80 26.5 80C21.9115 80 21.5615 79.9255 20.318 78.682C19.593 77.957 19 77.173 19 76.94C19 76.7075 17.849 75.9335 16.4415 75.2205C14.036 74.0015 13.749 73.9635 11.626 74.587C9.4615 75.2225 8.322 76.0845 6.7935 78.2435C6.103 79.2185 6.0715 79.2195 5.045 78.291C3.72 77.0915 3.59 73.282 4.8275 71.9145C5.6035 71.057 6.9255 71 26.0095 71H46.3635L47.682 72.318ZM16.0855 78.8275C17.4985 80.1065 17.2945 83.0695 15.682 84.682C14.2055 86.158 13.626 86.264 11.736 85.4025C10.4295 84.8075 9 82.686 9 81.343C9 80.9545 9.593 80.043 10.318 79.318C11.867 77.769 14.654 77.532 16.0855 78.8275ZM42.682 79.318C44.4415 81.0775 44.345 82.055 42.2 84.2C40.055 86.345 39.0775 86.4415 37.318 84.682C35.769 83.133 35.532 80.346 36.8275 78.9145C38.1065 77.5015 41.0695 77.7055 42.682 79.318ZM12.3335 80.3335C11.7425 80.9245 11.978 82.3595 12.775 83.021C13.415 83.552 13.693 83.5215 14.3665 82.8475C15.122 82.0925 15.1145 81.955 14.264 81.0155C13.2905 79.94 12.874 79.7925 12.3335 80.3335ZM38.747 81.0035C37.8865 81.954 37.878 82.0925 38.6335 82.8475C39.319 83.533 39.578 83.5575 40.249 83.001C41.1115 82.285 41.0885 80.4395 40.2135 80.152C39.9185 80.055 39.2585 80.438 38.747 81.0035Z" fill="black"/>
</svg>
