<svg width="106" height="110" viewBox="0 0 106 110" fill="none" xmlns="http://www.w3.org/2000/svg">
<path d="M91.5 76.25C91.5 79.7018 88.7018 82.5 85.25 82.5C81.7982 82.5 79 79.7018 79 76.25C79 72.7982 81.7982 70 85.25 70C88.7018 70 91.5 72.7982 91.5 76.25ZM81.4625 76.25C81.4625 78.3418 83.1582 80.0375 85.25 80.0375C87.3418 80.0375 89.0375 78.3418 89.0375 76.25C89.0375 74.1582 87.3418 72.4625 85.25 72.4625C83.1582 72.4625 81.4625 74.1582 81.4625 76.25Z" fill="black"/>
<path fill-rule="evenodd" clip-rule="evenodd" d="M56.432 2.375C55.543 3.681 54.667 4.8625 54.485 5C54.303 5.1375 50.5165 10.7065 46.071 17.376C41.6255 24.0455 37.656 29.8955 37.25 30.376C36.844 30.8565 34.7655 33.8375 32.631 37L28.75 42.75H25H21.25L21.373 41C21.558 38.3705 22.4095 30.6165 22.856 27.5C23.324 24.2345 23.6945 23.584 26 21.9885C26.9625 21.3225 28.186 20.3775 28.7195 19.8885C29.504 19.169 30.5815 19 34.377 19C36.956 19 39.5285 19.2475 40.094 19.55C40.9315 19.9985 41.3165 19.906 42.172 19.05C43.217 18.005 43.2175 17.995 42.236 17.0415C41.385 16.2145 40.396 16.069 35 15.9785C31.5625 15.9205 28.496 15.902 28.1855 15.9365C27.8745 15.9715 26.743 16.844 25.6705 17.875C24.5975 18.9065 22.904 20.364 21.907 21.1145C19.9215 22.609 20.0795 21.958 19.021 33C18.2945 40.5835 17.8455 42.75 17 42.75C16.0625 42.75 16.13 41.3175 17.965 22.25C18.942 12.0965 19.4915 10.596 21.986 11.265C22.681 11.4515 25.219 11.8055 27.625 12.052C34.211 12.7265 40.4815 13.428 43.01 13.7735C44.8855 14.03 45.426 13.9105 46.184 13.0725C47.829 11.2555 46.89 10.8825 38.375 9.969C29.9325 9.064 25.2285 8.5325 22.854 8.2155C20.075 7.845 17.7465 8.6165 16.8845 10.1935C15.85 12.087 14.6955 20.6855 14.192 30.25C13.8745 36.276 13.4215 37 9.9725 37C7.915 37 7.361 37.239 5.8 38.8C4.7335 39.8665 4 41.089 4 41.8C4 42.5335 3.222 43.778 2 45L0 47V75.798V104.595L1.118 106.173C1.733 107.04 2.6735 108.256 3.208 108.875L4.1805 110H50.388H96.5955L98.173 108.894C100.943 106.95 100.967 106.855 100.984 97.936C101.002 88.8165 101.012 88.7815 104.201 87.7505C104.201 87.7505 105.5 87.5 105.5 87C105.5 86.5 105.5 76.5 105.5 76.5C105.5 76.5 105.5 66.5 105.5 66C105.5 65.5 104.201 65.2495 104.201 65.2495C101.012 64.2185 101.001 64.1845 100.989 55.064C100.979 47.5825 100.88 46.625 100 45.5C99.462 44.8125 99.0165 43.6875 99.009 43C98.995 41.6275 97.3395 38.6225 96.0615 37.6495C95.6155 37.31 94.607 37.0245 93.8215 37.016C92.127 36.997 92.1575 36.8685 94.967 32.2445C96.497 29.7255 96.996 28.385 96.984 26.824C96.966 24.4845 96.499 23.73 94 22.0055C93.0375 21.3415 92.1375 20.654 92 20.478C91.8625 20.302 88.2625 17.837 84 15C79.7375 12.163 76.1375 9.6885 76 9.5015C75.8625 9.314 73.0115 7.3325 69.665 5.0975C66.318 2.8625 63.436 0.801 63.2605 0.517C63.0845 0.2325 61.84 0 60.4945 0C58.136 0 57.99 0.0855 56.432 2.375ZM62.3065 3.927C62.8535 4.4365 67.452 7.627 72.5255 11.0165C77.599 14.4065 81.9915 17.4205 82.287 17.715C82.5825 18.009 85.3385 19.912 88.412 21.9435C92.94 24.936 94 25.863 94 26.8315C94 27.506 92.002 31.0155 89.413 34.888C84.8715 41.6825 83.69 43.097 82.7815 42.827C81.8565 42.552 82.0225 41.725 83.2995 40.25C85.5725 37.6235 87.132 34.0405 86.759 32.301C86.576 31.448 86.274 29.4 86.088 27.75C85.6935 24.25 85.354 23.617 83 21.9915C82.0375 21.3265 80.9475 20.489 80.5775 20.13C80.208 19.7705 79.1955 19.1115 78.3275 18.665C76.2445 17.5925 69.517 13.0535 68.25 11.8655C67.454 11.119 66.7905 10.989 65 11.228C63.7625 11.3935 61.4 11.691 59.75 11.8895C58.1 12.0875 56.393 12.475 55.956 12.75C55.5195 13.025 53.7385 15.3875 51.9985 18C50.258 20.6125 48.6815 22.8625 48.4955 23C48.309 23.1375 45.3825 27.4125 41.993 32.5C38.603 37.5875 35.474 42.0235 35.0395 42.358C33.3965 43.6235 32.4765 42.2505 33.925 40.6955C34.4425 40.1405 38.5305 34.188 43.0095 27.468C47.489 20.748 51.307 15.1375 51.494 15C51.681 14.8625 53.26 12.6125 55.003 10C57.819 5.7785 60.21 3.0025 61.0305 3.0005C61.185 3.0005 61.759 3.417 62.3065 3.927ZM67.2935 14.915C67.8335 15.418 71.0825 17.706 74.513 19.9985C82.1165 25.081 82.855 25.871 83.1165 29.2035C83.226 30.604 83.482 32.1115 83.684 32.5535C83.9365 33.104 83.0605 34.8355 80.901 38.0535C77.921 42.495 77.6455 42.7585 75.826 42.908C73.573 43.093 72 41.966 72 40.1665C72 37.9595 68.9765 34.1475 65.93 32.513C63.5275 31.224 62.5685 31 59.4545 31C56.215 31 55.494 31.1845 53.1235 32.621C50.1205 34.4415 47.5035 38.009 47.029 40.9305L46.733 42.75H43.033C39.081 42.75 38.4135 42.3205 39.892 40.7275C40.3905 40.19 41.788 38.2875 42.997 36.5C44.206 34.7125 45.44 33.0015 45.739 32.6975C46.0385 32.394 47.1555 30.654 48.221 28.8315C49.287 27.009 50.528 25.12 50.979 24.634C51.43 24.1475 52.7845 22.2875 53.989 20.5C56.8865 16.2005 57.584 15.6495 60.6515 15.2375C62.0805 15.0455 63.5875 14.6955 64 14.4595C65.185 13.7815 66.2325 13.9265 67.2935 14.915ZM63.99 35.0645C66.952 36.87 69.066 39.5335 68.8975 41.2475L68.75 42.75L59.6135 42.8865C49.5755 43.036 49.2795 42.946 50.4585 40.1C52.648 34.815 59.4365 32.2885 63.99 35.0645ZM12.75 41.5C12.75 42.6415 12.5385 42.7635 10.305 42.905C7.3185 43.095 6.448 42.439 7.761 40.988C8.473 40.201 9.185 39.988 10.724 40.101C12.512 40.2325 12.75 40.397 12.75 41.5ZM94.75 41.5C94.75 42.684 94.5855 42.758 91.625 42.899C88.3595 43.0545 88.0325 42.8075 89.031 40.942C89.4745 40.1135 89.99 39.9745 92.156 40.1C94.5495 40.2385 94.75 40.3465 94.75 41.5ZM96.548 46.775C97.9975 47.5245 98.0415 47.6505 97.898 50.65L97.75 53.75H50.5H3.25L3.102 51.216C2.974 49.028 3.137 48.4995 4.295 47.341L5.6365 46H50.343C89.7415 46 95.2275 46.092 96.548 46.775ZM97.75 61V64.75L88.4755 65C78.5585 65.2675 78.0655 65.389 75.167 68.2875C72.695 70.76 72.0035 72.554 72.0035 76.5C72.0035 80.446 72.695 82.24 75.167 84.7125C78.0655 87.611 78.5585 87.7325 88.4755 88L97.75 88.25V92V95.75L59.0415 96C32.1335 96.174 20.2785 96.4135 20.1545 96.7865C20.056 97.0815 20.391 97.699 20.8985 98.1585C21.7415 98.921 25.1285 99.005 59.786 99.122L97.75 99.25L97.898 101.784C98.026 103.972 97.863 104.5 96.705 105.659L95.3635 107H50.5H5.6365L4.295 105.659C3.137 104.5 2.974 103.972 3.102 101.784L3.25 99.25L8 99C12.6665 98.7545 12.75 98.728 12.75 97.5C12.75 96.272 12.6665 96.2455 8 96L3.25 95.75L3.119 77.002C3.0465 66.6905 3.0965 57.9705 3.229 57.624C3.4215 57.1235 13.093 57.021 50.6105 57.1225L97.75 57.25V61ZM102.75 76.5V84.75L91.8355 84.885C81.479 85.013 80.824 84.965 79.0195 83.951C73.6645 80.941 73.611 72.1725 78.9295 69.0735C80.6545 68.068 81.3285 68.0185 91.75 68.131L102.75 68.25V76.5Z" fill="black"/>
</svg>
