<?xml version="1.0" standalone="no"?>
<!DOCTYPE svg PUBLIC "-//W3C//DTD SVG 1.1//EN" "http://www.w3.org/Graphics/SVG/1.1/DTD/svg11.dtd" >
<svg xmlns="http://www.w3.org/2000/svg" xmlns:xlink="http://www.w3.org/1999/xlink" version="1.1">
<metadata>
Created by FontForge 20170910 at Tue Nov 15 20:17:33 2016
 By Jimmy Wärting
Copyright (c) 2016 by Jakob Fischer / pizzadude.dk. All rights reserved.
</metadata>
<defs>
<font id="CharlatanDEMO" horiz-adv-x="596" >
  <font-face 
    font-family="Charlatan DEMO"
    font-weight="400"
    font-stretch="normal"
    units-per-em="1000"
    panose-1="2 0 5 6 0 0 0 2 0 4"
    ascent="750"
    descent="-250"
    x-height="477"
    cap-height="702"
    bbox="-78.3137 -291 1184 1055.31"
    underline-thickness="50"
    underline-position="-100"
    unicode-range="U+0020-FB02"
  />
<missing-glyph horiz-adv-x="382" 
d="M68 258c-28 4 -27 38 1 40c30 0 60 0 91 1c-25 27 -50 49 -72 62c-17 18 -3 42 21 35c27 -17 59 -46 90 -80v115c5 23 33 25 40 1v-80c22 32 46 62 77 84c24 10 37 -14 23 -33c-20 -14 -33 -34 -48 -54l-33 -46l103 2c24 -7 22 -35 -1 -40l-116 -3c37 -46 71 -94 96 -127
c7 -24 -17 -38 -35 -21c-18 24 -40 57 -66 91v-99c-2 -28 -36 -29 -40 -1v115c-19 -22 -39 -43 -60 -58c-10 -14 -21 -28 -27 -44c-10 -26 -44 -16 -38 11c22 54 64 83 98 126l4 5c-36 -1 -72 -2 -108 -2z" />
    <glyph glyph-name=".notdef" horiz-adv-x="382" 
d="M68 258c-28 4 -27 38 1 40c30 0 60 0 91 1c-25 27 -50 49 -72 62c-17 18 -3 42 21 35c27 -17 59 -46 90 -80v115c5 23 33 25 40 1v-80c22 32 46 62 77 84c24 10 37 -14 23 -33c-20 -14 -33 -34 -48 -54l-33 -46l103 2c24 -7 22 -35 -1 -40l-116 -3c37 -46 71 -94 96 -127
c7 -24 -17 -38 -35 -21c-18 24 -40 57 -66 91v-99c-2 -28 -36 -29 -40 -1v115c-19 -22 -39 -43 -60 -58c-10 -14 -21 -28 -27 -44c-10 -26 -44 -16 -38 11c22 54 64 83 98 126l4 5c-36 -1 -72 -2 -108 -2z" />
    <glyph glyph-name="b" unicode="b" horiz-adv-x="481" 
d="M159 50c-2 -7 1 -14 3 -21c4 -17 4 -16 -11 -21c-16 -5 -34 -7 -50 -12c-4 -2 -9 -3 -13 -6c-8 -6 -16 -5 -23 -2c-14 12 -18 26 -19 43c-2 15 -6 30 -7 45c-2 16 -2 32 -2 48c-1 20 -1 40 -1 59c0 2 -1 3 0 4c4 44 0 87 1 130c1 33 4 65 6 98c1 50 6 101 2 151
c-3 32 -3 64 -3 96c0 7 -2 14 -3 22s3 14 12 14c19 0 37 3 55 8c10 4 14 0 16 -10c4 -20 4 -40 5 -60c1 -22 2 -43 2 -65l3 -90c0 -2 0 -3 1 -6c3 1 5 2 8 3c4 2 8 6 12 7c21 4 42 12 64 14c37 5 74 6 111 3c18 -1 36 -4 53 -11c17 -6 28 -19 36 -34c15 -27 23 -55 29 -84
c6 -30 14 -59 19 -88c7 -39 7 -78 2 -117c-1 -8 -3 -16 -4 -24c-2 -6 -4 -13 -7 -19c-15 -23 -32 -44 -56 -58c-13 -7 -26 -14 -39 -20c-15 -9 -32 -13 -49 -17c-15 -3 -30 -4 -45 -8c-12 -3 -23 -2 -35 1c-26 6 -50 14 -73 27zM360 238h-1c-1 13 -2 26 -3 38
c-1 26 -9 50 -16 74c-4 18 -13 33 -26 46c-11 11 -23 15 -38 13c-8 -1 -16 -2 -24 -2c-22 -1 -44 -1 -65 -8c-13 -4 -26 -9 -39 -14c-9 -4 -13 -11 -13 -21c0 -14 -1 -29 0 -43c0 -6 1 -11 3 -16c3 -9 7 -17 -1 -26c-2 -1 -2 -5 -2 -7c1 -10 2 -20 2 -30c0 -30 9 -58 13 -86
c0 -3 2 -5 2 -8c6 -19 21 -30 33 -44c2 -1 4 -2 5 -3c13 -4 26 -9 39 -8c8 1 16 3 24 5c15 5 31 8 45 15s27 17 40 26c2 1 4 4 5 6c10 12 16 26 17 42v51z" />
    <glyph glyph-name="c" unicode="c" horiz-adv-x="440" 
d="M390 293c-18 4 -48 6 -70 3c-5 5 -7 10 -8 17c-2 9 -3 19 -2 28c2 13 0 39 -7 49c-7 9 -16 15 -28 14c-32 -2 -74 0 -105 -7c-21 -4 -33 -15 -38 -33c-4 -14 -5 -28 -7 -42c0 -3 -6 -60 -7 -64c-3 -20 0 -53 1 -71c1 -17 3 -35 4 -52l3 -9c3 -24 23 -39 43 -47
c19 -8 37 -14 56 -12c19 -1 38 12 55 19c8 3 11 8 13 14c1 3 2 6 3 10c4 23 12 45 10 71c0 10 5 14 15 12c13 -2 25 0 37 2c22 2 24 0 26 -22c1 -26 2 -53 2 -80c0 -18 -5 -33 -12 -50c-5 -10 -15 -16 -24 -22c-5 -3 -11 -8 -17 -11c-10 -4 -18 -9 -27 -12
c-15 -5 -30 -10 -45 -14c-26 -7 -82 -6 -107 3c-10 4 -22 8 -33 11c-16 3 -27 14 -38 25c-5 5 -10 10 -15 16c-4 5 -7 9 -10 16c-9 22 -16 44 -18 68c-1 10 -3 20 -4 30c-4 17 -5 34 -3 52c1 22 5 49 1 72c0 3 -1 6 -1 10c-1 47 -5 95 5 141c1 5 2 10 6 13
c17 19 37 32 61 38c23 6 46 8 69 9c42 1 85 -1 127 -2c12 0 24 -3 36 -5s23 -8 31 -19c9 -16 18 -33 23 -50c4 -14 8 -50 8 -64c-1 -16 -4 -29 -3 -44c0 -3 -4 -7 -6 -11z" />
    <glyph glyph-name="d" unicode="d" horiz-adv-x="584" 
d="M354 36c-1 -2 -4 -5 -5 -9c-5 -12 -15 -20 -23 -30c-2 -2 -5 -5 -8 -6c-19 -6 -38 -12 -58 -12c-13 1 -27 1 -40 0c-18 -1 -36 3 -53 5c-19 1 -37 4 -56 6c-9 1 -18 4 -26 9c-12 9 -23 18 -34 28c-6 5 -11 13 -14 21c-12 25 -14 52 -16 80c-3 36 0 71 2 107
c1 16 1 34 8 49c1 2 1 5 0 7c-1 8 0 16 2 24l15 63c4 12 10 24 14 36c3 9 10 14 18 16c12 4 23 7 35 9c29 5 57 10 87 11c26 1 53 1 79 0c11 0 21 -4 33 -6c3 4 2 11 1 17c0 28 -1 55 -3 82c-1 19 -3 37 -4 56c-1 16 -2 32 -2 48c0 9 2 11 11 12c22 2 43 0 64 4
c9 2 16 -4 25 -8c-1 -13 -1 -25 -2 -38c-1 -28 -2 -57 -2 -85c0 -13 3 -25 3 -38c1 -15 1 -30 4 -45c1 -8 2 -16 0 -24c-2 -13 1 -26 0 -39c-2 -15 -2 -30 -1 -46c3 -70 2 -140 9 -211c2 -13 2 -28 15 -38c7 -2 14 -4 22 -6c13 -2 19 2 20 15c5 32 4 65 -2 97
c-1 3 -1 5 -2 8c0 7 5 14 12 12c20 -4 38 -3 58 1c9 2 12 -1 14 -11c2 -16 5 -31 6 -46c2 -18 2 -37 4 -56c0 -11 1 -22 -1 -33c-3 -26 -16 -46 -38 -60c-16 -10 -34 -13 -50 -20c-2 -1 -5 -1 -8 -1c-23 -1 -45 1 -66 11c-12 5 -22 12 -31 21c-5 5 -10 8 -16 13zM149 86
c2 -1 5 -3 8 -4c9 -5 18 -12 28 -14c27 -5 54 -7 81 -4c12 1 24 4 35 6c14 4 24 13 28 27c4 12 6 24 6 37c-1 18 -3 36 -4 54c-1 16 -4 33 -4 49c-1 24 -1 48 -6 72c-1 10 -2 20 -8 30c-19 30 -48 37 -80 34c-22 -2 -44 -7 -66 -12c-20 -4 -35 -15 -39 -37
c-5 -27 -13 -52 -13 -80c1 -17 -1 -34 0 -51c1 -19 5 -38 9 -57c3 -11 6 -20 12 -29c4 -6 8 -12 13 -21z" />
    <glyph glyph-name="e" unicode="e" horiz-adv-x="465" 
d="M434 225c-12 -1 -22 -2 -31 -2c-34 2 -68 -6 -102 -2c-3 1 -6 1 -9 0c-33 -4 -66 -8 -100 -10c-20 -2 -40 -6 -61 -8c-1 -3 -3 -5 -3 -8c0 -21 1 -42 9 -62c2 -5 3 -9 4 -14c3 -14 9 -26 24 -31c3 -1 6 -3 9 -5c5 -5 11 -7 18 -7c14 -2 29 -5 43 -4c24 1 47 2 70 8
c7 2 14 6 21 11c12 9 17 21 15 36s-4 30 -5 44c0 3 -1 5 0 8c0 5 4 9 9 8c16 -1 32 -3 48 -5c5 0 8 -4 8 -9c-2 -23 6 -45 10 -67c2 -17 1 -34 -3 -50c-1 -5 -4 -10 -7 -14c-19 -23 -42 -36 -72 -38c-40 -4 -81 -3 -121 -4c-25 -1 -48 5 -71 12c-28 8 -52 24 -72 44
c-4 4 -7 8 -10 13c-10 22 -18 45 -21 70c-5 35 -6 70 -6 106c0 12 1 24 4 35c5 24 12 48 17 72c3 19 11 36 21 51c13 21 28 39 53 48c24 9 48 16 73 20c14 2 29 2 44 4h4c19 7 39 4 59 0c6 -1 13 -2 19 -2c13 -1 25 -5 36 -11c25 -14 34 -23 46 -48c7 -14 13 -29 16 -45
c3 -22 9 -43 12 -64s3 -43 5 -64c0 -5 -2 -10 -3 -16zM320 313c1 21 -6 39 -17 55c-6 10 -16 16 -28 16c-16 0 -32 1 -48 1c-9 -1 -18 -3 -26 -7c-7 -4 -13 -8 -20 -9c-29 -8 -42 -29 -50 -55c-2 -5 -2 -10 -2 -15c-1 -4 2 -7 6 -7h9l48 3c14 1 29 2 43 2c4 1 8 2 12 2
c23 -2 45 6 67 10c2 1 3 2 6 4z" />
    <glyph glyph-name="f" unicode="f" horiz-adv-x="380" 
d="M85 375c-6 0 -13 -1 -19 -2c-14 0 -28 -1 -42 0c-6 0 -10 5 -10 11c0 7 0 14 1 22c2 17 3 35 6 53c1 8 5 12 13 12c17 1 33 0 50 -6c6 5 5 12 5 19c0 15 0 30 -1 46c-3 30 1 59 3 89c0 8 3 14 9 20l18 18c10 11 22 22 38 23c4 0 8 2 12 3c21 10 44 14 68 12s49 -2 73 -4
c7 0 13 -2 20 -4c4 -17 4 -34 5 -50c1 -9 1 -18 4 -27c1 -4 1 -8 1 -12c-1 -4 -3 -6 -7 -6c-2 0 -3 0 -4 1c-17 8 -36 8 -55 10c-22 2 -42 -6 -60 -18c-10 -6 -15 -17 -18 -28c-4 -15 -5 -30 -6 -45v-27c5 -1 10 -2 14 -2c22 0 44 1 66 1c25 1 50 -2 75 -4c8 0 15 -2 21 -7
c0 -2 1 -4 1 -6c-4 -20 -3 -40 2 -61c2 -7 -2 -15 -9 -14c-24 3 -48 -3 -72 -4c-9 -1 -18 -1 -27 -1c-8 0 -15 0 -22 -1c-16 -1 -31 -2 -47 -4c-1 -7 -2 -13 -2 -20c0 -24 -1 -47 1 -71c0 -9 -4 -17 -1 -25c2 -8 1 -16 1 -24c0 -9 0 -17 1 -26c0 -3 -1 -7 0 -10
c5 -33 4 -66 8 -99c3 -25 6 -51 9 -76c1 -12 2 -25 3 -37c1 -7 3 -14 5 -22c1 -7 -2 -12 -9 -12c-14 0 -27 0 -40 -4c-7 -2 -14 -4 -21 -7c-6 -1 -11 0 -14 5c-3 9 -6 18 -9 26c-3 9 -4 17 -6 25l-6 30c-2 18 -3 37 -5 55c-3 25 -6 49 -7 74c-2 21 -2 42 -3 64
c-2 45 -5 91 -7 137c0 3 -2 6 -4 10z" />
    <glyph glyph-name="g" unicode="g" horiz-adv-x="485" 
d="M336 -70c16 14 18 31 16 49c-2 25 -2 51 -8 75l-3 6c-8 -4 -15 -8 -21 -14c-20 -20 -44 -27 -71 -29c-21 -2 -44 -2 -65 0c-14 0 -28 4 -42 7c-12 2 -24 5 -37 6c-13 2 -26 6 -38 10c-16 6 -27 17 -32 34s-12 33 -14 52c0 11 -1 22 -1 33c0 44 0 88 1 132c1 24 3 48 6 71
c4 35 13 68 28 100c7 14 17 23 32 27c6 2 12 5 18 7c3 1 7 2 10 3c15 3 31 5 47 8c30 6 59 2 89 -3c12 -2 25 -4 39 -5c19 -2 39 -6 57 -14c3 -1 5 -2 8 -3c3 26 -3 51 5 75c1 4 3 8 4 13c4 1 7 2 10 2c12 -2 23 -1 34 2c12 4 16 0 16 -12c2 -40 8 -80 15 -119
c6 -35 7 -71 8 -107c1 -27 1 -53 3 -80c2 -19 1 -38 1 -58c-2 -26 -1 -53 -1 -79c0 -33 -1 -66 -4 -99c-3 -24 -6 -47 -10 -70c-4 -22 -13 -43 -24 -63c-8 -13 -18 -24 -35 -28c-9 -2 -17 -6 -26 -9c-26 -9 -53 -14 -79 -18c-35 -5 -69 -1 -104 3c-13 2 -19 11 -22 23
c-6 20 -11 41 -15 62c-3 16 -6 33 -8 49c-1 6 4 10 10 10h2c22 0 43 1 65 4c7 1 12 -3 12 -10c-2 -16 8 -29 9 -44c5 -6 10 -12 16 -17c6 -6 14 -7 22 -7c21 1 41 6 59 17c6 3 12 5 18 8zM253 110c17 -1 38 4 52 6c12 1 18 8 21 18c4 19 10 36 13 55c4 25 7 50 2 75
c-3 16 -4 32 -4 48c-1 26 -9 51 -15 76c-4 15 -13 24 -28 28c-17 5 -34 7 -51 7c-14 0 -27 -3 -40 -2c-22 0 -40 -8 -59 -16c-8 -3 -13 -8 -15 -15c-5 -14 -10 -28 -13 -42c-4 -22 -9 -43 -9 -65c-1 -26 -5 -51 2 -77c3 -15 5 -30 7 -45c2 -19 14 -30 30 -37
c5 -2 11 -4 17 -5c16 -4 32 -7 49 -10c12 -2 31 4 41 1z" />
    <glyph glyph-name="h" unicode="h" horiz-adv-x="404" 
d="M152 -15c-7 0 -14 -1 -22 0c-14 0 -28 -2 -41 -5c-11 -3 -21 -5 -31 -7c-6 -1 -11 1 -13 7c-1 4 -2 9 -2 14c0 33 -1 67 -2 101c-1 49 -3 97 -5 146c0 7 -1 14 0 22c3 25 2 50 2 75c0 28 0 56 1 84c0 24 1 48 2 72c2 41 3 82 6 123c2 28 4 56 11 83c1 4 3 9 5 13
s6 6 12 5c16 -6 33 -7 51 -7c3 0 6 -1 10 -2c1 -3 2 -6 2 -8c-4 -15 3 -31 -3 -45c3 -9 2 -17 2 -26c1 -36 1 -73 2 -110c0 -6 0 -13 5 -19h25c25 -1 50 -6 75 -11c15 -3 31 -7 46 -12c6 -1 12 -5 18 -8c8 -4 16 -10 24 -14c15 -6 22 -19 28 -32c4 -8 7 -17 11 -26
c1 -2 2 -5 2 -7c5 -26 10 -52 14 -79c2 -19 3 -38 4 -57v-54c1 -26 0 -52 -1 -78c-1 -17 -3 -35 -4 -53c-1 -19 -5 -37 -8 -55c-4 -1 -8 -3 -11 -3c-18 -1 -35 -3 -53 -6c-9 -2 -14 3 -13 12c1 15 3 29 4 44c1 34 1 69 2 103c0 23 2 46 2 68c0 25 0 51 -4 76
c-4 24 -12 47 -20 70c-7 20 -22 29 -43 29c-28 -1 -54 -8 -80 -16c-16 -5 -22 -16 -21 -30c1 -24 0 -48 0 -72c0 -3 0 -7 -2 -10c-5 -8 -5 -18 -5 -27c-1 -17 0 -34 -1 -51c-1 -57 6 -113 16 -169c2 -11 5 -22 7 -33c1 -5 1 -5 -4 -15z" />
    <glyph glyph-name="i" unicode="i" horiz-adv-x="170" 
d="M30 -3c-1 2 -2 4 -2 6c2 17 -2 35 1 53v6c-2 40 1 80 -1 119c-1 33 -1 67 -1 100v60c1 27 2 55 2 83c0 4 1 8 1 12c1 9 10 18 18 19c2 1 4 1 6 0c4 -1 6 -6 12 -6c14 1 27 -4 41 0c2 1 4 1 6 1c15 2 19 -3 16 -18c-2 -8 -7 -15 -5 -25c1 -7 -1 -15 -1 -23
c-1 -27 -1 -53 -4 -80c-2 -26 -1 -53 -2 -79c-1 -35 1 -69 3 -104c0 -20 0 -40 1 -59c1 -11 2 -22 3 -32c0 -6 1 -11 1 -16c-1 -10 -6 -14 -16 -15h-38c-11 0 -22 1 -33 -3c-2 -1 -5 0 -8 1zM147 620c0 -16 -2 -32 3 -48c1 -5 -2 -9 -8 -9c-10 0 -21 1 -31 1
c-13 1 -25 3 -38 4c-19 1 -20 2 -19 21c1 13 3 25 4 38c1 10 2 21 3 31v6c2 7 7 12 13 8c14 -9 30 -5 44 -6c4 0 8 1 12 0c16 -2 17 -4 17 -20v-26z" />
    <glyph glyph-name="j" unicode="j" horiz-adv-x="177" 
d="M38 468c8 9 16 11 25 10c11 -1 21 2 31 3c16 2 32 3 47 5c5 -7 4 -13 4 -19c-1 -30 -2 -61 2 -91c1 -6 1 -11 1 -16v-92l-3 -48c0 -6 -1 -13 0 -20c2 -52 -7 -103 -6 -155c0 -16 -1 -32 -1 -48c1 -36 -2 -73 -9 -109c-3 -13 -9 -26 -14 -39c-2 -6 -7 -12 -12 -16
c-16 -13 -33 -24 -55 -26c-28 -3 -55 -2 -83 5c-9 3 -18 4 -28 7c-1 3 -3 7 -2 11c3 24 1 47 -5 71c-2 7 3 13 11 13c3 0 6 -1 9 -2c9 -3 19 -4 27 -8c14 -5 27 -2 39 2c13 6 23 15 25 29c5 22 9 44 5 67c-3 14 -2 28 -3 42c-1 7 -1 14 -2 22v12c3 20 3 40 2 61
c-1 15 -1 30 -1 46v95v96c0 27 0 55 -1 83c0 3 -2 6 -3 9zM143 673v-55v-14c0 -12 -7 -21 -18 -22c-19 0 -38 -6 -58 -4c-8 0 -17 0 -26 5c-1 4 -2 9 -1 13c1 15 1 30 4 45c3 11 4 23 6 35c3 1 7 2 11 2l51 -3c7 -1 13 0 20 0c3 0 6 -1 11 -2z" />
    <glyph glyph-name="k" unicode="k" horiz-adv-x="409" 
d="M127 204l5 5c3 4 5 8 8 12c17 32 34 63 49 96c6 14 15 28 23 42c19 32 39 65 53 100c1 2 3 4 5 7c9 0 17 -1 26 0l51 3h10c4 0 9 -5 9 -9c0 -3 -1 -6 -2 -8c-6 -13 -11 -27 -18 -40c-9 -19 -21 -37 -31 -55c-11 -20 -21 -40 -32 -60c-8 -14 -15 -28 -21 -43
c-3 -11 -10 -19 -18 -27l-45 -45c-1 -2 -3 -4 -5 -5c5 -4 9 -7 13 -9c5 -3 9 -7 14 -8c18 -5 34 -15 51 -23c10 -5 18 -11 28 -16c14 -9 29 -17 44 -26c5 -3 9 -6 13 -10c13 -12 27 -24 40 -36c2 -2 3 -4 5 -6c3 -5 0 -11 -5 -12c-3 -1 -6 -1 -8 -1c-9 1 -17 -2 -26 -5
c-16 -6 -32 -11 -49 -16c-5 -2 -9 -1 -13 1c-6 4 -12 8 -19 12c-28 19 -58 36 -90 51c-13 7 -26 14 -38 21c-8 5 -15 8 -25 11v-27c0 -12 1 -25 2 -38c1 -7 3 -15 4 -23c1 -10 -4 -17 -14 -14c-16 3 -32 2 -47 3c-7 0 -14 -1 -20 -1c-8 1 -11 4 -12 11c-4 49 -7 98 -8 148
c0 18 3 35 4 53c1 19 1 38 1 56c2 53 3 105 5 158c0 24 -1 49 0 74c1 23 3 47 3 71c0 35 5 69 1 104c-1 7 3 10 11 11c2 0 4 -1 6 0c10 8 22 6 34 6c9 0 17 1 26 0c8 0 14 -7 11 -13c-10 -19 -5 -39 -7 -59c-3 -29 -1 -58 1 -87c2 -19 1 -37 1 -56c0 -26 1 -52 -1 -78
c-4 -52 -1 -104 -4 -155c0 -12 -1 -24 -1 -36c0 -2 1 -5 2 -9z" />
    <glyph glyph-name="l" unicode="l" horiz-adv-x="234" 
d="M148 697c0 -5 2 -9 1 -14c-1 -21 -2 -42 -5 -63c-1 -6 0 -12 0 -18c1 -14 1 -29 1 -44c1 -39 1 -78 -4 -117c-2 -23 -2 -46 -5 -69c-4 -28 -3 -56 -4 -84c0 -6 0 -12 1 -18c1 -22 -1 -45 -2 -67c-1 -34 2 -67 11 -99c6 -20 21 -29 41 -25c7 2 14 4 21 5c9 2 16 -3 14 -11
c-4 -15 -2 -30 -4 -46c-1 -11 0 -23 3 -35c3 -10 0 -12 -10 -16c-19 -6 -37 -10 -57 -10c-24 -1 -46 5 -67 14c-16 7 -28 19 -33 36c-4 11 -7 23 -10 34c-9 41 -10 82 -10 123c5 17 3 35 4 53l3 75c1 21 1 42 4 63c1 12 -1 23 0 34l3 36c1 11 1 22 1 33c1 20 1 40 2 60
c0 37 1 73 2 110v34c0 4 2 9 3 13c2 5 7 7 12 7c24 -4 47 4 71 6h13z" />
    <glyph glyph-name="m" unicode="m" horiz-adv-x="712" 
d="M52 498h14c18 -1 36 0 53 6c11 4 17 -3 14 -14c-4 -14 -2 -28 0 -43c7 -2 12 0 16 4c5 6 13 8 21 10c16 4 32 12 50 8c19 3 36 -3 54 -8c22 -5 37 -18 42 -40c3 -12 6 -25 9 -37c0 -2 1 -3 2 -5c4 0 4 3 5 5c7 15 14 31 22 45c9 15 21 25 38 30c27 8 54 12 82 11
c10 -1 20 0 30 -1c39 -1 76 -12 114 -24c14 -5 22 -15 27 -30c6 -21 11 -42 15 -63c6 -28 8 -56 9 -83c1 -31 4 -61 7 -92c2 -30 4 -59 6 -89c1 -7 3 -13 5 -20c2 -9 -6 -16 -14 -13c-29 8 -59 11 -88 16c-1 0 -2 1 -5 2c0 4 -1 8 -1 13c-1 13 -1 26 -2 40
c-1 19 -1 38 -2 57c-1 34 -4 68 -10 102c-2 10 -3 21 -5 31c-6 29 -23 50 -48 65c-6 4 -13 6 -21 6c-29 -1 -57 -7 -80 -25c-4 -3 -7 -6 -9 -10c-3 -8 -6 -17 -7 -25c-5 -21 -5 -42 -4 -64c1 -30 3 -59 4 -89c0 -27 4 -53 6 -80c1 -13 1 -27 1 -41c0 -16 -2 -33 -1 -49
c1 -2 0 -4 -1 -6c-1 -5 -5 -8 -10 -7c-26 4 -52 4 -77 -1c-6 -1 -12 -3 -19 1c-4 6 -3 14 -2 21c3 13 2 26 1 39c0 31 -1 62 -2 92c0 25 1 49 -1 74c-3 41 -5 82 -15 123c-2 7 -5 13 -8 20c-2 6 -7 11 -14 13c-12 6 -24 9 -37 8c-17 -2 -34 -5 -50 -12c-7 -3 -14 -6 -20 -9
c-16 -9 -27 -20 -28 -40c-1 -31 2 -61 4 -92c2 -20 3 -41 5 -61c3 -41 6 -81 15 -121c0 -3 1 -7 1 -10c1 -5 -3 -10 -8 -10c-20 1 -40 -7 -61 -1c-9 2 -17 2 -24 -5c-2 -2 -7 -2 -9 -1c-3 3 -5 7 -5 10c1 11 2 22 3 32c0 9 -2 19 -2 28c-1 42 -2 85 -2 128c0 34 1 67 2 101
c1 40 2 79 3 118c1 21 4 41 12 62z" />
    <glyph glyph-name="n" unicode="n" horiz-adv-x="476" 
d="M142 -26c-7 -8 -17 -6 -25 -6c-18 2 -37 0 -55 -2c-5 -1 -10 0 -16 1c-1 3 -2 6 -2 8c-1 28 -1 56 -4 84c-4 34 -4 69 -4 103c1 18 3 35 3 52c0 10 -1 21 -1 31v42c0 9 -1 18 -1 28c2 43 5 86 7 129v32s12 22 22 21c21 -3 42 -6 64 -9c6 -14 -4 -30 3 -46c2 1 6 2 8 3
c21 13 45 19 68 28c8 2 16 2 24 2c26 0 52 -1 78 -2c9 -1 17 -4 27 -6s20 -5 30 -10c23 -11 38 -29 44 -53c8 -29 14 -58 16 -88c2 -26 6 -52 8 -78c3 -40 5 -81 7 -121c1 -18 3 -36 4 -54c1 -16 2 -33 2 -50c0 -9 -3 -12 -12 -11c-16 1 -31 3 -46 5c-11 1 -21 3 -33 5
c-1 3 -4 7 -4 11c2 26 -1 52 1 78c0 10 -3 21 -4 32c-1 13 -2 27 -3 41c-2 25 -3 49 -5 74c-2 21 -4 42 -8 63c-3 19 -8 38 -18 55c-3 4 -6 8 -10 13c-5 7 -12 10 -22 12c-33 3 -66 0 -98 -11c-7 -2 -14 -4 -21 -7c-17 -6 -29 -18 -34 -36c-3 -14 -3 -29 -3 -43
c-1 -29 2 -58 3 -87c2 -42 3 -84 4 -126l3 -48c1 -20 2 -39 3 -59z" />
    <glyph glyph-name="o" unicode="o" horiz-adv-x="581" 
d="M370 7c-59 0 -117 -1 -176 -1c-13 0 -26 2 -39 2c-10 1 -19 2 -28 2c-25 0 -47 9 -67 23c-15 10 -21 25 -23 42c-1 13 -2 25 -4 38c-1 12 -3 24 -2 35c3 29 0 58 5 86c4 21 5 42 9 63c4 26 10 52 21 76c1 5 2 9 4 14c1 3 1 7 3 9c8 12 13 26 20 38c6 10 13 17 23 21
c11 4 20 11 32 11c2 0 5 2 7 3c4 1 7 4 11 4c23 0 44 6 67 6c19 -1 37 2 56 3c4 0 7 1 10 5c4 6 10 7 17 6c15 -2 29 -1 43 0s29 -3 43 -5c16 -3 30 -9 45 -16c11 -6 23 -11 36 -14c6 -2 11 -5 16 -9c21 -20 36 -42 38 -72c0 -6 3 -12 4 -17c2 -6 4 -12 4 -18
c2 -14 5 -29 4 -43c-2 -32 -5 -65 -8 -97c-2 -19 -3 -37 -4 -56c-1 -29 -8 -56 -20 -83c-11 -27 -33 -40 -61 -46l-27 -6c-17 -4 -34 -6 -51 -4c-3 0 -6 1 -8 1v-1zM449 240c1 26 -1 52 -5 78c-3 17 -9 33 -19 48c-6 8 -13 16 -23 19c-13 4 -26 9 -40 10c-3 0 -7 1 -9 -1
c-5 -6 -11 -5 -17 -4c-17 4 -34 5 -52 4c-24 -2 -49 -4 -73 -4c-26 0 -42 -11 -50 -35c-6 -19 -16 -37 -19 -56c-6 -32 -10 -64 -10 -96c0 -6 1 -12 1 -18c-1 -18 1 -37 5 -55c5 -20 20 -32 39 -36c18 -3 35 -7 54 -5c3 1 6 1 9 0c37 -5 73 -2 109 5c22 5 43 9 63 19
c8 4 13 9 17 16c7 12 10 26 12 40c3 23 5 47 8 71z" />
    <glyph glyph-name="p" unicode="p" horiz-adv-x="474" 
d="M54 533c5 1 7 2 10 2c20 -2 39 -3 59 -5c7 -1 11 -4 11 -12c0 -6 -1 -12 -1 -18c0 -3 3 -6 4 -10c7 3 12 5 17 8c26 15 55 21 84 22c13 0 26 -1 39 -2c20 -1 40 -2 60 -5c22 -3 44 -5 64 -14c3 -2 7 -2 8 -5c6 -7 13 -11 18 -18c9 -14 15 -30 18 -46c4 -30 8 -59 7 -89
c8 -30 5 -60 7 -90s3 -60 0 -91c-2 -29 -6 -58 -10 -87c-2 -17 -10 -30 -24 -40c-11 -7 -22 -14 -34 -21c-8 -5 -17 -6 -26 -7c-10 -1 -20 -3 -30 -6c-32 -10 -65 -18 -98 -24c-8 -1 -15 -1 -22 -2c-8 0 -17 1 -24 -1c-20 -6 -35 3 -50 13c-4 2 -8 5 -11 7
c-6 -3 -4 -7 -4 -10c4 -22 1 -44 2 -66c1 -23 2 -46 3 -70c0 -12 1 -25 2 -37c2 -14 4 -27 5 -40c1 -6 -2 -10 -8 -11h-68c-11 0 -13 2 -14 12c-2 33 -5 65 -6 98c-2 26 -2 53 -3 80c-1 8 -1 16 -1 24c1 26 0 53 -1 79c-2 30 0 60 0 90c-1 29 -1 58 0 87c1 17 2 33 3 50
c3 21 2 42 3 64c0 14 1 27 1 41c1 27 2 53 1 80c0 24 5 46 9 70zM350 234h1l-3 114c-1 17 -4 34 -9 51c-4 12 -11 20 -22 24c-7 3 -14 5 -21 7c-17 4 -34 3 -51 4c-30 1 -57 -7 -83 -20c-10 -6 -18 -13 -20 -26c-5 -29 -10 -58 -9 -87c1 -7 0 -13 -4 -19c-2 -4 -3 -9 -3 -13
c-1 -18 -1 -35 -1 -52c0 -20 2 -40 1 -60c-1 -19 2 -37 14 -53c2 -2 3 -5 5 -8c6 -12 17 -21 27 -29c15 -12 33 -16 52 -17c25 -2 50 -3 75 7h4c7 3 15 4 22 8c6 3 13 9 15 15c4 13 7 27 9 41c2 24 3 47 1 71c-1 14 0 28 0 42z" />
    <glyph glyph-name="q" unicode="q" horiz-adv-x="453" 
d="M331 11l-18 -18c-15 -14 -33 -22 -54 -18c-9 1 -18 2 -26 3c-47 4 -93 8 -139 15c-29 5 -50 20 -66 45c-1 2 -3 5 -4 8c-3 21 -10 42 -9 64c1 13 2 27 1 41c-1 26 4 51 5 76c2 32 8 63 11 95c3 27 11 53 22 78c6 15 16 26 29 34c14 8 30 14 45 21c13 -1 23 7 35 10
c7 2 15 2 22 3c18 2 35 6 53 8c30 3 59 1 89 -5c11 -2 22 -4 32 -9c12 -8 22 -17 25 -32c4 -17 10 -33 13 -50c2 -10 2 -21 2 -32c0 -22 3 -45 5 -67c2 -27 5 -53 7 -80c2 -29 3 -58 4 -87c1 -19 1 -37 1 -56c1 -40 2 -81 3 -121c1 -8 2 -16 4 -24c4 -21 18 -32 38 -35
c10 -1 20 0 30 0c20 -1 22 5 26 -20c3 -18 3 -36 10 -53c3 -6 -1 -11 -8 -13c-12 -4 -24 -9 -36 -12c-14 -4 -27 -6 -42 -4c-9 2 -19 4 -29 5c-28 3 -46 20 -57 44c-6 13 -11 27 -15 41c-3 8 -4 16 -4 24c-3 35 -3 71 -3 107c0 3 -1 7 -2 14zM335 215c-1 24 3 49 -7 73
c-3 7 -1 15 -1 23c-2 17 -2 34 -5 50c-3 25 -16 35 -41 36c-33 2 -65 -3 -97 -10c-20 -4 -37 -14 -51 -29c-15 -16 -19 -36 -26 -56c1 -14 -5 -28 -5 -43c0 -14 -1 -29 -2 -43c0 -7 -1 -14 0 -20c1 -23 3 -45 6 -68c3 -19 11 -37 30 -46c14 -6 28 -12 44 -12
c34 -2 69 -5 103 -4c12 1 23 5 28 17c16 36 25 74 24 114v18z" />
    <glyph glyph-name="r" unicode="r" horiz-adv-x="447" 
d="M318 259c-3 13 -1 27 -2 40c-2 25 -2 51 -5 77c-1 13 -4 26 -9 39c-4 7 -8 10 -15 11c-21 2 -43 2 -64 -2c-10 -2 -21 -4 -31 -7c-6 -2 -12 -5 -18 -7c-11 -5 -22 -9 -33 -14c-21 -9 -29 -26 -31 -47c-1 -15 1 -31 2 -46v-6c2 -35 3 -70 6 -105c2 -21 3 -41 6 -61
c4 -24 4 -48 6 -72c2 -13 3 -26 4 -39c1 -7 1 -7 -4 -19c-29 -3 -60 1 -91 0c-1 5 -2 9 -3 12c-2 41 -5 81 -7 121c-1 18 0 35 0 52c-1 5 -1 11 -1 16v24c0 10 1 21 0 32c-1 43 1 87 0 131c0 43 3 85 4 128c10 3 20 7 29 7c12 0 22 3 33 7c2 1 5 1 7 1c5 -6 4 -13 3 -19
c-1 -12 1 -24 3 -35c1 -2 3 -3 5 -4c1 2 2 3 3 5c1 6 2 11 7 15c7 6 13 13 23 15c18 4 35 9 54 8c5 -1 9 0 14 1c9 2 17 4 26 0c2 -1 6 -1 9 0c26 4 50 -1 74 -9c10 -3 18 -8 28 -9c5 0 10 -5 14 -8c9 -7 19 -15 27 -23c3 -2 5 -6 6 -10c6 -16 8 -32 8 -48
c0 -12 2 -23 3 -34c0 -32 2 -64 5 -95v-2c1 -21 -3 -23 -23 -20c-16 2 -32 2 -47 -1c-8 -2 -16 -3 -25 0z" />
    <glyph glyph-name="s" unicode="s" horiz-adv-x="448" 
d="M101 132h45c10 0 19 1 27 5c9 3 14 0 13 -9c-3 -17 1 -34 6 -51c6 -20 18 -28 39 -25c11 2 22 6 33 8c10 3 19 8 29 11s18 10 27 17s13 17 13 29c0 22 -2 43 -10 63c-4 10 -11 15 -21 15c-12 0 -23 0 -34 -1c-22 -3 -45 -8 -67 -11c-37 -4 -74 -9 -111 -8
c-6 0 -12 2 -18 2c-15 2 -24 12 -28 25c-5 15 -9 31 -11 46c-5 36 -6 72 -6 108c0 17 -1 34 -1 52c0 22 3 43 8 65c2 10 7 18 15 24c16 12 32 22 52 24c8 1 17 4 25 7c18 6 37 8 57 7c24 -2 48 3 71 1c13 4 26 3 38 2c16 -1 32 -3 47 -5c10 -2 20 -4 28 -11c2 -1 4 -3 7 -3
c16 -2 22 -14 26 -27c4 -8 7 -17 8 -26c2 -19 3 -38 4 -56c0 -10 1 -20 1 -30c0 -7 1 -13 -3 -19c-2 -1 -3 -2 -4 -2c-22 1 -42 -3 -63 -7c-7 -1 -12 2 -13 9c-1 3 -1 7 -1 10c1 18 -5 34 -9 51c-2 9 -7 16 -16 19c-7 3 -14 7 -22 9c-17 4 -34 7 -51 9c-16 1 -33 1 -50 1
c-8 0 -16 -1 -24 -1s-15 -2 -23 -8c-7 -37 -16 -75 -16 -115c1 -16 0 -32 4 -47c3 -12 9 -22 20 -29c2 -1 4 -3 7 -6c16 1 34 3 51 3c7 0 13 3 19 4c13 3 26 5 39 8c5 0 10 0 14 2c20 9 43 8 64 9s39 -7 56 -19c12 -8 18 -21 20 -35c2 -21 4 -43 4 -64c-1 -24 -5 -47 -7 -71
c-1 -12 -3 -24 -6 -35c-3 -13 -9 -24 -15 -35c-5 -9 -12 -15 -22 -18c-17 -6 -34 -8 -51 -11c-11 -2 -22 -4 -33 -5c-27 -4 -53 -7 -80 -4c-14 1 -28 0 -42 1c-18 1 -34 6 -45 21c-2 4 -4 7 -5 11c-6 20 -11 40 -13 60l-6 39c-1 8 2 12 10 17z" />
    <glyph glyph-name="t" unicode="t" horiz-adv-x="450" 
d="M400 272c1 -6 3 -12 4 -18c2 -16 5 -33 3 -49c0 -4 0 -7 1 -10c3 -27 3 -53 4 -80v-22c-1 -20 -10 -35 -26 -47c-5 -3 -10 -7 -15 -10c-8 -6 -16 -11 -26 -14c-7 -1 -14 -5 -20 -9c-8 -6 -17 -7 -26 -8c-19 -2 -39 -3 -58 -5c-11 -1 -23 0 -33 4c-20 8 -41 12 -62 15
c-19 3 -30 15 -36 30s-9 31 -13 46c-2 6 -3 12 -5 18c-7 17 -8 35 -8 53c-1 11 -1 22 -6 33c-1 3 -1 6 -1 9c-2 34 -3 67 -5 100c-1 23 -2 47 -2 70c0 12 2 24 3 36c0 5 1 10 -3 14c-17 2 -33 3 -50 4c-1 5 -3 9 -3 12c1 15 2 31 4 46c0 3 1 6 2 9c4 10 9 13 19 13
c6 0 13 -1 19 -2h10c1 3 1 6 1 8c0 34 1 67 0 100c-1 27 -3 53 -5 80c-1 9 3 15 12 13c11 -3 22 -1 33 0c10 1 19 0 28 -1c5 0 8 -3 8 -8c1 -4 2 -9 1 -13c0 -12 -2 -24 -3 -36c0 -8 -3 -16 1 -23c1 -2 1 -4 1 -6c-3 -29 1 -58 1 -88c0 -9 2 -19 3 -29c2 0 3 -2 4 -1
c34 1 69 -2 103 -6c16 -2 33 -3 49 -4c10 0 20 0 29 -5c3 -1 6 0 8 0h41c1 -3 3 -6 3 -9c-1 -17 0 -33 3 -50v-2c0 -9 -7 -15 -16 -13c-22 5 -44 9 -67 8c-6 0 -13 2 -19 3c-26 4 -52 3 -78 4c-13 0 -27 1 -40 2c-6 1 -12 2 -18 -3c-3 -7 -2 -15 -1 -23c3 -16 2 -33 3 -49
c1 -27 2 -55 3 -82c0 -8 -3 -16 1 -25c-7 -8 1 -15 0 -23c0 -8 0 -17 1 -26c0 -8 2 -17 3 -25c1 -9 2 -17 3 -26c1 -7 1 -15 2 -22c2 -10 5 -20 12 -29c6 -6 12 -11 20 -13c15 -3 31 -6 46 -10c1 0 2 -1 2 0c15 6 32 5 45 15c7 5 12 11 14 19c2 10 4 20 4 30
c1 29 2 58 -2 87c-2 11 -2 22 -2 32c0 7 5 11 12 10c14 -4 27 -3 41 -1c13 1 25 1 39 2z" />
    <glyph glyph-name="u" unicode="u" horiz-adv-x="647" 
d="M429 63c-9 -11 -15 -22 -26 -30c-6 -6 -13 -11 -22 -14c-19 -7 -39 -11 -60 -12c-20 0 -40 -3 -59 -5c-9 -1 -17 -1 -26 0c-22 4 -44 7 -66 6c-5 0 -11 2 -17 3c-14 5 -28 7 -43 9c-17 1 -31 9 -41 24c-14 22 -20 46 -21 72c-1 21 -3 42 -4 64c-1 26 -2 51 -3 77
c-1 42 -1 84 -4 126c-1 26 -1 52 -2 77c-1 11 6 17 16 14c7 -2 13 -2 20 -2c21 2 42 4 63 5c9 1 13 -3 13 -11c-2 -31 -4 -61 -5 -92c-2 -30 0 -59 2 -89c2 -18 2 -37 1 -56c-1 -29 3 -58 4 -87c1 -9 5 -17 8 -25c25 -17 52 -26 81 -30c28 -5 54 -1 81 6c9 3 19 4 29 7
c11 2 18 8 21 19c6 19 11 38 13 58c2 35 4 69 5 104c0 22 -2 44 -3 65c-1 22 -1 43 -2 64c0 11 -1 22 -1 32c0 4 1 8 2 12c13 4 25 5 38 6c17 0 33 -3 50 2c2 1 5 0 7 -1c5 -1 7 -5 7 -9c-6 -42 -5 -84 -8 -125c-1 -14 -1 -27 0 -40c1 -26 1 -52 2 -78c0 -16 1 -32 3 -47
c1 -10 3 -18 7 -27c6 -12 15 -17 28 -20c21 -4 30 7 29 24c0 12 0 23 -3 34c-5 16 -2 18 14 19c12 1 24 3 37 6c14 3 19 0 22 -15c2 -6 3 -13 4 -19c4 -32 7 -64 6 -96c-1 -7 -3 -12 -6 -18c-11 -20 -29 -31 -49 -39c-24 -9 -48 -10 -73 -9c-8 1 -17 1 -25 1
c-17 1 -26 7 -31 23c-3 9 -6 19 -9 28c-1 3 -2 5 -4 9z" />
    <glyph glyph-name="v" unicode="v" horiz-adv-x="556" 
d="M282 125c18 28 29 55 41 81c11 23 20 47 29 70c1 2 2 5 3 7c10 17 20 35 31 51c4 6 8 12 9 20c1 7 5 15 8 22c17 34 34 67 52 101c3 6 6 11 10 18h69c4 -5 3 -11 1 -17c-13 -32 -16 -67 -28 -99c-11 -31 -22 -63 -38 -92c-11 -21 -18 -43 -29 -63
c-12 -23 -19 -48 -28 -73c-4 -12 -6 -25 -11 -38c-9 -26 -19 -52 -28 -79c-3 -8 -5 -16 -7 -24c-4 -12 -7 -14 -19 -15c-29 -3 -58 -5 -87 -8h-9c-7 12 -14 25 -21 38s-14 27 -21 40c-6 11 -11 23 -17 34c-20 39 -39 79 -59 118c-27 55 -53 111 -75 169
c-10 25 -22 50 -34 74c-3 6 -7 12 -10 18c3 10 12 14 22 13c22 -5 43 1 63 8h6c2 -5 5 -10 7 -15c6 -17 14 -33 25 -48c3 -3 6 -7 7 -11c12 -26 26 -50 36 -76c7 -17 17 -33 25 -49l3 -6c8 -27 20 -51 31 -77c5 -9 6 -20 10 -30s11 -18 16 -28s10 -21 17 -34z" />
    <glyph glyph-name="w" unicode="w" horiz-adv-x="717" 
d="M394 280c5 -9 4 -16 4 -23c-2 -28 2 -55 2 -83c0 -3 0 -6 1 -8c5 -29 10 -33 37 -42c21 -7 42 -10 63 -9c14 1 28 4 41 8c16 5 26 15 29 32c6 36 8 72 8 108c0 30 -1 61 -3 91c-1 10 -1 19 -1 28c0 36 -5 71 -13 105c-1 2 -2 4 -2 6c-1 5 4 11 9 9c13 -4 25 -2 38 -3
c13 0 25 1 38 1c14 0 18 -3 18 -17c2 -22 4 -44 6 -65c3 -29 7 -57 9 -86s0 -58 1 -87c0 -12 2 -23 3 -34c1 -15 1 -31 -1 -46s-5 -30 -7 -45c-3 -30 -16 -56 -38 -76c-8 -7 -18 -10 -27 -14c-14 -7 -29 -12 -44 -18c-6 -2 -13 -4 -19 -4c-20 0 -39 -3 -58 -6
c-27 -3 -51 4 -76 14c-2 0 -3 1 -5 3c-14 13 -30 26 -37 46c-4 9 -9 17 -13 25c-5 1 -5 -2 -5 -4c-1 -8 -1 -15 -2 -22c0 -3 1 -5 1 -8c0 -25 -2 -31 -27 -40c-13 -4 -27 -4 -41 -5c-11 -1 -21 0 -32 0c-19 -1 -38 4 -57 6s-39 5 -58 7c-14 1 -27 4 -39 13
c-5 3 -11 7 -17 10c-12 6 -18 16 -21 28c-3 14 -5 28 -8 43c-10 50 -13 101 -14 153c-1 31 -2 63 -3 95c0 15 2 31 3 46c1 17 1 35 2 52v22c5 3 9 6 14 8c5 3 10 3 15 1c12 -5 25 -5 38 -5c14 0 29 -1 44 -2c1 -4 2 -8 1 -12c-6 -28 -4 -57 -7 -85c-1 -2 -1 -4 0 -6
c4 -40 0 -81 -1 -121c0 -30 0 -60 -1 -90c0 -6 1 -12 3 -17c6 -17 15 -30 33 -35l42 -12c10 -4 21 -3 32 -1c8 1 12 5 15 13c5 13 8 27 10 41c3 16 7 32 6 49c0 7 -1 13 -1 20c-1 13 -3 26 -4 40c0 7 6 13 13 11c28 -6 57 -3 85 -3c6 -1 12 0 18 0z" />
    <glyph glyph-name="x" unicode="x" horiz-adv-x="524" 
d="M313 290c11 -12 21 -23 30 -33c5 -5 10 -11 14 -17c9 -11 17 -22 25 -33c14 -16 28 -32 39 -50c6 -9 14 -16 21 -24c11 -14 23 -28 29 -45c0 -2 1 -4 3 -5c10 -6 12 -17 17 -26c4 -8 10 -16 15 -25c0 0 1 0 1 -1c4 -7 1 -14 -6 -15c-24 -5 -48 -9 -72 -14
c-7 -2 -12 0 -15 5c-12 17 -23 33 -34 50c-18 27 -38 53 -59 77c-14 16 -27 34 -39 51c-8 10 -16 18 -26 26c-7 -4 -11 -11 -15 -18c-13 -22 -26 -43 -39 -65c-6 -10 -11 -21 -16 -32c-11 -20 -23 -40 -33 -61c-4 -8 -8 -16 -12 -23c-2 -4 -4 -8 -7 -13
c-34 11 -67 18 -101 21c-4 5 -4 10 0 13c13 10 22 24 32 37c11 14 20 29 30 43c9 11 18 22 29 32c13 13 24 27 33 43c11 18 24 35 38 51c7 7 13 15 19 23c-2 9 -9 15 -15 21c-19 23 -37 47 -56 70c-17 20 -35 40 -51 61c-17 20 -32 41 -48 61c-4 5 -3 9 -1 13c3 5 7 8 12 7
c11 -2 22 -1 34 1c3 0 6 0 9 1c16 3 31 7 47 11c8 -13 15 -25 23 -36c7 -12 15 -23 23 -34s15 -22 23 -33c9 -11 18 -21 27 -32c8 -11 16 -22 29 -31c2 2 4 4 6 5c19 25 38 50 54 77c5 7 7 14 8 22c1 6 5 9 11 9h26c14 -1 28 -1 42 1c4 1 9 2 12 -4c2 -4 1 -8 -2 -13
c-9 -12 -17 -25 -26 -37c-13 -17 -27 -33 -39 -51c-7 -11 -14 -22 -23 -32c-5 -5 -9 -10 -14 -15c-4 -4 -7 -9 -12 -14z" />
    <glyph glyph-name="y" unicode="y" horiz-adv-x="521" 
d="M127 452c5 -12 5 -22 5 -32c0 -28 -1 -57 -1 -85c0 -16 0 -32 2 -48c1 -11 -2 -22 -2 -34v-46l3 -51c1 -12 2 -24 4 -36c4 -15 15 -24 27 -31c16 -9 34 -13 53 -14c35 -1 69 6 102 15c13 4 21 12 27 25c6 16 10 32 11 50c2 17 6 34 7 51c2 20 2 41 2 62c0 8 -1 17 -1 26
c-2 36 -2 72 -5 107c-3 20 -1 40 -9 59c-3 9 4 18 13 18c7 0 14 -1 20 -1c22 1 43 8 65 12c11 2 16 0 16 -10c0 -14 7 -28 2 -42c6 -11 6 -23 7 -34c2 -29 8 -58 8 -87c1 -31 4 -61 5 -92c1 -4 1 -9 1 -14c-2 -32 -5 -65 -7 -97c0 -13 2 -26 1 -40c0 -14 -2 -29 -4 -43
c-2 -19 -3 -38 -5 -58c-1 -4 -1 -9 -2 -13c-2 -15 -5 -31 -8 -46c-4 -24 -10 -49 -14 -74c-3 -19 -12 -33 -30 -42c-16 -7 -30 -16 -47 -22c-14 -5 -31 -7 -46 -10c-38 -7 -76 -5 -114 -4c-17 1 -34 4 -51 8c-11 3 -23 7 -30 18c-2 5 -5 9 -7 14c-6 20 -11 41 -12 62
c-1 15 -2 30 -3 44c-1 10 2 13 13 12c23 -2 45 -2 67 2c6 1 11 3 16 4c4 1 8 -3 8 -7v-8c-3 -15 -1 -30 1 -46c1 -7 3 -14 7 -20c6 -10 14 -16 26 -15l30 3c12 1 24 2 35 5c29 6 49 24 57 53c2 8 3 17 4 25v92c0 3 -1 6 -2 11c-4 -2 -6 -2 -8 -4c-16 -17 -35 -27 -59 -29
c-8 -1 -16 -2 -24 -4c-11 -3 -22 -4 -33 -3c-5 1 -10 1 -14 0c-25 -3 -49 -2 -74 0c-23 2 -45 9 -66 17c-12 4 -23 12 -34 20c-6 5 -11 12 -14 19c-6 12 -11 25 -13 39c-2 18 -7 35 -6 54c0 32 -2 64 1 97c2 32 1 65 1 97c1 28 1 55 1 82c1 7 2 14 2 20c2 14 3 15 17 17
c1 0 3 -1 4 0c11 5 22 7 33 -1c3 -2 8 0 12 0c9 1 18 2 29 3z" />
    <glyph glyph-name="z" unicode="z" horiz-adv-x="462" 
d="M322 393c-10 3 -21 2 -31 1c-12 -1 -24 0 -36 1c-36 3 -71 7 -107 5c-11 0 -21 2 -32 2c-15 0 -30 -1 -46 -2c-17 -1 -19 2 -16 19c3 20 6 40 9 59c1 7 3 12 10 14c3 -1 7 -3 11 -4c12 -6 30 -7 46 -6c5 1 11 0 17 -1c11 -2 22 -4 33 -2c9 2 19 2 27 0c12 -3 24 1 35 -2
c11 -2 23 -3 34 -5c19 -3 38 -4 57 -3c22 0 44 -3 65 -5c7 -1 10 -6 8 -12c-4 -21 -3 -43 -3 -65c1 -18 1 -36 1 -53c0 -7 -2 -12 -8 -15c-25 -15 -45 -37 -64 -60c-14 -17 -31 -32 -46 -49c-4 -4 -8 -8 -13 -12c-17 -18 -35 -35 -51 -53c-18 -19 -35 -39 -52 -58
c-1 -2 -1 -4 -2 -6c6 -3 13 -2 18 -1c25 8 51 10 76 9c17 -1 34 5 51 -1c14 5 29 0 43 2s29 3 43 6c6 1 12 3 18 5c5 2 10 1 13 -3l6 -96c-7 -5 -14 -4 -21 -4c-18 3 -36 4 -54 6c-24 3 -49 -1 -73 -4c-13 -1 -27 0 -40 -1c-10 0 -20 0 -30 -2c-23 -3 -46 -1 -69 0
c-15 1 -30 1 -44 0c-21 -2 -43 -1 -64 -1c-7 0 -10 4 -10 12c2 14 5 28 3 43c-1 3 1 7 3 9c16 15 31 31 47 46c10 9 21 18 28 31c2 3 4 5 6 7c16 15 29 31 42 48c9 12 21 23 30 36c3 3 7 7 9 10c5 9 10 18 19 23c2 1 4 4 5 6c5 18 20 28 30 42c10 13 21 27 35 38
c11 9 16 23 29 31c4 2 6 8 5 15z" />
    <glyph glyph-name="A" unicode="A" 
d="M455 350c-8 -1 -16 -2 -23 -3c-27 -4 -54 -8 -81 -11c-15 -2 -30 -2 -45 -4c-19 -3 -38 -7 -57 -12c-30 -8 -61 -14 -92 -18c-3 0 -6 -1 -10 -2c-1 -5 -2 -9 -3 -14c0 -14 -1 -27 -1 -41c-1 -8 2 -16 2 -24c2 -32 2 -65 4 -97c3 -30 3 -60 12 -89c1 -2 1 -4 1 -6
c0 -6 -5 -12 -11 -11c-4 0 -8 0 -12 2c-11 3 -22 3 -34 2c-18 -1 -35 5 -53 10c-6 2 -9 8 -5 14c2 3 4 6 4 11c-2 12 -3 24 -4 35c-2 17 -4 34 -5 50c-2 29 -5 59 -5 88c-2 50 -4 101 -3 152c1 41 4 83 7 125c2 17 6 34 8 51c2 23 2 46 3 68c1 24 5 48 17 69
c5 9 11 16 20 21c19 11 36 23 57 30c31 10 63 19 97 17c27 -1 55 1 82 1c13 0 25 0 38 -4c19 -4 39 -8 58 -13c25 -5 48 -14 65 -35c5 -7 11 -12 16 -18c13 -13 16 -32 23 -48c9 -22 12 -46 18 -69c3 -13 3 -27 4 -40c1 -12 1 -25 2 -37c3 -37 3 -74 5 -111
c2 -32 3 -63 4 -94c2 -46 3 -91 4 -137c0 -8 0 -16 1 -24v-39s-1 -25 -1 -38c0 -3 1 -6 1 -10v-23c-2 -13 -4 -15 -16 -17c-22 -2 -44 -5 -65 -7c-8 -1 -12 2 -12 10c-2 17 -3 34 -5 51c-1 7 -2 14 -2 20c0 10 -1 20 0 30c0 14 1 28 -1 42c-1 20 -2 40 -1 60
c1 35 2 70 -2 105c-1 10 2 20 -4 32zM457 430c0 6 1 11 0 15c-1 20 -3 40 -3 60c-1 26 -2 52 -1 78c1 21 -8 36 -25 46c-25 16 -52 26 -82 30c-40 5 -81 6 -121 0c-11 -2 -21 -5 -30 -10c-9 -4 -15 -10 -18 -18c-9 -23 -15 -46 -20 -69c-2 -15 -4 -30 -5 -46
c-2 -12 -2 -25 -3 -37c-1 -10 -2 -19 -2 -28c-1 -12 -1 -24 -1 -36c0 -4 1 -8 2 -13h16c28 4 56 7 83 11c21 3 42 6 64 7c21 0 43 2 65 3h4c21 4 42 6 64 4c3 0 7 2 13 3z" />
    <glyph glyph-name="B" unicode="B" horiz-adv-x="568" 
d="M399 485c9 -1 13 -1 18 -2c14 -1 29 -2 42 -9c2 -1 4 -2 6 -2c18 -3 31 -15 44 -26c4 -3 8 -8 9 -12c9 -21 19 -42 18 -65c0 -9 3 -18 4 -28c5 -45 1 -90 -1 -135c-2 -27 -8 -55 -19 -81c-6 -15 -16 -27 -30 -36c-13 -9 -24 -19 -39 -25c-5 -2 -11 -4 -16 -6
c-22 -8 -43 -14 -64 -23c-20 -8 -40 -9 -61 -12c-15 -3 -31 -2 -47 -4c-21 -4 -41 -1 -62 1c-30 4 -61 7 -91 8c-23 1 -45 3 -68 4c-3 10 -1 21 -1 31c2 14 0 28 0 41c0 20 -2 40 -3 60c0 7 2 15 2 22v36c-1 53 -3 106 -4 159c0 28 2 56 2 84c1 20 0 39 0 59
c-2 31 1 61 2 92c2 25 4 50 7 75c1 16 3 31 4 46c1 3 1 5 2 8c3 8 9 11 17 9c6 -2 12 -1 18 0c38 5 76 12 115 8c35 -4 72 0 107 -7c23 -4 46 -7 68 -13c25 -6 46 -20 56 -44c6 -14 15 -27 12 -44c0 -1 1 -2 1 -3c10 -25 12 -52 11 -79c0 -23 -8 -45 -29 -60
c-4 -4 -8 -8 -13 -12c-4 -4 -9 -8 -17 -15zM126 146c3 -2 4 -3 6 -3c31 -2 62 -7 93 -9c13 0 25 -2 37 -1c18 1 35 2 52 0c28 -2 56 1 82 10c10 3 21 6 29 12c12 9 18 23 19 38c1 7 -1 14 0 20c4 22 0 43 0 64c0 33 -16 61 -32 89c-1 1 -1 2 -2 3c-22 23 -47 37 -79 38
c-23 0 -45 0 -68 -1c-20 -1 -40 -2 -60 -5c-26 -4 -53 -10 -79 -15c-7 -20 -4 -186 2 -240zM123 486c9 -7 19 -8 29 -6c20 5 40 3 59 6c17 2 34 4 50 3c14 -1 25 9 39 5c16 6 31 16 46 26c2 1 4 4 4 6c2 6 4 12 4 18c0 15 0 31 -2 46c-4 24 -10 48 -25 68
c-8 12 -19 21 -32 26c-13 6 -27 8 -41 7c-20 0 -40 -1 -60 -1c-23 1 -44 -6 -66 -13c-8 -2 -9 -6 -9 -15c1 -16 2 -32 2 -48c0 -30 -1 -61 2 -91c1 -12 0 -24 0 -37z" />
    <glyph glyph-name="C" unicode="C" horiz-adv-x="511" 
d="M458 560c-21 3 -39 4 -57 0c-11 -2 -14 1 -16 12c-4 19 -3 38 -4 56c0 11 -3 21 -7 31c-3 7 -8 13 -15 15c-9 3 -18 7 -27 8c-22 3 -44 3 -65 -1c-6 -1 -12 -2 -18 -2c-24 0 -46 -8 -67 -18c-18 -9 -29 -23 -36 -41c-4 -13 -8 -27 -9 -41c-1 -8 -3 -17 -4 -25
c-2 -17 -5 -34 -7 -51c0 -3 -1 -7 -3 -9c-3 -3 -4 -5 0 -8c1 -1 1 -5 1 -7c-1 -21 -3 -42 -3 -64c-1 -18 0 -37 0 -55v-28c2 -39 4 -77 8 -116c2 -21 8 -41 13 -62c4 -15 15 -24 31 -27c23 -5 46 -8 69 -6c32 4 64 8 95 15c20 4 36 16 40 39c5 26 10 51 8 77v8
c2 15 3 31 4 46c1 8 4 11 12 10c21 -2 41 2 62 4c9 1 13 -1 14 -11c2 -9 2 -17 3 -26c2 -43 0 -86 -3 -129c-2 -19 -8 -38 -24 -51c-9 -9 -19 -16 -29 -24c-8 -6 -17 -11 -25 -16c-5 -2 -10 -5 -15 -7c-12 -4 -25 -9 -37 -13c-6 -1 -11 -3 -16 -4c-22 -3 -43 -5 -65 -7
c-7 -1 -15 -1 -22 0c-24 2 -48 4 -72 8c-18 3 -37 7 -56 11c-11 3 -21 9 -28 18l-17 17c-9 8 -12 20 -17 30c-8 17 -13 34 -13 52c-1 13 -3 25 -6 38c-3 16 -3 33 -1 50c0 6 1 12 4 17c4 7 5 14 4 21c-1 13 -2 25 -2 38c-1 39 -2 77 -3 116c0 20 -1 41 -1 61c0 21 0 42 2 62
c1 25 3 51 7 76c5 37 27 64 58 84c6 4 13 5 20 8c30 10 59 20 90 25c30 5 60 8 89 11c17 1 34 1 50 1c20 0 38 -7 56 -13c8 -2 14 -8 20 -13c24 -27 37 -58 37 -95c0 -10 2 -21 -2 -31c-1 -2 -1 -4 -1 -6c5 -17 -1 -33 -1 -49c0 -3 -2 -5 -3 -9z" />
    <glyph glyph-name="D" unicode="D" horiz-adv-x="517" 
d="M49 742c12 1 23 1 34 -1c19 -3 39 -2 58 -1c30 0 61 1 91 2c11 0 23 2 34 -1c1 -1 3 0 5 0c21 3 41 0 62 -3c20 -3 39 -8 57 -15c11 -4 19 -9 28 -16c7 -5 13 -11 20 -16c3 -3 6 -6 8 -9c6 -18 16 -35 20 -54c4 -21 10 -41 12 -62c1 -2 1 -4 1 -6c2 -22 4 -43 5 -65
c1 -14 3 -28 3 -42c-1 -37 -3 -74 -3 -111c-1 -48 -8 -96 -13 -143c-3 -32 -12 -63 -27 -91c-4 -7 -8 -13 -13 -18c-9 -11 -19 -23 -29 -33c-11 -10 -23 -18 -36 -24c-29 -14 -59 -20 -91 -19c-9 0 -17 -1 -26 -2c-16 -2 -32 2 -47 4c-20 4 -39 3 -58 2c-16 0 -32 -3 -48 -3
c-12 0 -25 2 -37 4c-11 1 -16 8 -15 18c4 18 0 36 0 54c0 19 -2 38 -3 57c0 6 -1 11 -1 16c1 5 3 10 3 15s-2 9 -3 14c-3 12 -1 25 -2 37c0 13 -1 27 -2 40c0 13 2 25 1 38c-1 16 2 32 2 47c1 20 1 40 1 60c0 19 -1 37 -1 56c0 46 1 92 2 138c0 18 1 36 4 53c3 20 1 39 1 58
c0 7 0 14 3 22zM189 104c23 7 45 13 69 13c11 0 22 2 33 5c23 7 44 16 61 35c9 9 18 18 22 30c7 18 14 35 16 55c3 28 6 57 6 85c0 17 -2 34 -2 51c-1 25 -5 50 -5 74c-1 26 -7 50 -13 75c-4 20 -9 40 -12 60c-5 35 -29 60 -63 68c-15 4 -30 7 -45 12c-21 8 -42 9 -64 6
c-14 -2 -28 -4 -41 -7c-8 -2 -14 -5 -21 -7c-6 -2 -9 -6 -9 -12c0 -12 -1 -24 1 -36c3 -12 2 -23 0 -35c-1 -7 -2 -13 -2 -20c1 -30 1 -60 1 -89c1 -28 1 -56 1 -84c0 -22 2 -44 2 -66c-1 -29 -1 -57 1 -86c0 -23 1 -46 2 -69c1 -17 0 -33 7 -50c20 3 38 -3 55 -8z" />
    <glyph glyph-name="E" unicode="E" horiz-adv-x="405" 
d="M46 24c-1 27 -3 53 -5 79l-3 45c-1 17 -3 34 -2 50c2 21 1 42 1 63s1 43 1 64c0 27 0 55 1 82c0 10 0 20 2 30c1 12 -1 25 -1 37c0 10 0 20 1 30c0 25 1 51 2 76c0 9 1 18 1 28c1 30 2 61 3 91c0 18 1 36 2 54c1 7 5 11 12 8c5 -3 10 -3 15 -4c15 -1 30 -5 44 -4
c15 2 29 -2 43 -3c3 0 6 0 8 -1c18 -6 36 -5 54 -6c12 0 24 -1 36 -4c10 -2 20 -3 31 -4l33 -3h26c10 0 15 -5 15 -15c0 -3 -1 -5 -2 -8c0 -3 -1 -7 -1 -10c5 -20 -1 -42 8 -62c1 -4 -2 -9 -6 -9c-3 -1 -5 -1 -8 -1c-37 0 -75 -1 -112 1c-26 1 -52 0 -78 0c-7 0 -14 1 -21 2
s-12 -2 -12 -8c1 -25 -4 -49 -6 -73c-1 -22 1 -44 0 -66c0 -12 -1 -25 -1 -37c0 -6 1 -12 1 -17c7 -5 13 -5 20 -5c32 -1 64 2 95 5c38 3 76 8 114 -4c0 -3 2 -6 2 -9c-3 -18 -3 -35 -1 -53c1 -9 -2 -12 -11 -12c-23 0 -46 -1 -68 -2c-5 0 -11 -1 -16 -1c-31 1 -62 4 -94 1
c-13 -2 -26 -1 -40 -1c-4 -8 -3 -16 -3 -24c-1 -47 3 -94 4 -141c1 -17 0 -34 3 -50c1 -7 3 -13 4 -19c6 -5 12 -6 19 -6c22 0 43 0 64 -1c9 0 19 -2 28 -3c14 -1 28 -2 42 -2c24 -1 49 0 73 2c6 1 12 1 18 -4v-7c-4 -19 -2 -38 2 -57c1 -2 1 -4 1 -6c1 -6 -4 -11 -10 -10
c-17 3 -35 1 -53 2c-26 2 -52 -3 -78 -4c-23 -1 -46 -1 -69 4c-6 1 -12 1 -18 1c-32 0 -64 -1 -96 -2c-4 0 -8 2 -14 3z" />
    <glyph glyph-name="F" unicode="F" horiz-adv-x="372" 
d="M368 471v-15c-1 -9 -2 -18 -5 -26c-3 -9 2 -17 2 -25c-1 -2 -1 -5 -2 -9c-4 0 -7 -1 -11 -2c-11 -2 -22 -4 -34 -6c-25 -5 -50 -10 -76 -9c-25 1 -49 0 -74 -1c-13 -1 -26 -3 -40 -4c-1 -10 -2 -19 -2 -27c1 -19 2 -37 2 -56c0 -64 5 -128 9 -191c1 -20 6 -40 10 -59
c0 -2 1 -4 1 -6c2 -10 -2 -15 -12 -15c-28 0 -56 -3 -83 -8c-12 -2 -16 2 -16 14c-1 74 -1 148 -1 222c0 49 2 98 3 147c0 6 1 13 0 18c-3 24 0 47 0 70c0 21 2 43 3 64c1 14 1 28 1 42c2 25 3 50 4 75c1 12 0 23 0 34c0 4 1 7 1 10c1 8 4 12 12 13c13 2 25 5 38 8
c8 1 16 1 25 0c7 0 14 0 21 1s13 0 20 -1c26 -7 53 -7 79 -4c2 1 3 2 4 1c13 -5 26 1 39 2c2 0 4 1 6 0c16 -5 31 3 46 6c1 0 2 1 4 1c10 2 15 -3 12 -13c-1 -5 -1 -10 -1 -16c2 -14 4 -29 5 -43c1 -9 -3 -14 -12 -15c-12 0 -24 1 -36 0c-42 -5 -83 -7 -125 -15
c-16 -2 -31 -4 -47 -6c-5 -1 -9 -2 -14 -4c-4 -51 1 -102 0 -152c8 -6 16 -6 23 -6c13 1 26 3 39 4c8 0 15 1 22 2c23 2 45 3 68 3c15 0 30 1 45 0c15 0 29 -2 47 -3z" />
    <glyph glyph-name="G" unicode="G" horiz-adv-x="515" 
d="M481 533c-16 -3 -31 -5 -45 -8c-13 -3 -27 -7 -41 -11c-2 4 -4 8 -4 11c-1 18 -2 36 -2 54c0 10 -1 19 -4 28c-2 4 -3 10 -4 15c-3 14 -10 25 -27 29c-12 2 -24 6 -36 9c-3 1 -6 1 -8 0c-20 -2 -40 -5 -59 -7c-23 -1 -44 -8 -64 -17c-10 -4 -18 -12 -24 -22
c-13 -25 -22 -51 -26 -79c-3 -20 -7 -39 -9 -59c-2 -11 -3 -21 -3 -32c-1 -24 -4 -47 -3 -71c0 -9 0 -17 1 -26c2 -32 0 -65 6 -97c3 -19 7 -37 12 -55c4 -15 13 -28 25 -37c14 -9 28 -17 45 -22c21 -6 41 -12 64 -11c9 0 18 -1 27 0c20 2 36 12 51 24c7 7 11 15 12 25
c2 19 5 39 7 59c1 7 0 15 0 22c-5 4 -11 5 -17 3c-4 -1 -8 -1 -12 -2c-10 -2 -21 -5 -31 -5c-34 -1 -68 -1 -103 -1c-1 4 -2 9 -2 13c-1 7 0 13 0 20c1 19 2 38 3 59c5 0 9 1 13 1c8 0 16 -2 24 -2c12 -1 23 -2 35 -2c21 0 42 -4 63 -5c14 -1 27 -1 40 0c23 1 45 2 68 3
c13 0 18 -3 21 -16c3 -16 8 -31 7 -47c0 -16 3 -32 3 -48c0 -29 -4 -58 -10 -87c-1 -4 -2 -8 -2 -11c-3 -20 -13 -35 -30 -46c-8 -5 -16 -11 -24 -17c-3 -1 -6 -3 -10 -3c-20 -5 -40 -8 -60 -14c-22 -7 -44 -7 -67 -6h-38c-10 -1 -21 0 -31 2c-27 7 -55 12 -82 18
c-15 4 -28 11 -37 25c-13 18 -23 37 -32 57c-17 44 -25 89 -24 137c0 11 -1 22 -2 33c-4 36 -4 71 -3 106c1 24 1 48 1 72c0 41 3 82 11 123c4 22 13 44 24 64c6 10 16 17 26 22s22 9 33 13c10 5 21 9 31 13c9 2 17 4 25 6l63 12c16 2 31 5 47 8c11 2 22 0 34 0
c16 0 33 -2 49 -5c18 -4 34 -13 51 -22c4 -2 6 -6 9 -10c15 -17 23 -37 29 -59c5 -19 6 -39 8 -58c2 -18 3 -35 7 -53c1 -4 1 -8 1 -13z" />
    <glyph glyph-name="H" unicode="H" horiz-adv-x="533" 
d="M398 719c7 1 13 3 19 2c7 -2 14 0 21 -1c12 -1 23 2 34 4c10 2 16 -4 15 -15c-1 -6 -2 -13 -3 -19c-1 -25 1 -49 3 -74c2 -23 2 -46 1 -69c0 -43 -1 -87 -1 -130c0 -28 1 -57 1 -85v-78c0 -51 0 -101 1 -152c0 -22 4 -44 9 -65c1 -6 1 -12 -4 -16c-18 -4 -36 0 -53 3
c-12 2 -22 4 -34 2c-1 0 -3 1 -7 2v54c0 23 1 46 -1 69c-1 6 1 13 1 19c0 22 0 43 -2 64c-1 9 5 17 1 25c2 38 3 77 2 115c0 4 3 29 3 34c-17 2 -38 -5 -54 -6c-2 0 -42 -6 -42 -3c-10 -1 -20 -3 -30 -3c-39 -1 -78 -9 -116 -18c-12 -2 -24 -8 -36 -12c-4 -16 -2 -31 -2 -47
c0 -10 1 -20 1 -29c-1 -45 -1 -90 -2 -134c0 -12 2 -24 2 -36l3 -48c1 -14 3 -29 5 -43c1 -6 0 -11 -4 -17c-29 -2 -58 -4 -89 -5c-1 4 -3 8 -3 12c2 22 2 44 0 67v2c-2 8 5 14 1 23c-3 7 0 14 0 21c1 33 0 66 0 100c-1 28 -1 57 -1 85c1 38 3 76 5 114c3 77 3 155 2 233
c0 6 1 12 1 18v32c5 1 10 2 14 2h56c8 0 12 -5 9 -13c-5 -18 -5 -35 -5 -53c1 -30 1 -60 1 -90c0 -18 3 -36 1 -54c-1 -13 4 -25 3 -38c0 -3 2 -5 3 -8c8 -1 15 -1 23 1c12 3 23 5 35 5c17 0 35 3 52 5c22 4 45 3 67 11c2 1 6 0 9 -1c17 -4 33 -1 50 2c8 2 17 3 25 5
s12 5 11 12c-3 31 1 61 -2 91c-2 22 -2 44 -1 66c0 11 -1 21 -1 32c-1 9 0 18 3 30z" />
    <glyph glyph-name="I" unicode="I" horiz-adv-x="169" 
d="M43 11c-1 3 -3 5 -3 7c1 43 -3 86 -4 129c-1 26 -1 52 -1 78c0 14 -1 29 -1 43c-2 32 -4 63 -3 94c0 4 -1 8 0 12c1 30 1 60 4 90c4 51 4 102 7 153c1 21 4 42 1 64c-1 5 2 9 8 9c25 0 49 5 74 11c1 0 3 1 4 1c12 2 17 -3 16 -16c-2 -17 -3 -34 -5 -51
c-2 -20 0 -40 -2 -60c-1 -13 3 -26 2 -39c-1 -8 1 -16 -1 -24c-7 -24 -5 -50 -9 -75c-1 -3 0 -8 0 -11c0 -5 1 -10 -1 -14c-4 -18 -1 -36 -5 -54c-1 -2 -1 -4 -1 -5c0 -28 1 -55 1 -82c-1 -15 0 -30 -3 -45c-2 -17 -1 -35 -1 -52c0 -19 3 -38 4 -57c1 -20 1 -40 1 -60v-32
c0 -5 -3 -10 -7 -10c-24 -2 -48 -3 -72 -5c0 0 -1 1 -3 1z" />
    <glyph glyph-name="J" unicode="J" horiz-adv-x="417" 
d="M289 766c4 1 8 3 10 2c22 -5 42 -2 62 7c2 1 4 1 7 2c1 -2 4 -4 4 -6c-1 -14 2 -29 5 -43c4 -20 4 -39 2 -59c-1 -13 -1 -27 0 -40c2 -37 1 -74 1 -111c1 -33 -2 -67 2 -100c1 -5 1 -12 0 -18c-3 -32 0 -64 -4 -97c-2 -27 -1 -54 -2 -81c-3 -43 -7 -86 -17 -129
c-7 -31 -28 -50 -57 -57c-28 -6 -55 -13 -83 -14c-31 -1 -62 -2 -93 3c-16 3 -30 8 -43 16c-16 9 -29 21 -42 34s-20 30 -24 47c-7 44 -12 87 -13 131c0 3 1 5 1 9c4 1 8 3 12 3c14 0 29 0 43 -1c15 -1 29 -2 43 3c8 3 12 -1 12 -10c-1 -22 -2 -43 -2 -64
c1 -18 3 -36 12 -52c4 -7 9 -13 16 -17c16 -10 34 -13 53 -15c2 0 5 0 7 1c8 4 16 7 25 7c1 -1 3 0 4 1c16 9 33 18 44 34c9 13 14 29 14 47c-1 21 0 42 -1 63c-2 46 -2 92 -3 137c0 18 2 35 3 52v40c-1 9 -1 18 -1 28c1 39 3 78 3 117c0 21 -3 43 -2 64c0 8 -2 17 2 25
c1 4 0 8 0 12v29z" />
    <glyph glyph-name="K" unicode="K" horiz-adv-x="550" 
d="M124 323c3 4 5 6 6 8c5 10 10 20 16 30c22 39 47 76 74 111c22 28 43 56 64 84c9 13 17 27 25 41c12 19 24 38 36 58c12 19 24 39 37 59c4 6 6 13 16 16c18 -10 39 -10 60 -9h4c13 -1 17 -8 11 -19c-10 -17 -20 -34 -30 -52c-10 -16 -19 -33 -30 -49
c-10 -15 -22 -28 -33 -42c-5 -7 -11 -14 -16 -20c-29 -37 -57 -74 -85 -111c-6 -7 -11 -14 -17 -20c-11 -10 -19 -22 -27 -34c-9 -14 -18 -29 -27 -44c9 -9 17 -17 27 -23c15 -8 27 -21 39 -33c14 -15 31 -27 41 -46l1 -1c20 -10 33 -27 47 -43c34 -35 70 -67 105 -101
c15 -14 29 -30 41 -47c4 -6 9 -11 13 -16c2 -2 3 -5 5 -9c-3 -3 -6 -6 -9 -7c-23 -4 -45 -9 -66 -17c-6 -2 -12 0 -16 4c-20 21 -42 38 -63 56c-19 17 -37 34 -57 50c-15 13 -31 25 -45 39c-16 14 -30 30 -44 46c-17 18 -33 36 -50 55c-6 7 -13 15 -20 23
c-8 -4 -12 -11 -17 -16c-6 -6 -12 -11 -17 -17c-1 -2 -1 -5 -2 -8c-2 -16 -1 -32 1 -48c1 -7 2 -14 2 -21c1 -16 2 -31 4 -46c3 -24 5 -47 2 -71c-1 -8 -1 -16 -1 -24c-1 -7 -4 -10 -10 -10c-9 -1 -18 0 -26 -1c-9 -1 -19 -2 -28 -3c-12 -2 -15 0 -16 13v6c0 22 0 44 -1 66
c0 16 -1 32 -2 48c-1 18 -2 37 -4 55c-2 17 0 35 0 52c0 19 -3 39 -2 58c2 24 -5 49 -1 73c-3 16 -2 32 -2 48c1 13 1 27 2 41c4 64 2 128 3 192c0 11 0 23 -1 34c0 15 -1 31 12 45c1 0 5 1 8 0c13 -2 27 -5 41 -7c6 -1 12 -1 18 -1c4 -1 9 -1 13 -2l9 -3c0 -3 2 -4 1 -5
c-4 -15 -2 -30 -3 -45s-4 -31 -4 -46c1 -21 -3 -41 -4 -61c-1 -23 -6 -46 -9 -69c0 -2 -1 -4 0 -6c5 -13 2 -27 2 -41c-1 -36 -5 -72 -3 -108c0 -2 1 -4 2 -9z" />
    <glyph glyph-name="L" unicode="L" horiz-adv-x="353" 
d="M43 33c-2 29 -3 54 -5 80c0 17 -1 35 -1 52c0 45 -1 89 -1 134c0 26 1 53 2 79c3 57 3 113 2 170c0 49 -1 98 -2 147c0 13 -1 26 -2 38c8 7 15 10 26 7c5 -1 11 1 17 2c14 3 29 6 43 3c8 -1 11 -4 11 -11c0 -22 0 -43 1 -64c2 -41 -3 -82 -2 -123c1 -26 -1 -51 1 -76v-4
c-1 -25 -1 -50 -2 -76c-2 -17 -1 -34 1 -51v-4c-1 -23 -1 -46 -1 -69c0 -13 1 -26 1 -38c1 -23 1 -47 2 -70c0 -8 1 -16 2 -24c1 -2 2 -3 3 -6c5 -1 10 -2 15 -2c31 -1 61 0 92 -2c18 0 35 -3 53 -4c9 -1 19 -1 28 -2c11 -1 15 -5 14 -17c-2 -17 1 -34 6 -51c1 -2 2 -3 2 -5
c2 -6 -2 -11 -8 -11c-3 0 -7 0 -10 1c-13 2 -26 1 -40 0c-21 -2 -42 -3 -63 -2c-46 2 -92 1 -138 0c-11 -1 -22 -3 -34 -3c-4 -1 -8 1 -13 2z" />
    <glyph glyph-name="M" unicode="M" horiz-adv-x="686" 
d="M340 517c10 3 14 9 19 15c16 21 34 41 51 61c21 25 41 52 61 79c5 6 8 15 11 23c4 8 8 12 17 11c12 -2 25 -2 37 -5c7 -1 13 -1 19 1c24 6 49 8 73 9c7 1 10 -3 9 -9c-3 -17 -5 -34 1 -51v-98c1 -18 1 -37 0 -56c-1 -37 3 -74 3 -111c0 -32 2 -64 1 -97
c0 -14 -1 -29 -1 -43c0 -22 2 -44 3 -66c1 -21 2 -42 3 -64c1 -18 1 -36 1 -54c0 -12 -1 -24 2 -37c1 -6 -3 -10 -9 -11h-56c-7 0 -13 1 -21 1c0 4 -1 7 0 10c2 15 1 29 -1 44c-2 18 -1 37 -2 55c-1 22 -2 44 -1 66c1 25 0 49 -1 73v74c0 7 3 13 3 20c0 6 -4 13 -4 19
l-6 132c-1 17 -1 34 -2 51c-1 12 -3 23 -4 36c-4 -2 -8 -2 -10 -4c-9 -7 -18 -15 -27 -23c-9 -9 -18 -18 -25 -28c-19 -25 -35 -51 -51 -76c-7 -12 -17 -21 -23 -33c-13 -24 -34 -41 -51 -61c-2 -4 -9 -4 -13 -2c-2 1 -4 3 -5 5c-33 36 -68 70 -98 108c-3 5 -7 8 -10 12
c-18 18 -35 35 -52 53c-15 15 -32 28 -51 39c-1 1 -3 1 -6 2c-3 -11 -7 -20 -2 -31c1 -3 1 -6 0 -8c-3 -10 0 -20 0 -30c0 -31 1 -62 1 -93c1 -20 2 -40 2 -60c0 -43 0 -85 -4 -127c-2 -14 0 -28 0 -42c0 -22 -1 -45 -1 -67c0 -16 1 -32 1 -48c1 -13 1 -25 1 -38
c0 -7 -4 -12 -11 -12h-52c-3 0 -7 2 -11 4c0 3 -1 5 -1 8c1 35 -2 69 -4 104c-2 31 -2 62 -5 93c-3 39 1 79 1 118v74v8c6 33 3 67 6 101c1 5 0 11 0 16v46c1 28 2 57 3 85c0 6 -1 12 -3 18c-2 4 3 10 7 9c20 -6 38 -1 57 0c14 1 26 -1 36 -10c13 -10 25 -19 38 -29
c29 -23 56 -48 82 -75c6 -7 10 -15 17 -22c7 -6 12 -13 18 -21c11 -15 24 -29 40 -41z" />
    <glyph glyph-name="N" unicode="N" horiz-adv-x="629" 
d="M485 205v17c0 25 0 49 3 74c2 23 -1 47 -1 71c-1 31 -1 62 -2 92c-1 17 0 33 -3 50c-2 13 0 27 0 41c0 22 -4 44 0 66c1 5 0 12 -1 18c-2 9 -3 18 -1 27c1 3 0 7 0 10v20c0 9 2 18 -2 27c-1 4 0 8 0 12c1 8 7 12 14 11c20 -4 40 -3 60 0c0 0 1 0 2 1c8 1 13 -3 11 -12
c-2 -5 -4 -9 -1 -15c-2 -18 4 -35 7 -52c2 -18 1 -35 3 -52c1 -11 3 -22 2 -34c-1 -17 0 -35 3 -52c1 -12 2 -23 1 -34c-1 -13 0 -25 0 -38c0 -12 1 -24 0 -36c-3 -35 1 -71 1 -107c0 -22 1 -44 0 -66c-1 -30 1 -59 3 -89c2 -29 4 -57 6 -85c1 -14 4 -28 5 -42
c1 -11 -2 -14 -13 -14c-9 0 -19 0 -28 1l-30 3s-20 1 -28 1c-17 27 -31 54 -48 79c-21 32 -40 65 -60 97c-7 11 -15 20 -23 30c-13 19 -26 39 -39 57c-22 30 -45 60 -68 90c-26 33 -49 69 -73 104c-14 23 -31 45 -47 67c-3 4 -6 7 -11 11c-4 -9 -4 -16 -4 -24
c1 -19 3 -39 4 -58v-53c0 -9 1 -18 1 -26c-1 -19 -2 -37 -3 -56c0 -16 0 -33 2 -50c2 -21 1 -43 1 -65c0 -44 -1 -88 0 -132c1 -26 5 -53 7 -79c1 -2 1 -3 1 -4c2 -10 -2 -14 -11 -14c-14 0 -28 0 -42 1c-9 1 -17 3 -26 5c-8 2 -10 5 -10 14c1 9 1 19 2 28c0 3 0 5 -1 8
c-6 17 -3 34 -4 51c0 9 2 17 -1 26c-1 3 0 6 0 10c1 2 2 4 2 5c-5 21 -3 43 -3 64c0 31 -2 62 -3 94c-1 26 0 53 0 79c0 20 -2 40 -2 60c-1 48 -1 96 -1 144c0 19 2 38 3 57c0 20 1 39 1 58c0 7 1 13 1 19c8 7 16 3 23 0c6 -1 10 -1 16 0c15 2 29 7 45 3c4 -2 9 -1 13 1
c18 6 20 2 29 -9l18 -24c19 -23 37 -46 56 -70c7 -8 15 -17 22 -26c6 -8 12 -15 17 -24s11 -18 17 -27c19 -30 38 -60 54 -92c10 -20 23 -37 35 -56c3 -4 5 -8 7 -12c18 -34 34 -70 52 -105c10 -19 19 -39 29 -58c2 -4 4 -7 7 -10c0 -1 1 -1 4 -2z" />
    <glyph glyph-name="O" unicode="O" horiz-adv-x="673" 
d="M33 178c0 12 -2 26 1 37c4 19 2 37 3 56c3 35 6 71 5 107c-1 12 2 23 2 35s3 24 4 36c3 25 5 51 10 76c4 26 7 52 16 76s17 49 30 71c11 20 29 34 51 43c30 12 62 14 94 13c6 0 13 -2 18 0c16 4 32 2 48 0c3 0 6 0 9 1c14 4 27 2 40 1s26 0 39 3c10 2 20 2 30 2
c15 0 30 -1 45 -2c2 0 4 -1 6 -1c10 0 21 2 29 -7c1 -1 4 0 6 -1c20 -4 40 -9 57 -20c19 -12 35 -27 45 -47c10 -23 18 -47 19 -73c0 -12 2 -23 1 -35c-1 -11 -2 -22 -2 -34c-1 -16 -2 -31 -2 -47c0 -26 -2 -52 -7 -77c-1 -5 0 -10 0 -14c2 -26 0 -51 -4 -76
c-4 -29 -8 -58 -12 -86c-3 -20 -7 -40 -11 -59c-5 -29 -16 -56 -34 -80c-5 -8 -11 -13 -19 -16c-13 -6 -25 -13 -38 -17c-15 -4 -29 -6 -44 -7c-12 -1 -24 -1 -35 -1c-14 -1 -28 -3 -42 -3c-34 -1 -67 -11 -101 -14c-4 -1 -9 -2 -14 -1c-29 1 -59 3 -89 5c-11 1 -21 2 -31 6
c-23 7 -46 14 -68 23c-27 12 -44 34 -51 63c-4 21 -4 42 -4 64zM553 432v0c0 7 1 13 1 20c1 43 0 86 -10 129c-2 11 -8 21 -13 31c-5 8 -12 15 -22 20c-12 6 -25 9 -38 9c-15 1 -31 7 -45 -1c-3 -1 -6 -1 -8 -1c-15 5 -29 1 -44 1c-18 -1 -36 -1 -54 0c-20 1 -40 1 -59 -6
c-17 -5 -34 -10 -51 -17c-15 -6 -28 -18 -35 -33s-13 -31 -19 -46c-7 -22 -8 -45 -12 -67c-3 -23 -5 -46 -8 -69c-4 -22 -7 -43 -7 -65c-1 -49 -2 -97 7 -145c3 -12 7 -24 15 -32c8 -9 18 -16 27 -24c1 0 3 -1 4 -1c20 -6 41 -12 62 -13c12 0 24 0 35 -1c12 -2 24 -1 36 -1
c17 -1 34 -2 51 2c9 2 19 5 28 4c10 -1 20 2 31 3c4 1 8 2 11 2c11 -1 20 3 29 6c16 6 27 17 35 31c19 34 33 70 42 107c7 24 11 48 11 73v84z" />
    <glyph glyph-name="P" unicode="P" horiz-adv-x="498" 
d="M130 270c-5 -9 -5 -17 -5 -26v-86c1 -14 -2 -28 3 -41c1 -2 1 -3 1 -4c-6 -10 -1 -19 -1 -29c1 -10 1 -20 1 -30v-29v-8c0 -16 -3 -19 -19 -18c-18 2 -35 1 -52 -3c-2 0 -5 -1 -8 -1c-6 0 -10 3 -10 10c2 22 -4 44 -2 67c0 9 0 17 -1 25c-3 14 -2 27 -1 40
c1 14 -1 28 -1 42c1 25 1 50 2 75c0 19 1 39 0 58c0 33 1 67 5 100c3 31 5 62 7 93c3 35 4 70 7 105c3 33 7 66 11 100c1 10 7 14 16 9c9 -4 16 -2 25 -2c18 0 35 6 53 2c4 -1 8 -1 12 0c13 4 27 1 39 6c3 2 7 1 10 1c22 -6 45 -1 67 -9c15 1 29 -2 44 -4c7 0 14 0 20 -3
c8 -4 17 -5 26 -7c13 -2 27 -6 39 -11c11 -5 21 -12 32 -16c13 -6 20 -17 27 -29c6 -11 7 -23 9 -36c4 -32 3 -63 3 -95c0 -22 -3 -44 -7 -66c-1 -3 -1 -6 -1 -10c0 -30 -11 -57 -27 -82c-11 -15 -25 -27 -42 -35c-5 -3 -11 -3 -16 -5s-9 -6 -14 -8c-24 -10 -49 -17 -75 -20
c-15 -1 -30 -2 -46 -4c-6 -1 -13 -1 -19 -4c-22 -8 -46 -7 -69 -8c-14 -1 -29 -3 -43 -4zM130 387c14 0 27 0 39 1c7 0 13 1 20 1h7c12 2 24 4 36 4s24 4 37 5c20 1 39 6 57 12s36 14 53 22c19 9 27 24 27 43v38c1 28 -8 54 -21 78c-5 9 -13 15 -22 19c-13 5 -26 8 -39 6
c-8 -1 -16 -1 -24 -1c-43 0 -87 2 -130 -1c-11 -1 -22 -3 -33 -4c-8 -1 -12 -6 -13 -14c0 -7 1 -14 1 -22s6 -16 -1 -24c-1 -1 0 -3 0 -4c6 -8 4 -17 4 -25c1 -8 -1 -16 0 -23c2 -23 0 -47 -1 -70c0 -13 -1 -26 3 -41z" />
    <glyph glyph-name="Q" unicode="Q" horiz-adv-x="748" 
d="M554 -1c12 -30 22 -58 33 -86c0 -1 0 -3 -1 -5c-1 0 -3 -2 -5 -2c-22 -2 -45 -3 -67 -5c-10 -1 -13 0 -17 10c-12 30 -33 54 -52 80c0 1 -2 2 -5 4c-23 0 -48 1 -73 0s-50 -3 -74 -4c-6 0 -11 -1 -16 -1c-37 1 -73 0 -110 5c-12 2 -23 5 -34 11c-13 9 -27 17 -40 26
c-17 13 -27 31 -34 51c-9 23 -13 47 -17 72c-2 16 -4 33 -5 49c-2 21 -1 43 -2 64l-3 90c-1 15 -1 30 -2 46c-1 24 -2 47 -3 71c-1 8 0 16 1 24c3 29 7 57 11 85c4 35 21 62 49 84c22 17 46 28 72 36c22 6 43 13 65 20c19 6 38 9 58 9c8 0 15 0 22 1c19 2 37 6 56 7
c25 2 51 1 77 1c6 0 12 -1 18 0c14 1 28 2 41 3c7 1 14 0 20 -1c7 0 14 -1 20 -1c21 1 41 -6 60 -13c16 -6 28 -18 38 -32c15 -21 29 -42 34 -69c1 -7 7 -12 9 -19s1 -15 2 -22c2 -14 5 -27 8 -41c1 -8 3 -15 6 -23c5 -10 8 -21 9 -32c3 -23 6 -46 10 -69s5 -46 1 -68
c-3 -22 -1 -45 -2 -67c-1 -14 -1 -28 -2 -42l-3 -69c0 -20 -6 -40 -10 -59c-3 -11 -6 -22 -10 -33c-8 -26 -24 -46 -47 -62c-2 -1 -5 -3 -7 -4c-21 -6 -41 -15 -63 -17c-5 -1 -9 -2 -16 -3zM505 101c26 6 51 13 74 26c11 6 18 16 23 27c10 27 15 55 15 84c0 23 -1 46 -1 69
c0 32 -2 63 -6 94c-5 50 -15 100 -29 149c-3 11 -8 22 -13 33c-7 14 -18 23 -34 25c-10 2 -21 2 -31 3c-11 1 -22 1 -32 2c-12 1 -24 2 -36 2c-24 1 -48 2 -72 2c-3 0 -7 1 -10 1l-93 -12c-6 0 -11 -2 -17 -3c-25 -1 -47 -9 -69 -19c-4 -2 -8 -5 -11 -8
c-17 -17 -28 -38 -28 -62c-1 -18 -1 -35 -2 -52c-3 -30 -4 -59 -3 -89c0 -5 0 -10 -1 -14c0 -21 -2 -41 -2 -62c0 -6 2 -13 5 -19c4 -7 6 -14 6 -23c-2 -25 0 -51 1 -76c0 -2 1 -4 1 -6c2 -7 5 -15 7 -22c6 -19 17 -34 29 -47c3 -3 6 -4 9 -5c6 -3 12 -5 18 -7
c12 -4 24 -11 36 -11c13 -1 26 -2 39 1c3 1 8 1 12 1c9 -1 19 3 29 0c9 5 20 -2 29 3c2 1 6 1 8 0c9 -5 17 0 31 -2c-14 23 -29 40 -40 59c-11 21 -23 40 -35 61c0 1 0 3 1 5c9 18 12 20 33 15c6 -2 13 0 19 1c9 2 17 4 25 6c10 2 20 4 31 6c1 -1 5 -3 6 -6
c8 -16 16 -33 24 -50c2 -5 3 -10 5 -14c7 -12 13 -24 21 -34c8 -11 15 -24 28 -32z" />
    <glyph glyph-name="R" unicode="R" horiz-adv-x="557" 
d="M238 301c3 -6 7 -11 14 -15c18 -13 35 -26 51 -41c19 -19 39 -36 61 -51c8 -6 16 -14 25 -20c6 -5 13 -9 19 -14c21 -15 42 -30 59 -50c12 -15 25 -30 36 -45c8 -11 15 -24 22 -36c1 -1 1 -3 2 -5c1 -6 -3 -11 -8 -12c-4 -1 -7 -1 -10 -1c-19 -1 -39 -3 -60 -4l-8 8
c-16 15 -32 29 -47 44c-20 19 -42 37 -64 54c-7 6 -13 14 -20 20c-9 9 -19 18 -29 27c-15 13 -32 26 -47 40c-22 19 -44 39 -66 58c-15 14 -31 27 -47 40c-4 -4 -2 -9 -2 -13c-1 -4 -2 -8 -2 -12v-22c-1 -41 -2 -82 1 -123c1 -19 0 -37 0 -56c1 -13 2 -27 3 -40
c0 -4 1 -8 0 -12c0 -8 -4 -12 -12 -12h-8c-15 1 -29 2 -44 4c-7 1 -15 0 -21 6c3 29 1 58 -1 87c-1 26 0 53 -1 80v120s0 81 1 121c1 34 4 68 6 102c1 9 1 17 1 26c-2 28 0 56 1 84c0 22 2 43 3 66c-2 7 -1 8 0 13c3 12 37 5 43 7c15 5 30 7 45 7c11 0 22 3 34 0
c29 7 59 3 88 9c11 3 22 1 33 1c19 0 37 -1 56 -2c22 -2 45 -1 66 -11c15 -1 28 -7 42 -11c12 -4 19 -13 24 -22c9 -15 18 -31 21 -49c2 -10 4 -20 4 -30c0 -16 2 -31 3 -47c1 -19 2 -39 -1 -58c-1 -6 -1 -13 -1 -20c-2 -29 -5 -58 -12 -86c-3 -11 -7 -22 -11 -32
c-2 -8 -7 -14 -14 -19c-13 -9 -26 -15 -40 -21c-25 -10 -51 -16 -77 -23c-3 0 -6 -2 -9 -2c-33 -2 -65 -8 -98 -5c-1 0 -2 -1 -4 -2zM120 396c10 -1 17 -1 24 -3c16 -3 33 -3 49 -2c35 3 69 6 103 9c7 0 14 -2 20 0c8 3 17 3 25 2c10 -2 20 2 28 5c7 3 15 4 21 10
c16 15 22 33 26 53c3 16 2 33 1 49c0 14 -1 27 -4 40c-4 24 -10 48 -24 69c-7 11 -17 17 -29 18c-12 2 -24 1 -36 1c-8 1 -16 0 -24 0c-31 -1 -63 1 -95 -1c-24 -2 -47 -8 -71 -13c-5 -1 -8 -6 -5 -10c4 -7 4 -13 0 -19c-3 -5 -3 -10 -2 -15c1 -2 1 -4 0 -6
c-6 -7 -4 -16 -4 -25c0 -48 0 -96 -4 -145c0 -5 1 -10 1 -17z" />
    <glyph glyph-name="S" unicode="S" horiz-adv-x="566" 
d="M99 208c10 4 20 1 30 1s19 1 29 1h31c1 -4 3 -8 2 -11c-5 -15 1 -29 4 -43c3 -13 8 -25 13 -37c2 -5 6 -10 10 -13c11 -6 21 -11 35 -12c18 0 35 1 52 2c5 1 10 1 14 3c12 7 26 7 38 9c20 4 37 11 54 20c14 7 25 17 35 30c0 1 0 3 1 5c11 43 -5 80 -25 117
c-6 10 -17 12 -26 12c-24 -1 -48 3 -72 -2s-49 -3 -73 -5c-17 -1 -35 -3 -52 -4c-24 -2 -47 -5 -71 -3c-15 1 -31 3 -46 6c-18 4 -32 15 -40 32c-5 10 -9 21 -10 32c0 14 -3 28 -5 42c-2 10 -2 21 1 31c1 4 2 8 1 12c-3 22 3 44 3 66c0 21 2 41 4 62c3 34 15 66 35 94
c12 16 27 28 48 32s41 12 60 20c20 8 41 11 62 14c11 1 23 2 34 2l57 3c31 1 59 -9 88 -15c15 -3 27 -11 39 -20c5 -3 9 -8 11 -13c6 -15 15 -30 17 -47c3 -16 8 -32 6 -49c-1 -8 2 -17 2 -25c0 -10 -1 -19 -1 -28c0 -3 1 -5 1 -8c0 -9 1 -18 1 -27c0 -5 -3 -7 -8 -8h-8
c-10 2 -20 1 -29 -3c-7 -2 -13 -3 -20 -1c-5 5 -6 11 -7 17c-3 21 -6 43 -8 65c-2 31 -18 52 -45 64c-8 4 -15 7 -23 7c-22 2 -44 4 -66 4c-18 0 -36 -3 -53 -6c-22 -3 -42 -10 -57 -26c-2 -2 -4 -4 -5 -6c-15 -24 -28 -49 -32 -77c0 -3 -1 -6 -2 -10c-1 -11 -7 -20 -6 -32
c1 -11 -4 -22 -5 -33c0 -5 1 -11 3 -16c6 -12 13 -24 19 -37c15 -6 30 -7 46 -7c7 0 14 -1 22 -1c12 1 25 -1 36 8c2 2 6 3 9 4c18 2 35 4 53 4c11 1 22 3 33 4c11 0 22 -2 33 1c8 1 15 -2 23 -1c11 0 23 -3 34 -3c24 0 45 -11 66 -20c7 -10 20 -16 19 -31
c-1 -6 5 -12 6 -19c3 -12 4 -25 7 -37c6 -24 6 -49 6 -73c0 -15 -1 -31 -3 -46l-15 -90c-1 -6 -2 -12 -4 -18c-4 -11 -11 -20 -22 -27c-38 -21 -77 -35 -120 -41c-9 -1 -19 -1 -29 -1c-20 -1 -40 -2 -60 -2c-16 0 -32 0 -48 5c-17 5 -35 7 -52 13c-29 12 -55 29 -69 60
c-4 9 -8 18 -10 28c-5 32 -9 64 -8 97c0 1 1 2 2 5z" />
    <glyph glyph-name="T" unicode="T" horiz-adv-x="450" 
d="M22 701h62c3 0 6 0 10 1c17 2 33 0 50 -1c18 -1 36 -4 53 -2c2 1 3 1 4 0c13 -7 26 -1 39 -3c12 -2 25 -3 37 -4c9 -1 17 0 26 0c19 -2 38 -4 57 -7c22 -2 43 -5 65 -8c5 0 11 0 16 -6c-5 -21 -7 -43 -2 -65c-9 -5 -17 -4 -26 -3c-21 2 -42 3 -64 3c-25 0 -50 2 -75 3
c-6 0 -12 -1 -18 -1c-1 -8 -1 -15 -2 -23c0 -16 -1 -31 -1 -47c-1 -16 0 -32 0 -48c-1 -5 -1 -10 -2 -16c-1 -7 -1 -14 -1 -21c-1 -24 -1 -48 -4 -72c-2 -14 -2 -27 -2 -41c-2 -28 -2 -56 -3 -84c0 -17 -2 -34 -1 -52c0 -20 2 -39 3 -59c2 -36 4 -71 6 -106
c0 -4 -1 -9 -1 -15c-5 -1 -9 -3 -14 -3c-18 1 -37 3 -55 4c-7 0 -9 4 -9 10c-3 32 -1 64 -6 95c-1 7 1 15 1 22c-1 11 -2 21 -2 32c-1 13 -3 26 -3 39c0 24 -1 47 -1 70c0 16 -1 32 0 47c1 16 0 31 1 46c1 11 3 22 3 34c1 38 2 77 3 115c0 20 1 39 2 58v21c-6 1 -10 2 -15 2
c-11 1 -22 1 -34 0c-15 0 -30 -2 -45 -2c-16 -1 -32 -1 -48 -1c-8 0 -12 5 -10 12c5 21 4 42 3 63c0 4 1 8 3 13z" />
    <glyph glyph-name="U" unicode="U" horiz-adv-x="616" 
d="M569 700c1 -5 3 -9 2 -13c-2 -23 1 -47 0 -71c0 -2 1 -4 1 -6c1 -18 2 -37 4 -56c2 -23 4 -47 2 -71c-1 -27 3 -54 1 -81c-2 -18 2 -36 -3 -53c4 -27 0 -53 3 -79c1 -7 -4 -15 -3 -22s3 -14 2 -21c-2 -18 -3 -36 -5 -54c0 -3 -1 -6 0 -10c1 -30 -6 -58 -19 -84
c-7 -17 -20 -28 -36 -37c-17 -10 -35 -14 -54 -17c-14 -2 -27 -3 -40 -4c-26 -1 -52 -3 -78 -4h-26c-23 -1 -46 -1 -70 -1c-26 0 -53 0 -79 2c-35 1 -66 16 -93 37c-21 16 -31 39 -35 65c-4 28 -7 55 -7 83c0 33 -2 67 0 100c1 23 0 46 0 70c0 11 2 23 3 35v14
c0 9 0 19 1 28c3 31 3 61 4 92c1 23 5 46 7 69c2 21 4 41 6 62c3 2 7 4 10 4c20 1 39 -1 58 3c7 1 12 -5 12 -11c-2 -26 -3 -51 -4 -76c-1 -4 -1 -8 0 -12c2 -20 -1 -40 2 -59c1 -12 -1 -24 0 -36c0 -20 -3 -40 0 -60v-5c-2 -24 -2 -47 -4 -70c-3 -34 2 -67 2 -101
c-1 -29 1 -57 6 -85c2 -10 5 -19 8 -29s12 -17 21 -19c30 -8 59 -16 90 -15c11 0 21 0 32 1c9 1 18 1 28 -1c1 -1 2 -2 3 -1c13 5 25 1 38 1c22 -1 43 5 63 14c13 6 24 16 32 29c6 12 11 25 15 39c5 24 9 48 12 73c2 12 2 25 3 38c3 49 4 98 4 147c0 15 -1 30 -2 44
c-2 24 -3 48 -5 72c-1 22 -2 44 -5 66c-2 15 -7 31 -10 46c-2 11 2 18 13 16c23 -4 43 3 64 8c8 2 16 4 26 6z" />
    <glyph glyph-name="V" unicode="V" horiz-adv-x="605" 
d="M298 82c10 14 18 27 24 41c3 7 4 14 9 20c2 1 3 3 3 5c1 15 8 29 13 43c7 20 16 39 18 61l3 9c3 14 12 26 15 41c3 14 10 27 15 40c4 12 7 23 12 34c5 12 9 25 12 37c4 13 6 26 9 39c1 3 1 6 2 9c7 18 12 35 17 53c5 17 10 33 15 50c4 12 6 24 11 35c3 8 6 16 8 24
s6 16 8 24c10 31 21 62 24 95c0 8 5 11 13 11h8c15 -2 30 -3 45 -5c4 -3 6 -7 4 -12c-10 -43 -15 -87 -29 -130c-4 -12 -6 -24 -9 -36c-1 -8 -3 -15 -4 -22c-2 -5 -3 -10 -4 -15c-6 -33 -16 -65 -26 -96c-10 -34 -22 -67 -33 -100c-7 -24 -12 -48 -19 -71
c-2 -8 -5 -17 -7 -25c-7 -21 -14 -43 -21 -64c-4 -14 -6 -28 -10 -41c-9 -27 -16 -55 -27 -81c-4 -9 -6 -19 -9 -28s-6 -17 -9 -24c-14 -5 -27 -4 -40 -6c-33 -4 -65 -3 -97 -11c-5 -1 -10 1 -11 7c-3 22 -15 41 -24 61c-15 34 -27 69 -39 104c-9 27 -18 54 -28 81
c-12 38 -26 75 -34 114c-7 30 -15 60 -26 88c-3 9 -5 18 -8 27c-8 34 -17 67 -25 101c-7 33 -13 66 -20 99c-1 10 -3 20 -5 30c-1 3 -2 6 -3 10c-1 14 7 23 24 21c15 -1 29 0 43 5l6 3c5 1 11 -2 11 -8c2 -48 19 -92 31 -138c7 -23 12 -46 18 -69c2 -8 5 -15 7 -23
c4 -15 9 -29 10 -44c1 -16 7 -31 9 -46c0 -4 4 -8 5 -12c8 -26 18 -52 21 -79c1 -8 6 -15 7 -23c6 -26 18 -50 26 -75c3 -9 8 -18 11 -27c2 -4 2 -8 3 -12c1 -2 0 -6 2 -7c10 -14 13 -31 21 -45c8 -15 15 -30 24 -47z" />
    <glyph glyph-name="W" unicode="W" horiz-adv-x="859" 
d="M699 151c2 3 3 5 4 7c1 3 1 7 1 10c0 36 5 72 6 108c2 35 2 70 3 105c1 12 1 23 1 34c1 19 2 37 3 56c0 7 1 13 2 20c1 8 3 17 3 26c1 36 1 73 2 109c0 16 2 31 3 46c1 8 1 15 1 22c1 14 0 28 0 42c4 2 7 5 10 4c10 0 21 1 31 -5c8 -4 16 -1 25 -2c6 -1 13 0 20 -1
c3 0 6 -2 9 -3c1 -10 2 -19 2 -28c-1 -35 -2 -70 -2 -104c0 -26 0 -52 1 -78c0 -18 -1 -36 -3 -53c-3 -29 -6 -58 -7 -87c0 -30 -3 -59 -5 -88c-1 -18 -3 -35 -4 -53s-2 -37 -3 -55c0 -18 0 -36 -1 -54c-1 -19 -2 -37 -3 -56v-40v-8c-1 -6 -4 -9 -10 -10
c-9 -2 -19 -2 -28 -4c-13 -1 -26 -3 -39 -5c-7 -1 -13 1 -18 6c-9 10 -20 18 -30 27c-12 12 -23 25 -36 37c-13 13 -28 24 -42 37c-6 6 -13 13 -19 20c-11 12 -22 23 -34 34c-15 12 -27 27 -41 40c-10 9 -19 19 -29 27c-12 10 -22 22 -32 34c-15 18 -31 36 -47 54
c-3 4 -6 7 -11 11c-2 -5 -4 -8 -5 -11c-1 -7 -4 -12 -10 -17s-11 -12 -13 -21c-1 -5 -4 -10 -6 -15c-7 -15 -16 -30 -21 -47c-3 -13 -9 -25 -15 -37c-7 -13 -12 -28 -19 -41c-10 -18 -20 -36 -29 -55c-10 -17 -18 -35 -27 -53c-5 -11 -11 -21 -17 -32c-4 -6 -9 -8 -16 -9
c-26 0 -52 -2 -78 -3c-13 -1 -27 -1 -40 -2c-4 0 -8 4 -9 9c-3 16 -6 31 -8 47c-3 14 -4 29 -7 43c-1 7 -3 13 0 20c1 1 0 5 -1 7c-1 15 -3 30 -5 46l-3 21c-2 28 -5 56 -7 83c-2 23 -4 45 -5 68c-2 49 -4 98 -2 147c1 2 1 4 1 6c-5 23 -3 47 -4 70c-1 40 -1 80 -2 119
c0 5 -1 10 -1 15c2 1 5 4 7 4c25 -3 50 3 75 3c5 0 10 -1 16 -2c1 -6 2 -10 2 -14c-2 -26 -1 -51 -1 -76c-1 -26 1 -52 0 -78c-1 -31 2 -62 3 -93c2 -34 3 -67 5 -100c3 -28 7 -55 10 -83c2 -20 4 -40 7 -60c3 -23 8 -47 12 -70c1 -2 2 -5 4 -9c9 10 15 21 21 31
c15 23 28 48 42 72c20 33 35 68 53 103c4 8 8 17 13 24c9 14 14 29 20 43c9 22 16 44 31 63c3 4 5 9 7 14c4 7 11 8 17 3c23 -21 45 -42 68 -63c8 -8 17 -14 24 -22c7 -7 13 -15 20 -22c8 -9 16 -18 24 -26c13 -13 27 -26 39 -40c18 -18 35 -36 52 -54c2 -3 4 -5 7 -7
c18 -19 37 -38 56 -56c10 -9 21 -16 32 -25z" />
    <glyph glyph-name="X" unicode="X" horiz-adv-x="728" 
d="M605 667c-7 -15 -13 -29 -21 -43c-7 -15 -15 -29 -23 -44c-7 -13 -14 -26 -20 -39c-9 -20 -20 -39 -33 -57c-21 -28 -41 -57 -58 -88c-5 -9 -12 -17 -19 -27c9 -14 16 -28 24 -42c12 -18 24 -36 37 -54c18 -24 35 -49 55 -71c9 -11 19 -20 29 -30c12 -13 23 -27 35 -40
c9 -11 17 -22 26 -33l9 -15c13 -18 26 -37 40 -55c2 -4 6 -6 10 -10s9 -7 13 -12c1 -2 1 -7 0 -9s-5 -3 -8 -5c0 0 -1 1 -2 1c-21 7 -42 6 -63 4c-10 -1 -17 2 -24 10c-19 20 -40 39 -60 58l-6 6c-18 19 -36 39 -54 59c-10 12 -19 25 -29 37c-29 33 -57 65 -86 98
c-3 4 -8 7 -12 11c-18 -12 -29 -29 -39 -46c-14 -23 -31 -44 -49 -65c-5 -5 -10 -10 -14 -16c-5 -8 -9 -16 -18 -20c-6 -3 -10 -10 -14 -15l-15 -21s-11 -13 -19 -17c-9 -4 -14 -10 -18 -19c-6 -14 -18 -26 -23 -41c-1 -2 -5 -5 -8 -5c-11 -2 -22 -2 -33 -3
c-14 0 -28 0 -42 -1c-8 0 -15 -2 -22 -3c-6 0 -12 -1 -18 0s-8 8 -3 12c9 7 16 17 21 28c9 19 25 33 38 49c9 12 19 23 28 36c18 26 38 51 60 74c8 10 17 19 27 26c3 2 6 4 8 7c9 10 19 20 27 31c18 23 40 43 60 65c2 2 5 4 6 7s1 6 0 9c0 2 -1 3 -2 4c-22 24 -40 51 -59 78
c-23 31 -44 64 -66 97c-21 29 -40 58 -62 86c-6 7 -12 16 -18 24c-7 10 -14 19 -23 27c-8 7 -14 16 -16 27c-1 3 0 6 0 10c19 8 38 3 57 6c19 2 38 0 58 0c69 -92 137 -184 212 -272c7 10 15 19 21 29c12 19 25 38 35 58c15 26 29 52 38 81c3 7 7 13 10 20c6 14 13 29 19 43
c6 12 9 14 22 11c6 -1 13 -2 20 -2c14 0 27 -4 41 -1c7 2 12 -1 13 -8z" />
    <glyph glyph-name="Y" unicode="Y" horiz-adv-x="699" 
d="M385 375c6 5 9 11 12 17c6 12 12 23 19 35c12 21 22 42 32 64c13 30 27 61 45 89c1 0 1 1 1 1c6 8 12 15 16 23c5 8 7 17 12 25c8 14 17 28 26 43c10 16 19 33 28 50c3 6 4 13 6 19c3 7 7 9 14 7c25 -7 49 -11 75 -11c9 0 12 -4 10 -14c-11 -53 -36 -99 -63 -144
c-13 -22 -27 -44 -39 -67c-10 -22 -24 -43 -36 -64c-25 -42 -56 -79 -85 -118c-13 -17 -23 -36 -32 -55c-2 -3 -2 -7 -2 -11v-30v-8c6 -29 6 -58 8 -87c1 -17 2 -33 4 -50l6 -69c1 -8 -3 -13 -9 -12c-25 4 -49 -1 -74 0c-2 1 -5 2 -7 3c-5 14 -4 29 -5 43v96
c1 27 -1 55 -3 82c-2 19 -4 38 -5 57c-1 9 -5 15 -10 21c-28 30 -55 60 -82 91c-22 26 -42 53 -63 80s-43 54 -67 79c-9 9 -16 19 -23 30c-15 24 -32 47 -50 70c-10 13 -19 27 -28 40c-1 1 -1 2 -1 2c-7 14 -7 16 8 26c22 -10 46 -8 70 -5c10 1 16 0 22 -9
c10 -13 22 -24 33 -37c19 -23 38 -46 56 -70c25 -35 53 -68 80 -101c4 -5 7 -10 10 -15c15 -27 33 -51 54 -74c10 -11 18 -24 28 -35c2 -3 6 -4 9 -7z" />
    <glyph glyph-name="Z" unicode="Z" horiz-adv-x="585" 
d="M424 595c-13 3 -21 5 -31 3s-21 -1 -32 1c-10 2 -21 3 -31 2c-21 -2 -42 2 -62 2c-21 -1 -41 1 -61 -2c-6 -1 -11 -2 -16 -1c-30 0 -59 -3 -88 -7c-11 -1 -22 -1 -34 0c-6 0 -9 4 -8 10c1 23 0 46 -4 68c-1 2 -1 5 -1 8c0 4 4 8 7 7c27 -11 54 -7 81 -6c22 0 43 3 65 2
c22 0 44 4 66 0c24 4 47 1 71 -1c8 0 16 2 24 2c21 1 42 1 64 1h79c9 0 18 2 25 -5c2 -7 4 -15 5 -23c3 -14 5 -29 12 -42c3 -5 1 -10 -3 -14c-30 -24 -56 -52 -81 -80c-23 -26 -45 -52 -68 -79c-1 -1 -2 -3 -3 -4c-16 -26 -38 -47 -54 -72c-24 -36 -55 -67 -80 -102
c-22 -29 -50 -54 -71 -84c-1 -2 -3 -4 -6 -5c-18 -15 -33 -35 -47 -54c-1 0 0 -1 0 -2c1 -3 4 -2 6 -2c24 -1 54 4 80 6c21 1 43 2 64 -1c20 -2 42 -2 61 -2c27 1 53 2 80 3c7 0 13 -1 18 -2c21 -2 42 0 63 1c5 0 10 2 15 3c6 1 13 2 18 -4c2 -4 2 -9 2 -14
c-2 -26 1 -50 12 -75c5 -11 -3 -18 -17 -15c-16 2 -32 6 -47 8c-20 3 -39 5 -58 4c-29 -3 -57 -2 -86 -6c-6 -1 -14 0 -21 0c-18 2 -41 4 -60 6c-14 1 -27 1 -41 1c-32 0 -64 -1 -91 -2c-18 0 -37 -2 -56 -2h-54c-2 4 -4 8 -3 11c4 24 3 48 2 71v7c10 10 21 20 31 30
c5 6 10 12 14 18l24 30l12 12c5 5 9 10 14 15c5 6 11 12 17 19c3 3 5 6 8 9c3 5 7 11 11 16c2 2 5 4 5 6c5 17 19 27 28 41c8 14 18 26 27 39c3 5 8 9 12 14c1 0 2 1 3 2c4 13 15 21 22 33s16 24 26 35c1 2 3 4 5 6c8 16 20 29 32 42c20 23 42 42 63 63c9 10 19 18 25 30
c4 7 9 13 16 21z" />
    <glyph glyph-name="space" unicode=" " horiz-adv-x="382" 
 />
    <glyph glyph-name="exclam" unicode="!" horiz-adv-x="149" 
d="M80 139c-9 -1 -18 -2 -28 -2c-5 0 -8 3 -9 9c0 1 -1 4 0 5c3 20 -1 40 -2 60c-1 3 -1 5 -1 8c1 54 -5 109 -5 163c-1 27 -2 54 -3 80c-1 12 -3 24 -4 36c-2 22 -2 45 -5 67c-2 18 -3 35 -3 52v86c0 6 2 12 4 17c1 5 5 8 10 8c11 0 22 3 33 1c12 -3 25 -2 38 -2
c10 -1 13 -4 12 -14c0 -8 0 -16 -1 -24c-1 -12 -3 -24 -3 -36c-1 -24 -1 -49 -1 -73v-72c1 -26 2 -51 2 -76c1 -29 2 -57 1 -86c-1 -24 0 -49 0 -74c1 -17 1 -34 2 -52c0 -21 1 -42 1 -63v-4c1 -11 -2 -14 -12 -14h-26v0zM123 11c-14 -7 -55 -13 -74 -10c-1 1 -3 3 -3 5
c1 15 2 30 1 45c-1 12 7 19 11 29c1 1 2 2 3 2c15 4 29 11 45 9c9 -1 13 -4 14 -13c0 -6 0 -12 1 -18c1 -15 2 -29 3 -44c0 -2 -1 -3 -1 -5z" />
    <glyph glyph-name="quotedbl" unicode="&#x22;" horiz-adv-x="300" 
d="M176 723c8 -4 15 -7 23 -4c3 1 7 -1 10 -1c12 -3 23 -6 36 -9c1 -3 3 -6 2 -10c-1 -23 2 -46 4 -70c3 -21 6 -42 7 -63c3 -49 6 -99 9 -149c0 -6 2 -13 2 -20c0 -5 0 -10 -1 -15c-1 -7 -5 -11 -12 -12c-22 -3 -43 -7 -66 -6c-1 2 -3 5 -3 7c-2 21 -4 42 -4 63
c-1 42 -4 84 -7 126c-3 37 -7 74 -5 111c1 14 0 27 0 40c1 4 3 7 5 12zM118 705c0 -24 2 -47 1 -70c-2 -26 0 -52 0 -78c-1 -34 0 -69 0 -103c0 -9 1 -19 1 -28c0 -2 1 -4 1 -6c-1 -10 -2 -21 -3 -31c-4 -4 -9 -5 -14 -3c-15 7 -32 6 -49 6c-11 0 -14 3 -14 14
c-1 27 -2 53 -3 80c-1 22 -2 45 -3 67c-2 44 -5 88 -1 132c1 5 0 11 1 17c0 5 2 8 7 9c9 0 18 1 28 0c15 -2 31 3 48 -6z" />
    <glyph glyph-name="numbersign" unicode="#" horiz-adv-x="565" 
d="M98 -7c2 20 4 38 4 57c1 20 2 39 4 58s2 38 2 58c-6 1 -11 2 -16 1c-19 0 -38 -1 -56 -2c-3 0 -6 -1 -8 -1c-5 0 -9 4 -10 9v6c0 18 0 36 1 54c0 3 0 6 1 10c4 2 9 5 13 4c22 -1 43 5 65 7c6 1 14 -1 19 4c1 1 2 2 2 4c4 55 10 111 16 166c0 2 -1 4 -2 7
c-10 2 -21 0 -31 -2c-14 -3 -28 -6 -43 -9c-7 -2 -13 4 -11 12c3 13 3 27 4 41c0 9 1 19 3 28c2 11 11 17 23 17c18 1 36 1 54 3c12 0 15 3 16 15c3 22 5 45 7 67c3 24 5 48 7 72c1 6 1 12 1 18c-2 1 -4 2 -5 3c-8 6 -8 14 0 19c2 0 4 1 6 1c25 10 55 15 87 6
c1 -4 3 -9 2 -13c-7 -29 -9 -60 -12 -90c-1 -16 -2 -33 -2 -50c-1 -8 0 -15 0 -25c5 0 10 -1 15 0c34 4 68 7 102 7c2 0 3 1 5 2c5 5 5 12 6 19c1 17 3 34 4 51c2 20 3 40 5 60c0 9 -1 18 1 26s7 15 10 23c3 7 8 10 15 7c9 -3 19 -3 29 -4c7 -1 15 -1 22 -2c4 0 8 -2 13 -4
c-1 -16 -2 -32 -4 -46c-4 -30 -6 -60 -13 -89c-4 -16 -5 -32 -7 -48c11 -3 22 -6 33 -7s21 -3 32 -1c9 2 19 -2 28 0c5 1 9 -5 9 -9c-2 -20 3 -39 4 -58c0 -2 0 -4 1 -6c0 -6 -5 -11 -12 -10c-18 1 -36 -1 -54 -3c-10 -1 -21 0 -32 0c-5 0 -11 -1 -18 -1
c-7 -31 -8 -61 -13 -91s-9 -59 -10 -90c13 -4 24 -5 36 -3c11 2 23 3 34 5c7 1 13 2 19 4c6 -2 7 -7 7 -11c-3 -22 0 -43 4 -63c2 -9 -2 -13 -10 -15c-18 -3 -36 -6 -55 -9c-6 -1 -13 -2 -19 -2c-8 0 -16 -1 -24 -5c-2 -3 -4 -7 -4 -11c-3 -38 -5 -75 -7 -113
c-1 -11 0 -23 -1 -34c0 -12 -5 -16 -17 -17c-14 -1 -28 -3 -42 -4c-5 0 -10 0 -16 5c2 13 2 28 4 42c3 14 3 29 4 43l3 42c2 14 3 29 5 44c-5 1 -8 3 -12 3c-35 0 -71 -1 -106 -1c-11 0 -21 -2 -33 -3c-3 -10 -5 -20 -5 -31l-6 -102c-1 -11 -1 -22 -2 -34
c-1 -11 -5 -15 -16 -15c-9 0 -18 0 -26 1c-9 0 -17 2 -27 3zM192 273c4 -1 6 -2 8 -1c18 3 35 6 53 2c26 2 51 3 76 5c10 1 12 4 13 14l3 36c2 22 4 43 6 65c1 19 1 37 2 56c-17 5 -89 0 -131 -9c-6 -30 -14 -60 -19 -90c-4 -26 -9 -51 -11 -78z" />
    <glyph glyph-name="dollar" unicode="$" horiz-adv-x="421" 
d="M155 645c0 10 0 18 -1 27c0 19 -1 37 -2 56c-1 12 -2 25 -3 38c-1 10 0 11 9 15c11 4 21 9 33 13c4 2 9 0 12 -4c4 -13 8 -24 11 -37c3 -23 3 -46 5 -70c0 -5 1 -10 2 -15c2 -10 9 -15 19 -14c26 4 51 -1 76 -5l27 -6c12 -2 22 -5 32 -11c6 -11 7 -22 6 -34
c-1 -22 -1 -44 -6 -66c-1 -7 4 -15 -2 -22c-25 -2 -48 -11 -73 -9c-6 6 -6 14 -6 22c0 7 -1 13 -5 18c-1 4 -3 7 -6 8c-10 6 -19 11 -31 12c-15 1 -31 3 -46 2c-17 0 -33 -5 -48 -11c-3 -1 -5 -3 -6 -6c-16 -16 -26 -34 -25 -59c0 -8 5 -14 11 -17c7 -7 15 -11 23 -16
c22 -13 44 -24 68 -33c11 -4 22 -5 30 -15c7 0 9 -8 17 -7c11 -8 21 -15 31 -22c17 -12 59 -27 70 -44c13 -18 20 -37 15 -58c0 -7 -1 -13 -1 -20c1 -25 -9 -46 -19 -66c-3 -6 -9 -10 -14 -13c-17 -11 -35 -17 -55 -19c-20 -3 -40 -7 -62 -11c-5 -11 -4 -24 -3 -37
c3 -38 6 -74 12 -112c1 -4 0 -7 1 -11c-5 -1 -8 -4 -11 -3c-22 1 -43 2 -64 3c-10 0 -13 3 -12 14c0 39 -4 77 -8 116c0 8 0 17 -1 25c-7 4 -13 5 -19 6c-25 2 -49 4 -74 11c-6 3 -13 6 -20 8c-11 5 -16 14 -17 25c-3 28 -6 56 -8 83c-1 13 -4 26 -4 38c-1 7 2 10 9 10
c15 -1 31 1 46 3c13 2 26 3 41 4c1 -2 2 -6 2 -9c-1 -14 -2 -28 -1 -43c0 -14 6 -27 12 -39c5 -13 19 -15 31 -18c14 -4 28 1 43 2c14 0 28 1 41 1c15 1 27 6 39 14c5 4 8 7 9 13c1 10 2 20 1 29c-1 11 -5 20 -13 26c-18 16 -38 26 -61 35c-15 5 -28 15 -41 23
c-13 7 -53 22 -67 30c-14 7 -31 8 -43 19c-10 8 -17 24 -30 24c-3 9 -5 18 -9 24c-6 12 -7 24 -5 35c3 8 4 15 5 22c4 10 6 20 11 31l21 42c6 13 16 19 27 26c22 12 47 21 74 29z" />
    <glyph glyph-name="percent" unicode="%" horiz-adv-x="816" 
d="M32 457c-2 36 -4 71 -7 107c-2 34 -1 67 5 99c1 8 1 15 2 22c1 12 7 22 16 29c8 6 14 15 26 13c2 0 4 3 6 4s5 3 7 3c21 2 42 9 63 12c11 1 22 3 33 2c19 -2 36 0 54 3c20 3 32 -7 42 -23c9 -13 14 -28 18 -43c7 -26 9 -52 10 -79c1 -19 4 -37 3 -56
c-1 -35 -3 -71 -6 -107c-2 -22 -5 -44 -6 -66c-1 -12 -6 -23 -12 -33c-15 -24 -37 -40 -62 -51c-9 -4 -20 -6 -29 -6c-20 -1 -39 0 -58 0c-12 0 -23 3 -33 8c-12 7 -25 13 -37 20c-16 8 -25 21 -27 39c-2 10 -3 21 -6 31c-4 20 -2 41 -3 62v10h1zM215 521c1 27 2 56 1 84
c-1 22 -10 39 -25 53c-5 6 -12 8 -19 8c-12 -2 -23 -4 -34 -7c-9 -2 -16 -9 -18 -19c-3 -17 -4 -34 -6 -51c0 -7 1 -14 1 -22c0 -19 -1 -38 -1 -57c0 -10 1 -19 3 -28c3 -12 1 -22 -1 -33l-3 -12c-7 -35 20 -54 49 -60c1 0 2 1 4 1c18 1 42 24 44 42c2 19 7 38 6 58
c-1 14 -1 28 -1 43zM677 34c-19 2 -39 3 -59 5c-14 2 -26 7 -37 15c-16 13 -30 28 -37 49c-5 15 -9 30 -9 46c0 6 0 11 -2 16c-5 9 -5 19 -7 29c-4 32 -3 64 -4 95c-1 14 -1 27 -3 40c-4 25 -3 51 -1 76c2 15 5 30 9 45c6 19 19 33 38 41c12 5 24 9 38 11s27 6 40 10
c14 3 28 1 42 1c13 1 26 0 38 -4c19 -7 31 -19 39 -37c14 -31 19 -64 24 -96c4 -29 4 -59 6 -88c0 -12 2 -23 2 -35c0 -17 -2 -33 -2 -50c-1 -14 -1 -28 -1 -42c-2 -22 -4 -45 -6 -67c-2 -21 -13 -36 -32 -46c-17 -8 -35 -13 -54 -13h-22v-1zM719 248h1l-3 102
c-1 18 -5 35 -9 53c-3 11 -9 20 -16 27c-10 9 -22 14 -37 11c-13 -3 -22 -11 -34 -17c-15 -7 -22 -20 -22 -36c-1 -26 -1 -52 -1 -78c0 -17 0 -33 1 -50c1 -11 -1 -23 7 -32c1 -2 1 -5 1 -6c-4 -13 7 -28 -4 -40c1 -7 0 -14 2 -20c5 -16 14 -31 26 -44c10 -11 26 -11 39 -16
c33 5 50 24 49 50c-1 32 0 64 0 96zM455 757c6 -1 11 0 13 -2c10 -8 20 -10 31 -5c2 1 5 2 8 2c12 -2 25 0 36 3c6 -4 7 -8 5 -14c-4 -9 -8 -19 -10 -30c-2 -18 -11 -35 -14 -53c-2 -10 -5 -19 -6 -29c-2 -11 -6 -21 -9 -31c-4 -12 -9 -23 -13 -35c-2 -4 -3 -9 -4 -13
c-6 -34 -15 -66 -28 -98c-2 -7 -3 -14 -5 -21c-10 -30 -19 -60 -28 -90c-1 -1 -1 -4 -2 -5c-9 -12 -11 -27 -17 -40s-13 -26 -18 -40c-9 -26 -20 -52 -28 -79c-12 -42 -26 -83 -32 -127c-2 -13 -5 -26 -8 -39c-1 -6 -4 -11 -7 -17c-12 0 -23 -1 -34 -1s-23 -3 -33 2
c-4 11 2 19 4 28c2 8 4 16 6 25c1 6 3 12 5 19c1 1 2 3 2 5c2 23 9 45 15 68c5 20 13 40 19 60c2 5 2 10 4 15c7 25 14 51 21 77c6 22 12 44 21 66c8 18 13 37 19 56c8 30 17 61 25 92c7 26 12 53 18 79c1 3 2 7 3 10c9 27 16 55 22 82c5 26 12 52 19 80z" />
    <glyph glyph-name="ampersand" unicode="&#x26;" horiz-adv-x="535" 
d="M275 380c1 -1 1 -3 2 -4l72 -108c7 -11 15 -23 23 -34c1 -2 3 -4 6 -6c6 18 6 35 7 52s2 33 2 50c0 9 0 19 -1 28c0 10 4 15 14 15h4c12 -1 25 1 37 6c1 1 2 2 3 2c8 2 14 -1 14 -9c0 -21 1 -43 1 -64c0 -20 1 -40 -1 -60s-7 -39 -13 -58c-4 -10 -7 -20 -10 -30
c-3 -7 -1 -14 3 -20c17 -23 32 -46 48 -69c3 -4 6 -7 9 -10c4 -1 9 0 12 -2c2 -2 3 -6 4 -10c3 -8 4 -17 6 -25c-2 -8 -9 -9 -16 -9c-13 0 -26 0 -40 1c-9 0 -18 4 -27 0c-5 -2 -9 2 -12 6c-11 14 -21 29 -32 43c-2 3 -5 6 -8 9c-10 -8 -20 -14 -28 -22
c-19 -19 -42 -29 -68 -32c-19 -3 -39 -4 -59 -5h-6c-23 3 -45 3 -68 4c-13 0 -26 4 -37 12c-5 4 -10 7 -16 9c-17 9 -31 23 -41 39c-14 21 -24 43 -32 67c-4 11 -5 22 -5 33c1 25 8 48 19 70c12 25 29 44 47 64c19 20 40 37 62 53c7 4 13 9 20 14c5 5 7 9 3 16
c-15 24 -23 52 -34 78c-12 30 -22 61 -32 92c-3 7 -4 14 -4 22c0 32 9 63 25 91c1 2 2 5 4 7c23 22 48 40 81 44c6 1 12 3 17 5c9 3 18 5 27 4c7 -1 14 -1 20 -1c39 -2 70 -21 94 -50c10 -13 16 -29 20 -45c5 -22 7 -44 5 -65c-2 -20 -5 -40 -11 -59c-8 -25 -21 -47 -39 -67
c-13 -14 -26 -28 -40 -41c-9 -9 -18 -18 -27 -26c-2 -1 -3 -3 -4 -5zM215 319c-3 -1 -6 -2 -8 -4c-9 -7 -16 -14 -24 -21c-28 -24 -51 -53 -69 -85c-5 -7 -10 -17 -9 -25c0 -26 8 -48 29 -65c28 -21 59 -28 92 -27c20 0 40 6 59 13c17 6 31 16 46 24c2 2 3 4 5 7
c-7 10 -13 20 -20 30c-22 28 -41 59 -58 90c-13 22 -26 43 -43 63zM237 437c6 6 10 12 14 16c19 19 33 42 42 67c10 26 8 51 0 76c-5 15 -16 25 -31 29c-12 3 -25 4 -38 2s-23 -9 -28 -21c-13 -34 -17 -67 1 -100c7 -14 14 -27 19 -41c5 -11 12 -19 21 -28z" />
    <glyph glyph-name="quotesingle" unicode="'" horiz-adv-x="156" 
d="M32 478c-3 46 -2 91 1 136c1 30 4 60 6 89c0 7 1 14 2 20s5 9 11 11c4 1 8 2 12 2c13 2 26 3 39 5c7 1 13 -4 12 -10c-3 -19 4 -37 2 -56c-1 -18 2 -36 2 -53c1 -22 1 -43 2 -64c1 -13 -1 -26 1 -39c1 -13 -2 -26 -4 -40c-1 -10 -6 -14 -16 -12c-8 1 -17 3 -25 4
c-12 1 -24 2 -36 4c-3 0 -6 2 -9 3z" />
    <glyph glyph-name="parenleft" unicode="(" horiz-adv-x="318" 
d="M286 58c6 -5 8 -9 6 -16c-5 -19 -7 -38 -7 -57c0 -9 2 -18 2 -27c-5 -5 -10 -6 -17 -5c-45 10 -90 23 -132 43c-29 14 -55 34 -72 61c-13 19 -21 40 -27 62c-10 41 -14 83 -17 125c-1 23 -3 47 -2 71c1 30 0 61 5 91c6 31 11 63 18 94c4 20 9 40 15 59c6 18 11 36 18 53
c10 25 21 51 32 75c10 20 22 40 37 57c12 14 25 27 41 37c30 16 61 26 95 25c9 0 12 -6 9 -13c-5 -9 -11 -33 -10 -42c0 -6 0 -12 1 -17c-5 -6 -11 -6 -17 -8c-16 -4 -33 -7 -47 -16c-2 -2 -6 -3 -8 -6c-20 -20 -39 -41 -49 -69c-13 -33 -19 -67 -25 -102
c-5 -26 -5 -53 -8 -79c-3 -27 -3 -53 -4 -80c0 -29 -1 -58 4 -87c1 -4 0 -9 0 -14c-1 -21 5 -41 6 -61c0 -1 0 -1 1 -2c9 -17 11 -37 16 -55c10 -31 28 -55 51 -75c16 -14 35 -22 56 -23c10 -1 20 -1 29 1z" />
    <glyph glyph-name="parenright" unicode=")" horiz-adv-x="305" 
d="M15 740c0 7 -1 12 0 18c2 9 2 19 0 29c-2 9 0 11 8 16c6 2 11 2 18 2c13 -2 27 -4 41 -4c46 -1 84 -15 113 -53c1 -1 2 -3 3 -4c14 -8 20 -21 28 -34c4 -8 6 -17 10 -26c16 -35 24 -72 31 -110l6 -39c4 -30 5 -60 6 -89c0 -18 0 -35 2 -52c2 -12 1 -25 0 -38
c-2 -23 -2 -47 -7 -71c-2 -8 -2 -17 -3 -25c-3 -28 -6 -54 -10 -81c-7 -55 -30 -102 -60 -146c-1 -3 -3 -4 -5 -6l-33 -30s-22 -17 -38 -20c-17 -3 -35 -7 -53 -7c-8 0 -13 4 -12 11c4 17 -1 32 -4 47c-2 8 2 13 10 14c5 0 10 1 14 1c12 -1 22 4 32 9c14 6 24 16 35 26
c3 4 6 9 9 14c7 14 14 29 20 45c3 8 4 17 5 25c3 30 7 61 8 91c2 30 1 59 0 88c-2 35 -4 71 -7 106c-1 12 -3 24 -4 36c-2 34 -10 68 -19 101c-7 29 -14 59 -26 86c-6 12 -12 25 -19 37c-11 18 -27 29 -49 30c-14 0 -27 3 -40 -1c-3 0 -6 2 -10 4z" />
    <glyph glyph-name="asterisk" unicode="*" horiz-adv-x="486" 
d="M261 380c-8 -9 -10 -20 -13 -29c-5 -14 -8 -27 -12 -40c-8 -26 -17 -51 -26 -76c-3 -11 -5 -23 -8 -34c-2 -7 -5 -13 -7 -19c-2 -4 -6 -7 -10 -5c-23 7 -47 6 -70 16c-1 1 -3 2 -5 4c1 4 3 7 4 11c15 30 26 63 38 94c3 8 7 16 11 23c6 14 13 28 17 42c4 12 10 24 15 35
c1 5 2 9 4 15c-4 2 -8 5 -12 6c-27 6 -55 11 -82 16c-31 6 -61 13 -91 19c-2 1 -4 2 -7 4c1 3 2 6 3 8c5 17 14 32 13 50c0 5 4 8 9 8c2 0 4 0 6 -1c32 -11 67 -11 100 -19c17 -3 33 -7 49 -14c5 -2 10 -3 17 0v18c0 40 0 79 -1 118c0 27 -3 53 -5 80c0 5 0 10 1 16
c1 3 7 6 10 4c16 -11 33 -7 50 -6c2 0 4 1 6 1c5 1 11 -5 9 -10c-4 -13 -2 -25 0 -38l12 -84c1 -5 1 -10 1 -14c1 -26 4 -52 3 -78c-1 -6 0 -13 1 -21c8 5 15 9 22 13c15 9 29 18 44 26c18 10 37 20 55 30c3 2 6 5 9 7c4 3 9 6 14 8c6 2 11 1 13 -4c5 -12 12 -21 22 -28
c-1 -5 -2 -8 -4 -10c-15 -17 -29 -37 -49 -49c-8 -4 -14 -10 -21 -16c-22 -17 -44 -33 -71 -44c-2 0 -3 -2 -4 -3c9 -12 17 -24 25 -36c15 -19 30 -39 45 -58c9 -13 19 -26 27 -39c15 -24 29 -47 43 -71c3 -6 2 -11 -4 -14c-3 -2 -7 -3 -11 -4c-18 -7 -36 -11 -52 -23
c-6 -4 -11 -2 -15 5c-7 12 -15 24 -20 37c-10 22 -24 43 -33 66c-6 17 -17 33 -26 49c-10 15 -19 31 -28 46c-3 4 -7 8 -11 12z" />
    <glyph glyph-name="plus" unicode="+" horiz-adv-x="334" 
d="M217 388c-1 -5 -2 -9 -1 -12c2 -21 4 -41 6 -62c1 -10 3 -20 4 -29c0 -11 -2 -15 -12 -15c-20 -2 -39 -7 -58 -12c-9 -1 -14 2 -14 10c1 28 -6 56 -5 85c1 10 -3 20 -4 29c-3 1 -5 2 -7 2c-24 -4 -49 -3 -74 -3c-9 0 -18 -1 -27 -2c-11 -1 -15 3 -15 14v56c0 2 -1 5 -1 8
c-1 12 2 16 14 15c3 0 6 0 10 -1c11 -1 23 -2 35 0c15 2 31 1 46 1c5 0 10 1 16 1c1 5 2 8 2 12c0 21 3 43 0 64c-1 9 3 14 12 16l48 9c6 1 9 -2 10 -8v-12c2 -24 3 -49 5 -73c0 -3 2 -5 3 -9c18 0 36 1 53 0c18 -1 35 -3 52 -4c6 -12 1 -24 3 -35s6 -22 5 -34
c-35 -9 -70 -4 -106 -11z" />
    <glyph glyph-name="comma" unicode="," horiz-adv-x="191" 
d="M97 10c-5 3 -9 2 -14 0c-7 -3 -15 -5 -22 -8c-5 -1 -10 -3 -16 -3c-6 -1 -11 5 -10 12c4 26 3 52 0 79c-2 10 2 18 9 26c14 0 28 2 43 1c16 0 31 -1 47 -1c17 0 22 -5 25 -22c4 -20 7 -41 6 -61s-1 -41 -8 -61c-1 -5 -2 -9 -3 -14c-6 -38 -25 -65 -64 -75
c-12 -3 -23 -5 -35 -7c-10 -1 -15 4 -16 14c-2 20 -4 41 -5 61c-1 11 3 15 14 14c24 -3 39 6 48 26c3 7 3 13 1 19z" />
    <glyph glyph-name="hyphen" unicode="-" horiz-adv-x="419" 
d="M387 302c3 -21 -8 -42 1 -64c-4 -2 -7 -5 -11 -5c-37 0 -74 -5 -111 -4c-20 0 -40 1 -60 0c-25 -3 -50 -3 -75 2c-5 1 -11 1 -16 0c-25 -4 -50 -3 -76 -2c-1 5 -4 9 -3 14c0 17 3 34 2 51c-1 13 6 18 18 19h28c7 0 14 -1 20 0c24 5 48 1 71 -2c12 -2 24 -2 35 -3
c6 -1 11 -1 16 -2c3 0 5 -1 8 0c14 5 28 2 43 3c6 1 13 1 20 0c28 -5 56 -4 84 -5c1 0 3 -1 6 -2z" />
    <glyph glyph-name="period" unicode="." horiz-adv-x="184" 
d="M145 106c4 -31 6 -61 10 -91c0 -1 -3 -3 -5 -7c-35 1 -71 -8 -108 -8c-2 7 -4 13 -4 18c-2 29 -2 58 -2 87c0 7 6 13 16 13c31 -1 63 0 93 -12z" />
    <glyph glyph-name="slash" unicode="/" horiz-adv-x="312" 
d="M213 757c6 -1 11 0 13 -2c10 -8 20 -10 31 -5c2 1 5 2 8 2c12 -2 25 0 36 3c6 -4 7 -8 5 -14c-4 -9 -8 -19 -10 -30c-2 -18 -11 -35 -14 -53c-2 -10 -5 -19 -6 -29c-2 -11 -6 -21 -9 -31c-4 -12 -9 -23 -13 -35c-2 -4 -3 -9 -4 -13c-6 -34 -15 -66 -28 -98
c-2 -7 -3 -14 -5 -21c-10 -30 -19 -60 -28 -90c-1 -1 -1 -4 -2 -5c-9 -12 -11 -27 -17 -40s-13 -26 -18 -40c-9 -26 -20 -52 -28 -79c-12 -42 -26 -83 -32 -127c-2 -13 -5 -26 -8 -39c-1 -6 -4 -11 -7 -17c-12 0 -23 -1 -34 -1s-23 -3 -33 2c-4 11 2 19 4 28c2 8 4 16 6 25
c1 6 3 12 5 19c1 1 2 3 2 5c2 23 9 45 15 68c5 20 13 40 19 60c2 5 2 10 4 15c7 25 14 51 21 77c6 22 12 44 21 66c8 18 13 37 19 56c8 30 17 61 25 92c7 26 12 53 18 79c1 3 2 7 3 10c9 27 16 55 22 82c5 26 12 52 19 80z" />
    <glyph glyph-name="zero" unicode="0" horiz-adv-x="435" 
d="M400 456c1 -18 -1 -41 2 -64c1 -2 1 -5 1 -8c0 -18 -1 -37 -1 -55c0 -10 1 -20 -2 -30c-1 -4 -1 -8 -1 -12c0 -26 1 -52 0 -78c-1 -24 0 -49 -4 -73c-4 -26 -15 -50 -36 -67c-5 -4 -12 -6 -18 -9c-10 -6 -19 -12 -29 -18c-21 -12 -43 -16 -67 -12c-5 1 -9 3 -14 3
c-37 -3 -73 9 -110 15c-11 3 -20 8 -28 17c-23 27 -40 56 -48 91c-1 6 -2 12 -2 18c1 20 3 40 3 60c1 7 0 14 -2 21c-5 19 -4 38 -5 58c-2 29 -1 59 -4 89c-4 44 -4 88 -2 132c0 22 4 45 5 67c1 19 8 37 12 55c5 26 23 42 45 55c26 15 55 21 85 25c9 2 17 2 26 4
c22 5 44 1 67 -1c5 0 10 -1 16 -1c16 -2 30 -8 44 -17c24 -15 34 -39 42 -65c17 -52 20 -107 24 -161c1 -11 1 -22 1 -39zM300 453c-1 27 -2 55 -8 83c-3 17 -6 35 -7 53c-1 14 -5 26 -9 39c-4 11 -12 19 -23 24c-23 10 -47 13 -70 -3c-1 -1 -3 -2 -5 -3
c-20 -10 -32 -27 -38 -48c-4 -14 -7 -28 -8 -41c-2 -27 -3 -53 -4 -80c-1 -44 -1 -89 -1 -133c0 -10 2 -20 3 -30c1 -9 4 -18 -1 -25c-5 -8 -5 -17 -5 -25c0 -9 0 -17 1 -26c1 -28 8 -55 22 -79c4 -7 6 -13 10 -20c3 -7 9 -14 16 -16c13 -4 26 -9 39 -9c22 2 43 6 63 18
c13 8 21 18 23 33c2 11 2 22 3 33c1 14 1 28 2 42c0 5 0 11 1 16l3 99c0 4 -1 8 -1 12c-1 5 -2 11 -2 16c-1 23 -2 46 -4 70z" />
    <glyph glyph-name="one" unicode="1" horiz-adv-x="256" 
d="M122 582h-26c-24 -3 -47 -6 -71 -9c-6 -1 -12 -2 -18 4c1 12 1 25 2 38c1 15 5 30 2 46c-1 5 3 11 9 11c14 1 27 6 42 5c16 -2 33 -1 49 4c1 0 2 1 4 1c22 -1 44 4 66 2c25 -3 25 -3 23 -26c-1 -13 1 -25 2 -38c1 -8 3 -15 3 -23c1 -31 3 -61 2 -92c-1 -17 4 -34 -2 -51
c2 -17 0 -33 -1 -50v-58c0 -2 -1 -5 -1 -8c-4 -32 -3 -65 -1 -97c2 -27 5 -53 4 -79v-4c8 -27 6 -54 11 -81c3 -14 4 -28 4 -42c-1 -7 -1 -14 -8 -21c-7 2 -15 3 -23 4h-24h-30c-7 0 -11 4 -11 11c0 13 1 26 2 38c1 13 2 25 2 38c-1 22 -2 44 -3 65c-1 22 -1 44 1 66
c1 14 -1 28 -1 42c0 19 1 38 1 58v53c-1 36 -1 72 -1 108c-1 28 -3 55 -8 85z" />
    <glyph glyph-name="two" unicode="2" horiz-adv-x="390" 
d="M133 98h14c21 2 41 -1 62 -1c16 -1 32 -2 47 4c10 -3 19 3 29 5c16 2 32 5 49 8c4 1 9 2 13 3c0 0 1 0 3 -1c0 -3 2 -7 1 -11c-6 -24 -3 -49 -2 -73c1 -2 1 -4 1 -6c1 -10 -3 -16 -12 -17c-6 0 -11 -1 -16 0c-27 0 -54 0 -80 1c-22 0 -44 2 -66 2c-5 1 -11 1 -16 1
c-27 -2 -54 -5 -81 -7c-3 -1 -5 -2 -8 -3c-11 -2 -14 0 -15 12c-1 10 -2 19 -4 29c-4 28 -6 56 -4 83c4 35 4 70 12 103c6 24 12 48 27 68c9 12 18 24 30 34c20 16 40 31 66 39c16 4 30 14 45 21c6 2 11 6 16 10c17 10 25 25 30 43c6 23 8 45 6 69c-1 25 -7 50 -16 73
c-12 30 -34 47 -65 54c-3 0 -7 1 -9 0c-23 -7 -48 -9 -69 -20c-1 0 -3 -1 -4 -1c-5 -3 -8 -7 -10 -14c-4 -23 -6 -45 0 -67c1 -4 0 -8 0 -13c-7 0 -13 -1 -18 1c-13 3 -25 3 -38 3c-9 1 -13 0 -22 11v34c-1 26 7 51 15 75c3 7 8 13 14 17c7 6 13 12 23 16c8 3 14 10 24 12
c7 1 13 5 20 7c25 8 50 8 75 7c12 0 24 0 36 -3c17 -3 35 -4 50 -15c6 -5 13 -9 20 -13c17 -9 29 -23 34 -42c1 -2 1 -4 2 -5c11 -15 12 -32 15 -49c2 -18 2 -36 3 -54c1 -38 -5 -75 -15 -112c-4 -14 -7 -28 -15 -41c-10 -16 -23 -29 -38 -40c-17 -12 -36 -22 -56 -30
c-13 -5 -26 -11 -39 -19c-13 -9 -27 -15 -39 -24c-13 -10 -25 -22 -29 -39c-3 -11 -5 -22 -6 -33c-2 -19 -2 -38 2 -56c2 -12 5 -23 8 -36z" />
    <glyph glyph-name="three" unicode="3" horiz-adv-x="402" 
d="M299 353c9 -3 17 -5 26 -8c24 -7 36 -25 40 -49c2 -17 3 -34 5 -51c5 -33 0 -65 -7 -97c-3 -11 -4 -22 -5 -34c-3 -27 -16 -50 -36 -69c-24 -22 -53 -35 -84 -43c-19 -4 -39 -8 -59 -7c-25 0 -50 3 -71 17c-16 11 -32 22 -41 39c-9 15 -17 31 -24 46c-5 10 -7 20 -7 31
c-1 21 -4 42 -6 64c0 7 -2 14 2 22c3 0 6 1 10 1c18 3 36 4 55 7c5 1 11 4 16 7c6 -2 10 -5 8 -12c-6 -19 -3 -39 -3 -59c0 -7 1 -14 2 -22c2 -3 6 -7 8 -11c17 -28 40 -40 72 -38c7 1 15 2 22 3c28 4 49 19 64 44s17 51 13 79c-4 21 -11 41 -20 60c-9 23 -29 36 -55 36
c-10 1 -20 -1 -30 -1c-13 -2 -26 -4 -39 -5c-5 -1 -9 4 -9 8v8c3 17 4 33 1 50c-1 6 3 10 10 10c4 -1 8 -1 11 -2c42 -8 86 14 100 57c1 5 2 11 2 17c1 29 -6 57 -13 85c-4 16 -10 31 -15 47c-4 15 -14 26 -23 36c-7 8 -15 11 -25 11c-18 1 -35 0 -51 -5
c-11 -3 -21 -9 -30 -17c-6 -4 -8 -12 -9 -19c-1 -19 -3 -38 4 -57c3 -10 -2 -15 -13 -12c-9 2 -18 2 -28 1c-9 -2 -19 -2 -30 -2c-5 9 -9 18 -7 29c1 6 1 13 0 20c-2 18 0 36 4 53c4 19 11 36 25 50c3 3 5 7 9 10c7 9 16 16 28 18c9 2 17 6 26 9c11 4 23 8 35 6
c19 7 40 4 59 5c16 0 32 -1 47 -7c17 -6 34 -14 48 -26c7 -6 12 -12 16 -20c10 -22 16 -45 17 -69c0 -9 2 -18 3 -27c1 -4 1 -7 2 -10c3 -32 4 -65 1 -97c-1 -14 -2 -28 -6 -42c-5 -23 -19 -42 -36 -58c-3 -2 -5 -4 -8 -6c0 -1 0 -1 -1 -4z" />
    <glyph glyph-name="four" unicode="4" horiz-adv-x="460" 
d="M197 678c17 3 33 6 49 10c6 1 10 -4 9 -10c-1 -4 -2 -9 -3 -13c-3 -9 -5 -18 -9 -27c-4 -8 -3 -18 -5 -26c-9 -31 -17 -62 -24 -93c-4 -20 -9 -40 -16 -59l-12 -42c-2 -7 -6 -14 -8 -21c-4 -11 -8 -22 -11 -34c-8 -27 -16 -55 -23 -82c-5 -21 -10 -43 -10 -66
c8 -4 16 -1 25 0c4 0 8 2 11 1c10 0 19 1 28 4c3 1 8 2 11 2c18 -1 36 4 54 5c2 0 3 1 6 2c1 5 1 9 1 13c1 18 2 35 2 52c1 18 3 36 0 54c-2 12 3 19 15 21h2c15 0 39 4 52 11c7 4 16 -3 14 -10c-8 -25 2 -48 1 -72c0 -12 1 -24 0 -35s1 -21 1 -31c15 -7 30 -1 44 0
s28 5 42 8c8 -5 6 -12 5 -18c-3 -12 -3 -24 -1 -36c0 -6 2 -23 4 -29c1 -8 -1 -12 -9 -13c-10 -1 -20 -1 -29 -1c-16 -1 -32 -2 -49 -3c-5 -18 -2 -35 -3 -52c-2 -17 0 -33 2 -50s3 -24 5 -42c-3 -2 -7 -5 -10 -4c-20 4 -49 1 -67 -5c-9 -2 -14 1 -14 9c0 30 0 50 -1 80
c0 19 -2 38 -4 58c-5 1 -10 2 -14 2c-44 -3 -87 -6 -131 -10c-21 -1 -61 -4 -82 -5c-3 0 -7 2 -11 4c0 22 -3 53 -13 73c8 22 17 44 24 67c7 22 16 45 22 68c10 42 20 85 35 126c5 12 6 26 14 37c2 18 10 35 14 52c6 24 13 49 19 73c3 11 6 22 5 33c-1 10 3 17 5 25
c1 6 6 7 12 3c2 -1 24 -3 26 -4z" />
    <glyph glyph-name="five" unicode="5" horiz-adv-x="436" 
d="M26 655c11 8 20 13 31 9c5 -2 13 0 17 3c8 4 16 5 23 5c19 -2 38 -1 57 -1c16 0 32 0 48 1c10 1 20 4 31 6c6 1 13 2 19 3c11 3 21 7 32 10c3 1 5 2 9 3c1 -4 4 -7 4 -10c-4 -26 2 -52 6 -77c1 -4 4 -8 5 -13c2 -4 -1 -8 -5 -9c-5 -1 -10 -1 -15 1c-25 10 -51 9 -77 6
c-7 0 -15 -1 -22 -1c-19 0 -38 1 -58 0c-7 0 -15 -3 -22 -4c-3 -24 4 -82 16 -125c3 0 7 0 9 1c6 5 12 7 18 8c17 4 32 13 48 19c5 2 11 4 17 3c15 -1 30 0 45 0c25 -1 49 -7 70 -20c9 -5 18 -11 27 -16c15 -9 25 -21 32 -37c9 -23 14 -47 18 -71c4 -22 4 -45 5 -67v-14
c-1 -9 -3 -18 -3 -28c-1 -18 1 -36 -1 -54c-4 -31 -9 -63 -27 -91c-7 -11 -16 -22 -28 -30c-10 -7 -20 -14 -30 -20c-16 -11 -36 -14 -54 -19c-11 -2 -22 -3 -33 -5c-19 -5 -37 -2 -55 3c-11 3 -22 6 -33 10c-15 4 -28 14 -41 23c-29 19 -44 46 -51 78c-3 17 -5 34 -7 52
l-3 15c-2 9 1 14 11 15c11 1 22 3 33 3s21 0 31 5c3 1 8 0 11 0c2 -2 3 -4 3 -6c0 -14 4 -27 9 -40c3 -9 5 -19 9 -28c1 -1 0 -3 1 -4c8 -24 24 -35 49 -34c24 1 45 8 67 18c19 9 31 24 44 39c7 8 8 19 10 29c5 28 7 57 4 85c-2 28 -5 56 -18 81c-8 18 -21 31 -37 41
c-3 2 -6 3 -9 4c-13 1 -25 3 -38 3c-14 0 -28 -1 -42 -3c-16 -2 -32 -7 -43 -21c-2 -3 -4 -7 -5 -11c-4 -15 -5 -30 -1 -45l3 -12c1 -7 -5 -13 -11 -11c-22 9 -46 9 -70 12c-5 1 -8 4 -7 10c5 24 0 49 0 73c0 30 -3 60 -5 90c-2 24 -5 49 -7 74c-2 19 -4 39 -5 59
c-1 10 -2 19 -9 27z" />
    <glyph glyph-name="six" unicode="6" horiz-adv-x="461" 
d="M372 693c2 -24 4 -45 6 -66c0 -5 2 -10 3 -15c1 -6 -3 -11 -9 -11c-2 0 -3 0 -4 1c-24 6 -48 3 -71 1c-25 -2 -49 -4 -73 -9c-26 -5 -47 -18 -64 -38c-15 -16 -23 -34 -26 -55c-5 -29 -10 -59 -15 -88c-1 -3 0 -6 0 -10c11 0 20 3 30 6c20 5 41 7 63 9c20 1 41 3 61 3
c16 0 32 -3 48 -4c19 -10 43 -14 57 -34c19 -13 29 -32 37 -52c4 -10 7 -19 9 -28c4 -23 8 -45 9 -67c2 -28 3 -55 1 -82c-1 -19 -3 -39 -8 -57c-2 -5 -3 -9 -5 -13c-16 -24 -36 -42 -60 -57c-6 -3 -13 -6 -19 -7c-12 -2 -24 -5 -35 -6c-35 -2 -69 -8 -104 -3
c-23 3 -46 4 -69 8c-12 3 -23 9 -34 13c-2 2 -5 4 -7 7c-2 1 -3 4 -5 6c-22 18 -28 44 -37 69c-7 20 -11 42 -15 64c-4 25 -7 51 -4 77c3 32 5 65 7 97c1 24 2 48 2 72c-1 17 0 33 1 50c2 29 5 57 12 85c7 26 19 49 37 69c13 14 25 26 43 31c24 14 50 21 75 30
c6 2 12 3 18 3c18 2 35 3 53 5c15 0 29 1 44 -2c8 -1 17 -1 26 0c7 0 14 -1 22 -2zM116 324c-1 -9 -3 -17 -2 -24c0 -30 3 -60 6 -90c2 -20 6 -40 13 -60s19 -35 41 -42c28 -9 57 -17 87 -14c32 2 57 14 74 43c11 19 16 40 15 63c0 12 0 24 -1 35c-3 21 -3 41 -11 61
c-11 27 -32 40 -58 46c-34 7 -68 8 -103 -2c-3 -1 -7 -1 -11 -2c-16 -4 -33 -6 -50 -14z" />
    <glyph glyph-name="seven" unicode="7" horiz-adv-x="338" 
d="M169 3c-2 0 -5 -2 -8 -3c-7 -1 -77 3 -85 5c2 11 4 22 8 33c1 2 3 4 3 7c5 30 15 59 22 88c4 20 7 39 11 59c1 4 3 9 4 13c1 7 3 15 4 22c1 3 1 6 1 10c6 23 11 47 17 71c2 12 5 25 7 37c6 30 12 60 19 90c5 21 12 42 18 63c5 18 9 36 14 54c3 12 6 25 10 38
c2 7 3 13 1 20c-4 1 -8 3 -11 2c-20 -1 -40 -2 -60 -4c-6 0 -11 -1 -16 -1c-25 2 -49 -2 -73 -6c-10 -1 -19 -1 -29 -2c-1 5 -3 8 -3 12c0 19 0 37 1 56c0 6 0 13 -2 20c-3 6 3 14 10 12c13 -5 26 -5 39 -1c3 0 6 0 8 -1c21 -5 42 -3 63 0c10 1 19 1 28 0c15 -1 29 -1 43 -1
c10 0 40 -2 50 -5c8 -3 17 -5 26 -4c4 0 7 0 10 -1c14 -1 19 -7 18 -21c-1 -9 0 -18 5 -27c3 -6 1 -12 -2 -19c-10 -20 -17 -43 -22 -65c-3 -14 -8 -27 -11 -41c-8 -28 -17 -57 -22 -86c-6 -36 -21 -69 -30 -103c-6 -22 -13 -43 -16 -66c-3 -17 -8 -35 -11 -52l-9 -45
c0 -2 0 -4 -1 -6c-16 -49 -20 -100 -29 -152z" />
    <glyph glyph-name="eight" unicode="8" horiz-adv-x="532" 
d="M117 348c-19 27 -19 58 -18 87c0 26 3 52 6 78c2 22 5 45 10 67c3 17 10 34 18 50c4 10 12 19 19 27c2 3 6 5 10 6c13 1 24 5 36 9c6 2 12 2 18 2h72c18 0 37 -1 55 -5c11 -2 21 -4 30 -8l39 -15c9 -4 15 -10 18 -20c6 -21 12 -43 11 -66c-1 -29 0 -57 0 -86
c0 -18 -3 -37 -7 -55c-3 -18 -6 -37 -15 -54c9 -5 16 -10 23 -14c9 -6 18 -11 27 -16c11 -7 20 -16 26 -28c3 -6 8 -12 9 -19c2 -12 2 -24 2 -36c0 -32 -7 -64 -11 -97c-1 -8 -2 -16 -4 -23c-9 -32 -28 -56 -60 -68c-12 -5 -24 -9 -38 -9c-10 0 -20 -4 -29 -6
c-23 -7 -47 -11 -71 -12c-21 0 -42 -1 -63 1c-24 2 -47 4 -69 8c-19 4 -37 6 -55 9c-13 2 -25 5 -37 11c-17 8 -27 21 -34 38c-3 9 -5 17 -6 25c-4 28 -5 56 -3 83c1 22 1 46 10 67c3 5 6 10 8 15c2 6 3 12 6 17c7 11 14 22 29 25c13 2 25 8 38 12zM250 315
c-7 1 -12 3 -16 4c-17 0 -35 1 -52 -1c-35 -4 -55 -19 -64 -55c-6 -24 -11 -48 -9 -73l3 -27c0 -23 14 -35 33 -43c8 -3 16 -5 25 -7c20 -4 40 -7 61 -6c20 0 40 1 59 1c29 1 55 9 82 17c7 2 13 7 17 13c8 12 15 24 18 38c2 15 4 30 5 45c2 22 -3 42 -8 63
c-3 15 -11 25 -25 31c-9 4 -18 8 -28 11c-12 3 -24 5 -37 4c-13 -2 -25 -3 -38 -4c-10 -1 -19 -2 -26 -11zM279 400c3 0 5 -1 7 -1c16 1 32 -1 48 4c10 3 18 8 20 19c2 8 5 16 7 25c4 25 5 50 5 75c0 7 -2 15 -4 22c-4 15 -14 23 -30 27c-20 5 -41 4 -61 7
c-17 3 -35 1 -52 1c-16 0 -21 -5 -25 -20c0 -2 0 -3 -1 -4c-7 -28 -6 -56 -4 -83c1 -12 2 -23 4 -34c3 -26 10 -32 36 -37c17 -3 34 -2 50 -1z" />
    <glyph glyph-name="nine" unicode="9" horiz-adv-x="415" 
d="M288 25c-4 -1 -6 -2 -7 -2c-16 2 -32 2 -48 2c-13 -1 -27 4 -40 6c-4 5 -3 9 0 12c12 11 19 25 25 40l9 24c2 6 5 12 8 18c6 14 11 29 18 42c15 27 26 55 35 84c7 21 13 42 19 63c1 2 0 4 0 7c-8 -1 -14 -4 -20 -7c-20 -12 -42 -17 -65 -15c-8 1 -16 0 -24 0
c-10 0 -19 0 -28 2c-22 5 -44 11 -66 17c-28 6 -46 25 -60 49c-18 30 -25 63 -28 98c-3 37 -1 73 3 109c2 12 5 24 9 35c7 19 13 38 20 57s20 34 39 43c10 4 22 4 33 6c5 1 11 2 17 4c3 1 6 2 9 2c25 3 50 6 76 8c13 1 27 0 41 -1c8 0 16 0 24 -1s16 -2 23 -4
c16 -4 29 -13 42 -22c8 -5 13 -13 15 -23c2 -14 5 -27 7 -41c3 -17 6 -34 8 -51c1 -7 -1 -13 0 -20c0 -18 0 -36 1 -54c1 -12 3 -25 3 -37c1 -12 1 -24 1 -36c-1 -22 -3 -44 -3 -66c1 -17 -1 -34 -7 -51c-3 -8 -5 -17 -7 -27c-5 -28 -14 -55 -23 -82c-4 -13 -8 -25 -11 -38
c-2 -8 -5 -15 -8 -23c-12 -27 -21 -57 -28 -86c-4 -14 -9 -28 -12 -41zM304 527h-1v12c2 23 0 45 -4 68c-1 9 -5 16 -11 22c-9 8 -20 15 -32 17c-14 3 -29 5 -43 5c-19 0 -37 -1 -56 -4c-11 -1 -23 -6 -34 -11c-19 -9 -25 -28 -29 -47c-4 -18 -5 -37 -5 -55
c1 -29 4 -58 14 -86c8 -21 22 -35 41 -43c16 -6 33 -11 51 -11c14 -1 29 -2 43 -5s28 -1 42 2c9 3 17 8 21 16c8 17 10 34 6 51c-3 12 -4 24 -3 35v34z" />
    <glyph glyph-name="colon" unicode=":" horiz-adv-x="179" 
d="M150 285c0 -3 1 -6 1 -8c-2 -13 -1 -25 2 -38c2 -12 2 -24 0 -36c-3 -1 -6 -3 -9 -4l-78 -12c-3 0 -6 -1 -8 -1c-5 0 -8 2 -9 7c-1 3 -2 6 -2 9c0 28 -1 56 -1 84c0 9 4 11 13 11h50c15 -1 29 -3 41 -12zM33 504c14 -3 27 -4 42 0c11 3 23 3 35 4c4 1 9 0 14 0
c2 -14 4 -27 6 -40c1 -13 2 -25 5 -37c3 -11 0 -15 -11 -16c-21 -3 -42 -6 -63 -8c-5 -1 -11 -1 -16 -2c-10 0 -13 3 -14 13c-1 23 -3 46 -5 69c0 6 -1 12 7 17z" />
    <glyph glyph-name="semicolon" unicode=";" horiz-adv-x="187" 
d="M40 187c12 -6 23 -5 32 3c9 6 17 13 15 28h-9c-6 -2 -11 -5 -17 -7c-9 -3 -17 -7 -27 -3c-1 34 -2 67 -2 100c0 2 1 3 3 6c14 2 29 4 45 5c18 2 37 3 55 4h6c8 0 14 -4 14 -12c-2 -32 7 -63 10 -94c2 -34 -9 -61 -33 -82c-19 -18 -42 -31 -69 -33c-11 -2 -18 1 -20 13
c-4 17 -8 35 -11 52c-1 7 0 9 8 20zM42 412c-4 6 -5 12 -5 18l3 87c0 1 1 2 2 4c7 4 17 5 25 11c1 1 4 1 6 1c20 -2 41 -2 61 -7c5 -1 8 -4 10 -8c3 -6 4 -13 3 -20c-4 -16 -3 -32 -4 -49c0 -8 -2 -17 -3 -25c-1 -6 -5 -8 -10 -9h-4c-19 2 -37 0 -55 -5c-11 -2 -20 0 -29 2z
" />
    <glyph glyph-name="less" unicode="&#x3c;" horiz-adv-x="401" 
d="M6 340c2 3 4 7 8 11c18 18 35 37 50 58c5 8 11 14 17 20c18 19 30 43 47 64c7 10 13 21 19 32c13 24 27 47 46 66c2 2 3 3 4 5c12 17 24 35 37 52c4 5 7 11 8 17c2 10 5 20 8 28c3 2 5 3 6 3c10 1 19 1 28 2s18 2 27 -1c5 -2 11 -1 16 -1c4 -1 7 -1 8 -5c0 -2 0 -6 -2 -7
c-15 -14 -21 -32 -29 -49c-11 -22 -23 -44 -35 -65c-2 -2 -4 -4 -4 -7c-6 -18 -19 -32 -27 -49c-2 -4 -5 -7 -7 -11c-9 -18 -21 -34 -32 -51c-17 -24 -34 -47 -49 -72c-10 -16 -17 -34 -25 -50c2 -9 7 -14 11 -19c15 -15 30 -30 41 -48c9 -6 14 -16 21 -24
c13 -13 24 -28 38 -40c6 -5 12 -11 16 -18c13 -18 30 -33 45 -50c6 -6 11 -12 16 -18c4 -5 9 -10 13 -15c17 -18 35 -34 53 -51c2 -2 2 -6 2 -9c-1 -3 -5 -4 -8 -4c-24 1 -48 -3 -71 -9c-13 -3 -27 -5 -41 -8c-4 3 -6 7 -10 10c-10 10 -21 20 -32 30c-18 15 -34 33 -49 52
c-15 20 -30 40 -44 61c-8 13 -18 25 -28 37c-28 33 -53 69 -76 107c-5 9 -10 17 -16 26z" />
    <glyph glyph-name="equal" unicode="=" horiz-adv-x="436" 
d="M401 252c-5 0 -9 -1 -14 -1h-54c-7 0 -15 0 -22 -1c-18 -3 -36 -3 -53 -3c-17 1 -34 -1 -50 -5c-12 -3 -25 -4 -37 -4c-11 -1 -23 -3 -34 -4c-8 -1 -16 -2 -23 -2c-19 -1 -38 -1 -56 -1c-10 0 -13 2 -14 11c-1 12 1 25 -5 37c2 8 -1 18 5 26c40 -4 78 -3 116 1
c10 1 20 0 30 1c20 4 40 3 59 4c6 0 11 1 16 2c3 0 7 2 10 1c14 -3 29 2 43 2c11 0 22 2 33 4s22 5 33 7c5 1 9 -2 11 -7c0 -4 1 -7 1 -10c2 -17 4 -35 6 -52c0 -1 -1 -3 -1 -6zM397 487c9 -8 3 -15 0 -21c4 -12 8 -23 12 -35c-1 -5 -4 -8 -11 -8h-2c-29 1 -59 3 -89 4
c-19 0 -39 -4 -57 -9c-16 -4 -32 -6 -47 -6c-28 -2 -56 -3 -84 -4c-23 -1 -47 -1 -70 -1c-9 0 -9 0 -17 12c13 17 8 41 21 59c8 3 17 2 24 0c14 -5 29 -2 43 0c2 0 5 1 8 1c17 -1 34 -1 51 1s33 3 49 3c6 0 12 0 18 -1h22c2 0 4 1 6 1c8 -1 17 -5 27 -2c8 3 18 1 27 1
s19 0 28 1c11 1 21 3 32 4h9z" />
    <glyph glyph-name="greater" unicode="&#x3e;" horiz-adv-x="418" 
d="M67 27c0 8 3 12 8 15c7 4 12 9 15 15c8 13 15 26 23 38c18 28 28 60 46 88c5 6 8 13 12 21c16 30 39 57 56 86c8 14 17 27 26 41c3 5 6 11 10 15c10 9 14 22 22 33c3 4 3 10 5 15c2 7 0 14 -5 20c-24 28 -49 56 -76 81c-6 5 -12 9 -18 13c-14 9 -25 19 -35 32
c-11 13 -23 26 -35 39c-9 10 -17 20 -26 30c-14 18 -27 36 -41 54c-5 6 -10 13 -14 19c-3 5 -6 8 -12 9c-8 1 -9 4 -5 11c1 2 3 3 4 4c17 2 35 3 52 6c6 1 12 4 18 6c8 3 14 3 20 -4c11 -11 21 -22 33 -32c16 -14 31 -31 44 -48c11 -13 23 -24 33 -37c2 -3 5 -5 7 -7
c23 -21 44 -42 64 -65c5 -5 10 -7 14 -11c15 -14 29 -30 41 -48c2 -3 3 -7 8 -7c1 -1 2 -2 3 -2c6 -4 5 -13 12 -16c6 -2 10 -8 13 -14c3 -4 7 -6 10 -10c4 -4 9 -8 13 -12c-1 -4 -2 -8 -5 -11c-14 -20 -26 -40 -37 -61c-13 -26 -28 -50 -43 -75c-10 -17 -20 -35 -31 -53
c-13 -20 -28 -40 -40 -61s-27 -38 -42 -56c-14 -19 -26 -40 -39 -60c-4 -7 -10 -10 -16 -8c-17 5 -34 1 -50 2c-11 1 -21 1 -32 2c-3 0 -6 2 -10 3z" />
    <glyph glyph-name="question" unicode="?" horiz-adv-x="460" 
d="M124 229c-1 7 -1 13 -1 20c-3 23 -2 46 0 69c1 16 4 33 13 47c2 4 4 7 8 9c9 6 19 13 29 15c10 3 19 5 29 6c3 1 6 0 8 2c14 12 32 10 49 13c19 3 38 7 56 14c26 10 44 29 45 59c1 17 1 34 -3 51c-5 21 -10 42 -19 61s-22 35 -44 41c-4 1 -7 4 -11 5c-7 2 -14 5 -21 6
c-30 2 -60 0 -88 -9c-13 -4 -24 -12 -36 -18c-4 -3 -8 -8 -9 -13c-3 -7 -5 -15 -5 -23c0 -16 2 -32 3 -47c1 -10 -3 -15 -12 -13c-24 7 -47 6 -71 7c-3 0 -6 0 -8 -1c-7 -4 -13 -1 -19 5c1 16 2 33 4 50c3 25 14 47 22 70c5 13 15 22 25 30c13 10 28 17 45 20
c15 1 31 0 45 6c3 1 7 0 10 0c10 1 20 -2 31 0c10 1 21 2 31 3c13 1 27 2 40 -1s26 -6 39 -6c9 0 16 -3 23 -6c6 -4 10 -6 18 -5c5 1 12 -1 17 -2c7 -3 14 -5 19 -10s12 -2 17 -6c10 -8 18 -15 21 -28c5 -18 11 -35 15 -54c2 -12 2 -26 3 -39c3 -34 -2 -68 -8 -102
c-1 -4 -2 -9 -2 -13c0 -21 -11 -37 -22 -53c-6 -9 -15 -14 -25 -18c-22 -9 -44 -17 -67 -20c-23 -2 -44 -11 -65 -19c-20 -7 -23 -16 -22 -38c1 -19 6 -37 14 -54c3 -7 0 -13 -7 -13h-110c0 0 -1 1 -4 2zM259 147v-27c1 -27 -1 -53 3 -80c1 -7 -3 -12 -12 -13
c-15 -1 -31 -2 -47 -4l-30 -3c-11 -2 -13 -2 -29 6c-1 7 -1 15 -1 23c-1 13 -1 26 -2 40c0 12 3 24 3 36c0 7 5 11 12 11c10 -1 20 -1 30 -2c11 -1 22 1 34 3c12 3 24 4 39 10z" />
    <glyph glyph-name="at" unicode="@" horiz-adv-x="736" 
d="M445 39c-2 -4 -4 -5 -5 -7c-11 -15 -25 -25 -44 -26c-10 -1 -19 -2 -28 -4c-3 0 -7 0 -10 1c-17 6 -35 3 -53 4c-10 1 -20 2 -30 4c-23 6 -40 18 -51 40c-8 16 -12 33 -13 50c-3 39 3 82 16 119c6 18 16 31 31 40c19 13 40 18 62 18s43 -1 64 1c9 1 19 -1 28 -1
c8 0 15 -4 23 -5c9 -1 17 -6 25 -10c6 -2 11 -5 17 -7c8 -4 13 -10 13 -19c1 -12 5 -24 8 -37c4 -18 3 -36 -2 -55c-4 -14 -6 -29 -2 -45c2 -10 3 -21 4 -31s7 -16 16 -19c11 -4 21 -7 34 -5c18 4 34 11 50 20c15 10 23 24 25 41c4 37 8 73 9 110c1 18 4 37 3 55
c-1 13 -2 25 -3 38c-2 15 -10 26 -24 32c-18 6 -34 14 -52 19c-39 11 -79 19 -119 28c-27 6 -53 9 -81 4c-6 -1 -13 -1 -19 0c-22 1 -43 -4 -64 -5c-3 0 -6 -1 -10 -3c-22 -7 -45 -15 -67 -23c-5 -2 -10 -5 -14 -7c-12 -5 -18 -14 -23 -24c-8 -16 -16 -32 -20 -50
s-10 -36 -14 -54c-7 -39 -12 -79 -13 -119c-1 -15 -4 -31 -1 -47c1 -10 2 -20 4 -29c2 -17 5 -34 8 -51c1 -6 3 -12 5 -17c3 -6 7 -10 10 -15c-2 -3 -4 -5 -6 -8c2 -7 5 -15 10 -21c15 -19 34 -23 57 -19c15 2 31 3 47 3c32 0 64 -2 96 -2c16 0 32 1 48 2c5 0 10 0 15 2
c18 6 36 6 53 9c16 2 32 3 48 5c3 0 7 0 9 2c11 6 22 7 33 8c23 3 46 7 68 14c7 3 15 6 23 -3c-1 -17 -2 -34 -4 -52c0 -9 -2 -18 -1 -28c1 -4 0 -8 0 -12c-2 -8 -5 -11 -13 -12c-4 -1 -8 -1 -12 -1c-15 -2 -29 -5 -44 -6c-31 -3 -63 -9 -94 -17c-24 -7 -48 -5 -73 -5
c-39 0 -79 1 -118 0c-29 0 -57 0 -85 5c-30 6 -58 16 -81 37c-10 10 -21 21 -30 32c-13 16 -24 33 -30 54c-8 24 -16 49 -19 75c-2 28 -5 55 -4 83c0 19 0 38 1 56c0 5 1 10 5 12c6 2 6 7 7 12c3 17 7 34 9 52c4 35 9 69 22 101c3 7 5 14 6 21c5 23 17 42 30 60
c4 6 8 11 11 16c6 10 16 17 26 22c13 6 27 12 40 17c23 9 47 14 71 18c31 5 63 10 95 6c29 -3 58 -5 87 -8c4 -1 8 -2 11 -3c12 -5 24 -7 37 -9c16 -3 32 -6 48 -11c12 -5 24 -6 36 -9c10 -2 20 -4 29 -7c7 -3 14 -7 22 -6c5 1 10 -3 15 -5c4 -1 3 -7 8 -7c3 0 6 -1 9 -2
c15 -5 25 -15 35 -26c2 -2 4 -5 5 -8c2 -13 8 -25 5 -39c-1 -6 2 -13 3 -19c3 -16 3 -31 2 -46v-46c-1 -15 -5 -30 -1 -45c0 -1 0 -3 -1 -4c-5 -36 -7 -71 -17 -106c-5 -21 -11 -41 -27 -57c-16 -14 -33 -26 -56 -27c-7 -1 -13 -2 -19 -4c-16 -7 -32 -5 -48 -3
c-14 2 -29 5 -43 6c-22 2 -36 12 -43 33c-1 3 -3 6 -6 11zM435 163v32c0 8 -5 14 -13 15c-10 3 -20 4 -30 5c-12 0 -24 -1 -35 0c-19 2 -35 -6 -51 -14c-8 -5 -13 -12 -17 -20c-8 -19 -7 -39 -5 -58c2 -12 8 -21 20 -25c9 -3 18 -7 26 -11c10 -6 20 -8 31 -8
c6 0 11 -1 16 -2c29 -5 38 -5 51 29c7 18 8 37 7 57z" />
    <glyph glyph-name="bracketleft" unicode="[" horiz-adv-x="239" 
d="M49 807c9 0 18 -1 26 0c8 0 16 3 24 2c12 -1 25 -1 37 -1c22 -1 43 -1 64 -2c4 0 8 -1 12 -2c1 -24 -2 -47 -8 -70c-28 -1 -54 -3 -81 -5c0 -18 -1 -36 0 -54c1 -21 0 -42 -1 -63c-1 -11 1 -23 1 -34c0 -51 1 -102 1 -153c0 -35 1 -71 -1 -106c-1 -34 2 -69 1 -103
c-1 -29 -1 -59 1 -88c2 -22 2 -45 7 -67c1 -5 3 -9 5 -14c26 -3 51 1 76 10c6 -2 8 -6 6 -12c-10 -25 -7 -50 -6 -75c0 -3 1 -7 1 -10c0 -7 -4 -12 -10 -13c-12 -2 -25 -5 -38 -4c-33 3 -66 2 -99 4c-7 0 -13 0 -19 6c0 8 -1 17 -1 25c0 25 -2 49 -3 74c0 7 -2 14 -2 21
c0 13 0 27 1 40c2 29 2 58 -1 87c-1 13 1 25 0 38c-2 20 -1 39 -4 59c-2 13 -5 25 -5 38c1 25 -1 50 -1 75c1 42 1 85 2 128c1 32 3 65 3 97c1 23 0 47 0 70c0 15 1 31 2 46c0 6 1 13 0 20c-1 12 2 23 10 36z" />
    <glyph glyph-name="backslash" unicode="\" horiz-adv-x="312" 
d="M99 757c7 -28 14 -54 19 -80c6 -27 13 -55 22 -82c1 -3 2 -7 3 -10c6 -26 11 -53 18 -79c8 -31 17 -62 25 -92c6 -19 11 -38 19 -56c9 -22 15 -44 21 -66c7 -26 14 -52 21 -77c2 -5 2 -10 4 -15c6 -20 14 -40 19 -60c6 -23 13 -45 15 -68c0 -2 1 -4 2 -5
c2 -7 4 -13 5 -19c2 -9 4 -17 6 -25c2 -9 8 -17 4 -28c-10 -5 -22 -2 -33 -2s-22 1 -34 1c-3 6 -6 11 -7 17c-3 13 -6 26 -8 39c-6 44 -20 85 -32 127c-8 27 -19 53 -28 79c-5 14 -12 27 -18 40s-8 28 -17 40c-1 1 -1 4 -2 5c-9 30 -18 60 -28 90c-2 7 -3 14 -5 21
c-13 32 -22 64 -28 98c-1 4 -2 9 -4 13c-4 12 -9 23 -13 35c-3 10 -7 20 -9 31c-1 10 -4 19 -6 29c-3 18 -12 35 -14 53c-2 11 -6 21 -10 30c-2 6 -1 10 5 14c11 -3 24 -5 36 -3c3 0 6 -1 8 -2c11 -5 21 -3 31 5c2 2 7 1 13 2z" />
    <glyph glyph-name="bracketright" unicode="]" horiz-adv-x="230" 
d="M100 753h-33c-13 -1 -26 -3 -38 -4c-3 0 -7 1 -10 1c-4 1 -7 4 -7 9c-1 2 -1 5 0 8c4 13 3 26 4 39c1 11 4 14 14 16c8 1 16 2 24 4c20 6 39 3 59 2c17 0 33 -3 50 -3c8 1 13 -3 13 -11c0 -33 5 -66 6 -99c1 -20 2 -41 3 -61c0 -9 -2 -17 -2 -26c0 -8 2 -16 1 -23
c-1 -34 -1 -68 3 -102v-20c-1 -25 1 -50 4 -75c2 -18 1 -37 1 -56v-40c1 -10 0 -20 1 -29c0 -14 1 -28 1 -42c1 -41 1 -82 2 -123c0 -28 2 -56 3 -84c0 -21 1 -42 1 -64c0 -8 -1 -16 -9 -24c-12 -1 -27 -2 -41 -3c-33 -2 -67 -4 -100 -7h-8c-4 0 -9 5 -8 9c4 17 2 33 2 50
c0 7 4 11 11 10c22 0 43 7 63 13c5 6 5 12 4 18c-2 13 -2 26 0 40c1 5 1 12 1 17c0 4 0 7 1 10c5 19 2 37 2 55c1 19 3 37 4 56c1 14 1 28 1 42c1 40 1 79 1 119c1 22 0 44 0 66c-2 41 -3 82 -5 124c-1 21 -2 42 -5 63c-2 17 0 35 -2 52c-3 16 -4 33 -6 49c0 8 -2 16 -6 24z
" />
    <glyph glyph-name="asciicircum" unicode="^" horiz-adv-x="408" 
d="M184 580c-7 -16 -13 -30 -20 -44c-14 -27 -27 -99 -34 -129c-4 -14 -7 -28 -11 -42c-6 -21 -8 -42 -10 -63c-1 -6 0 -12 -8 -16c-17 4 -35 3 -52 3c-8 0 -16 1 -23 -6c-3 -4 -10 0 -10 5c1 7 1 13 3 20c18 57 33 114 57 170c10 24 18 50 27 75l21 51l33 84
c6 15 13 30 19 46c4 8 11 10 17 3s11 -13 16 -20c20 -35 39 -70 55 -106c7 -16 14 -32 22 -47c14 -31 27 -63 42 -93c10 -21 21 -41 28 -63c6 -15 10 -29 15 -44c6 -20 12 -41 18 -61c1 -4 3 -7 4 -11c2 -10 -2 -9 -12 -12c-6 -2 -16 -6 -20 -6c-7 0 -14 -1 -18 8
c-5 8 -9 16 -12 25c-8 17 -14 34 -22 51c-4 11 -11 27 -17 37c-7 13 -15 26 -23 39c-3 4 -6 9 -9 13c-6 11 -30 56 -36 66c-3 5 -5 9 -8 14c-8 13 -15 26 -23 39c-3 4 -5 8 -9 14z" />
    <glyph glyph-name="underscore" unicode="_" horiz-adv-x="338" 
d="M35 -45c0 13 0 27 -1 40c-1 12 -3 25 -4 36c2 2 3 4 4 4c23 0 46 6 69 5c20 0 40 2 59 5c30 4 59 5 89 3c12 -2 25 -3 37 -1c6 1 10 -3 10 -7c0 -26 3 -51 7 -76c0 -1 -1 -3 -2 -6c-25 -7 -49 -14 -76 -7c-8 2 -18 -1 -27 -2c-6 0 -11 -1 -16 -1c-38 3 -76 -1 -114 0
c-12 1 -23 2 -35 7z" />
    <glyph glyph-name="grave" unicode="`" horiz-adv-x="219" 
d="M114 760c2 -5 4 -9 5 -13c4 -8 9 -16 15 -23c9 -8 18 -16 22 -27c10 -6 15 -16 22 -23c4 -4 8 -9 12 -14c5 -7 2 -13 -7 -15c-4 -1 -7 -1 -10 -1c-14 0 -27 0 -40 -5c-5 -2 -10 0 -14 4c-17 16 -34 32 -48 51c-9 12 -19 24 -28 36c-4 7 -9 14 -12 20c-4 7 1 14 8 13
c10 -1 20 -2 30 -4c11 -3 21 -3 31 0c4 1 8 0 14 1z" />
    <glyph glyph-name="perthousand" unicode="&#x2030;" horiz-adv-x="1203" 
d="M1162 46c-17 -10 -35 -20 -55 -24c-16 -3 -31 -7 -46 -12c-36 -10 -73 -11 -109 -7c-22 3 -42 11 -62 21c-9 5 -15 13 -20 22c-15 31 -23 64 -16 99c3 15 5 31 7 47c1 13 4 27 2 40c-2 20 0 40 3 59c3 23 2 45 4 68c2 24 3 47 10 71c4 15 13 27 22 39c4 6 13 10 19 14
c11 5 21 11 34 12c7 0 15 5 22 8c13 4 27 5 41 6c30 2 60 7 90 5c10 0 19 -3 29 -6c7 -3 13 -8 17 -16c9 -20 15 -40 18 -61c4 -37 7 -74 11 -111c1 -7 1 -13 1 -20c-1 -27 1 -54 -2 -81c-2 -19 -2 -39 -1 -58c0 -39 -6 -77 -19 -115zM1106 257c-2 22 -3 44 -4 66
c-2 23 -6 47 -12 70c-5 21 -19 31 -39 34c-18 3 -36 4 -54 4c-16 -1 -27 -8 -36 -21c-8 -14 -13 -28 -14 -44c-1 -22 -3 -43 -5 -65c-2 -33 -7 -66 -4 -100v-22v-51c0 -4 1 -8 2 -12c2 -8 8 -11 14 -12c10 -1 20 -1 30 -2c10 7 21 -2 31 2c2 1 4 0 6 1c11 7 23 6 35 9
c8 2 14 5 18 11c14 20 23 41 26 64s4 45 6 68zM36 457c-2 36 -4 71 -7 107c-2 34 -1 67 5 99c1 8 1 15 2 22c1 12 7 22 16 29c8 6 14 15 26 13c2 0 4 3 6 4s5 3 7 3c21 2 42 9 63 12c11 1 22 3 33 2c19 -2 36 0 54 3c20 3 32 -7 42 -23c9 -13 14 -28 18 -43
c7 -26 9 -52 10 -79c1 -19 4 -37 3 -56c-1 -35 -3 -71 -6 -107c-2 -22 -5 -44 -6 -66c-1 -12 -6 -23 -12 -33c-15 -24 -37 -40 -62 -51c-9 -4 -20 -6 -29 -6c-20 -1 -39 0 -58 0c-12 0 -23 3 -33 8c-12 7 -25 13 -37 20c-16 8 -25 21 -27 39c-2 10 -3 21 -6 31
c-4 20 -2 41 -3 62v10h1zM219 521c1 27 2 56 1 84c-1 22 -10 39 -25 53c-5 6 -12 8 -19 8c-12 -2 -23 -4 -34 -7c-9 -2 -16 -9 -18 -19c-3 -17 -4 -34 -6 -51c0 -7 1 -14 1 -22c0 -19 -1 -38 -1 -57c0 -10 1 -19 3 -28c3 -12 1 -22 -1 -33l-3 -12c-7 -35 20 -54 49 -60
c1 0 2 1 4 1c18 1 42 24 44 42c2 19 7 38 6 58c-1 14 -1 28 -1 43zM681 34c-19 2 -39 3 -59 5c-14 2 -26 7 -37 15c-16 13 -30 28 -37 49c-5 15 -9 30 -9 46c0 6 0 11 -2 16c-5 9 -5 19 -7 29c-4 32 -3 64 -4 95c-1 14 -1 27 -3 40c-4 25 -3 51 -1 76c2 15 5 30 9 45
c6 19 19 33 38 41c12 5 24 9 38 11s27 6 40 10c14 3 28 1 42 1c13 1 26 0 38 -4c19 -7 31 -19 39 -37c14 -31 19 -64 24 -96c4 -29 4 -59 6 -88c0 -12 2 -23 2 -35c0 -17 -2 -33 -2 -50c-1 -14 -1 -28 -1 -42c-2 -22 -4 -45 -6 -67c-2 -21 -13 -36 -32 -46
c-17 -8 -35 -13 -54 -13h-22v-1zM723 248h1l-3 102c-1 18 -5 35 -9 53c-3 11 -9 20 -16 27c-10 9 -22 14 -37 11c-13 -3 -22 -11 -34 -17c-15 -7 -22 -20 -22 -36c-1 -26 -1 -52 -1 -78c0 -17 0 -33 1 -50c1 -11 -1 -23 7 -32c1 -2 1 -5 1 -6c-4 -13 7 -28 -4 -40
c1 -7 0 -14 2 -20c5 -16 14 -31 26 -44c10 -11 26 -11 39 -16c33 5 50 24 49 50c-1 32 0 64 0 96zM459 757c6 -1 11 0 13 -2c10 -8 20 -10 31 -5c2 1 5 2 8 2c12 -2 25 0 36 3c6 -4 7 -8 5 -14c-4 -9 -8 -19 -10 -30c-2 -18 -11 -35 -14 -53c-2 -10 -5 -19 -6 -29
c-2 -11 -6 -21 -9 -31c-4 -12 -9 -23 -13 -35c-2 -4 -3 -9 -4 -13c-6 -34 -15 -66 -28 -98c-2 -7 -3 -14 -5 -21c-10 -30 -19 -60 -28 -90c-1 -1 -1 -4 -2 -5c-9 -12 -11 -27 -17 -40s-13 -26 -18 -40c-9 -26 -20 -52 -28 -79c-12 -42 -26 -83 -32 -127
c-2 -13 -5 -26 -8 -39c-1 -6 -4 -11 -7 -17c-12 0 -23 -1 -34 -1s-23 -3 -33 2c-4 11 2 19 4 28c2 8 4 16 6 25c1 6 3 12 5 19c1 1 2 3 2 5c2 23 9 45 15 68c5 20 13 40 19 60c2 5 2 10 4 15c7 25 14 51 21 77c6 22 12 44 21 66c8 18 13 37 19 56c8 30 17 61 25 92
c7 26 12 53 18 79c1 3 2 7 3 10c9 27 16 55 22 82c5 26 12 52 19 80z" />
    <glyph glyph-name="braceleft" unicode="{" horiz-adv-x="330" 
d="M276 824c5 -4 10 -7 8 -15c-5 -17 -3 -35 -2 -53c1 -2 1 -4 2 -6c0 -4 -4 -8 -8 -7c-2 0 -5 1 -8 1c-21 5 -42 1 -61 -9c-18 -8 -23 -24 -26 -42c-1 -5 0 -11 0 -16c3 -30 7 -59 10 -89c3 -25 6 -50 8 -75c1 -10 -1 -20 -1 -30c-1 -15 -2 -30 -2 -46c0 -10 -3 -19 -7 -28
c-8 -15 -15 -30 -28 -42c-2 -2 -5 -6 -7 -9c0 -5 4 -6 7 -9c24 -23 34 -51 35 -84c1 -16 -2 -33 0 -49c2 -17 2 -33 3 -50c0 -5 -2 -10 -2 -16c1 -19 0 -38 2 -57c2 -13 7 -26 10 -39l3 -9c6 -22 21 -31 42 -35h8c10 -3 21 -3 30 4h2c4 1 10 -2 10 -6v-8c-2 -20 1 -40 6 -60
c2 -9 -1 -12 -9 -14c-16 -2 -33 -5 -49 -7c-32 -4 -61 5 -88 20c-6 3 -11 8 -14 13c-11 22 -21 43 -22 68c0 15 1 30 1 46c-1 15 0 30 1 45c2 35 -1 69 -7 103c-4 18 -6 36 -14 52c-2 5 -4 10 -7 14c-9 15 -22 21 -39 19c-9 -1 -18 -3 -27 -4c-4 -1 -8 -1 -12 -1
c-9 0 -12 4 -11 13c3 24 2 48 -5 71c-2 6 2 12 9 12c6 0 11 -1 16 -1c33 -1 67 26 68 66c1 18 1 36 -1 54c-3 39 -6 77 -4 116c1 9 1 18 3 27l9 57c1 4 3 8 4 11c4 8 7 15 10 22c9 20 19 39 35 54c11 10 23 16 37 18c18 3 37 3 55 4c9 1 17 4 27 6z" />
    <glyph glyph-name="braceright" unicode="}" horiz-adv-x="313" 
d="M297 429c1 -2 3 -3 3 -4c-3 -30 4 -59 3 -88c-8 -3 -14 -7 -21 -9c-15 -7 -29 -16 -43 -25c-23 -17 -32 -40 -31 -68c1 -14 4 -29 5 -43c2 -17 5 -33 3 -50c-1 -2 0 -4 0 -6c6 -32 3 -65 -4 -97v-12c0 -32 -13 -59 -33 -83c-12 -15 -29 -22 -47 -25
c-17 -3 -35 -6 -52 -11c-3 -1 -5 -1 -8 -1c-9 -1 -12 2 -12 11c1 23 0 46 -4 69c-1 8 2 12 10 13c23 3 41 17 58 32c16 14 23 30 23 51c0 5 0 10 -1 16c-5 28 -6 56 -7 85c0 18 1 37 0 56c0 30 6 59 17 87c4 12 13 20 21 29c5 6 12 10 13 20c-8 5 -16 10 -25 14
c-7 4 -12 9 -15 18c-10 26 -12 52 -8 80c0 3 0 6 1 10c1 25 2 50 4 75c1 25 -2 49 -7 74c-3 15 -9 30 -14 45c-7 19 -20 35 -33 49c-17 5 -33 0 -50 -1c-4 0 -8 -2 -12 -2c-6 0 -10 4 -10 10c-1 7 -1 14 0 22c1 19 2 38 4 59c2 1 6 2 9 3c4 0 8 -1 12 -1c21 -1 42 -1 63 -8
c5 -2 10 -2 16 -2c7 1 14 -2 20 -5c12 -7 24 -15 35 -24c16 -13 27 -31 34 -50c5 -15 10 -29 12 -44c2 -21 7 -42 6 -64c-1 -26 -2 -53 -3 -79c0 -18 -1 -35 0 -52c1 -13 3 -27 8 -39c4 -11 13 -21 25 -27c12 -5 24 -7 35 -8z" />
    <glyph glyph-name="florin" unicode="&#x192;" horiz-adv-x="376" 
d="M136 323c-14 -1 -27 -3 -40 -7c-12 -4 -24 -7 -36 -11c-3 0 -5 -1 -8 -2c-10 -1 -13 2 -14 11c-3 21 -6 42 -5 64v10c0 5 4 9 8 10c7 2 13 4 20 4c7 -1 14 1 21 2c8 2 16 2 24 3c11 0 20 3 30 8c0 32 1 64 1 96c-1 17 0 34 1 52c1 32 7 64 17 95c5 21 13 41 26 58
c3 3 6 7 10 9c16 7 32 13 49 14c16 2 31 4 46 6c6 0 11 2 18 -1c2 -1 6 1 9 1c13 2 26 4 39 1c2 -13 5 -26 5 -39c-1 -13 9 -26 -1 -39c-3 0 -5 -1 -8 -1c-27 1 -52 -7 -77 -16c-11 -4 -20 -10 -29 -17c-11 -8 -17 -19 -17 -33c0 -8 1 -15 -3 -23c-1 -3 0 -8 0 -12
c-1 -34 -1 -69 -1 -104c0 -9 1 -19 1 -30c39 7 77 0 114 7c1 0 2 -1 5 -2c0 -3 1 -7 1 -11c-2 -19 -2 -38 6 -56c3 -9 0 -15 -9 -17c-4 -1 -9 -2 -14 -2c-25 1 -48 -6 -73 -10c-9 -2 -20 -1 -29 -9c0 -3 -2 -8 -1 -12c0 -25 -1 -50 1 -74c2 -18 1 -36 0 -54
c0 -10 1 -20 2 -30c0 -35 2 -70 -3 -105c-1 -12 -3 -23 -8 -33c-6 -13 -13 -26 -21 -38c-9 -15 -22 -27 -40 -32c-4 -1 -8 -4 -12 -6c-14 -5 -29 -9 -45 -9h-58c-4 0 -9 1 -13 2c-8 1 -12 6 -11 14c0 23 1 46 2 70c1 7 4 10 12 10c16 0 32 -1 48 0s31 5 45 14
c13 9 20 21 22 36c3 22 4 44 1 66c-6 45 -8 91 -7 137c0 11 -1 22 -1 35z" />
    <glyph glyph-name="Euro" unicode="&#x20ac;" horiz-adv-x="467" 
d="M184 429c16 -4 28 2 41 3c13 0 26 5 40 6c13 0 26 1 39 2c13 0 26 5 41 1c1 -15 2 -30 4 -45c1 -14 5 -29 2 -44c-4 0 -8 -1 -11 -1c-14 1 -28 0 -41 -4c-15 -4 -29 -4 -44 -4c-25 -1 -52 -5 -76 -13c-4 -16 -4 -48 1 -63c14 -1 28 5 43 6c14 1 28 3 41 3
c22 -1 43 -3 64 2c2 1 4 0 7 -1c6 -25 5 -52 11 -78c1 -1 -1 -3 -2 -6c-4 -1 -8 -1 -11 -1c-7 -1 -14 0 -20 -1c-15 -5 -31 -4 -46 -4c-6 0 -12 0 -18 -1c-22 -1 -43 -3 -67 -4c0 -4 -2 -8 -1 -12c1 -7 4 -15 6 -23c5 -17 16 -27 32 -34c19 -8 37 -12 56 -14
c29 -2 57 3 85 9c8 2 17 5 25 6c5 1 11 0 16 0c2 -3 3 -6 4 -9c2 -21 4 -42 11 -63c1 -3 0 -7 0 -11c-13 -5 -24 -10 -35 -15c-6 -2 -12 -4 -17 -5c-27 -5 -54 -8 -81 -10c-23 -2 -44 0 -66 2c-32 3 -57 18 -74 45c-15 26 -28 53 -34 83c-3 13 -4 27 -6 42c-3 -1 -6 0 -8 -1
c-14 -3 -27 -7 -41 -10c-5 -1 -10 2 -12 8c-4 14 -9 28 -9 43c0 6 -2 13 -3 21c2 5 7 6 14 6c19 -1 36 4 55 9c2 21 3 42 1 65c-12 0 -23 -3 -33 -4c-9 -1 -17 -4 -26 -5c-9 -2 -15 2 -16 12l-3 42s-2 29 -4 44c7 7 17 6 26 8c11 2 23 3 35 5c2 1 3 2 6 3c3 10 3 21 3 31
c0 23 0 46 1 68c0 17 1 34 3 50c2 12 5 25 9 37c10 26 27 45 49 62c2 2 5 3 9 4c19 5 39 11 58 19c22 8 45 11 68 14c29 4 57 3 86 3c16 0 31 -6 47 -8c5 -1 6 -6 7 -11c2 -16 4 -31 6 -47c2 -14 5 -27 7 -41c-2 -6 -8 -6 -13 -4c-33 12 -68 13 -102 10
c-20 -1 -40 -2 -59 -10c-24 -10 -42 -25 -51 -50c-3 -8 -6 -16 -8 -24c-6 -23 -13 -46 -19 -69c-1 -7 -1 -15 -2 -24z" />
    <glyph glyph-name="bar" unicode="|" horiz-adv-x="158" 
d="M129 -16c-5 -1 -8 -3 -12 -4c-20 -3 -40 -5 -59 -7c-6 -1 -9 2 -10 8c-2 22 -4 43 -7 65c-3 18 -4 36 -5 54c-1 34 -5 67 -4 101v68c0 41 0 82 1 122c1 30 3 60 4 90c2 67 5 134 3 202c0 6 -1 13 6 17c5 3 3 8 4 13c1 13 5 15 17 13c7 -2 14 -2 21 -4c9 -2 18 -4 27 -7
c6 -2 9 -7 8 -13c-7 -25 -3 -50 -3 -75c1 -23 -2 -45 -2 -68c-1 -24 -2 -49 1 -73c3 -18 4 -36 4 -54c1 -36 2 -73 1 -109c0 -26 1 -53 1 -79c-1 -27 -1 -54 0 -80l3 -96c0 -27 1 -54 1 -84z" />
    <glyph glyph-name="brokenbar" unicode="&#xa6;" horiz-adv-x="168" 
d="M44 726c21 -7 44 -8 65 -16c1 -13 2 -25 4 -37c3 -24 7 -48 9 -73c0 -10 1 -21 2 -31c1 -28 3 -56 5 -83c2 -32 2 -64 0 -96c0 -4 -2 -8 -3 -11c-3 -7 -8 -11 -15 -12h-16c-7 -1 -15 -2 -22 -3c-10 0 -21 -1 -32 -1c-6 1 -9 4 -10 10v4c-2 35 -5 69 -6 104
c-1 39 -2 77 1 116c2 25 1 49 2 74c0 12 1 24 2 36c0 9 7 13 14 19zM52 291h20c6 0 13 1 20 2c6 1 11 2 17 2c7 0 14 3 20 -3c4 -26 5 -53 5 -80c0 -16 1 -32 3 -48c3 -16 2 -33 4 -50c2 -32 6 -64 6 -97c0 -4 1 -8 0 -11c-4 -8 -3 -16 -3 -24c1 -7 -1 -11 -9 -12
c-6 -1 -12 -2 -18 -2c-17 -2 -34 1 -51 -4c-9 -3 -14 1 -15 11c-1 14 -2 29 -1 44c0 19 3 38 3 57c1 28 2 56 1 84c-2 32 -5 65 -7 97c-1 11 -1 22 5 34z" />
    <glyph glyph-name="section" unicode="&#xa7;" horiz-adv-x="486" 
d="M334 593h-3c-2 3 -3 7 -3 10c-1 14 1 27 1 40l-2 67c0 7 -3 12 -9 16c-8 5 -16 8 -26 9s-22 -1 -32 1c-11 2 -22 1 -33 2h-2c-22 -6 -44 -9 -64 -23c-11 -7 -18 -16 -22 -29c-12 -33 -15 -67 -18 -101c-1 -12 1 -25 3 -37c3 -17 10 -31 30 -35c4 -1 8 -4 13 -5
c19 6 37 11 58 14c20 3 41 3 62 3h23c15 0 31 1 46 0c12 -1 21 -7 27 -16l7 -3c2 -9 4 -18 5 -28v-2c2 -12 3 -25 3 -38c0 -24 -1 -47 -1 -71c-1 -6 1 -13 -3 -19l-6 -2c-5 -22 -11 -45 -20 -66c8 -1 16 -3 23 -5c28 -8 52 -24 59 -56c6 -25 8 -51 9 -77c0 -6 -2 -12 -3 -18
c0 -3 -3 -7 -2 -10c3 -12 -2 -23 -3 -35c0 -15 -4 -29 -8 -43c-6 -22 -17 -40 -33 -56c-4 -5 -10 -10 -16 -13c-19 -8 -38 -16 -57 -18l-52 -6c-7 -1 -14 -2 -20 -4c-32 -7 -64 -11 -96 -11c-25 1 -50 4 -74 9c-19 6 -29 18 -32 36c-3 11 -4 23 -5 34v57c0 9 1 18 3 26
c2 10 10 17 18 15c21 -5 41 -1 62 4c6 2 12 2 19 3v-10l-4 -24c-2 -14 1 -28 5 -40c7 -19 22 -30 44 -31c32 -2 61 9 92 18l23 8c17 4 30 15 43 27c8 6 11 13 11 21c0 30 -4 59 -15 86c-5 16 -17 24 -35 20c-4 -1 -9 0 -14 0c-17 1 -36 -2 -53 -5c-39 -7 -76 -12 -114 -12
c-12 -1 -24 -2 -36 -1c-21 2 -34 14 -43 31c-7 13 -11 28 -11 44c-2 17 -2 35 -1 53c0 33 2 66 4 99c0 6 1 13 3 19c-6 4 -10 11 -12 20c-2 6 -3 13 -4 20s-1 13 -4 20c-7 29 -9 60 -5 92l5 77l6 40l4 36c3 16 6 30 17 44c14 18 32 29 53 33c21 5 42 11 63 18
c17 6 35 7 54 8h19c24 3 48 2 72 1c10 0 20 -2 30 -4c5 -1 10 -4 16 0h2c15 -6 32 -10 38 -28c8 -21 16 -43 18 -67c2 -6 1 -12 1 -18c-3 -26 -3 -51 -2 -77c0 -10 -3 -12 -11 -15zM155 384c0 -1 2 -14 1 -15c10 -28 -1 -38 6 -60c4 -13 27 -8 41 -8c20 2 31 1 46 9
c16 7 36 11 48 24c7 6 5 19 5 29c1 17 -4 32 -11 47c-3 7 -10 11 -18 11c-19 -1 -37 1 -56 -4l-47 -4c-10 1 -16 -9 -15 -29z" />
    <glyph glyph-name="yen" unicode="&#xa5;" horiz-adv-x="509" 
d="M285 492c3 4 6 6 8 8c11 18 22 36 32 55c12 21 23 44 35 65c11 21 24 41 35 62c7 12 14 22 18 35c2 6 6 11 9 17c9 -1 19 -1 27 -4c12 -3 23 -3 34 -1c8 -4 8 -10 4 -16c-16 -25 -24 -54 -35 -82c-8 -19 -18 -37 -30 -54c-9 -15 -17 -31 -26 -47c-11 -17 -18 -35 -30 -51
c-5 -7 -9 -15 -12 -23c-4 -11 -10 -22 -16 -32c-10 -16 -16 -34 -14 -53c2 -12 -1 -24 4 -36c10 0 20 -5 31 -2c21 -4 42 5 63 5c4 1 9 3 13 4c6 1 11 3 16 3c4 1 8 -3 8 -7c0 -2 0 -4 -1 -6c-4 -22 -1 -44 5 -67c-3 -2 -6 -5 -10 -6s-8 -1 -12 -1c-27 1 -53 -2 -79 -5
c-10 -2 -20 -2 -30 -3c-5 -17 -5 -18 -1 -58c6 -4 12 -3 19 -3c30 0 59 0 89 1c1 0 3 -1 4 -2c1 -2 2 -3 2 -5c0 -15 0 -31 -1 -46c0 -4 -1 -8 -3 -12c-2 -6 -7 -9 -13 -9c-16 0 -32 -2 -48 -5c-10 -2 -20 -1 -30 -1c-8 0 -16 0 -24 -5c3 -40 3 -81 -6 -121
c-27 -5 -52 2 -76 7c-6 7 -3 14 -2 20c4 14 3 28 3 42c-1 16 -3 31 -4 49c-2 0 -5 1 -8 1c-12 1 -23 1 -34 1l-66 3h-10c-8 1 -11 4 -11 11c0 14 1 27 6 40c2 6 7 11 14 12s13 3 20 3c17 2 34 3 51 5c14 2 26 5 40 7c1 6 4 11 3 16c-3 17 5 34 -3 52c-14 -1 -27 -3 -41 -4
c-28 -3 -56 -6 -83 -9c-6 0 -10 3 -10 8c2 14 4 28 2 42c-1 6 4 11 11 11c7 1 14 1 20 1c12 0 23 0 34 3c14 2 29 3 43 5c7 1 13 2 20 4c9 2 11 5 11 14l-3 48c0 15 -6 29 -15 41c-8 11 -13 23 -20 34c-5 8 -10 15 -16 21c-18 21 -34 44 -52 65c-23 27 -42 57 -68 81
c-21 20 -40 43 -60 64c-2 2 -4 4 -5 6c-3 4 0 11 4 12s9 2 14 2c15 0 31 -2 47 3c7 3 14 0 19 -7c10 -11 20 -22 31 -33c10 -11 21 -21 31 -32c13 -15 26 -31 39 -47c2 -2 3 -5 5 -6c20 -18 35 -40 53 -60c9 -9 20 -17 31 -28z" />
    <glyph glyph-name="currency" unicode="&#xa4;" horiz-adv-x="477" 
d="M149 495c26 3 51 6 77 9c8 1 16 1 24 1h61c4 6 10 12 14 18c17 21 33 43 48 64c4 6 8 11 16 13c3 -2 6 -4 8 -7c7 -11 17 -18 28 -23c5 -2 8 -6 9 -12c-12 -26 -27 -50 -43 -74c-1 -1 -1 -2 -2 -3c-14 -9 -12 -22 -10 -35c5 -26 9 -53 10 -79c2 -26 1 -52 -11 -76l-3 -9
c8 -17 20 -32 32 -46c13 -18 27 -35 40 -52c7 -8 4 -17 -6 -17c-14 -1 -25 -7 -37 -14c-2 -1 -4 -2 -7 -4c-7 -5 -13 -4 -19 4c-7 10 -15 20 -22 30c-13 20 -26 40 -41 62c-15 2 -33 -3 -51 -3h-56h-54c-17 -21 -31 -43 -46 -65c-9 -13 -17 -26 -25 -39c-5 -7 -13 -7 -18 -1
c-5 7 -9 14 -14 20c-6 9 -13 17 -20 25c6 18 24 26 34 42c9 14 23 25 36 38c-7 12 -10 24 -11 38c0 15 -3 31 -2 46c1 27 1 54 11 80c2 7 1 13 -2 19c-2 3 -3 6 -5 9c-16 22 -31 45 -46 67c-5 7 -11 12 -16 18s-5 11 0 16l21 21c12 11 28 7 36 -2c5 -5 10 -11 15 -17
c14 -17 26 -35 39 -53c2 -3 5 -6 8 -9zM263 438v0c-9 0 -18 0 -28 -1c-14 -1 -28 -4 -43 -6c-14 -3 -22 -13 -24 -26c-4 -24 -6 -49 9 -71c4 -6 8 -11 15 -13c9 -3 19 -7 28 -7c25 -1 49 -2 73 3c15 4 19 7 22 22c6 27 3 54 -1 81c-3 13 -8 17 -21 18c-10 1 -20 0 -30 0z
" />
    <glyph glyph-name="sterling" unicode="&#xa3;" horiz-adv-x="530" 
d="M452 528c-5 -2 -7 -4 -9 -4c-17 1 -32 -2 -47 -8c-6 -3 -12 -3 -18 1c-1 3 -2 8 -3 12l-9 54s-14 29 -31 35c-18 7 -37 14 -58 9c-8 -1 -17 1 -25 -3s-14 -9 -16 -17c-6 -24 -14 -46 -16 -70c-1 -25 -4 -49 -5 -74c-1 -20 -1 -40 -1 -60c0 -3 1 -7 2 -10
c7 -4 14 -3 20 -2c20 2 40 4 60 7c7 1 14 3 21 4c11 2 15 -1 14 -12c-2 -17 -3 -33 -2 -50c1 -9 2 -18 4 -28c-38 -9 -77 -2 -113 -10c-6 -16 -5 -31 -4 -46c2 -28 4 -56 7 -83c2 -18 8 -33 22 -46c11 -11 23 -17 38 -19c18 -3 36 -4 53 -5c13 -1 26 1 38 5c9 2 16 7 20 15
c5 11 10 22 12 34c7 30 12 61 18 92v4c2 6 6 9 12 8c18 -6 37 -7 55 -7c10 0 13 -3 13 -14c-1 -20 -1 -41 -2 -61c0 -7 0 -14 -1 -20l-3 -30c-1 -6 -3 -13 -3 -20c0 -19 -10 -34 -23 -47c-10 -11 -22 -20 -36 -27c-24 -10 -46 -21 -72 -25c-11 -2 -22 -8 -34 -8
c-5 0 -10 -2 -14 -2c-14 1 -28 3 -42 4c-25 3 -44 16 -60 35c-12 13 -22 27 -31 42c-4 7 -9 14 -14 23c-8 -13 -14 -25 -20 -36c-13 -23 -31 -35 -57 -33c-20 1 -40 3 -60 4c-4 1 -9 3 -14 5c0 5 0 9 1 14c4 20 5 39 4 59v12c1 6 5 10 11 10c4 0 8 -1 12 -2c3 0 5 -1 8 -1
c14 4 29 2 43 2c20 1 26 6 31 25c8 24 10 49 10 74v75c-4 1 -8 3 -11 3c-23 0 -45 2 -68 -4c-6 -1 -13 -1 -20 -1c-4 0 -8 1 -12 2c-1 3 -2 4 -2 5c3 20 2 40 1 60c0 11 6 17 17 17c23 1 46 0 70 1c8 -5 14 1 21 3c6 12 4 25 4 37c1 25 2 51 -2 76c-1 8 -2 17 -1 26
c2 15 -1 30 0 45c2 19 5 37 7 56c1 9 6 16 13 21c10 8 20 15 31 21s23 10 35 15c15 7 32 9 48 10c32 2 64 2 95 1c15 0 30 -3 45 -10c11 -5 17 -13 22 -24c8 -21 13 -43 15 -65c3 -26 4 -52 6 -79z" />
    <glyph glyph-name="cent" unicode="&#xa2;" horiz-adv-x="328" 
d="M106 164c-14 5 -28 11 -41 16c-10 5 -15 14 -19 23c-8 21 -13 42 -14 64c-2 15 -3 30 -5 46c-1 11 -3 23 -5 35c-6 31 -5 62 -3 93c0 21 9 39 29 50c10 5 21 11 32 15c10 5 22 9 34 14c1 12 2 24 4 36c3 25 7 49 10 75c2 11 2 23 3 35v15c6 1 11 3 16 4c16 2 33 4 48 12
c1 0 1 0 2 1c7 2 14 -4 12 -11c-9 -35 -11 -71 -18 -106c-2 -11 -2 -22 -3 -34c-1 -3 1 -6 2 -10c13 -1 26 -1 38 -1c22 -1 41 -10 59 -22c8 -5 12 -12 14 -21c5 -18 9 -37 10 -57c0 -8 2 -17 4 -25c1 -7 1 -13 -3 -20c-3 0 -5 -1 -8 -1c-16 1 -31 -3 -46 -9
c-5 -1 -9 -3 -13 -4c-7 -1 -11 4 -10 10c4 12 2 24 2 36c1 14 -6 22 -23 23c-23 2 -45 1 -67 -8c-12 -5 -22 -12 -31 -21c-3 -3 -5 -7 -5 -10c-8 -37 -7 -74 -2 -111c1 -12 7 -22 13 -31c6 -10 15 -14 26 -16c26 -3 52 0 77 5c10 2 16 8 19 18c2 13 0 26 -2 38
c0 3 -1 7 -1 10c4 8 11 11 19 13c9 2 18 4 27 7c6 2 13 2 20 0c1 -3 4 -6 4 -9c1 -7 3 -14 3 -21c0 -24 0 -48 1 -72c0 -7 -2 -12 -5 -17c-7 -10 -15 -19 -24 -27c-15 -12 -32 -20 -49 -27c-14 -7 -30 -8 -46 -9h-10c-5 -10 -7 -19 -7 -29c-1 -21 -2 -42 -2 -64
c-1 -17 -1 -34 -2 -51c-3 -2 -5 -4 -8 -4c-20 -1 -40 -2 -60 0c-10 1 -12 4 -10 14c11 45 15 90 15 136c0 1 -1 2 -1 4z" />
    <glyph glyph-name="paragraph" unicode="&#xb6;" horiz-adv-x="643" 
d="M483 20c-1 5 -3 8 -3 12c1 33 1 67 -3 101c-1 12 -1 24 -1 36c-1 19 1 38 -2 57c4 18 -3 36 1 54c1 2 1 5 0 8c-6 49 -7 99 -7 149c-1 38 -4 76 -6 113c0 14 -1 28 -1 42c0 9 0 18 -6 26c-4 1 -8 2 -13 2c-14 1 -28 0 -42 0c-16 0 -31 1 -47 3c-11 1 -22 0 -33 0
c-1 -4 -3 -7 -3 -11c1 -16 2 -32 2 -48c1 -20 2 -39 2 -59c0 -16 -1 -31 0 -46c0 -10 2 -20 3 -30c2 -21 3 -42 5 -63c1 -16 2 -31 2 -46c0 -30 5 -60 7 -89c3 -50 6 -100 8 -150c1 -19 4 -38 -2 -58c-3 -4 -7 -6 -13 -6c-22 1 -45 3 -67 5c-2 0 -4 1 -7 2c-1 2 -3 6 -2 9
c4 15 -1 30 -2 45c-1 37 -3 73 -5 110c-1 25 -3 50 -5 75v10c0 32 1 63 2 94c1 21 2 41 3 62c0 16 0 33 -4 51c-14 0 -28 1 -41 2c-14 1 -27 2 -40 0c-12 -1 -25 1 -38 1c-12 0 -24 1 -36 1c-15 1 -30 3 -45 8c-18 5 -27 18 -29 36c-3 22 -3 44 8 66c6 11 9 23 15 34
c16 31 41 50 73 60c22 6 44 12 67 13c16 1 32 6 49 8c18 2 37 2 55 3c4 0 9 -1 12 1c11 8 24 7 36 9c11 3 22 4 34 2c20 -2 40 -1 60 -1c19 0 38 0 56 -5c3 -1 7 0 10 0c35 -5 70 -8 105 -6c1 0 2 -1 4 -1c1 -2 3 -4 3 -7c-1 -14 4 -27 6 -41c1 -14 4 -27 6 -43
c-2 -5 -9 -4 -15 -4c-21 -1 -42 -3 -63 -1c-3 1 -5 0 -8 0c-3 -7 -1 -13 0 -20c3 -17 8 -34 8 -51c0 -13 3 -25 5 -37c5 -21 6 -43 9 -65c3 -18 4 -36 6 -55c1 -17 2 -33 1 -50c-1 -20 1 -41 3 -61c1 -23 2 -46 3 -70c1 -34 3 -69 3 -103c1 -21 -1 -42 -2 -64
c0 -6 -1 -11 -7 -15c-5 -3 -9 -2 -15 -1c-13 1 -26 -1 -39 -1c-6 -1 -12 -1 -20 -2z" />
    <glyph glyph-name="mu" unicode="&#xb5;" horiz-adv-x="576" 
d="M113 48c-4 -18 0 -34 0 -50s1 -33 2 -49l6 -48s4 -32 7 -49c2 -15 5 -31 7 -47c-7 -4 -13 -6 -20 -5c-12 3 -25 -1 -37 0c-6 0 -10 -1 -15 -5c-4 -4 -9 -2 -11 3c-1 4 -2 9 -2 14c3 33 3 66 0 99c-2 25 -2 49 -3 74c0 13 0 25 -1 38c-5 56 -5 111 -6 167
c0 39 -3 79 -2 118c0 45 -3 90 1 135c1 9 0 17 0 27c13 5 26 5 40 6c13 0 26 2 39 3c7 -7 6 -17 5 -24c-1 -13 0 -25 -1 -38c0 -20 2 -40 2 -60c1 -11 1 -22 1 -33c1 -17 2 -34 3 -52c2 -27 2 -54 5 -81c2 -22 5 -45 8 -67c3 -18 14 -28 31 -33c23 -7 46 -11 70 -9
c19 2 35 10 48 22c14 12 24 28 27 47c7 42 14 84 17 127c1 22 3 45 2 68c0 21 -3 42 -6 63c-1 13 0 27 -8 37c2 7 5 10 10 10c16 -1 32 3 47 5c9 2 16 6 25 9c6 -2 8 -8 9 -14l3 -90c1 -14 0 -28 1 -42c0 -13 1 -26 2 -39c2 -22 1 -45 2 -68c1 -19 2 -39 4 -59
c1 -15 7 -28 19 -39c8 -8 18 -10 29 -8c6 1 11 5 14 10c5 7 6 14 6 21c0 15 1 29 -2 44c-1 4 2 8 3 12c18 2 35 -1 51 4c5 1 10 -2 12 -8c8 -26 13 -52 14 -78c0 -11 -2 -21 0 -32c1 -7 -3 -13 -8 -18c-23 -21 -50 -35 -82 -35h-8c-39 -4 -65 15 -84 46c-3 4 -6 8 -10 15
c-6 -15 -11 -27 -15 -39c-3 -8 -8 -14 -15 -18c-25 -17 -52 -30 -82 -34c-39 -5 -77 -1 -113 17c-14 7 -29 14 -41 30z" />
    <glyph glyph-name="registered" unicode="&#xae;" horiz-adv-x="713" 
d="M34 227c1 21 2 46 4 71v27c-2 29 0 58 0 87c-1 39 7 77 12 115c1 10 3 19 4 28c1 17 8 32 14 47c5 12 10 22 17 31c8 11 18 18 30 23c14 7 29 12 44 16c12 4 23 6 35 6c11 1 23 0 33 6c3 2 8 2 12 2c12 0 24 -1 35 2c12 2 24 -1 36 2h8c5 -1 11 -3 17 -3c5 0 10 1 15 2
c14 1 27 0 40 -2c7 -1 15 -1 22 0c18 3 35 1 53 0s36 -5 54 -8c17 -2 34 -4 51 -4c10 0 21 -5 32 -7c13 -4 26 -7 38 -11c11 -3 18 -8 22 -20c13 -38 16 -78 16 -118c0 -12 0 -24 1 -37c2 -22 1 -45 -3 -67c0 -2 -1 -3 -1 -4c5 -25 -1 -50 -2 -75c-1 -13 -2 -25 -2 -38
c-1 -29 -7 -57 -14 -84c-1 -4 -2 -7 -2 -10c0 -17 -5 -33 -8 -49c0 -5 -2 -9 -4 -14c-4 -10 -10 -21 -15 -32c-7 -15 -19 -27 -32 -37c-9 -7 -19 -11 -31 -14c-21 -4 -43 -7 -65 -9c-12 -1 -24 -1 -35 -1c-19 0 -37 1 -56 -5c-9 -2 -19 -3 -29 -4c-23 -2 -45 -3 -68 -5
c-21 -2 -42 -5 -63 -7c-39 -1 -77 -3 -116 5c-22 4 -42 14 -62 24c-8 4 -14 11 -18 19c-6 12 -11 25 -11 39c0 10 -3 19 -3 28c-2 27 -3 55 -5 85zM599 390c-1 27 -2 49 -3 72c-2 32 -6 64 -16 96c-6 16 -14 32 -30 41c-18 10 -37 16 -58 15c-13 0 -26 0 -38 2
c-33 5 -65 4 -97 -7c-1 0 -2 -1 -3 -2c-6 -2 -11 -2 -15 3c-4 4 -9 4 -14 3s-10 -1 -14 -2c-32 -3 -64 -5 -95 -9c-6 0 -12 -1 -18 -3c-11 -4 -22 -9 -33 -14c-12 -4 -21 -13 -25 -24c-8 -25 -16 -51 -18 -77c-3 -37 -6 -75 -8 -112c-2 -47 -5 -94 -3 -141
c0 -14 0 -28 1 -42c0 -17 5 -33 13 -47c4 -7 8 -13 14 -17c16 -12 33 -19 53 -19c6 0 12 0 18 -1c12 -2 24 -1 36 1c20 3 40 5 61 6s43 3 64 10c17 5 33 5 50 5c5 0 10 1 16 1c27 2 54 3 81 5c6 1 12 1 17 3c16 6 28 17 35 34c8 19 14 40 17 61c5 39 7 78 9 117
c1 15 2 31 3 42zM402 198c-5 6 -7 10 -6 16c2 17 -2 34 -6 49c-6 26 -17 36 -45 37c-13 0 -26 -1 -40 -2c-11 0 -22 -3 -32 -6c-4 -10 -5 -18 -2 -26c2 -7 2 -15 3 -22c1 -10 3 -20 4 -30c1 -8 3 -17 -2 -26c-23 -1 -46 -7 -71 -6c-1 5 -2 9 -2 12c1 37 -1 73 -3 110
c-4 62 -8 124 -4 187c0 11 1 21 2 32c0 4 2 7 6 9c6 2 11 6 17 6c14 0 27 6 40 9c18 4 35 4 52 2h43c13 0 26 2 38 1c21 -2 41 -6 59 -16c14 -7 22 -17 26 -31c1 -5 3 -9 3 -14c1 -25 4 -50 -1 -75c-1 -7 -1 -15 -2 -22c-1 -11 -3 -21 -10 -30c-4 -5 -8 -10 -14 -13
c-7 -3 -13 -7 -19 -11c-1 -5 4 -5 6 -7s4 -3 6 -4c18 -12 26 -28 28 -48c2 -16 3 -32 4 -48c0 -9 0 -18 -1 -28c-1 -6 -5 -9 -11 -9c-8 0 -15 2 -22 2c-15 1 -29 2 -44 2zM264 470c-5 -30 -1 -58 0 -87c0 -1 1 -3 2 -5c3 -6 7 -10 14 -10s14 -1 21 0c22 2 44 5 65 8
c7 1 13 3 19 5c11 4 16 11 18 22c3 19 1 37 -5 55c-3 10 -10 15 -20 16c-35 4 -70 2 -105 -2c-3 0 -5 -1 -9 -2z" />
    <glyph glyph-name="copyright" unicode="&#xa9;" horiz-adv-x="642" 
d="M375 47h-75c-20 -1 -39 -3 -58 -4h-30h-38c-19 1 -39 1 -57 5c-12 2 -22 9 -33 15c-7 4 -11 12 -13 19c-3 10 -7 21 -8 31c-3 24 -8 47 -12 71c-2 13 -2 27 -3 41c-3 31 -7 62 -10 93c-2 26 -3 52 -4 78v104c0 18 2 37 6 55c4 14 7 28 11 42c3 11 6 22 11 32
c1 4 6 7 10 9c15 5 30 11 46 9c4 0 9 0 12 1c19 6 39 2 58 3c10 0 20 2 29 2c9 1 18 2 26 1c21 -5 41 -2 61 2c7 1 14 2 21 2h24c3 0 6 1 8 0c13 -10 29 1 42 -6c18 4 34 -2 51 -4c15 -3 29 -8 44 -12c9 -2 19 -4 29 -7c11 -3 22 -7 34 -11c1 -1 3 -2 4 -4
c10 -16 26 -29 25 -51c0 -3 0 -6 1 -10c6 -21 10 -44 13 -66c1 -2 2 -5 2 -8c1 -43 7 -86 3 -129c-1 -20 0 -40 -2 -60c-2 -31 1 -63 -5 -95c-1 -5 -1 -11 -2 -16c-5 -19 -7 -39 -10 -59c-3 -29 -21 -46 -47 -55c-29 -11 -59 -12 -90 -14c-24 -2 -49 -2 -74 -3v-1zM531 295
v0c0 15 1 29 0 44c-2 38 -3 76 -6 113c-3 34 -6 67 -21 98c-9 19 -30 41 -59 39c-23 -2 -45 -1 -68 -1c-9 0 -18 1 -28 1c-16 0 -31 -2 -47 -1c-40 0 -80 -3 -120 -9c-11 -2 -22 -4 -33 -4c-14 0 -31 -14 -34 -29c-2 -8 -4 -17 -4 -25c-1 -21 -3 -42 -1 -63
c3 -28 1 -56 4 -84c2 -17 2 -35 3 -53c2 -34 6 -67 10 -101c2 -19 7 -37 12 -54c4 -15 14 -28 25 -38c4 -3 8 -5 12 -6c17 -5 34 -7 51 -7h94c11 0 21 2 32 4c19 2 38 11 58 9c1 0 3 0 4 1c10 3 20 5 30 8c16 5 32 9 48 15c24 10 38 28 38 55v88zM277 285c16 -7 31 -7 47 -4
c6 1 13 1 19 2c13 2 18 7 19 19c1 7 1 15 0 22c0 8 3 13 9 16l6 3c12 2 24 5 36 7c2 1 4 0 7 -1c9 -22 9 -45 4 -68c-2 -12 -5 -24 -14 -32c-7 -7 -15 -13 -24 -18c-16 -11 -33 -15 -52 -16c-17 -2 -34 -4 -51 -7c-16 -2 -31 -1 -46 1c-9 0 -15 5 -20 12c-6 9 -10 19 -11 29
c-1 15 -2 30 -2 44c-1 13 0 25 -2 38c-3 16 -3 33 -2 50c1 19 1 38 2 57c1 20 9 36 28 45c8 4 16 9 24 14c8 4 17 6 26 9c33 11 66 6 99 7c15 1 23 -9 28 -22c6 -16 9 -33 11 -50l3 -36c2 -12 0 -15 -12 -16c-16 -1 -28 -8 -42 -14c-4 -2 -8 -4 -12 -5c-5 -2 -10 2 -10 7v16
c1 4 1 9 1 14c-1 14 -6 19 -20 19c-17 1 -34 -1 -45 -16c-7 -10 -12 -22 -12 -35c0 -18 -1 -36 -1 -54c0 -13 3 -25 9 -37z" />
    <glyph glyph-name="Thorn" unicode="&#xde;" horiz-adv-x="386" 
d="M111 718c0 -2 1 -4 0 -6c-4 -28 0 -57 0 -85c0 -20 1 -40 2 -60v-8c1 -7 6 -10 14 -9c18 2 36 4 53 6c9 0 17 1 26 2c3 0 5 1 8 1c27 -5 54 -5 79 -17c3 -1 7 -2 9 -4c15 -13 29 -26 39 -43c5 -8 10 -16 14 -24c5 -11 10 -23 11 -36c5 -33 10 -66 15 -98
c2 -10 0 -19 0 -28c1 -11 -1 -21 -1 -32c-1 -17 -9 -33 -18 -48c-21 -34 -54 -51 -92 -61c-10 -2 -21 -1 -31 -3c-28 -3 -55 -7 -82 -6c-4 0 -8 0 -12 -1c-14 -2 -13 -2 -14 -17c-1 -19 2 -38 1 -57c0 -10 -1 -20 -2 -30v-5c6 -18 -2 -34 -4 -52c-4 0 -7 -2 -10 -1
c-25 2 -50 1 -76 6c-2 13 0 26 3 39c1 3 1 6 1 9c-5 25 -3 51 -4 76v80c0 14 2 28 0 43s-1 29 -2 44c-1 9 3 17 0 27c-2 8 0 18 0 28c0 33 -1 67 -1 101c-1 51 -1 103 -1 154c0 27 -1 54 3 82c0 3 0 7 -1 11c-2 13 2 20 15 19c9 -1 17 1 26 2c6 1 13 3 19 4c5 2 9 0 13 -3z
M117 459c-2 -11 -1 -22 0 -33c0 -10 2 -20 1 -30c-3 -26 -1 -53 1 -79c2 -23 4 -45 3 -68c0 -5 1 -10 1 -16c1 -6 5 -9 11 -9c9 0 18 2 26 0c13 -2 24 2 35 4c5 1 11 3 16 3c25 0 45 12 65 26c16 11 23 27 22 46c0 19 0 38 -1 57c-2 24 -7 46 -18 68c-8 16 -21 29 -40 33
c-19 5 -38 10 -59 7c-17 -2 -35 -4 -53 -6c-3 0 -6 -1 -10 -3z" />
    <glyph glyph-name="thorn" unicode="&#xfe;" horiz-adv-x="331" 
d="M115 189c0 -4 -1 -8 -1 -12c1 -40 2 -80 2 -120c0 -8 -2 -17 -3 -25c-1 -5 -4 -8 -8 -8l-48 -3c-2 0 -5 1 -8 2c-1 13 -1 25 -3 38c-6 46 -8 92 -7 139c0 19 -1 38 -1 57c0 14 1 28 1 42v136c0 20 1 40 1 60c-1 41 -2 83 -3 125c0 31 -2 62 2 93c1 9 0 18 1 26
c0 8 3 11 11 11c16 1 33 1 49 2c8 0 12 -4 11 -11c-5 -28 -3 -55 -3 -83v-52v-6c1 -7 4 -10 11 -9c27 2 54 5 81 6c23 1 45 -4 66 -17c13 -9 21 -22 28 -35c9 -19 16 -38 20 -58c6 -31 10 -61 11 -91c1 -41 0 -81 -2 -122c-1 -13 -7 -25 -11 -38c-2 -5 -6 -8 -11 -11
c-15 -6 -30 -15 -45 -21c-13 -5 -26 -9 -41 -9c-32 -2 -65 -4 -100 -6zM109 262c9 -2 17 -3 26 -4c4 -1 9 -2 13 -1c18 1 35 6 52 13c18 8 31 20 37 41s7 43 5 65c-1 25 -4 51 -7 77c-2 16 -7 31 -11 46c-4 16 -15 25 -30 29c-5 1 -9 2 -14 2c-10 1 -21 2 -32 0
c-12 -2 -26 -2 -39 -10c-3 -86 0 -172 0 -258z" />
    <glyph glyph-name="germandbls" unicode="&#xdf;" horiz-adv-x="530" 
d="M401 487c0 9 1 18 0 28c-4 34 -13 66 -33 95c-13 20 -30 32 -56 33c-40 3 -77 -5 -114 -21c-7 -3 -15 -6 -22 -9c-22 -9 -34 -24 -41 -47c-13 -45 -11 -90 -11 -135c1 -40 1 -81 1 -121c1 -8 1 -15 1 -22c2 -19 3 -37 1 -56c-1 -16 1 -32 3 -48c2 -13 1 -26 3 -39
c2 -12 2 -25 3 -38c2 -33 3 -66 11 -99c1 -4 2 -9 1 -14c-6 -20 1 -40 3 -60c1 -8 3 -16 4 -24c1 -9 -4 -14 -13 -13c-12 1 -24 3 -35 4c-15 1 -29 2 -44 0c-9 -1 -14 4 -14 12c-2 22 -2 44 -5 66c-3 19 -4 38 -4 57c0 11 -1 22 0 32c1 9 -6 18 -2 27s0 17 -1 26
c0 3 0 6 1 10c1 8 2 17 -1 25c-1 4 1 8 1 12c0 6 -1 11 -1 16c0 2 -1 4 0 6c4 13 0 26 0 39c-1 13 -1 27 -1 40s1 27 1 40c0 10 0 20 1 30c3 21 2 43 1 65c-4 41 -3 82 4 123c1 5 1 11 1 16c0 11 2 21 5 32c5 19 9 39 14 59c2 7 5 14 7 21c5 12 12 20 22 28
c13 10 26 20 42 25c26 9 52 16 79 19c14 2 29 1 43 2c20 2 39 1 59 -1c24 -3 46 -11 68 -22c19 -9 35 -21 51 -34c9 -7 15 -16 19 -27c3 -10 7 -19 10 -28c3 -11 5 -22 7 -33c8 -45 9 -90 5 -135c-1 -10 -5 -19 -10 -26c-10 -13 -22 -24 -40 -27c-24 -5 -47 -9 -71 -9
c-12 -1 -22 -5 -31 -13c-7 -6 -6 -21 4 -25c9 -4 19 -7 29 -9c22 -4 45 -1 68 0c17 1 33 -2 48 -11c12 -6 19 -17 25 -29c13 -28 15 -58 16 -88c0 -22 -2 -45 -4 -67c-1 -11 -3 -22 -6 -33c-6 -23 -20 -40 -35 -57l-9 -6c-17 -7 -35 -14 -53 -21c-5 -1 -9 -2 -14 -4
c-22 -10 -47 -12 -71 -15c-27 -3 -52 3 -76 13c-13 5 -20 13 -22 28c-2 18 -8 35 -11 53c-4 21 -7 42 -10 63c-1 4 0 9 3 13s7 7 12 4c10 -5 21 -4 31 -2c11 1 21 -3 32 2c1 1 5 -3 7 -5c1 -2 1 -5 1 -8c0 -17 6 -32 11 -48c3 -9 10 -17 15 -25c5 -7 11 -9 19 -9
c21 -1 39 5 55 18c6 4 9 10 17 11c1 0 3 2 4 4c9 18 21 34 21 55s-5 40 -14 58c-3 5 -9 10 -14 14c-13 10 -27 16 -44 17c-24 2 -47 4 -71 4c-8 -1 -15 0 -22 1c-17 1 -28 10 -33 27c-3 8 -4 17 -3 25c2 18 0 36 12 51c1 13 9 22 16 32c5 7 13 13 19 19c2 2 5 4 7 4
c19 1 35 9 52 13c15 4 29 12 44 19c3 1 6 4 9 7c4 6 8 12 13 20z" />
    <glyph glyph-name="ordfeminine" unicode="&#xaa;" horiz-adv-x="429" 
d="M233 603c0 4 1 6 1 9c-2 17 -5 34 -8 51c-1 10 -7 17 -15 22c-4 2 -8 4 -11 4c-20 0 -40 1 -60 -3c-21 -5 -35 -18 -38 -41c-1 -9 -1 -20 -1 -29v-13c-4 0 -7 -1 -10 -1c-7 2 -13 3 -19 5c-9 2 -17 3 -26 -1c-2 -2 -6 -1 -11 -2c-1 4 -2 8 -2 12c-1 10 -3 20 -2 29
c0 12 0 23 2 34c2 13 5 25 8 37c3 14 9 24 26 26c15 2 29 7 45 8c11 0 22 2 33 5c10 2 20 2 30 1c11 -1 22 1 33 1c25 0 46 -10 65 -25c6 -6 10 -13 12 -21c6 -17 6 -35 9 -53c4 -29 3 -58 5 -87c1 -17 6 -34 11 -50c4 -15 12 -18 30 -14c5 9 4 19 2 29c-1 5 -1 11 -1 17
c0 1 1 3 2 5c7 -1 15 -1 23 -2c12 -1 25 0 37 2c6 0 10 -4 9 -9c-1 -14 -2 -29 -4 -43c-1 -13 -4 -25 -7 -37c-6 -24 -25 -36 -48 -40c-32 -6 -63 3 -91 18c-12 5 -22 13 -21 29c1 6 -1 13 -2 19c-5 3 -7 0 -9 -2c-7 -5 -13 -10 -19 -15c-17 -15 -37 -26 -59 -33
c-16 -4 -32 -7 -48 -12c-11 -4 -21 -3 -31 -2c-14 2 -25 13 -26 27c-1 21 -3 43 2 65s18 36 38 42c24 8 48 16 72 22s48 11 74 16zM208 548c-27 -4 -51 -14 -76 -24c-7 -3 -13 -8 -14 -17c4 -6 11 -6 17 -5c8 1 16 4 24 7c20 8 34 24 49 39z" />
    <glyph glyph-name="guillemotleft" unicode="&#xab;" horiz-adv-x="495" 
d="M428 466c4 -6 4 -11 2 -15c-13 -19 -22 -41 -35 -60c-22 -34 -43 -68 -69 -98c-3 -5 -8 -9 -11 -14c-4 -7 -8 -15 -12 -23c5 -10 10 -19 18 -27c11 -11 21 -22 31 -33c29 -31 56 -62 80 -97c10 -15 22 -28 32 -42c2 -2 3 -4 4 -5c1 -4 -1 -9 -5 -10c-2 -1 -4 -2 -6 -2
c-15 4 -30 -2 -45 -3c-11 -1 -22 -2 -34 -3c-15 18 -30 36 -43 55c-25 41 -58 76 -89 113c-16 19 -34 37 -54 54c2 3 3 7 5 9c10 12 19 25 28 38c19 31 39 61 58 90c8 12 16 23 25 33c8 11 17 21 26 31c4 4 8 8 11 13c5 6 11 8 16 5c18 -8 38 -6 57 -8c3 -1 6 -1 10 -1z
M118 256c8 -19 22 -28 32 -41c2 -3 5 -5 7 -7l60 -75c8 -11 16 -23 24 -34c10 -12 19 -24 30 -35c5 -5 6 -9 3 -15c-12 -4 -25 0 -37 -5c-11 -6 -24 -8 -37 -11s-14 -3 -21 7c-16 23 -31 45 -50 66c-2 3 -4 6 -7 8c-11 7 -17 17 -24 27c-23 31 -47 61 -70 92
c-5 6 -11 10 -12 20c13 11 20 29 34 41c3 2 4 6 6 8c2 3 3 7 6 8c11 5 16 15 22 24c7 10 14 18 21 27c9 13 19 26 29 38c10 14 21 27 32 41c6 8 13 16 20 24c5 6 11 9 18 6c15 -5 31 -4 47 0c2 0 4 0 6 -1c4 0 7 -7 4 -10c-12 -14 -20 -30 -30 -45c-8 -12 -16 -25 -24 -36
c-14 -18 -28 -36 -42 -53c-11 -13 -21 -26 -31 -40c-6 -9 -11 -19 -16 -29z" />
    <glyph glyph-name="guillemotright" unicode="&#xbb;" horiz-adv-x="468" 
d="M110 472c13 -20 25 -36 41 -49c4 -3 7 -8 11 -12c12 -18 25 -36 38 -54s26 -36 37 -56c6 -12 13 -23 18 -34v-5c-12 -22 -19 -45 -30 -67c-14 -27 -28 -53 -42 -79c-2 -2 -4 -4 -5 -7c-8 -23 -20 -44 -31 -66c-2 -3 -3 -6 -5 -9c-7 -14 -17 -21 -33 -20
c-12 0 -24 0 -36 -3c-7 -2 -15 -1 -22 3c-1 2 -2 4 -1 4c12 26 25 51 41 75c9 14 18 28 22 44c1 3 3 6 5 9c13 14 21 31 29 47c8 14 16 28 22 42c2 5 3 9 5 13c2 8 1 15 -3 21c-3 4 -5 8 -8 12c-25 29 -49 57 -73 87c-18 22 -35 45 -52 68c-4 5 -8 9 -11 14c-3 6 2 13 8 13
h2c20 -5 38 0 57 5c5 2 10 2 16 4zM176 132c0 -1 -1 -2 -1 -3c0 0 0 -1 1 -1c0 1 1 1 1 2s0 1 -1 2zM235 464c3 2 5 5 7 5c4 1 9 1 14 1c13 -1 26 0 39 7c9 5 14 0 18 -6l3 -3c19 -36 42 -69 68 -100c24 -29 44 -60 64 -91c4 -7 4 -10 -1 -16c-26 -27 -43 -61 -64 -91
c-17 -26 -30 -54 -47 -81c-13 -19 -22 -41 -33 -62c-25 1 -50 2 -76 4c-3 2 -5 5 -2 10c4 7 6 15 11 21c10 13 17 27 25 41c3 4 5 9 8 13c12 12 19 26 27 39c9 14 18 27 27 40l30 51c2 3 2 5 3 8c2 5 1 10 -2 15c-12 19 -24 39 -36 57l-57 87c-6 10 -12 19 -18 29
c-3 7 -5 15 -8 22z" />
    <glyph glyph-name="ordmasculine" unicode="&#xba;" horiz-adv-x="401" 
d="M373 466c-2 -41 -3 -75 -7 -108c-2 -27 -4 -55 -12 -81c-2 -4 -3 -9 -4 -13c-4 -15 -11 -27 -23 -38c-18 -17 -39 -28 -61 -37c-14 -6 -28 -12 -43 -16c-21 -6 -42 -7 -63 -8c-15 -1 -31 -1 -46 -2c-31 -1 -60 21 -68 51c-5 19 -5 39 -7 59c-1 6 -1 12 -2 18
c-1 8 -1 16 0 24c0 14 -2 27 -3 41c-1 6 -2 11 -2 16c1 32 -3 64 -2 96c0 13 2 26 3 40c0 8 0 16 1 24l3 69c1 19 4 37 5 56c2 14 10 25 18 35c3 4 8 7 12 10c21 9 42 19 63 25c25 8 52 12 78 12c18 0 36 2 54 3c21 1 39 -3 55 -20c13 -13 22 -26 27 -43c2 -8 6 -15 8 -23
c2 -5 3 -10 4 -15c2 -16 4 -33 6 -49c2 -14 2 -28 5 -41c5 -31 1 -61 1 -85zM288 420v30c0 9 1 18 0 28c-2 30 -5 61 -9 91c-2 18 -5 35 -10 53c-6 18 -18 25 -36 27h-10c-12 -1 -25 -2 -37 -3c-19 -1 -35 -8 -50 -17c-11 -7 -19 -16 -22 -28c-5 -16 -9 -33 -10 -50
c-2 -26 -1 -52 -1 -78c0 -21 2 -41 3 -62c0 -6 -1 -12 -1 -17c-1 -10 -3 -19 -3 -28c-1 -15 -1 -31 0 -46c0 -19 4 -37 11 -54c6 -13 13 -21 32 -16c13 3 25 8 38 10c8 1 16 3 23 6c15 6 30 11 44 18c10 5 18 12 24 23c9 14 11 30 12 45c1 21 1 41 2 68zM348 42
c-6 -2 -11 -3 -15 -5c-21 -8 -43 -10 -65 -8c-8 1 -16 1 -23 -1c-18 -6 -35 -2 -52 -2c-13 0 -26 0 -40 -1c-20 -1 -41 -2 -61 -4c-9 -1 -17 -3 -26 -4h-14c-7 0 -10 3 -11 11c-2 13 -3 26 -4 40c0 5 2 10 5 15c3 4 6 7 11 6c18 -3 35 0 52 3c13 2 27 3 41 3
c9 0 19 -2 28 -4c12 -3 25 -3 37 -3h32c4 0 8 -1 12 0c16 5 33 4 50 3c9 0 19 0 29 4c6 2 12 -2 12 -7c-3 -12 2 -24 2 -36c1 -3 0 -6 0 -10z" />
    <glyph glyph-name="trademark" unicode="&#x2122;" horiz-adv-x="924" 
d="M779 645c-11 -10 -18 -18 -24 -27c-10 -15 -20 -31 -30 -45c-18 -24 -37 -47 -55 -70c-6 -8 -11 -16 -16 -24c-4 -6 -12 -6 -17 -1c-9 13 -19 26 -28 39c-25 36 -53 69 -84 101c-10 9 -19 18 -28 28c-4 -1 -4 -4 -4 -6c0 -11 2 -21 4 -32c5 -17 8 -35 9 -53
c1 -26 3 -52 5 -77c0 -8 2 -15 1 -22c0 -28 4 -56 5 -84c1 -12 4 -23 6 -35c0 -4 -1 -8 -2 -12h-46c-15 -1 -30 -4 -46 0v8c5 26 1 52 2 78c0 21 -2 42 -3 63c-1 17 -2 34 -4 50c-4 40 -3 81 -3 122c0 18 -1 37 0 56c0 14 -2 28 -13 41c4 3 7 5 10 8h4c7 0 14 1 20 0
c7 -2 13 0 19 3c5 2 11 -2 17 3c4 4 12 4 19 6c5 1 11 2 17 4c7 -9 15 -18 21 -27c12 -20 32 -34 46 -52c6 -9 16 -17 21 -26c6 -13 22 -18 25 -33c6 -5 13 -11 20 -17c10 5 17 16 24 24c10 11 19 23 29 34c9 9 18 17 24 29c19 15 28 38 45 55c6 6 12 9 21 8
c12 -1 24 1 36 1h21c5 -7 4 -13 5 -20c0 -9 1 -18 5 -27c1 -3 2 -5 2 -8c-1 -11 4 -20 6 -31c2 -22 5 -43 7 -65c2 -20 3 -40 5 -60c1 -6 1 -13 1 -19c0 -8 3 -16 3 -23c2 -14 2 -28 3 -42c1 -13 2 -27 3 -41c0 -5 -1 -11 -1 -16c-1 -11 -2 -21 0 -32c1 -5 1 -10 2 -16
c0 -25 1 -51 1 -78c-3 -2 -7 -4 -10 -4c-19 -1 -37 0 -56 0c-5 0 -8 4 -8 9c2 35 -6 69 -9 103c-2 32 -5 64 -7 96c-2 38 -4 77 -13 115c-3 12 -4 25 -7 41zM150 656c-5 0 -9 1 -14 1h-92h-12c-8 -1 -12 4 -10 13c4 14 7 28 8 42c0 3 2 9 4 9c9 0 13 11 21 12c9 1 16 4 26 2
c8 -2 17 0 25 2c12 2 23 6 35 1c13 6 26 0 39 2c11 2 22 -1 34 -2h30h29c12 -1 25 2 37 4c10 1 20 4 29 7c7 1 12 -3 11 -11c-1 -13 -2 -27 -2 -41c0 -10 1 -19 2 -28v-16c-4 -1 -7 -3 -10 -3c-16 0 -33 1 -49 2c-23 1 -45 6 -68 6c-3 -8 -4 -15 -3 -22c1 -25 3 -49 3 -74
c0 -20 -1 -41 -2 -62c-1 -20 0 -41 2 -61c2 -15 1 -29 1 -44c0 -26 0 -52 -1 -78c0 -12 -2 -14 -13 -15c-12 -2 -24 -3 -36 -4c-5 0 -10 2 -16 3c0 7 -1 13 -1 19c0 26 -1 53 0 79c0 47 1 95 1 142c0 24 -1 49 -2 73c-1 11 -2 21 -3 32c0 3 -2 6 -3 10z" />
    <glyph glyph-name="logicalnot" unicode="&#xac;" horiz-adv-x="293" 
d="M169 367c-5 1 -9 3 -13 3c-30 0 -61 1 -91 -2c-16 -2 -32 1 -48 2c-5 0 -8 5 -8 10c0 2 0 5 1 8c1 16 2 33 0 49c-1 6 0 11 6 16c23 1 47 1 71 0c21 -2 41 -7 62 -8h4c14 -9 30 -7 45 -8c14 -1 27 -5 41 -4c9 1 13 -4 14 -13c2 -20 3 -40 4 -60c2 -32 1 -65 -1 -97
c-1 -5 -1 -11 -3 -16c-1 -6 -7 -9 -13 -7c-8 2 -14 0 -22 -1c-12 -1 -25 -1 -37 -1c-3 1 -6 4 -7 6c-2 2 -2 4 -2 6c0 27 -4 54 0 81c0 6 0 12 -1 18c0 6 -1 12 -2 18z" />
    <glyph glyph-name="multiply" unicode="&#xd7;" horiz-adv-x="389" 
d="M201 407c31 34 63 65 95 95c2 2 4 2 7 3c9 -5 17 -12 24 -19c7 -8 20 -10 23 -23c-2 -7 -9 -12 -14 -17c-16 -16 -32 -31 -48 -46c-9 -9 -18 -20 -27 -29c-5 -7 -11 -13 -17 -19c1 -2 0 -4 1 -4c16 -21 31 -42 47 -62s33 -40 49 -61c9 -12 18 -26 27 -40
c-3 -3 -5 -6 -8 -9c-9 -8 -18 -15 -27 -23c-5 -5 -9 -4 -14 0c-14 13 -28 26 -42 40c-12 13 -24 27 -35 41c-13 16 -25 33 -37 49c-4 4 -8 7 -12 11c-8 -4 -13 -9 -17 -15c-15 -21 -33 -41 -51 -59c-14 -14 -25 -29 -36 -45c-9 -14 -10 -15 -26 -10c-9 2 -17 6 -26 10
c-5 3 -10 6 -15 10c0 7 4 13 8 19c9 12 18 25 26 38c11 17 24 33 39 47c17 16 31 35 47 52c4 6 4 10 -1 16c-5 8 -11 15 -17 22c-24 30 -48 60 -72 91h-13c-3 1 -5 6 -3 9c1 1 2 3 4 4c11 6 20 15 32 20c6 2 10 8 16 12c9 7 14 9 22 -3c9 -12 19 -24 28 -36
c6 -7 13 -14 19 -21l36 -42c2 -2 4 -3 8 -6z" />
    <glyph glyph-name="divide" unicode="&#xf7;" horiz-adv-x="297" 
d="M277 349c2 -6 4 -10 3 -14c0 -12 2 -24 5 -36c3 -11 0 -15 -10 -16c-31 -3 -63 -5 -94 -7c-26 -2 -51 -4 -77 -5c-12 -1 -24 -2 -36 -1c-14 0 -28 0 -42 -3c-2 -1 -5 -1 -7 -1c-5 0 -9 4 -10 9v38c0 3 2 6 4 9c3 5 7 9 11 15h35c29 1 58 4 87 8c31 4 62 5 93 4h38z
M105 172c5 3 10 6 15 10c12 -3 23 -2 35 3c10 3 20 5 30 8c3 1 7 0 11 0c1 -4 3 -8 3 -11c1 -20 4 -40 10 -59c3 -9 -2 -14 -11 -13c-20 1 -39 0 -57 -6c-9 -2 -19 -2 -28 -2c-5 -1 -7 3 -8 7v63zM93 488c7 3 12 7 18 8c23 4 46 7 69 9c9 2 13 -1 13 -10c0 -14 3 -27 6 -41
c2 -7 4 -14 1 -23c-3 0 -6 -2 -10 -2c-21 1 -42 2 -64 2c-4 0 -8 -1 -12 -1c-11 -1 -15 4 -17 14c-1 11 -3 21 -4 32v12z" />
    <glyph glyph-name="quotedblright" unicode="&#x201d;" horiz-adv-x="298" 
d="M38 725c26 11 52 4 77 6c1 -4 3 -8 3 -11c-2 -19 3 -38 4 -57s5 -38 6 -57c2 -16 1 -31 2 -46c0 -15 1 -29 2 -44c1 -20 2 -40 -2 -60c-1 -2 0 -5 0 -8c-2 -25 -4 -51 -5 -77c-1 -8 -7 -13 -14 -11c-15 5 -31 3 -46 3c-4 0 -8 0 -12 1c-4 0 -7 3 -7 7c-1 6 0 12 -1 18
c0 18 -1 36 -2 54c-1 19 -3 39 -2 58c1 40 -3 80 -4 120c-1 22 -4 45 -1 67c1 6 0 12 1 18c0 6 0 12 1 19zM187 369c0 1 -1 2 -1 2c3 17 1 33 0 50c-1 16 -1 33 -1 49c-1 26 -3 51 -4 76c-2 50 -5 101 -7 151v8c8 7 17 9 28 6c6 -2 13 -2 19 -1c9 1 19 0 28 0
c2 -4 3 -7 4 -10c1 -10 0 -21 2 -31c2 -11 0 -21 2 -32s0 -23 0 -35c2 -31 3 -61 5 -92c0 -14 3 -29 3 -43c0 -31 1 -61 -3 -92v-6c-2 -8 -6 -13 -15 -12l-24 3z" />
    <glyph glyph-name="quotedblleft" unicode="&#x201c;" horiz-adv-x="277" 
d="M160 739c22 3 45 5 68 8c1 -4 3 -7 3 -10c0 -20 4 -41 5 -61c2 -22 1 -44 2 -66c0 -16 0 -33 2 -49c3 -29 1 -58 1 -86c0 -20 -1 -40 -1 -60c-1 -7 -2 -14 -4 -22c-8 -2 -16 -3 -23 -5c-8 -2 -16 -4 -23 -6c-8 -2 -15 -7 -24 -1c1 9 2 18 2 27c-1 9 -3 19 -3 28
c0 32 -1 65 0 98c1 17 -1 34 -2 51c-1 28 -4 55 -4 82c1 15 -3 30 1 46c0 2 -1 4 -2 7c-2 6 -3 12 2 19zM34 412c2 4 5 8 7 13c-1 2 -3 5 -4 8c-1 2 -3 5 -2 7c5 18 -1 35 0 53c1 25 -1 50 -2 76c-1 33 -2 67 -3 101c0 9 0 17 -1 26c0 6 2 10 6 14c11 12 13 13 26 13
c3 0 7 -1 9 -3c10 -6 21 -9 32 -9c4 0 8 -1 12 -3s6 -5 6 -11c-1 -34 -1 -68 -1 -101c0 -25 -1 -49 2 -74c2 -21 0 -42 -1 -63l-3 -45c-5 -5 -11 -5 -17 -5c-12 -1 -24 -1 -36 -2c-4 0 -7 -2 -11 -3c-7 -2 -14 -1 -19 8z" />
    <glyph glyph-name="quoteleft" unicode="&#x2018;" horiz-adv-x="157" 
d="M36 412c2 4 5 8 7 13c-1 2 -3 5 -4 8c-1 2 -3 5 -2 7c5 18 -1 35 0 53c1 25 -1 50 -2 76c-1 33 -2 67 -3 101c0 9 0 17 -1 26c0 6 2 10 6 14c11 12 13 13 26 13c3 0 7 -1 9 -3c10 -6 21 -9 32 -9c4 0 8 -1 12 -3s6 -5 6 -11c-1 -34 -1 -68 -1 -101c0 -25 -1 -49 2 -74
c2 -21 0 -42 -1 -63l-3 -45c-5 -5 -11 -5 -17 -5c-12 -1 -24 -1 -36 -2c-4 0 -7 -2 -11 -3c-7 -2 -14 -1 -19 8z" />
    <glyph glyph-name="quoteright" unicode="&#x2019;" horiz-adv-x="149" 
d="M39 369c0 1 -1 2 -1 2c3 17 1 33 0 50c-1 16 -1 33 -1 49c-1 26 -3 51 -4 76c-2 50 -5 101 -7 151v8c8 7 17 9 28 6c6 -2 13 -2 19 -1c9 1 19 0 28 0c2 -4 3 -7 4 -10c1 -10 0 -21 2 -31c2 -11 0 -21 2 -32s0 -23 0 -35c2 -31 3 -61 5 -92c0 -14 3 -29 3 -43
c0 -31 1 -61 -3 -92v-6c-2 -8 -6 -13 -15 -12l-24 3z" />
    <glyph glyph-name="endash" unicode="&#x2013;" horiz-adv-x="497" 
d="M36 230c-7 18 -7 34 -9 51c-1 6 -1 13 -1 20c1 13 7 18 21 17c11 -1 22 1 33 2c24 3 48 4 72 6c16 1 33 4 49 5c11 1 23 3 34 1c24 -3 47 -2 71 0c21 3 43 1 64 2c24 2 49 1 73 7c8 2 16 3 24 -2c1 -2 2 -5 2 -8c1 -22 2 -43 2 -64c1 -9 -2 -12 -10 -11
c-14 3 -28 -3 -42 -3c-12 0 -24 -4 -37 -5c-7 -1 -14 -1 -22 -1c-14 1 -27 2 -41 3c-7 0 -14 -1 -20 -2c-23 -2 -47 -3 -70 -6c-24 -3 -48 -4 -73 -3c-5 0 -11 0 -16 -2c-14 -4 -29 -3 -43 -3c-10 -1 -19 -2 -28 -2c-11 -1 -21 -2 -33 -2z" />
    <glyph glyph-name="emdash" unicode="&#x2014;" horiz-adv-x="601" 
d="M19 241c-1 20 0 38 1 56c0 4 4 9 6 15c18 -8 35 0 52 1c8 0 17 2 25 3c25 1 50 1 74 2c7 0 13 2 20 2c17 3 34 5 51 7c7 1 15 2 22 3h40c40 1 81 1 121 7c23 4 46 1 69 4c14 2 28 3 41 6c20 3 24 0 25 -19c1 -18 1 -36 6 -54c1 -8 -2 -12 -9 -12c-22 0 -45 -3 -67 -3
c-23 -1 -45 -1 -68 -2c-8 0 -16 -1 -24 -2c-14 -2 -29 -4 -43 -5c-35 -2 -69 -3 -104 -6c-27 -2 -54 -3 -81 -3c-13 0 -27 1 -40 0c-34 0 -68 2 -101 -1c-5 0 -9 0 -16 1z" />
    <glyph glyph-name="degree" unicode="&#xb0;" horiz-adv-x="441" 
d="M252 760c16 0 30 -2 45 -7c13 -4 27 -9 41 -9c4 0 7 -2 11 -4c20 -10 30 -28 36 -48c8 -28 14 -56 13 -86c0 -2 0 -4 1 -6c6 -27 6 -55 7 -83c1 -27 3 -54 4 -82c1 -20 -2 -41 -10 -60c-5 -12 -12 -22 -21 -31c-6 -5 -13 -9 -20 -13c-18 -10 -35 -22 -56 -25
c-13 -2 -27 -2 -41 -4c-17 -1 -34 -1 -50 -4c-13 -2 -25 -3 -38 -2c-25 2 -50 7 -74 12c-6 1 -12 4 -16 9c-16 17 -27 37 -30 61c-4 28 -6 55 -8 83c-1 10 -2 20 -4 30c-7 39 -12 77 -9 117c1 16 1 32 1 48c1 14 2 29 9 42c6 15 17 25 32 28c24 6 47 17 73 18
c23 9 48 10 72 13c11 2 21 2 32 3zM328 482v0c-3 34 -6 67 -8 100c-2 21 -8 42 -14 62c-6 15 -16 26 -33 28c-11 2 -23 4 -34 4c-20 0 -40 0 -59 -3c-17 -3 -33 -8 -48 -14c-12 -5 -17 -13 -20 -25c-6 -30 -4 -60 -1 -89c1 -4 2 -8 4 -12c9 -12 10 -28 9 -42
c-1 -27 5 -52 11 -78c1 -6 4 -13 7 -19c2 -5 7 -9 13 -11c14 -3 28 -8 43 -9c14 -1 29 0 43 3c17 2 33 6 49 11c18 7 35 23 36 39c1 8 2 17 2 26v29z" />
    <glyph glyph-name="guilsinglleft" unicode="&#x2039;" horiz-adv-x="292" 
d="M108 256c8 -19 22 -28 32 -41c2 -3 5 -5 7 -7l60 -75c8 -11 16 -23 24 -34c10 -12 19 -24 30 -35c5 -5 6 -9 3 -15c-12 -4 -25 0 -37 -5c-11 -6 -24 -8 -37 -11s-14 -3 -21 7c-16 23 -31 45 -50 66c-2 3 -4 6 -7 8c-11 7 -17 17 -24 27c-23 31 -47 61 -70 92
c-5 6 -11 10 -12 20c13 11 20 29 34 41c3 2 4 6 6 8c2 3 3 7 6 8c11 5 16 15 22 24c7 10 14 18 21 27c9 13 19 26 29 38c10 14 21 27 32 41c6 8 13 16 20 24c5 6 11 9 18 6c15 -5 31 -4 47 0c2 0 4 0 6 -1c4 0 7 -7 4 -10c-12 -14 -20 -30 -30 -45c-8 -12 -16 -25 -24 -36
c-14 -18 -28 -36 -42 -53c-11 -13 -21 -26 -31 -40c-6 -9 -11 -19 -16 -29z" />
    <glyph glyph-name="guilsinglright" unicode="&#x203a;" horiz-adv-x="262" 
d="M107 472c13 -20 25 -36 41 -49c4 -3 7 -8 11 -12c12 -18 25 -36 38 -54s26 -36 37 -56c6 -12 13 -23 18 -34v-5c-12 -22 -19 -45 -30 -67c-14 -27 -28 -53 -42 -79c-2 -2 -4 -4 -5 -7c-8 -23 -20 -44 -31 -66c-2 -3 -3 -6 -5 -9c-7 -14 -17 -21 -33 -20
c-12 0 -24 0 -36 -3c-7 -2 -15 -1 -22 3c-1 2 -2 4 -1 4c12 26 25 51 41 75c9 14 18 28 22 44c1 3 3 6 5 9c13 14 21 31 29 47c8 14 16 28 22 42c2 5 3 9 5 13c2 8 1 15 -3 21c-3 4 -5 8 -8 12c-25 29 -49 57 -73 87c-18 22 -35 45 -52 68c-4 5 -8 9 -11 14c-3 6 2 13 8 13
h2c20 -5 38 0 57 5c5 2 10 2 16 4zM173 132c0 -1 -1 -2 -1 -3c0 0 0 -1 1 -1c0 1 1 1 1 2s0 1 -1 2z" />
    <glyph glyph-name="bullet" unicode="&#x2022;" horiz-adv-x="295" 
d="M259 365c-1 -7 -3 -14 -4 -21c-1 -6 -3 -12 -5 -18c-5 -12 -25 -22 -46 -27c-18 -4 -35 -7 -55 -8c-15 -1 -31 -2 -47 -1s-30 4 -45 7c-6 2 -11 5 -13 8c-2 5 -4 10 -4 14c-4 18 -6 36 -2 56c3 10 5 21 -4 30c-1 3 -2 5 -2 8c0 21 2 43 13 64c5 9 11 14 26 18
c17 4 34 7 54 9s42 2 64 1c12 0 25 -1 37 -3c17 -1 27 -9 32 -20c3 -15 7 -30 6 -45c-2 -24 -4 -47 -5 -72v0z" />
    <glyph glyph-name="asciitilde" unicode="~" horiz-adv-x="497" 
d="M45 220c-3 11 -6 21 -7 32c-3 23 -5 46 -5 69c-2 46 -2 92 7 137c7 33 28 55 58 66c21 8 43 12 66 11c11 -1 20 -3 29 -7c13 -5 22 -13 28 -25c5 -10 10 -20 11 -32c3 -23 6 -47 9 -71c2 -16 4 -31 8 -47c6 -29 25 -47 54 -54c5 -1 9 -2 14 -3c9 -3 17 0 24 6
c8 6 15 13 20 21c16 26 25 53 24 83c-2 30 -4 60 -13 89c-3 10 2 16 12 16c19 -1 38 0 57 3c12 1 16 -2 20 -13c3 -10 6 -20 6 -31c-1 -28 1 -56 1 -84c-1 -26 -2 -52 -13 -76c-4 -9 -7 -17 -9 -26c-4 -14 -12 -25 -22 -35c-23 -23 -51 -36 -81 -46c-9 -3 -19 -5 -28 -8
c-18 -6 -36 -5 -53 1c-12 3 -23 10 -35 14c-11 4 -18 12 -23 21c-12 19 -21 38 -24 61c-4 24 -8 48 -8 73c0 12 -2 24 -4 36c-2 9 -5 18 -11 26c-6 9 -17 12 -27 5c-9 -7 -14 -16 -17 -26c-5 -18 -8 -35 -9 -53c0 -34 1 -67 5 -100c1 -7 4 -14 6 -21c1 -6 -4 -13 -10 -12
c-5 0 -10 1 -16 2c-7 1 -16 3 -23 -2c-7 -4 -12 -3 -21 0z" />
    <glyph glyph-name="dagger" unicode="&#x2020;" horiz-adv-x="366" 
d="M358 462c3 -21 -8 -42 1 -64c-4 -2 -7 -5 -11 -5c-37 0 -74 -5 -111 -4h-10c1 -22 0 -44 0 -66c0 -26 1 -53 1 -79c-1 -27 -1 -54 0 -80l3 -96c0 -27 1 -54 1 -84c-5 -1 -8 -3 -12 -4c-20 -3 -40 -5 -59 -7c-6 -1 -9 2 -10 8c-2 22 -4 43 -7 65c-3 18 -4 36 -5 54
c-1 34 -5 67 -4 101v68c0 39 0 79 1 118c-12 0 -23 1 -34 4c-5 1 -11 1 -16 0c-25 -4 -50 -3 -76 -2c-1 5 -4 9 -3 14c0 17 3 34 2 51c-1 13 6 18 18 19h28c7 0 14 -1 20 0c22 4 44 2 65 -1v9c2 67 5 134 3 202c0 6 -1 13 6 17c5 3 3 8 4 13c1 13 5 15 17 13
c7 -2 14 -2 21 -4c9 -2 18 -4 27 -7c6 -2 9 -7 8 -13c-7 -25 -3 -50 -3 -75c1 -23 -2 -45 -2 -68c-1 -24 -2 -49 1 -73c1 -6 2 -12 2 -17c8 0 16 -1 24 0c6 1 13 1 20 0c28 -5 56 -4 84 -5c1 0 3 -1 6 -2z" />
    <glyph glyph-name="daggerdbl" unicode="&#x2021;" horiz-adv-x="391" 
d="M363 487h9c9 -8 3 -15 0 -21l12 -35c-1 -5 -4 -8 -11 -8h-2l-89 4c-15 0 -30 -2 -44 -6c1 -32 2 -66 1 -98v-11s0 1 1 1c3 0 7 2 10 1c14 -3 29 2 43 2c11 0 22 2 33 4l33 7c5 1 9 -2 11 -7c0 -4 1 -7 1 -10l6 -52c0 -1 -1 -3 -1 -6c-5 0 -9 -1 -14 -1h-54
c-7 0 -15 0 -22 -1c-16 -3 -31 -3 -46 -3v-3c-1 -27 -1 -54 0 -80l3 -96c0 -27 1 -54 1 -84c-5 -1 -8 -3 -12 -4c-20 -3 -40 -5 -59 -7c-6 -1 -9 2 -10 8c-2 22 -4 43 -7 65c-3 18 -4 36 -5 54c-1 34 -5 67 -4 101v37h-1l-34 -4c-8 -1 -16 -2 -23 -2c-19 -1 -38 -1 -56 -1
c-10 0 -13 2 -14 11c-1 12 1 25 -5 37c2 8 -1 18 5 26c40 -4 78 -3 116 1h12c0 29 0 57 1 85v19c-18 -1 -36 -2 -54 -2c-23 -1 -47 -1 -70 -1c-9 0 -9 0 -17 12c13 17 8 41 21 59c8 3 17 2 24 0c14 -5 29 -2 43 0c2 0 5 1 8 1c16 -1 32 -2 49 0v2c2 67 5 134 3 202
c0 6 -1 13 6 17c5 3 3 8 4 13c1 13 5 15 17 13c7 -2 14 -2 21 -4c9 -2 18 -4 27 -7c6 -2 9 -7 8 -13c-7 -25 -3 -50 -3 -75c1 -23 -2 -45 -2 -68c-1 -24 -2 -49 1 -73c0 -2 1 -3 1 -4h8c2 0 4 1 6 1c8 -1 17 -5 27 -2c8 3 18 1 27 1s19 0 28 1z" />
    <glyph glyph-name="oslash" unicode="&#xf8;" horiz-adv-x="581" 
d="M353 633c6 -1 11 0 13 -2c10 -8 20 -10 31 -5c2 1 5 2 8 2c12 -2 25 0 36 3c6 -4 7 -8 5 -14c-4 -9 -8 -19 -10 -30c-2 -18 -11 -35 -14 -53c-2 -10 -5 -19 -6 -29c-1 -7 -3 -13 -5 -19c12 -4 24 -9 36 -14c11 -6 23 -11 36 -14c6 -2 11 -5 16 -9c21 -20 36 -42 38 -72
c0 -6 3 -12 4 -17c2 -6 4 -12 4 -18c2 -14 5 -29 4 -43c-2 -32 -5 -65 -8 -97c-2 -19 -3 -37 -4 -56c-1 -29 -8 -56 -20 -83c-11 -27 -33 -40 -61 -46l-27 -6c-17 -4 -34 -6 -51 -4c-3 0 -6 1 -8 1v-1c-41 0 -80 -1 -120 -1c-8 -26 -15 -52 -18 -80c-2 -13 -5 -26 -8 -39
c-1 -6 -4 -11 -7 -17c-12 0 -23 -1 -34 -1s-23 -3 -33 2c-4 11 2 19 4 28l6 25c1 6 3 12 5 19c1 1 2 3 2 5c1 20 7 39 12 58c-8 1 -16 2 -24 2c-10 1 -19 2 -28 2c-25 0 -47 9 -67 23c-15 10 -21 25 -23 42c-1 13 -2 25 -4 38c-1 12 -3 24 -2 35c3 29 0 58 5 86
c4 21 5 42 9 63c4 26 10 52 21 76c1 5 2 9 4 14c1 3 1 7 3 9c8 12 13 26 20 38c6 10 13 17 23 21c11 4 20 11 32 11c2 0 5 2 7 3c4 1 7 4 11 4c23 0 44 6 67 6c19 -1 37 2 56 3c4 0 7 1 10 5c4 6 10 7 17 6c1 0 2 -1 3 -1c6 20 10 41 15 61c5 26 12 52 19 80zM294 394h-10
c-24 -2 -49 -4 -73 -4c-26 0 -42 -11 -50 -35c-6 -19 -16 -37 -19 -56c-6 -32 -10 -64 -10 -96c0 -6 1 -12 1 -18c-1 -18 1 -37 5 -55c5 -20 20 -32 39 -36c9 -2 18 -4 27 -5c0 1 1 1 1 2l21 77c6 22 12 44 21 66c8 18 13 37 19 56l25 92zM441 169l8 71c1 26 -1 52 -5 78
c-3 17 -9 33 -19 48c-6 8 -13 16 -23 19l-19 6c-6 -22 -13 -42 -21 -63l-5 -21c-10 -30 -19 -60 -28 -90c-1 -1 -1 -4 -2 -5c-9 -12 -11 -27 -17 -40s-13 -26 -18 -40c-5 -15 -12 -30 -17 -46c25 0 49 3 74 8c22 5 43 9 63 19c8 4 13 9 17 16c7 12 10 26 12 40z" />
    <glyph glyph-name="eth" unicode="&#xf0;" horiz-adv-x="481" 
d="M228 467c-20 0 -39 -9 -59 -3c-10 17 -5 36 -13 54c-11 1 -22 4 -34 2c-13 -2 -27 -2 -40 -2c-5 0 -9 2 -8 7c0 21 1 42 6 63l4 4c21 0 43 -6 66 4c4 15 1 30 -1 45c-1 9 -4 18 -6 27c-1 4 0 8 0 13c16 9 34 3 51 5c7 -11 9 -22 10 -34c3 -16 4 -32 6 -48
c6 -1 10 -2 15 -2h40c11 0 22 0 34 -1c20 -2 39 -3 59 -6c10 -1 19 -5 29 -8c8 -2 13 -7 19 -13c14 -18 21 -38 25 -60c2 -13 5 -26 9 -39c6 -17 6 -35 6 -53c1 -26 0 -53 2 -79c3 -33 6 -66 6 -100c1 -15 2 -30 -3 -45c3 -14 -1 -27 -1 -41c-1 -20 -3 -39 -4 -59
c-1 -17 -8 -32 -13 -48c-1 -4 -4 -7 -7 -10c-14 -14 -31 -23 -52 -27c-29 -5 -59 -9 -89 -7c-2 0 -5 0 -8 -1c-15 -3 -30 -2 -45 -1c-20 1 -40 2 -60 4c-23 2 -46 8 -68 16c-8 4 -16 6 -24 9c-17 5 -29 15 -38 30c-2 4 -5 8 -7 12c-6 10 -9 20 -11 32c-6 30 -6 61 -6 91
c1 38 7 76 14 113c3 19 9 37 17 55c6 14 16 25 29 35c13 11 28 15 45 18c19 2 37 4 56 3c3 0 6 -1 10 0c30 7 60 3 91 2c10 0 21 -1 31 0c14 0 28 -2 42 -4c3 0 7 0 12 -1c1 4 2 7 1 10c-3 17 -5 34 -9 51c-5 23 -24 46 -56 49c-25 3 -49 3 -73 5c-9 -11 -3 -22 -3 -32
c0 -11 2 -21 3 -35zM366 244v0c0 8 0 17 -1 25c-1 16 -3 31 -4 46c-1 13 -9 21 -19 26c-8 4 -16 8 -24 9c-16 3 -32 8 -49 7s-35 -2 -51 -6c-17 -3 -34 -8 -50 -13c-9 -2 -17 -5 -25 -8c-17 -7 -24 -23 -28 -39c-6 -24 -8 -50 -12 -74c-1 -4 0 -7 0 -10c3 -23 5 -47 8 -70
c1 -11 6 -21 16 -28c7 -5 15 -9 25 -12c13 -4 26 -11 42 -9c4 1 8 -3 13 -3c14 -1 28 -1 43 -2c16 0 32 -1 48 1c13 1 26 7 39 11c3 1 6 4 8 7c4 7 10 14 13 22c4 14 8 28 11 42c2 10 4 20 0 30c-3 8 -3 16 -3 24v24z" />
    <glyph glyph-name="Oslash" unicode="&#xd8;" horiz-adv-x="673" 
d="M423 823c6 -1 11 0 13 -2c10 -8 20 -10 31 -5c2 1 5 2 8 2c12 -2 25 0 36 3c6 -4 7 -8 5 -14c-4 -9 -8 -19 -10 -30c-2 -16 -9 -30 -13 -45c7 0 14 -1 20 -7c1 -1 4 0 6 -1c20 -4 40 -9 57 -20c19 -12 35 -27 45 -47c10 -23 18 -47 19 -73c0 -12 2 -23 1 -35
c-1 -11 -2 -22 -2 -34c-1 -16 -2 -31 -2 -47c0 -26 -2 -52 -7 -77c-1 -5 0 -10 0 -14c2 -26 0 -51 -4 -76l-12 -86c-3 -20 -7 -40 -11 -59c-5 -29 -16 -56 -34 -80c-5 -8 -11 -13 -19 -16c-13 -6 -25 -13 -38 -17c-15 -4 -29 -6 -44 -7c-12 -1 -24 -1 -35 -1
c-14 -1 -28 -3 -42 -3c-34 -1 -67 -11 -101 -14c-4 -1 -9 -2 -14 -1c-11 0 -22 1 -32 1c-8 -23 -13 -45 -15 -60c-2 -13 -5 -26 -8 -39c-1 -6 -4 -11 -7 -17c-12 0 -23 -1 -34 -1s-23 -3 -33 2c-4 11 2 19 4 28l6 25c1 6 3 12 5 19c1 1 2 3 2 5c1 15 4 29 8 43
c-6 1 -11 3 -16 5c-23 7 -46 14 -68 23c-27 12 -44 34 -51 63c-4 21 -4 42 -4 64c0 12 -2 26 1 37c4 19 2 37 3 56c3 35 6 71 5 107c-1 12 2 23 2 35s3 24 4 36c3 25 5 51 10 76c4 26 7 52 16 76s17 49 30 71c11 20 29 34 51 43c30 12 62 14 94 13c6 0 13 -2 18 0
c16 4 32 2 48 0c3 0 6 0 9 1c14 4 27 2 40 1c12 -1 24 0 37 2l3 11c5 26 12 52 19 80zM553 348v84c0 7 1 13 1 20c1 43 0 86 -10 129c-2 11 -8 21 -13 31c-5 8 -12 15 -22 20c-12 6 -25 9 -38 9c-5 0 -9 1 -13 1c-2 -3 -4 -6 -4 -8l-13 -35c-2 -4 -3 -9 -4 -13
c-6 -34 -32 -102 -45 -134l-5 -21c-10 -30 -19 -60 -28 -90c-1 -1 -1 -4 -2 -5c-9 -12 -11 -27 -17 -40s-13 -26 -18 -40c-9 -26 -28 -82 -36 -109l-8 -26h1c12 -2 24 -1 36 -1c17 -1 34 -2 51 2c9 2 19 5 28 4c10 -1 20 2 31 3c4 1 8 2 11 2c11 -1 20 3 29 6
c16 6 27 17 35 31c19 34 33 70 42 107c7 24 11 48 11 73zM320 640c-20 1 -40 1 -59 -6c-17 -5 -34 -10 -51 -17c-15 -6 -28 -18 -35 -33s-13 -31 -19 -46c-7 -22 -8 -45 -12 -67l-8 -69c-4 -22 -7 -43 -7 -65c-1 -49 -2 -97 7 -145c3 -12 7 -24 15 -32c8 -9 18 -16 27 -24
c1 0 3 -1 4 -1c8 -3 17 -6 26 -8l15 43c2 5 2 10 4 15l29 107c6 22 12 44 21 66c8 18 13 37 19 56c8 30 34 97 42 128c7 26 12 53 18 79l3 10l3 8c-14 0 -28 0 -42 1z" />
    <glyph glyph-name="breve" unicode="&#x2d8;" horiz-adv-x="249" 
d="M24 741c11 0 22 4 33 4c7 0 14 4 21 6c8 2 15 -2 12 -10c-4 -13 0 -25 2 -37c4 -17 15 -26 29 -31c22 0 30 12 35 30c3 11 2 22 2 33c-1 8 5 14 12 11c16 -7 32 -4 48 -5c1 -3 2 -6 2 -9c1 -27 -6 -52 -15 -76c-6 -17 -17 -30 -29 -42c-3 -3 -7 -5 -11 -6
c-10 -1 -21 -3 -31 -3c-11 0 -22 2 -32 4c-6 1 -13 4 -18 7c-32 15 -51 40 -57 74c-3 13 -4 26 -5 40c-1 3 1 6 2 10z" />
    <glyph glyph-name="dotaccent" unicode="&#x2d9;" horiz-adv-x="162" 
d="M125 639c-9 0 -18 -1 -28 -1c-15 1 -30 -1 -45 -3c-3 -1 -5 -1 -8 -2c-13 -1 -16 3 -15 16s1 26 1 39v58c0 3 3 8 6 10c6 4 13 5 21 4c6 -1 13 -2 19 -3c7 0 13 -1 20 -2c11 -1 22 -2 33 -4s14 -5 12 -16c-3 -15 -6 -30 -8 -45c-1 -8 -1 -16 -2 -24c-1 -6 -1 -13 -2 -19
c-1 -3 -2 -5 -4 -8z" />
    <glyph glyph-name="ring" unicode="&#x2da;" horiz-adv-x="306" 
d="M156 506c-40 -2 -74 13 -101 43c-18 20 -28 43 -22 71c1 6 1 12 2 18c4 22 13 42 24 61c2 3 6 5 9 8c2 2 5 3 6 5c6 13 19 20 29 30c2 3 6 5 9 6c8 3 16 4 23 8c7 5 14 6 22 6c1 0 2 0 2 1c16 8 28 0 41 -8c6 -4 12 -8 19 -9c7 -2 9 -10 17 -11c5 -2 11 -6 15 -12
s11 -9 16 -15c7 -10 13 -21 16 -34c9 -43 2 -84 -22 -122c-13 -19 -30 -29 -50 -37c-17 -6 -36 -9 -55 -9zM183 699c-6 -2 -13 -4 -19 -5c-28 -2 -56 -24 -66 -50c-5 -12 -5 -25 0 -37c4 -11 11 -21 24 -24c4 -1 7 -6 12 -6c8 -2 17 -3 25 -2c6 1 12 5 18 8c5 2 10 5 15 7
c8 2 14 8 18 16c11 17 16 35 7 56c-7 18 -18 29 -34 37z" />
    <glyph glyph-name="hungarumlaut" unicode="&#x2dd;" horiz-adv-x="283" 
d="M29 612c2 22 10 42 19 61c9 24 21 47 33 70c2 6 6 10 14 9c4 0 9 1 13 1c7 0 14 0 19 4c6 4 12 4 18 -2c0 -19 -6 -38 -12 -57c-5 -19 -13 -38 -19 -57c-3 -8 -5 -17 -8 -26c-1 -4 -3 -7 -4 -12c-17 -3 -33 -5 -50 -6c-5 -1 -10 1 -14 6c-2 3 -5 5 -9 9zM250 753
c3 -6 3 -10 0 -14c-10 -16 -17 -33 -23 -51c-8 -24 -17 -49 -26 -73c-2 -6 -5 -11 -8 -17c-16 -2 -32 0 -47 4c-7 2 -10 7 -7 14c10 29 20 57 31 86c4 10 8 21 11 31c2 4 1 8 1 12c0 7 3 12 10 11c16 -2 32 2 48 -3c3 -1 6 0 10 0z" />
    <glyph glyph-name="ogonek" unicode="&#x2db;" horiz-adv-x="223" 
d="M150 -230c-24 1 -48 6 -71 15c-18 7 -32 19 -42 35c-5 9 -7 18 -7 27c1 20 5 39 13 58c9 6 5 19 14 25c1 10 9 16 13 25c7 16 18 31 32 44c7 7 11 18 22 22c3 2 5 4 8 5c5 3 11 4 15 -1c5 -6 11 -5 18 -5c8 0 16 -1 24 -2c2 0 6 -2 7 -5c3 -3 1 -8 -2 -10
c-11 -9 -20 -20 -28 -31c-6 -7 -12 -14 -16 -22c-10 -17 -20 -34 -26 -52c-3 -8 -5 -16 -5 -25c0 -17 6 -25 21 -32c13 -6 26 -5 39 -2c6 2 10 -2 10 -8c0 -4 -1 -7 -2 -10c-2 -12 -3 -24 1 -35s0 -14 -12 -15c-8 0 -17 -1 -26 -1z" />
    <glyph glyph-name="caron" unicode="&#x2c7;" horiz-adv-x="351" 
d="M333 744c0 -4 1 -8 -1 -10c-8 -10 -15 -20 -25 -29c-12 -11 -23 -24 -36 -36c-7 -6 -14 -11 -20 -18c-11 -12 -23 -23 -36 -32c-2 -2 -5 -4 -7 -7c-6 -10 -14 -17 -24 -23c-5 -3 -10 -5 -14 -10c-5 -8 -12 -7 -17 1c-9 15 -21 26 -33 37c-16 13 -32 26 -44 43
c-8 12 -18 23 -26 35c-10 15 -19 31 -29 46c-2 3 -2 7 2 10c8 -1 15 -4 23 -4c10 0 20 0 30 2c21 2 18 -1 32 -14c4 -3 6 -8 9 -11c11 -15 23 -29 35 -44c4 -5 10 -10 16 -16c3 3 7 5 10 7c14 14 27 29 42 42c15 12 27 26 38 41c1 0 1 1 1 1c4 5 8 7 14 5
c20 -5 40 -11 60 -16z" />
    <glyph glyph-name="tilde" unicode="&#x2dc;" horiz-adv-x="351" 
d="M325 751c1 -4 2 -7 2 -9c0 -22 1 -44 -1 -66c-2 -19 -8 -38 -25 -51c-11 -9 -21 -20 -34 -27c-29 -18 -61 -21 -92 -4c-8 5 -14 10 -19 18c-5 9 -10 19 -15 28c-5 10 -11 20 -16 30c-4 7 -10 10 -18 12c-7 -3 -15 -5 -19 -13c-4 -10 -6 -20 -4 -31c2 -12 5 -25 16 -33
c3 -3 3 -7 1 -11s-6 -6 -10 -4c-11 3 -21 2 -32 -1c-13 -3 -22 3 -24 16c-1 5 0 10 -1 14c0 3 0 8 -2 10c-8 7 -8 17 -8 26c-2 18 3 37 6 55c2 9 7 16 15 20c12 7 23 15 35 19c22 8 45 11 68 3c9 -3 14 -8 16 -16c3 -13 8 -26 10 -39c2 -14 10 -23 20 -31
c11 -8 24 -12 37 -3c6 3 12 6 17 10c8 7 13 16 11 27l-3 21c0 4 -1 7 -1 10c-2 14 0 17 15 16c14 0 27 1 41 4h14z" />
    <glyph glyph-name="macron" unicode="&#xaf;" horiz-adv-x="283" 
d="M245 765c2 -2 4 -5 7 -9c-12 -21 -9 -45 -11 -67c-10 -6 -18 -6 -27 -4c-29 6 -59 7 -89 3c-18 -2 -37 -5 -55 -7c-9 -1 -18 -1 -26 -1c-12 1 -17 6 -14 17c4 16 6 33 8 51c0 2 2 4 4 8c7 0 15 1 23 1c7 1 14 2 21 2s14 -2 20 -2c13 -2 25 2 37 4l30 3c15 0 30 -1 45 -1
c9 0 17 2 27 2z" />
    <glyph glyph-name="cedilla" unicode="&#xb8;" horiz-adv-x="231" 
d="M22 -260c2 5 4 11 5 16c1 6 1 12 1 18c0 4 0 8 1 12c1 18 1 18 20 14c5 -2 10 -1 16 -1c21 2 38 11 49 32c7 15 11 29 9 45c-4 30 -27 48 -56 43c-6 -2 -12 -3 -18 -4c-7 0 -11 4 -9 12c3 12 7 24 10 36c6 23 14 45 15 68c1 3 2 8 5 8c8 4 10 12 16 18c5 6 12 9 19 6
c10 -4 19 -5 29 -7c7 0 11 -6 7 -12c-11 -22 -12 -45 -17 -68c-1 -6 3 -12 10 -12c15 -1 26 -9 38 -16c1 0 2 -1 3 -2c17 -11 28 -26 28 -47c0 -6 0 -11 1 -16c4 -27 -5 -51 -17 -74c-9 -18 -23 -30 -39 -43c-32 -26 -69 -34 -109 -35c-7 0 -14 0 -17 9z" />
    <glyph glyph-name="dieresis" unicode="&#xa8;" horiz-adv-x="287" 
d="M178 708c1 13 1 26 3 39c0 7 5 12 12 9c16 -6 32 -4 49 -3h8c6 0 10 -4 9 -10v-6c-1 -24 -2 -47 -3 -71c0 -3 -1 -5 -1 -8c-1 -5 -5 -8 -10 -8c-2 0 -3 1 -4 1c-17 4 -34 6 -51 6c-11 0 -13 3 -13 13v26c0 4 0 8 1 12v0zM112 699c0 -9 1 -17 2 -26c0 -8 -3 -12 -11 -10
c-5 1 -10 1 -14 -3c-6 -4 -12 -3 -18 -2c-9 3 -19 3 -29 1c-6 -2 -10 1 -11 8c0 12 -1 25 -1 37c1 14 2 27 4 40c1 10 6 13 15 11l21 -3l18 -3c15 -1 23 -13 25 -30v-20h-1z" />
    <glyph glyph-name="minus" unicode="&#x2212;" horiz-adv-x="338" 
d="M35 235c0 13 0 27 -1 40c-1 12 -3 25 -4 36c2 2 3 4 4 4c23 0 46 6 69 5c20 0 40 2 59 5c30 4 59 5 89 3c12 -2 25 -3 37 -1c6 1 10 -3 10 -7c0 -26 3 -51 7 -76c0 -1 -1 -3 -2 -6c-25 -7 -49 -14 -76 -7c-8 2 -18 -1 -27 -2c-6 0 -11 -1 -16 -1c-38 3 -76 -1 -114 0
c-12 1 -23 2 -35 7z" />
    <glyph glyph-name="plusminus" unicode="&#xb1;" horiz-adv-x="342" 
d="M225 448c-1 -5 -2 -9 -1 -12c2 -21 4 -41 6 -62c1 -10 3 -20 4 -29c0 -11 -2 -15 -12 -15c-20 -2 -39 -7 -58 -12c-9 -1 -14 2 -14 10c1 28 -6 56 -5 85c1 10 -3 20 -4 29c-3 1 -5 2 -7 2c-24 -4 -49 -3 -74 -3c-9 0 -18 -1 -27 -2c-11 -1 -15 3 -15 14v56c0 2 -1 5 -1 8
c-1 12 2 16 14 15c3 0 6 0 10 -1c11 -1 23 -2 35 0c15 2 31 1 46 1c5 0 10 1 16 1c1 5 2 8 2 12c0 21 3 43 0 64c-1 9 3 14 12 16l48 9c6 1 9 -2 10 -8v-12c2 -24 3 -49 5 -73c0 -3 2 -5 3 -9c18 0 36 1 53 0c18 -1 35 -3 52 -4c6 -12 1 -24 3 -35s6 -22 5 -34
c-35 -9 -70 -4 -106 -11zM53 165c0 13 0 27 -1 40c-1 12 -3 25 -4 36c2 2 3 4 4 4c23 0 46 6 69 5c20 0 40 2 59 5c30 4 59 5 89 3c12 -2 25 -3 37 -1c6 1 10 -3 10 -7c0 -26 3 -51 7 -76c0 -1 -1 -3 -2 -6c-25 -7 -49 -14 -76 -7c-8 2 -18 -1 -27 -2c-6 0 -11 -1 -16 -1
c-38 3 -76 -1 -114 0c-12 1 -23 2 -35 7z" />
    <glyph glyph-name="oe" unicode="&#x153;" horiz-adv-x="891" 
d="M860 240c-12 -1 -22 -2 -31 -2c-34 2 -68 -6 -102 -2c-3 1 -6 1 -9 0c-33 -4 -66 -8 -100 -10c-20 -2 -40 -6 -61 -8c-1 -3 -3 -5 -3 -8c0 -21 1 -42 9 -62c2 -5 3 -9 4 -14c3 -14 9 -26 24 -31c3 -1 6 -3 9 -5c5 -5 11 -7 18 -7c14 -2 29 -5 43 -4c24 1 47 2 70 8
c7 2 14 6 21 11c12 9 17 21 15 36s-4 30 -5 44c0 3 -1 5 0 8c0 5 4 9 9 8c16 -1 32 -3 48 -5c5 0 8 -4 8 -9c-2 -23 6 -45 10 -67c2 -17 1 -34 -3 -50c-1 -5 -4 -10 -7 -14c-19 -23 -42 -36 -72 -38c-40 -4 -81 -3 -121 -4c-25 -1 -48 5 -71 12c-19 5 -36 14 -51 25
c-12 -20 -32 -30 -56 -35l-27 -6c-17 -4 -34 -6 -51 -4c-3 0 -6 1 -8 1v-1c-59 0 -117 -1 -176 -1c-13 0 -26 2 -39 2c-10 1 -19 2 -28 2c-25 0 -47 9 -67 23c-15 10 -21 25 -23 42c-1 13 -2 25 -4 38c-1 12 -3 24 -2 35c3 29 0 58 5 86c4 21 5 42 9 63c4 26 10 52 21 76
c1 5 2 9 4 14c1 3 1 7 3 9c8 12 13 26 20 38c6 10 13 17 23 21c11 4 20 11 32 11c2 0 5 2 7 3c4 1 7 4 11 4c23 0 44 6 67 6c19 -1 37 2 56 3c4 0 7 1 10 5c4 6 10 7 17 6c15 -2 29 -1 43 0s29 -3 43 -5c16 -3 30 -9 45 -16c11 -6 23 -11 36 -14c6 -2 11 -5 16 -9l11 -11
c10 12 22 22 39 28c24 9 48 16 73 20c14 2 29 2 44 4h4c19 7 39 4 59 0c6 -1 13 -2 19 -2c13 -1 25 -5 36 -11c25 -14 34 -23 46 -48c7 -14 13 -29 16 -45c3 -22 9 -43 12 -64s3 -43 5 -64c0 -5 -2 -10 -3 -16zM441 169l8 71c1 26 -1 52 -5 78c-3 17 -9 33 -19 48
c-6 8 -13 16 -23 19c-13 4 -26 9 -40 10c-3 0 -7 1 -9 -1c-5 -6 -11 -5 -17 -4c-17 4 -34 5 -52 4c-24 -2 -49 -4 -73 -4c-26 0 -42 -11 -50 -35c-6 -19 -16 -37 -19 -56c-6 -32 -10 -64 -10 -96c0 -6 1 -12 1 -18c-1 -18 1 -37 5 -55c5 -20 20 -32 39 -36
c18 -3 35 -7 54 -5c3 1 6 1 9 0c37 -5 73 -2 109 5c22 5 43 9 63 19c8 4 13 9 17 16c7 12 10 26 12 40zM740 324l6 4c1 21 -6 39 -17 55c-6 10 -16 16 -28 16c-16 0 -32 1 -48 1c-9 -1 -18 -3 -26 -7c-7 -4 -13 -8 -20 -9c-29 -8 -42 -29 -50 -55c-2 -5 -2 -10 -2 -15
c-1 -4 2 -7 6 -7h9l48 3c14 1 29 2 43 2c4 1 8 2 12 2c23 -2 45 6 67 10z" />
    <glyph glyph-name="OE" unicode="&#x152;" horiz-adv-x="914" 
d="M560 20l-3 44c-2 -2 -4 -3 -7 -4c-13 -6 -25 -13 -38 -17c-15 -4 -29 -6 -44 -7c-12 -1 -24 -1 -35 -1c-14 -1 -28 -3 -42 -3c-34 -1 -67 -11 -101 -14c-4 -1 -9 -2 -14 -1c-29 1 -59 3 -89 5c-11 1 -21 2 -31 6c-23 7 -46 14 -68 23c-27 12 -44 34 -51 63
c-4 21 -4 42 -4 64c0 12 -2 26 1 37c4 19 2 37 3 56c3 35 6 71 5 107c-1 12 2 23 2 35s3 24 4 36c3 25 5 51 10 76c4 26 7 52 16 76s17 49 30 71c11 20 29 34 51 43c30 12 62 14 94 13c6 0 13 -2 18 0c16 4 32 2 48 0c3 0 6 0 9 1c14 4 27 2 40 1s26 0 39 3c10 2 20 2 30 2
c15 0 30 -1 45 -2c2 0 4 -1 6 -1c10 0 21 2 29 -7c1 -1 4 0 6 -1c14 -3 29 -7 42 -12c0 12 1 24 2 37c1 7 5 11 12 8c5 -3 10 -3 15 -4c15 -1 30 -5 44 -4c15 2 29 -2 43 -3c3 0 6 0 8 -1c18 -6 36 -5 54 -6c12 0 24 -1 36 -4c10 -2 20 -3 31 -4l33 -3h26c10 0 15 -5 15 -15
c0 -3 -1 -5 -2 -8c0 -3 -1 -7 -1 -10c5 -20 -1 -42 8 -62c1 -4 -2 -9 -6 -9c-3 -1 -5 -1 -8 -1c-37 0 -75 -1 -112 1c-26 1 -52 0 -78 0c-7 0 -14 1 -21 2s-12 -2 -12 -8c1 -25 -4 -49 -6 -73c-1 -22 1 -44 0 -66c0 -12 -1 -25 -1 -37c0 -6 1 -12 1 -17c7 -5 13 -5 20 -5
c32 -1 64 2 95 5c38 3 76 8 114 -4c0 -3 2 -6 2 -9c-3 -18 -3 -35 -1 -53c1 -9 -2 -12 -11 -12c-23 0 -46 -1 -68 -2c-5 0 -11 -1 -16 -1c-31 1 -62 4 -94 1c-13 -2 -26 -1 -40 -1c-4 -8 -3 -16 -3 -24c-1 -47 3 -94 4 -141c1 -17 0 -34 3 -50l4 -19c6 -5 12 -6 19 -6
c22 0 43 0 64 -1c9 0 19 -2 28 -3c14 -1 28 -2 42 -2c24 -1 49 0 73 2c6 1 12 1 18 -4v-7c-4 -19 -2 -38 2 -57c1 -2 1 -4 1 -6c1 -6 -4 -11 -10 -10c-17 3 -35 1 -53 2c-26 2 -52 -3 -78 -4c-23 -1 -46 -1 -69 4c-6 1 -12 1 -18 1c-32 0 -64 -1 -96 -2c-4 0 -8 2 -14 3z
M553 403v29c0 7 1 13 1 20v7v11v23c0 29 -3 58 -10 88c-2 11 -8 21 -13 31c-5 8 -12 15 -22 20c-12 6 -25 9 -38 9c-15 1 -31 7 -45 -1c-3 -1 -6 -1 -8 -1c-15 5 -29 1 -44 1c-18 -1 -36 -1 -54 0c-20 1 -40 1 -59 -6c-17 -5 -34 -10 -51 -17c-15 -6 -28 -18 -35 -33
s-13 -31 -19 -46c-7 -22 -8 -45 -12 -67l-8 -69c-4 -22 -7 -43 -7 -65c-1 -49 -2 -97 7 -145c3 -12 7 -24 15 -32c8 -9 18 -16 27 -24c1 0 3 -1 4 -1c20 -6 41 -12 62 -13c12 0 24 0 35 -1c12 -2 24 -1 36 -1c17 -1 34 -2 51 2c9 2 19 5 28 4c10 -1 20 2 31 3c4 1 8 2 11 2
c11 -1 20 3 29 6c16 6 27 17 35 31c19 34 33 70 42 107c4 16 8 32 10 49c0 26 0 53 1 79z" />
    <glyph glyph-name="circumflex" unicode="&#x2c6;" horiz-adv-x="351" 
d="M333 590c-20 -5 -40 -11 -60 -16c-6 -2 -10 0 -14 5c0 0 0 1 -1 1c-11 15 -23 29 -38 41c-15 13 -28 28 -42 42c-3 2 -7 4 -10 7c-6 -6 -12 -11 -16 -16c-12 -15 -24 -29 -35 -44c-3 -3 -5 -8 -9 -11c-14 -13 -11 -16 -32 -14c-10 2 -20 2 -30 2c-8 0 -15 -3 -23 -4
c-4 3 -4 7 -2 10c10 15 19 31 29 46c8 12 18 23 26 35c12 17 28 30 44 43c12 11 24 22 33 37c5 8 12 9 17 1c4 -5 9 -7 14 -10c10 -6 18 -13 24 -23c2 -3 5 -5 7 -7c13 -9 25 -20 36 -32c6 -7 13 -12 20 -18c13 -12 24 -25 36 -36c10 -9 17 -19 25 -29c2 -2 1 -6 1 -10z" />
    <glyph glyph-name="acute" unicode="&#xb4;" horiz-adv-x="219" 
d="M108 760c6 -1 10 0 14 -1c10 -3 20 -3 31 0c10 2 20 3 30 4c7 1 12 -6 8 -13c-3 -6 -8 -13 -12 -20c-9 -12 -19 -24 -28 -36c-14 -19 -31 -35 -48 -51c-4 -4 -9 -6 -14 -4c-13 5 -26 5 -40 5c-3 0 -6 0 -10 1c-9 2 -12 8 -7 15c4 5 8 10 12 14c7 7 12 17 22 23
c4 11 13 19 22 27c6 7 11 15 15 23c1 4 3 8 5 13z" />
    <glyph glyph-name="dotlessi" unicode="&#x131;" horiz-adv-x="170" 
d="M30 -3c-1 2 -2 4 -2 6c2 17 -2 35 1 53v6c-2 40 1 80 -1 119c-1 33 -1 67 -1 100v60c1 27 2 55 2 83c0 4 1 8 1 12c1 9 10 18 18 19c2 1 4 1 6 0c4 -1 6 -6 12 -6c14 1 27 -4 41 0c2 1 4 1 6 1c15 2 19 -3 16 -18c-2 -8 -7 -15 -5 -25c1 -7 -1 -15 -1 -23
c-1 -27 -1 -53 -4 -80c-2 -26 -1 -53 -2 -79c-1 -35 1 -69 3 -104c0 -20 0 -40 1 -59c1 -11 2 -22 3 -32c0 -6 1 -11 1 -16c-1 -10 -6 -14 -16 -15h-38c-11 0 -22 1 -33 -3c-2 -1 -5 0 -8 1z" />
    <glyph glyph-name="quotedblbase" unicode="&#x201e;" horiz-adv-x="300" 
d="M176 213c8 -4 15 -7 23 -4c3 1 7 -1 10 -1c12 -3 23 -6 36 -9c1 -3 3 -6 2 -10c-1 -23 2 -46 4 -70c3 -21 6 -42 7 -63c3 -49 6 -99 9 -149c0 -6 2 -13 2 -20c0 -5 0 -10 -1 -15c-1 -7 -5 -11 -12 -12c-22 -3 -43 -7 -66 -6c-1 2 -3 5 -3 7c-2 21 -4 42 -4 63
c-1 42 -4 84 -7 126c-3 37 -7 74 -5 111c1 14 0 27 0 40c1 4 3 7 5 12zM118 195c0 -24 2 -47 1 -70c-2 -26 0 -52 0 -78c-1 -34 0 -69 0 -103c0 -9 1 -19 1 -28c0 -2 1 -4 1 -6c-1 -10 -2 -21 -3 -31c-4 -4 -9 -5 -14 -3c-15 7 -32 6 -49 6c-11 0 -14 3 -14 14
c-1 27 -2 53 -3 80c-1 22 -2 45 -3 67c-2 44 -5 88 -1 132c1 5 0 11 1 17c0 5 2 8 7 9c9 0 18 1 28 0c15 -2 31 3 48 -6z" />
    <glyph glyph-name="quotesinglbase" unicode="&#x201a;" horiz-adv-x="151" 
d="M118 195c0 -24 2 -47 1 -70c-2 -26 0 -52 0 -78c-1 -34 0 -69 0 -103c0 -9 1 -19 1 -28c0 -2 1 -4 1 -6c-1 -10 -2 -21 -3 -31c-4 -4 -9 -5 -14 -3c-15 7 -32 6 -49 6c-11 0 -14 3 -14 14c-1 27 -2 53 -3 80c-1 22 -2 45 -3 67c-2 44 -5 88 -1 132c1 5 0 11 1 17
c0 5 2 8 7 9c9 0 18 1 28 0c15 -2 31 3 48 -6z" />
    <glyph glyph-name="ellipsis" unicode="&#x2026;" horiz-adv-x="458" 
d="M124 15c-18 -8 -70 -15 -94 -12c-1 2 -4 4 -4 6c1 18 3 36 1 53c-1 15 9 23 14 35c2 1 3 2 4 2c19 5 37 13 58 11c11 -2 16 -5 17 -16c0 -7 0 -14 2 -21c1 -18 2 -34 3 -52c0 -2 -1 -3 -1 -6zM432 100c0 -3 1 -6 1 -8c-2 -13 -1 -25 2 -38c2 -12 2 -24 0 -36
c-3 -1 -6 -3 -9 -4l-78 -12c-3 0 -6 -1 -8 -1c-5 0 -8 2 -9 7c-1 3 -2 6 -2 9c0 28 -1 56 -1 84c0 9 4 11 13 11h50c15 -1 29 -3 41 -12zM181 103c14 -3 27 -4 42 0c11 3 23 3 35 4c4 1 9 0 14 0c2 -14 4 -27 6 -40c1 -13 2 -25 5 -37c3 -11 0 -15 -11 -16
c-21 -3 -42 -6 -63 -8c-5 -1 -11 -1 -16 -2c-10 0 -13 3 -14 13c-1 23 -3 46 -5 69c0 6 -1 12 7 17z" />
    <glyph glyph-name="periodcentered" unicode="&#xb7;" horiz-adv-x="184" 
d="M145 416c4 -31 6 -61 10 -91c0 -1 -3 -3 -5 -7c-35 1 -71 -8 -108 -8c-2 7 -4 13 -4 18c-2 29 -2 58 -2 87c0 7 6 13 16 13c31 -1 63 0 93 -12z" />
    <glyph glyph-name="AE" unicode="&#xc6;" horiz-adv-x="835" 
d="M469 16h-1v7c-1 5 -1 11 -1 17c0 1 -1 3 -1 5c0 5 -1 10 -1 16c-1 7 -2 14 -2 20c0 7 -1 14 -1 21l-2 38c-1 17 -3 34 -2 50c2 21 1 42 1 63c0 18 1 38 1 57v2c-1 2 -1 4 -1 6c-1 10 2 20 -4 32l-23 -3c-27 -4 -54 -8 -81 -11c-15 -2 -30 -2 -45 -4
c-19 -3 -38 -7 -57 -12c-30 -8 -61 -14 -92 -18c-3 0 -6 -1 -10 -2l-3 -14c0 -14 -1 -27 -1 -41c-1 -8 2 -16 2 -24c2 -32 2 -65 4 -97c3 -30 3 -60 12 -89c1 -2 1 -4 1 -6c0 -6 -5 -12 -11 -11c-4 0 -8 0 -12 2c-11 3 -22 3 -34 2c-18 -1 -35 5 -53 10c-6 2 -9 8 -5 14
c2 3 4 6 4 11c-2 12 -3 24 -4 35c-2 17 -4 34 -5 50c-2 29 -5 59 -5 88c-2 50 -4 101 -3 152c1 41 4 83 7 125c2 17 6 34 8 51c2 23 2 46 3 68c1 24 5 48 17 69c5 9 11 16 20 21c19 11 36 23 57 30c31 10 63 19 97 17c27 -1 55 1 82 1c13 0 25 0 38 -4c19 -4 39 -8 58 -13
c18 -4 34 -9 49 -20c0 6 0 12 1 18c1 7 5 11 12 8c5 -3 10 -3 15 -4c15 -1 30 -5 44 -4c15 2 29 -2 43 -3c3 0 6 0 8 -1c18 -6 36 -5 54 -6c12 0 24 -1 36 -4c10 -2 20 -3 31 -4l33 -3h26c10 0 15 -5 15 -15c0 -3 -1 -5 -2 -8c0 -3 -1 -7 -1 -10c5 -20 -1 -42 8 -62
c1 -4 -2 -9 -6 -9c-3 -1 -5 -1 -8 -1c-37 0 -75 -1 -112 1c-26 1 -52 0 -78 0c-7 0 -14 1 -21 2s-12 -2 -12 -8c1 -25 -4 -49 -6 -73c-1 -20 1 -39 0 -59c1 -21 2 -42 2 -63c6 -3 12 -3 18 -3c32 -1 64 2 95 5c38 3 76 8 114 -4c0 -3 2 -6 2 -9c-3 -18 -3 -35 -1 -53
c1 -9 -2 -12 -11 -12c-23 0 -46 -1 -68 -2c-5 0 -11 -1 -16 -1c-31 1 -62 4 -94 1c-11 -2 -23 -1 -35 -1l2 -45c2 -46 3 -91 4 -137c0 -8 0 -16 1 -24v-31c4 -3 9 -3 15 -3c22 0 43 0 64 -1c9 0 19 -2 28 -3c14 -1 28 -2 42 -2c24 -1 49 0 73 2c6 1 12 1 18 -4v-7
c-4 -19 -2 -38 2 -57c1 -2 1 -4 1 -6c1 -6 -4 -11 -10 -10c-17 3 -35 1 -53 2c-26 2 -52 -3 -78 -4c-23 -1 -46 -1 -69 4c-6 1 -12 1 -18 1h-17c-2 -5 -6 -7 -14 -8l-65 -7c-8 -1 -12 2 -12 10c0 2 -1 4 -1 6zM457 430c0 6 1 11 0 15c-1 20 -3 40 -3 60c-1 26 -2 52 -1 78
c1 21 -8 36 -25 46c-25 16 -52 26 -82 30c-40 5 -81 6 -121 0c-11 -2 -21 -5 -30 -10c-9 -4 -15 -10 -18 -18c-9 -23 -15 -46 -20 -69c-2 -15 -4 -30 -5 -46c-2 -12 -2 -25 -3 -37c-1 -10 -2 -19 -2 -28c-1 -12 -1 -24 -1 -36c0 -4 1 -8 2 -13h16l83 11c21 3 42 6 64 7
c21 0 43 2 65 3h4c21 4 42 6 64 4c3 0 7 2 13 3z" />
    <glyph glyph-name="a" unicode="a" horiz-adv-x="558" 
d="M314 87c-9 -6 -17 -10 -22 -15c-20 -20 -46 -30 -70 -42c-18 -9 -36 -18 -55 -23c-17 -5 -34 -6 -51 -8c-25 -1 -46 8 -60 29c-9 13 -15 27 -18 44c-7 44 2 85 14 127c4 12 11 20 21 25c4 2 7 5 11 6c16 5 30 13 47 15c19 3 37 8 56 12c29 6 59 7 89 4c6 -1 13 -1 18 -2
c6 6 5 11 4 16c-2 23 -4 47 -7 70c-2 13 -5 26 -9 38c-6 17 -18 26 -36 27c-14 1 -28 -1 -41 -5c-22 -7 -42 -17 -60 -31c-5 -4 -7 -8 -6 -14c1 -8 1 -16 2 -24c1 -6 1 -12 -3 -16c-16 -2 -31 -4 -46 -5c-8 -1 -14 -3 -20 -8c-4 -2 -9 -3 -12 -4c-12 10 -17 21 -16 36
c0 16 -1 32 -3 48c-2 12 0 23 3 35c3 8 5 16 8 25c2 8 7 13 16 15c12 3 25 6 37 9c4 1 9 1 13 3c15 4 30 9 46 14c2 0 5 2 7 2c25 0 50 7 75 4c15 -2 31 -2 45 -7c14 -6 27 -12 41 -17c10 -4 19 -9 27 -16c16 -14 25 -32 28 -53c4 -29 8 -58 11 -87c2 -22 3 -44 4 -66
c2 -30 4 -61 6 -91c0 -12 2 -24 3 -36c2 -20 21 -33 39 -27c15 5 25 21 23 36c-1 0 -1 1 -1 2c-3 16 1 18 17 17c15 -2 29 -8 44 -12c6 -1 9 -6 8 -12c-6 -24 -5 -49 -13 -72c-6 -18 -17 -31 -31 -40c-16 -10 -34 -16 -52 -19c-18 -2 -35 -2 -52 4c-16 4 -32 9 -47 14
c-11 3 -17 10 -20 21c-3 13 -6 27 -9 40c-1 4 -2 8 -3 14zM300 192c-24 -1 -47 -2 -70 -2c-15 0 -31 0 -46 -4c-12 -3 -21 -9 -28 -20c-9 -15 -8 -31 -6 -48c1 -5 5 -7 10 -8c17 -1 33 -1 50 2c25 4 49 12 71 23c27 14 29 8 23 44c0 3 0 6 -1 10c-1 1 -2 3 -3 3z" />
    <glyph glyph-name="ae" unicode="&#xe6;" horiz-adv-x="743" 
d="M712 225c-12 -1 -22 -2 -31 -2c-34 2 -68 -6 -102 -2c-3 1 -6 1 -9 0c-33 -4 -66 -8 -100 -10c-20 -2 -40 -6 -61 -8c-1 -3 -3 -5 -3 -8v-11c0 -8 1 -15 1 -22c2 -10 4 -20 8 -29c2 -5 3 -9 4 -14c3 -14 9 -26 24 -31c3 -1 6 -3 9 -5c5 -5 11 -7 18 -7c14 -2 29 -5 43 -4
c24 1 47 2 70 8c7 2 14 6 21 11c12 9 17 21 15 36s-4 30 -5 44c0 3 -1 5 0 8c0 5 4 9 9 8c16 -1 32 -3 48 -5c5 0 8 -4 8 -9c-2 -23 6 -45 10 -67c2 -17 1 -34 -3 -50c-1 -5 -4 -10 -7 -14c-19 -23 -42 -36 -72 -38c-40 -4 -81 -3 -121 -4c-25 -1 -48 5 -71 12
c-28 8 -52 24 -72 44c-4 4 -7 8 -10 13c-4 9 -8 18 -11 27c-5 -4 -8 -7 -8 -9c-9 -6 -17 -10 -22 -15c-20 -20 -46 -30 -70 -42c-18 -9 -36 -18 -55 -23c-17 -5 -34 -6 -51 -8c-25 -1 -46 8 -60 29c-9 13 -15 27 -18 44c-7 44 2 85 14 127c4 12 11 20 21 25c4 2 7 5 11 6
c16 5 30 13 47 15c19 3 37 8 56 12c29 6 59 7 89 4l18 -2c6 6 5 11 4 16c-2 23 -4 47 -7 70c-2 13 -5 26 -9 38c-6 17 -18 26 -36 27c-14 1 -28 -1 -41 -5c-22 -7 -42 -17 -60 -31c-5 -4 -7 -8 -6 -14l2 -24c1 -6 1 -12 -3 -16c-16 -2 -31 -4 -46 -5c-8 -1 -14 -3 -20 -8
c-4 -2 -9 -3 -12 -4c-12 10 -17 21 -16 36c0 16 -1 32 -3 48c-2 12 0 23 3 35l8 25c2 8 7 13 16 15l37 9c4 1 9 1 13 3c15 4 30 9 46 14c2 0 5 2 7 2c25 0 50 7 75 4c15 -2 31 -2 45 -7c14 -6 27 -12 41 -17c10 -4 19 -9 27 -16c6 -6 11 -12 15 -18c8 6 16 11 27 15
c24 9 48 16 73 20c14 2 29 2 44 4h4c19 7 39 4 59 0c6 -1 13 -2 19 -2c13 -1 25 -5 36 -11c25 -14 34 -23 46 -48c7 -14 13 -29 16 -45c3 -22 9 -43 12 -64s3 -43 5 -64c0 -5 -2 -10 -3 -16zM592 309l6 4c1 21 -6 39 -17 55c-6 10 -16 16 -28 16c-16 0 -32 1 -48 1
c-9 -1 -18 -3 -26 -7c-7 -4 -13 -8 -20 -9c-29 -8 -42 -29 -50 -55c-2 -5 -2 -10 -2 -15c-1 -4 2 -7 6 -7h9l48 3c14 1 29 2 43 2c4 1 8 2 12 2c23 -2 45 6 67 10zM300 192c-24 -1 -47 -2 -70 -2c-15 0 -31 0 -46 -4c-12 -3 -21 -9 -28 -20c-9 -15 -8 -31 -6 -48
c1 -5 5 -7 10 -8c17 -1 33 -1 50 2c25 4 49 12 71 23c27 14 29 8 23 44c0 3 0 6 -1 10c-1 1 -2 3 -3 3z" />
    <glyph glyph-name="Agrave" unicode="&#xc0;" 
d="M455 350c-8 -1 -16 -2 -23 -3c-27 -4 -54 -8 -81 -11c-15 -2 -30 -2 -45 -4c-19 -3 -38 -7 -57 -12c-30 -8 -61 -14 -92 -18c-3 0 -6 -1 -10 -2c-1 -5 -2 -9 -3 -14c0 -14 -1 -27 -1 -41c-1 -8 2 -16 2 -24c2 -32 2 -65 4 -97c3 -30 3 -60 12 -89c1 -2 1 -4 1 -6
c0 -6 -5 -12 -11 -11c-4 0 -8 0 -12 2c-11 3 -22 3 -34 2c-18 -1 -35 5 -53 10c-6 2 -9 8 -5 14c2 3 4 6 4 11c-2 12 -3 24 -4 35c-2 17 -4 34 -5 50c-2 29 -5 59 -5 88c-2 50 -4 101 -3 152c1 41 4 83 7 125c2 17 6 34 8 51c2 23 2 46 3 68c1 24 5 48 17 69
c5 9 11 16 20 21c19 11 36 23 57 30c31 10 63 19 97 17c27 -1 55 1 82 1c13 0 25 0 38 -4c19 -4 39 -8 58 -13c25 -5 48 -14 65 -35c5 -7 11 -12 16 -18c13 -13 16 -32 23 -48c9 -22 12 -46 18 -69c3 -13 3 -27 4 -40c1 -12 1 -25 2 -37c3 -37 3 -74 5 -111
c2 -32 3 -63 4 -94c2 -46 3 -91 4 -137c0 -8 0 -16 1 -24v-39s-1 -25 -1 -38c0 -3 1 -6 1 -10v-23c-2 -13 -4 -15 -16 -17c-22 -2 -44 -5 -65 -7c-8 -1 -12 2 -12 10c-2 17 -3 34 -5 51c-1 7 -2 14 -2 20c0 10 -1 20 0 30c0 14 1 28 -1 42c-1 20 -2 40 -1 60
c1 35 2 70 -2 105c-1 10 2 20 -4 32zM457 430c0 6 1 11 0 15c-1 20 -3 40 -3 60c-1 26 -2 52 -1 78c1 21 -8 36 -25 46c-25 16 -52 26 -82 30c-40 5 -81 6 -121 0c-11 -2 -21 -5 -30 -10c-9 -4 -15 -10 -18 -18c-9 -23 -15 -46 -20 -69c-2 -15 -4 -30 -5 -46
c-2 -12 -2 -25 -3 -37c-1 -10 -2 -19 -2 -28c-1 -12 -1 -24 -1 -36c0 -4 1 -8 2 -13h16c28 4 56 7 83 11c21 3 42 6 64 7c21 0 43 2 65 3h4c21 4 42 6 64 4c3 0 7 2 13 3zM237 926c2 -5 4 -9 5 -13c4 -8 9 -16 15 -23c9 -8 18 -16 22 -27c10 -6 15 -16 22 -23
c4 -4 8 -9 12 -14c5 -7 2 -13 -7 -15c-4 -1 -7 -1 -10 -1c-14 0 -27 0 -40 -5c-5 -2 -10 0 -14 4c-17 16 -34 32 -48 51c-9 12 -19 24 -28 36c-4 7 -9 14 -12 20c-4 7 1 14 8 13c10 -1 20 -2 30 -4c11 -3 21 -3 31 0c4 1 8 0 14 1z" />
    <glyph glyph-name="Aacute" unicode="&#xc1;" 
d="M455 350c6 -12 3 -22 4 -32c4 -35 3 -70 2 -105c-1 -20 0 -40 1 -60c2 -14 1 -28 1 -42c-1 -10 0 -20 0 -30c0 -6 1 -13 2 -20c2 -17 3 -34 5 -51c0 -8 4 -11 12 -10c21 2 43 5 65 7c12 2 14 4 16 17v23c0 4 -1 7 -1 10c0 13 1 25 1 38v39c-1 8 -1 16 -1 24
c-1 46 -2 91 -4 137c-1 31 -2 62 -4 94c-2 37 -2 74 -5 111c-1 12 -1 25 -2 37c-1 13 -1 27 -4 40c-6 23 -9 47 -18 69c-7 16 -10 35 -23 48c-5 6 -11 11 -16 18c-17 21 -40 30 -65 35c-19 5 -39 9 -58 13c-13 4 -25 4 -38 4c-27 0 -55 -2 -82 -1c-34 2 -66 -7 -97 -17
c-21 -7 -38 -19 -57 -30c-9 -5 -15 -12 -20 -21c-12 -21 -16 -45 -17 -69c-1 -22 -1 -45 -3 -68c-2 -17 -6 -34 -8 -51c-3 -42 -6 -84 -7 -125c-1 -51 1 -102 3 -152c0 -29 3 -59 5 -88c1 -16 3 -33 5 -50c1 -11 2 -23 4 -35c0 -5 -2 -8 -4 -11c-4 -6 -1 -12 5 -14
c18 -5 35 -11 53 -10c12 1 23 1 34 -2c4 -2 8 -2 12 -2c6 -1 11 5 11 11c0 2 0 4 -1 6c-9 29 -9 59 -12 89c-2 32 -2 65 -4 97c0 8 -3 16 -2 24c0 14 1 27 1 41c1 5 2 9 3 14c4 1 7 2 10 2c31 4 62 10 92 18c19 5 38 9 57 12c15 2 30 2 45 4c27 3 54 7 81 11c7 1 15 2 23 3z
M457 430c-6 -1 -10 -3 -13 -3c-22 2 -43 0 -64 -4h-4c-22 -1 -44 -3 -65 -3c-22 -1 -43 -4 -64 -7c-27 -4 -55 -7 -83 -11h-16c-1 5 -2 9 -2 13c0 12 0 24 1 36c0 9 1 18 2 28c1 12 1 25 3 37c1 16 3 31 5 46c5 23 11 46 20 69c3 8 9 14 18 18c9 5 19 8 30 10
c40 6 81 5 121 0c30 -4 57 -14 82 -30c17 -10 26 -25 25 -46c-1 -26 0 -52 1 -78c0 -20 2 -40 3 -60c1 -4 0 -9 0 -15zM323 929c6 -1 10 0 14 -1c10 -3 20 -3 31 0c10 2 20 3 30 4c7 1 12 -6 8 -13c-3 -6 -8 -13 -12 -20c-9 -12 -19 -24 -28 -36c-14 -19 -31 -35 -48 -51
c-4 -4 -9 -6 -14 -4c-13 5 -26 5 -40 5c-3 0 -6 0 -10 1c-9 2 -12 8 -7 15c4 5 8 10 12 14c7 7 12 17 22 23c4 11 13 19 22 27c6 7 11 15 15 23c1 4 3 8 5 13z" />
    <glyph glyph-name="Acircumflex" unicode="&#xc2;" 
d="M455 350c6 -12 3 -22 4 -32c4 -35 3 -70 2 -105c-1 -20 0 -40 1 -60c2 -14 1 -28 1 -42c-1 -10 0 -20 0 -30c0 -6 1 -13 2 -20c2 -17 3 -34 5 -51c0 -8 4 -11 12 -10c21 2 43 5 65 7c12 2 14 4 16 17v23c0 4 -1 7 -1 10c0 13 1 25 1 38v39c-1 8 -1 16 -1 24
c-1 46 -2 91 -4 137c-1 31 -2 62 -4 94c-2 37 -2 74 -5 111c-1 12 -1 25 -2 37c-1 13 -1 27 -4 40c-6 23 -9 47 -18 69c-7 16 -10 35 -23 48c-5 6 -11 11 -16 18c-17 21 -40 30 -65 35c-19 5 -39 9 -58 13c-13 4 -25 4 -38 4c-27 0 -55 -2 -82 -1c-34 2 -66 -7 -97 -17
c-21 -7 -38 -19 -57 -30c-9 -5 -15 -12 -20 -21c-12 -21 -16 -45 -17 -69c-1 -22 -1 -45 -3 -68c-2 -17 -6 -34 -8 -51c-3 -42 -6 -84 -7 -125c-1 -51 1 -102 3 -152c0 -29 3 -59 5 -88c1 -16 3 -33 5 -50c1 -11 2 -23 4 -35c0 -5 -2 -8 -4 -11c-4 -6 -1 -12 5 -14
c18 -5 35 -11 53 -10c12 1 23 1 34 -2c4 -2 8 -2 12 -2c6 -1 11 5 11 11c0 2 0 4 -1 6c-9 29 -9 59 -12 89c-2 32 -2 65 -4 97c0 8 -3 16 -2 24c0 14 1 27 1 41c1 5 2 9 3 14c4 1 7 2 10 2c31 4 62 10 92 18c19 5 38 9 57 12c15 2 30 2 45 4c27 3 54 7 81 11c7 1 15 2 23 3z
M457 430c-6 -1 -10 -3 -13 -3c-22 2 -43 0 -64 -4h-4c-22 -1 -44 -3 -65 -3c-22 -1 -43 -4 -64 -7c-27 -4 -55 -7 -83 -11h-16c-1 5 -2 9 -2 13c0 12 0 24 1 36c0 9 1 18 2 28c1 12 1 25 3 37c1 16 3 31 5 46c5 23 11 46 20 69c3 8 9 14 18 18c9 5 19 8 30 10
c40 6 81 5 121 0c30 -4 57 -14 82 -30c17 -10 26 -25 25 -46c-1 -26 0 -52 1 -78c0 -20 2 -40 3 -60c1 -4 0 -9 0 -15zM425 812c-20 -5 -40 -11 -60 -16c-6 -2 -10 0 -14 5c0 0 0 1 -1 1c-11 15 -23 29 -38 41c-15 13 -28 28 -42 42c-3 2 -7 4 -10 7c-6 -6 -12 -11 -16 -16
c-12 -15 -24 -29 -35 -44c-3 -3 -5 -8 -9 -11c-14 -13 -11 -16 -32 -14c-10 2 -20 2 -30 2c-8 0 -15 -3 -23 -4c-4 3 -4 7 -2 10c10 15 19 31 29 46c8 12 18 23 26 35c12 17 28 30 44 43c12 11 24 22 33 37c5 8 12 9 17 1c4 -5 9 -7 14 -10c10 -6 18 -13 24 -23
c2 -3 5 -5 7 -7c13 -9 25 -20 36 -32c6 -7 13 -12 20 -18c13 -12 24 -25 36 -36c10 -9 17 -19 25 -29c2 -2 1 -6 1 -10z" />
    <glyph glyph-name="Atilde" unicode="&#xc3;" 
d="M455 350c-8 -1 -16 -2 -23 -3c-27 -4 -54 -8 -81 -11c-15 -2 -30 -2 -45 -4c-19 -3 -38 -7 -57 -12c-30 -8 -61 -14 -92 -18c-3 0 -6 -1 -10 -2c-1 -5 -2 -9 -3 -14c0 -14 -1 -27 -1 -41c-1 -8 2 -16 2 -24c2 -32 2 -65 4 -97c3 -30 3 -60 12 -89c1 -2 1 -4 1 -6
c0 -6 -5 -12 -11 -11c-4 0 -8 0 -12 2c-11 3 -22 3 -34 2c-18 -1 -35 5 -53 10c-6 2 -9 8 -5 14c2 3 4 6 4 11c-2 12 -3 24 -4 35c-2 17 -4 34 -5 50c-2 29 -5 59 -5 88c-2 50 -4 101 -3 152c1 41 4 83 7 125c2 17 6 34 8 51c2 23 2 46 3 68c1 24 5 48 17 69
c5 9 11 16 20 21c19 11 36 23 57 30c31 10 63 19 97 17c27 -1 55 1 82 1c13 0 25 0 38 -4c19 -4 39 -8 58 -13c25 -5 48 -14 65 -35c5 -7 11 -12 16 -18c13 -13 16 -32 23 -48c9 -22 12 -46 18 -69c3 -13 3 -27 4 -40c1 -12 1 -25 2 -37c3 -37 3 -74 5 -111
c2 -32 3 -63 4 -94c2 -46 3 -91 4 -137c0 -8 0 -16 1 -24v-39s-1 -25 -1 -38c0 -3 1 -6 1 -10v-23c-2 -13 -4 -15 -16 -17c-22 -2 -44 -5 -65 -7c-8 -1 -12 2 -12 10c-2 17 -3 34 -5 51c-1 7 -2 14 -2 20c0 10 -1 20 0 30c0 14 1 28 -1 42c-1 20 -2 40 -1 60
c1 35 2 70 -2 105c-1 10 2 20 -4 32zM457 430c0 6 1 11 0 15c-1 20 -3 40 -3 60c-1 26 -2 52 -1 78c1 21 -8 36 -25 46c-25 16 -52 26 -82 30c-40 5 -81 6 -121 0c-11 -2 -21 -5 -30 -10c-9 -4 -15 -10 -18 -18c-9 -23 -15 -46 -20 -69c-2 -15 -4 -30 -5 -46
c-2 -12 -2 -25 -3 -37c-1 -10 -2 -19 -2 -28c-1 -12 -1 -24 -1 -36c0 -4 1 -8 2 -13h16c28 4 56 7 83 11c21 3 42 6 64 7c21 0 43 2 65 3h4c21 4 42 6 64 4c3 0 7 2 13 3zM437 979c1 -4 2 -7 2 -9c0 -22 1 -44 -1 -66c-2 -19 -8 -38 -25 -51c-11 -9 -21 -20 -34 -27
c-29 -18 -61 -21 -92 -4c-8 5 -14 10 -19 18c-5 9 -10 19 -15 28c-5 10 -11 20 -16 30c-4 7 -10 10 -18 12c-7 -3 -15 -5 -19 -13c-4 -10 -6 -20 -4 -31c2 -12 5 -25 16 -33c3 -3 3 -7 1 -11s-6 -6 -10 -4c-11 3 -21 2 -32 -1c-13 -3 -22 3 -24 16c-1 5 0 10 -1 14
c0 3 0 8 -2 10c-8 7 -8 17 -8 26c-2 18 3 37 6 55c2 9 7 16 15 20c12 7 23 15 35 19c22 8 45 11 68 3c9 -3 14 -8 16 -16c3 -13 8 -26 10 -39c2 -14 10 -23 20 -31c11 -8 24 -12 37 -3c6 3 12 6 17 10c8 7 13 16 11 27l-3 21c0 4 -1 7 -1 10c-2 14 0 17 15 16
c14 0 27 1 41 4h14z" />
    <glyph glyph-name="Adieresis" unicode="&#xc4;" 
d="M455 350c-8 -1 -16 -2 -23 -3c-27 -4 -54 -8 -81 -11c-15 -2 -30 -2 -45 -4c-19 -3 -38 -7 -57 -12c-30 -8 -61 -14 -92 -18c-3 0 -6 -1 -10 -2c-1 -5 -2 -9 -3 -14c0 -14 -1 -27 -1 -41c-1 -8 2 -16 2 -24c2 -32 2 -65 4 -97c3 -30 3 -60 12 -89c1 -2 1 -4 1 -6
c0 -6 -5 -12 -11 -11c-4 0 -8 0 -12 2c-11 3 -22 3 -34 2c-18 -1 -35 5 -53 10c-6 2 -9 8 -5 14c2 3 4 6 4 11c-2 12 -3 24 -4 35c-2 17 -4 34 -5 50c-2 29 -5 59 -5 88c-2 50 -4 101 -3 152c1 41 4 83 7 125c2 17 6 34 8 51c2 23 2 46 3 68c1 24 5 48 17 69
c5 9 11 16 20 21c19 11 36 23 57 30c31 10 63 19 97 17c27 -1 55 1 82 1c13 0 25 0 38 -4c19 -4 39 -8 58 -13c25 -5 48 -14 65 -35c5 -7 11 -12 16 -18c13 -13 16 -32 23 -48c9 -22 12 -46 18 -69c3 -13 3 -27 4 -40c1 -12 1 -25 2 -37c3 -37 3 -74 5 -111
c2 -32 3 -63 4 -94c2 -46 3 -91 4 -137c0 -8 0 -16 1 -24v-39s-1 -25 -1 -38c0 -3 1 -6 1 -10v-23c-2 -13 -4 -15 -16 -17c-22 -2 -44 -5 -65 -7c-8 -1 -12 2 -12 10c-2 17 -3 34 -5 51c-1 7 -2 14 -2 20c0 10 -1 20 0 30c0 14 1 28 -1 42c-1 20 -2 40 -1 60
c1 35 2 70 -2 105c-1 10 2 20 -4 32zM457 430c0 6 1 11 0 15c-1 20 -3 40 -3 60c-1 26 -2 52 -1 78c1 21 -8 36 -25 46c-25 16 -52 26 -82 30c-40 5 -81 6 -121 0c-11 -2 -21 -5 -30 -10c-9 -4 -15 -10 -18 -18c-9 -23 -15 -46 -20 -69c-2 -15 -4 -30 -5 -46
c-2 -12 -2 -25 -3 -37c-1 -10 -2 -19 -2 -28c-1 -12 -1 -24 -1 -36c0 -4 1 -8 2 -13h16c28 4 56 7 83 11c21 3 42 6 64 7c21 0 43 2 65 3h4c21 4 42 6 64 4c3 0 7 2 13 3zM325 869c1 13 1 26 3 39c0 7 5 12 12 9c16 -6 32 -4 49 -3h8c6 0 10 -4 9 -10v-6
c-1 -24 -2 -47 -3 -71c0 -3 -1 -5 -1 -8c-1 -5 -5 -8 -10 -8c-2 0 -3 1 -4 1c-17 4 -34 6 -51 6c-11 0 -13 3 -13 13v26c0 4 0 8 1 12v0zM259 860c0 -9 1 -17 2 -26c0 -8 -3 -12 -11 -10c-5 1 -10 1 -14 -3c-6 -4 -12 -3 -18 -2c-9 3 -19 3 -29 1c-6 -2 -10 1 -11 8
c0 12 -1 25 -1 37c1 14 2 27 4 40c1 10 6 13 15 11l21 -3l18 -3c15 -1 23 -13 25 -30v-20h-1z" />
    <glyph glyph-name="Aring" unicode="&#xc5;" 
d="M455 350c-8 -1 -16 -2 -23 -3c-27 -4 -54 -8 -81 -11c-15 -2 -30 -2 -45 -4c-19 -3 -38 -7 -57 -12c-30 -8 -61 -14 -92 -18c-3 0 -6 -1 -10 -2c-1 -5 -2 -9 -3 -14c0 -14 -1 -27 -1 -41c-1 -8 2 -16 2 -24c2 -32 2 -65 4 -97c3 -30 3 -60 12 -89c1 -2 1 -4 1 -6
c0 -6 -5 -12 -11 -11c-4 0 -8 0 -12 2c-11 3 -22 3 -34 2c-18 -1 -35 5 -53 10c-6 2 -9 8 -5 14c2 3 4 6 4 11c-2 12 -3 24 -4 35c-2 17 -4 34 -5 50c-2 29 -5 59 -5 88c-2 50 -4 101 -3 152c1 41 4 83 7 125c2 17 6 34 8 51c2 23 2 46 3 68c1 24 5 48 17 69
c5 9 11 16 20 21c19 11 36 23 57 30c31 10 63 19 97 17c27 -1 55 1 82 1c13 0 25 0 38 -4c19 -4 39 -8 58 -13c25 -5 48 -14 65 -35c5 -7 11 -12 16 -18c13 -13 16 -32 23 -48c9 -22 12 -46 18 -69c3 -13 3 -27 4 -40c1 -12 1 -25 2 -37c3 -37 3 -74 5 -111
c2 -32 3 -63 4 -94c2 -46 3 -91 4 -137c0 -8 0 -16 1 -24v-39s-1 -25 -1 -38c0 -3 1 -6 1 -10v-23c-2 -13 -4 -15 -16 -17c-22 -2 -44 -5 -65 -7c-8 -1 -12 2 -12 10c-2 17 -3 34 -5 51c-1 7 -2 14 -2 20c0 10 -1 20 0 30c0 14 1 28 -1 42c-1 20 -2 40 -1 60
c1 35 2 70 -2 105c-1 10 2 20 -4 32zM457 430c0 6 1 11 0 15c-1 20 -3 40 -3 60c-1 26 -2 52 -1 78c1 21 -8 36 -25 46c-25 16 -52 26 -82 30c-40 5 -81 6 -121 0c-11 -2 -21 -5 -30 -10c-9 -4 -15 -10 -18 -18c-9 -23 -15 -46 -20 -69c-2 -15 -4 -30 -5 -46
c-2 -12 -2 -25 -3 -37c-1 -10 -2 -19 -2 -28c-1 -12 -1 -24 -1 -36c0 -4 1 -8 2 -13h16c28 4 56 7 83 11c21 3 42 6 64 7c21 0 43 2 65 3h4c21 4 42 6 64 4c3 0 7 2 13 3zM289 795c-40 -2 -74 13 -101 43c-18 20 -28 43 -22 71c1 6 1 12 2 18c4 22 13 42 24 61c2 3 6 5 9 8
c2 2 5 3 6 5c6 13 19 20 29 30c2 3 6 5 9 6c8 3 16 4 23 8c7 5 14 6 22 6c1 0 2 0 2 1c16 8 28 0 41 -8c6 -4 12 -8 19 -9c7 -2 9 -10 17 -11c5 -2 11 -6 15 -12s11 -9 16 -15c7 -10 13 -21 16 -34c9 -43 2 -84 -22 -122c-13 -19 -30 -29 -50 -37c-17 -6 -36 -9 -55 -9z
M316 988c-6 -2 -13 -4 -19 -5c-28 -2 -56 -24 -66 -50c-5 -12 -5 -25 0 -37c4 -11 11 -21 24 -24c4 -1 7 -6 12 -6c8 -2 17 -3 25 -2c6 1 12 5 18 8c5 2 10 5 15 7c8 2 14 8 18 16c11 17 16 35 7 56c-7 18 -18 29 -34 37z" />
    <glyph glyph-name="Ccedilla" unicode="&#xc7;" horiz-adv-x="511" 
d="M185 -226c2 5 4 11 5 16c1 6 1 12 1 18c0 4 0 8 1 12c1 18 1 18 20 14c5 -2 10 -1 16 -1c21 2 38 11 49 32c7 15 11 29 9 45c-4 30 -27 48 -56 43c-6 -2 -12 -3 -18 -4c-7 0 -11 4 -9 12l10 36l10 36c-17 2 -34 4 -51 7c-18 3 -37 7 -56 11c-11 3 -21 9 -28 18l-17 17
c-9 8 -12 20 -17 30c-8 17 -13 34 -13 52c-1 13 -3 25 -6 38c-3 16 -3 33 -1 50c0 6 1 12 4 17c4 7 5 14 4 21c-1 13 -2 25 -2 38l-3 116c0 20 -1 41 -1 61c0 21 0 42 2 62c1 25 3 51 7 76c5 37 27 64 58 84c6 4 13 5 20 8c30 10 59 20 90 25c30 5 60 8 89 11
c17 1 34 1 50 1c20 0 38 -7 56 -13c8 -2 14 -8 20 -13c24 -27 37 -58 37 -95c0 -10 2 -21 -2 -31c-1 -2 -1 -4 -1 -6c5 -17 -1 -33 -1 -49c0 -3 -2 -5 -3 -9c-21 3 -39 4 -57 0c-11 -2 -14 1 -16 12c-4 19 -3 38 -4 56c0 11 -3 21 -7 31c-3 7 -8 13 -15 15c-9 3 -18 7 -27 8
c-22 3 -44 3 -65 -1c-6 -1 -12 -2 -18 -2c-24 0 -46 -8 -67 -18c-18 -9 -29 -23 -36 -41c-4 -13 -8 -27 -9 -41l-4 -25l-7 -51c0 -3 -1 -7 -3 -9c-3 -3 -4 -5 0 -8c1 -1 1 -5 1 -7c-1 -21 -3 -42 -3 -64c-1 -18 0 -37 0 -55v-28c2 -39 4 -77 8 -116c2 -21 8 -41 13 -62
c4 -15 15 -24 31 -27c23 -5 46 -8 69 -6c32 4 64 8 95 15c20 4 36 16 40 39c5 26 10 51 8 77v8c2 15 3 31 4 46c1 8 4 11 12 10c21 -2 41 2 62 4c9 1 13 -1 14 -11c2 -9 2 -17 3 -26c2 -43 0 -86 -3 -129c-2 -19 -8 -38 -24 -51c-9 -9 -19 -16 -29 -24
c-8 -6 -17 -11 -25 -16l-15 -7l-37 -13l-16 -4c-14 -2 -27 -4 -40 -5c-2 -8 -3 -16 -4 -24c-1 -6 3 -12 10 -12c15 -1 26 -9 38 -16c1 0 2 -1 3 -2c17 -11 28 -26 28 -47c0 -6 0 -11 1 -16c4 -27 -5 -51 -17 -74c-9 -18 -23 -30 -39 -43c-32 -26 -69 -34 -109 -35
c-7 0 -14 0 -17 9z" />
    <glyph glyph-name="Egrave" unicode="&#xc8;" horiz-adv-x="405" 
d="M46 24c-1 27 -3 53 -5 79l-3 45c-1 17 -3 34 -2 50c2 21 1 42 1 63s1 43 1 64c0 27 0 55 1 82c0 10 0 20 2 30c1 12 -1 25 -1 37c0 10 0 20 1 30c0 25 1 51 2 76c0 9 1 18 1 28c1 30 2 61 3 91c0 18 1 36 2 54c1 7 5 11 12 8c5 -3 10 -3 15 -4c15 -1 30 -5 44 -4
c15 2 29 -2 43 -3c3 0 6 0 8 -1c18 -6 36 -5 54 -6c12 0 24 -1 36 -4c10 -2 20 -3 31 -4l33 -3h26c10 0 15 -5 15 -15c0 -3 -1 -5 -2 -8c0 -3 -1 -7 -1 -10c5 -20 -1 -42 8 -62c1 -4 -2 -9 -6 -9c-3 -1 -5 -1 -8 -1c-37 0 -75 -1 -112 1c-26 1 -52 0 -78 0c-7 0 -14 1 -21 2
s-12 -2 -12 -8c1 -25 -4 -49 -6 -73c-1 -22 1 -44 0 -66c0 -12 -1 -25 -1 -37c0 -6 1 -12 1 -17c7 -5 13 -5 20 -5c32 -1 64 2 95 5c38 3 76 8 114 -4c0 -3 2 -6 2 -9c-3 -18 -3 -35 -1 -53c1 -9 -2 -12 -11 -12c-23 0 -46 -1 -68 -2c-5 0 -11 -1 -16 -1c-31 1 -62 4 -94 1
c-13 -2 -26 -1 -40 -1c-4 -8 -3 -16 -3 -24c-1 -47 3 -94 4 -141c1 -17 0 -34 3 -50c1 -7 3 -13 4 -19c6 -5 12 -6 19 -6c22 0 43 0 64 -1c9 0 19 -2 28 -3c14 -1 28 -2 42 -2c24 -1 49 0 73 2c6 1 12 1 18 -4v-7c-4 -19 -2 -38 2 -57c1 -2 1 -4 1 -6c1 -6 -4 -11 -10 -10
c-17 3 -35 1 -53 2c-26 2 -52 -3 -78 -4c-23 -1 -46 -1 -69 4c-6 1 -12 1 -18 1c-32 0 -64 -1 -96 -2c-4 0 -8 2 -14 3zM168 931c2 -5 4 -9 5 -13c4 -8 9 -16 15 -23c9 -8 18 -16 22 -27c10 -6 15 -16 22 -23c4 -4 8 -9 12 -14c5 -7 2 -13 -7 -15c-4 -1 -7 -1 -10 -1
c-14 0 -27 0 -40 -5c-5 -2 -10 0 -14 4c-17 16 -34 32 -48 51c-9 12 -19 24 -28 36c-4 7 -9 14 -12 20c-4 7 1 14 8 13c10 -1 20 -2 30 -4c11 -3 21 -3 31 0c4 1 8 0 14 1z" />
    <glyph glyph-name="Eacute" unicode="&#xc9;" horiz-adv-x="405" 
d="M46 24c6 -1 10 -3 14 -3c32 1 64 2 96 2c6 0 12 0 18 -1c23 -5 46 -5 69 -4c26 1 52 6 78 4c18 -1 36 1 53 -2c6 -1 11 4 10 10c0 2 0 4 -1 6c-4 19 -6 38 -2 57v7c-6 5 -12 5 -18 4c-24 -2 -49 -3 -73 -2c-14 0 -28 1 -42 2c-9 1 -19 3 -28 3c-21 1 -42 1 -64 1
c-7 0 -13 1 -19 6c-1 6 -3 12 -4 19c-3 16 -2 33 -3 50c-1 47 -5 94 -4 141c0 8 -1 16 3 24c14 0 27 -1 40 1c32 3 63 0 94 -1c5 0 11 1 16 1c22 1 45 2 68 2c9 0 12 3 11 12c-2 18 -2 35 1 53c0 3 -2 6 -2 9c-38 12 -76 7 -114 4c-31 -3 -63 -6 -95 -5c-7 0 -13 0 -20 5
c0 5 -1 11 -1 17c0 12 1 25 1 37c1 22 -1 44 0 66c2 24 7 48 6 73c0 6 5 9 12 8s14 -2 21 -2c26 0 52 1 78 0c37 -2 75 -1 112 -1c3 0 5 0 8 1c4 0 7 5 6 9c-9 20 -3 42 -8 62c0 3 1 7 1 10c1 3 2 5 2 8c0 10 -5 15 -15 15h-26l-33 3s-21 2 -31 4c-12 3 -24 4 -36 4
c-18 1 -36 0 -54 6c-2 1 -5 1 -8 1c-14 1 -28 5 -43 3c-14 -1 -29 3 -44 4c-5 1 -10 1 -15 4c-7 3 -11 -1 -12 -8c-1 -18 -2 -36 -2 -54c-1 -30 -2 -61 -3 -91c0 -10 -1 -19 -1 -28c-1 -25 -2 -51 -2 -76c-1 -10 -1 -20 -1 -30c0 -12 2 -25 1 -37c-2 -10 -2 -20 -2 -30
c-1 -27 -1 -55 -1 -82c0 -21 -1 -43 -1 -64s1 -42 -1 -63c-1 -16 1 -33 2 -50l3 -45c2 -26 4 -52 5 -79zM244 928c6 -1 10 0 14 -1c10 -3 20 -3 31 0c10 2 20 3 30 4c7 1 12 -6 8 -13c-3 -6 -8 -13 -12 -20c-9 -12 -19 -24 -28 -36c-14 -19 -31 -35 -48 -51
c-4 -4 -9 -6 -14 -4c-13 5 -26 5 -40 5c-3 0 -6 0 -10 1c-9 2 -12 8 -7 15c4 5 8 10 12 14c7 7 12 17 22 23c4 11 13 19 22 27c6 7 11 15 15 23c1 4 3 8 5 13z" />
    <glyph glyph-name="Ecircumflex" unicode="&#xca;" horiz-adv-x="405" 
d="M46 24c6 -1 10 -3 14 -3c32 1 64 2 96 2c6 0 12 0 18 -1c23 -5 46 -5 69 -4c26 1 52 6 78 4c18 -1 36 1 53 -2c6 -1 11 4 10 10c0 2 0 4 -1 6c-4 19 -6 38 -2 57v7c-6 5 -12 5 -18 4c-24 -2 -49 -3 -73 -2c-14 0 -28 1 -42 2c-9 1 -19 3 -28 3c-21 1 -42 1 -64 1
c-7 0 -13 1 -19 6c-1 6 -3 12 -4 19c-3 16 -2 33 -3 50c-1 47 -5 94 -4 141c0 8 -1 16 3 24c14 0 27 -1 40 1c32 3 63 0 94 -1c5 0 11 1 16 1c22 1 45 2 68 2c9 0 12 3 11 12c-2 18 -2 35 1 53c0 3 -2 6 -2 9c-38 12 -76 7 -114 4c-31 -3 -63 -6 -95 -5c-7 0 -13 0 -20 5
c0 5 -1 11 -1 17c0 12 1 25 1 37c1 22 -1 44 0 66c2 24 7 48 6 73c0 6 5 9 12 8s14 -2 21 -2c26 0 52 1 78 0c37 -2 75 -1 112 -1c3 0 5 0 8 1c4 0 7 5 6 9c-9 20 -3 42 -8 62c0 3 1 7 1 10c1 3 2 5 2 8c0 10 -5 15 -15 15h-26l-33 3s-21 2 -31 4c-12 3 -24 4 -36 4
c-18 1 -36 0 -54 6c-2 1 -5 1 -8 1c-14 1 -28 5 -43 3c-14 -1 -29 3 -44 4c-5 1 -10 1 -15 4c-7 3 -11 -1 -12 -8c-1 -18 -2 -36 -2 -54c-1 -30 -2 -61 -3 -91c0 -10 -1 -19 -1 -28c-1 -25 -2 -51 -2 -76c-1 -10 -1 -20 -1 -30c0 -12 2 -25 1 -37c-2 -10 -2 -20 -2 -30
c-1 -27 -1 -55 -1 -82c0 -21 -1 -43 -1 -64s1 -42 -1 -63c-1 -16 1 -33 2 -50l3 -45c2 -26 4 -52 5 -79zM359 829c-20 -5 -40 -11 -60 -16c-6 -2 -10 0 -14 5c0 0 0 1 -1 1c-11 15 -23 29 -38 41c-15 13 -28 28 -42 42c-3 2 -7 4 -10 7c-6 -6 -12 -11 -16 -16
c-12 -15 -24 -29 -35 -44c-3 -3 -5 -8 -9 -11c-14 -13 -11 -16 -32 -14c-10 2 -20 2 -30 2c-8 0 -15 -3 -23 -4c-4 3 -4 7 -2 10c10 15 19 31 29 46c8 12 18 23 26 35c12 17 28 30 44 43c12 11 24 22 33 37c5 8 12 9 17 1c4 -5 9 -7 14 -10c10 -6 18 -13 24 -23
c2 -3 5 -5 7 -7c13 -9 25 -20 36 -32c6 -7 13 -12 20 -18c13 -12 24 -25 36 -36c10 -9 17 -19 25 -29c2 -2 1 -6 1 -10z" />
    <glyph glyph-name="Edieresis" unicode="&#xcb;" horiz-adv-x="405" 
d="M46 24c-1 27 -3 53 -5 79l-3 45c-1 17 -3 34 -2 50c2 21 1 42 1 63s1 43 1 64c0 27 0 55 1 82c0 10 0 20 2 30c1 12 -1 25 -1 37c0 10 0 20 1 30c0 25 1 51 2 76c0 9 1 18 1 28c1 30 2 61 3 91c0 18 1 36 2 54c1 7 5 11 12 8c5 -3 10 -3 15 -4c15 -1 30 -5 44 -4
c15 2 29 -2 43 -3c3 0 6 0 8 -1c18 -6 36 -5 54 -6c12 0 24 -1 36 -4c10 -2 20 -3 31 -4l33 -3h26c10 0 15 -5 15 -15c0 -3 -1 -5 -2 -8c0 -3 -1 -7 -1 -10c5 -20 -1 -42 8 -62c1 -4 -2 -9 -6 -9c-3 -1 -5 -1 -8 -1c-37 0 -75 -1 -112 1c-26 1 -52 0 -78 0c-7 0 -14 1 -21 2
s-12 -2 -12 -8c1 -25 -4 -49 -6 -73c-1 -22 1 -44 0 -66c0 -12 -1 -25 -1 -37c0 -6 1 -12 1 -17c7 -5 13 -5 20 -5c32 -1 64 2 95 5c38 3 76 8 114 -4c0 -3 2 -6 2 -9c-3 -18 -3 -35 -1 -53c1 -9 -2 -12 -11 -12c-23 0 -46 -1 -68 -2c-5 0 -11 -1 -16 -1c-31 1 -62 4 -94 1
c-13 -2 -26 -1 -40 -1c-4 -8 -3 -16 -3 -24c-1 -47 3 -94 4 -141c1 -17 0 -34 3 -50c1 -7 3 -13 4 -19c6 -5 12 -6 19 -6c22 0 43 0 64 -1c9 0 19 -2 28 -3c14 -1 28 -2 42 -2c24 -1 49 0 73 2c6 1 12 1 18 -4v-7c-4 -19 -2 -38 2 -57c1 -2 1 -4 1 -6c1 -6 -4 -11 -10 -10
c-17 3 -35 1 -53 2c-26 2 -52 -3 -78 -4c-23 -1 -46 -1 -69 4c-6 1 -12 1 -18 1c-32 0 -64 -1 -96 -2c-4 0 -8 2 -14 3zM246 857c1 13 1 26 3 39c0 7 5 12 12 9c16 -6 32 -4 49 -3h8c6 0 10 -4 9 -10v-6c-1 -24 -2 -47 -3 -71c0 -3 -1 -5 -1 -8c-1 -5 -5 -8 -10 -8
c-2 0 -3 1 -4 1c-17 4 -34 6 -51 6c-11 0 -13 3 -13 13v26c0 4 0 8 1 12v0zM180 848c0 -9 1 -17 2 -26c0 -8 -3 -12 -11 -10c-5 1 -10 1 -14 -3c-6 -4 -12 -3 -18 -2c-9 3 -19 3 -29 1c-6 -2 -10 1 -11 8c0 12 -1 25 -1 37c1 14 2 27 4 40c1 10 6 13 15 11l21 -3l18 -3
c15 -1 23 -13 25 -30v-20h-1z" />
    <glyph glyph-name="Igrave" unicode="&#xcc;" horiz-adv-x="169" 
d="M43 11c-1 3 -3 5 -3 7c1 43 -3 86 -4 129c-1 26 -1 52 -1 78c0 14 -1 29 -1 43c-2 32 -4 63 -3 94c0 4 -1 8 0 12c1 30 1 60 4 90c4 51 4 102 7 153c1 21 4 42 1 64c-1 5 2 9 8 9c25 0 49 5 74 11c1 0 3 1 4 1c12 2 17 -3 16 -16c-2 -17 -3 -34 -5 -51
c-2 -20 0 -40 -2 -60c-1 -13 3 -26 2 -39c-1 -8 1 -16 -1 -24c-7 -24 -5 -50 -9 -75c-1 -3 0 -8 0 -11c0 -5 1 -10 -1 -14c-4 -18 -1 -36 -5 -54c-1 -2 -1 -4 -1 -5c0 -28 1 -55 1 -82c-1 -15 0 -30 -3 -45c-2 -17 -1 -35 -1 -52c0 -19 3 -38 4 -57c1 -20 1 -40 1 -60v-32
c0 -5 -3 -10 -7 -10c-24 -2 -48 -3 -72 -5c0 0 -1 1 -3 1zM45 878c2 -5 4 -9 5 -13c4 -8 9 -16 15 -23c9 -8 18 -16 22 -27c10 -6 15 -16 22 -23c4 -4 8 -9 12 -14c5 -7 2 -13 -7 -15c-4 -1 -7 -1 -10 -1c-14 0 -27 0 -40 -5c-5 -2 -10 0 -14 4c-17 16 -34 32 -48 51
c-9 12 -19 24 -28 36c-4 7 -9 14 -12 20c-4 7 1 14 8 13c10 -1 20 -2 30 -4c11 -3 21 -3 31 0c4 1 8 0 14 1z" />
    <glyph glyph-name="Iacute" unicode="&#xcd;" horiz-adv-x="169" 
d="M43 11c2 0 3 -1 3 -1c24 2 48 3 72 5c4 0 7 5 7 10v32c0 20 0 40 -1 60c-1 19 -4 38 -4 57c0 17 -1 35 1 52c3 15 2 30 3 45c0 27 -1 54 -1 82c0 1 0 3 1 5c4 18 1 36 5 54c2 4 1 9 1 14c0 3 -1 8 0 11c4 25 2 51 9 75c2 8 0 16 1 24c1 13 -3 26 -2 39c2 20 0 40 2 60
c2 17 3 34 5 51c1 13 -4 18 -16 16c-1 0 -3 -1 -4 -1c-25 -6 -49 -11 -74 -11c-6 0 -9 -4 -8 -9c3 -22 0 -43 -1 -64c-3 -51 -3 -102 -7 -153c-3 -30 -3 -60 -4 -90c-1 -4 0 -8 0 -12c-1 -31 1 -62 3 -94c0 -14 1 -29 1 -43c0 -26 0 -52 1 -78c1 -43 5 -86 4 -129
c0 -2 2 -4 3 -7zM136 883c6 -1 10 0 14 -1c10 -3 20 -3 31 0c10 2 20 3 30 4c7 1 12 -6 8 -13c-3 -6 -8 -13 -12 -20c-9 -12 -19 -24 -28 -36c-14 -19 -31 -35 -48 -51c-4 -4 -9 -6 -14 -4c-13 5 -26 5 -40 5c-3 0 -6 0 -10 1c-9 2 -12 8 -7 15c4 5 8 10 12 14
c7 7 12 17 22 23c4 11 13 19 22 27c6 7 11 15 15 23c1 4 3 8 5 13z" />
    <glyph glyph-name="Icircumflex" unicode="&#xce;" horiz-adv-x="169" 
d="M43 11c2 0 3 -1 3 -1c24 2 48 3 72 5c4 0 7 5 7 10v32c0 20 0 40 -1 60c-1 19 -4 38 -4 57c0 17 -1 35 1 52c3 15 2 30 3 45c0 27 -1 54 -1 82c0 1 0 3 1 5c4 18 1 36 5 54c2 4 1 9 1 14c0 3 -1 8 0 11c4 25 2 51 9 75c2 8 0 16 1 24c1 13 -3 26 -2 39c2 20 0 40 2 60
c2 17 3 34 5 51c1 13 -4 18 -16 16c-1 0 -3 -1 -4 -1c-25 -6 -49 -11 -74 -11c-6 0 -9 -4 -8 -9c3 -22 0 -43 -1 -64c-3 -51 -3 -102 -7 -153c-3 -30 -3 -60 -4 -90c-1 -4 0 -8 0 -12c-1 -31 1 -62 3 -94c0 -14 1 -29 1 -43c0 -26 0 -52 1 -78c1 -43 5 -86 4 -129
c0 -2 2 -4 3 -7zM247 756c-20 -5 -40 -11 -60 -16c-6 -2 -10 0 -14 5c0 0 0 1 -1 1c-11 15 -23 29 -38 41c-15 13 -28 28 -42 42c-3 2 -7 4 -10 7c-6 -6 -12 -11 -16 -16c-12 -15 -24 -29 -35 -44c-3 -3 -5 -8 -9 -11c-14 -13 -11 -16 -32 -14c-10 2 -20 2 -30 2
c-8 0 -15 -3 -23 -4c-4 3 -4 7 -2 10c10 15 19 31 29 46c8 12 18 23 26 35c12 17 28 30 44 43c12 11 24 22 33 37c5 8 12 9 17 1c4 -5 9 -7 14 -10c10 -6 18 -13 24 -23c2 -3 5 -5 7 -7c13 -9 25 -20 36 -32c6 -7 13 -12 20 -18c13 -12 24 -25 36 -36c10 -9 17 -19 25 -29
c2 -2 1 -6 1 -10z" />
    <glyph glyph-name="Idieresis" unicode="&#xcf;" horiz-adv-x="169" 
d="M43 11c-1 3 -3 5 -3 7c1 43 -3 86 -4 129c-1 26 -1 52 -1 78c0 14 -1 29 -1 43c-2 32 -4 63 -3 94c0 4 -1 8 0 12c1 30 1 60 4 90c4 51 4 102 7 153c1 21 4 42 1 64c-1 5 2 9 8 9c25 0 49 5 74 11c1 0 3 1 4 1c12 2 17 -3 16 -16c-2 -17 -3 -34 -5 -51
c-2 -20 0 -40 -2 -60c-1 -13 3 -26 2 -39c-1 -8 1 -16 -1 -24c-7 -24 -5 -50 -9 -75c-1 -3 0 -8 0 -11c0 -5 1 -10 -1 -14c-4 -18 -1 -36 -5 -54c-1 -2 -1 -4 -1 -5c0 -28 1 -55 1 -82c-1 -15 0 -30 -3 -45c-2 -17 -1 -35 -1 -52c0 -19 3 -38 4 -57c1 -20 1 -40 1 -60v-32
c0 -5 -3 -10 -7 -10c-24 -2 -48 -3 -72 -5c0 0 -1 1 -3 1zM133 812c1 13 1 26 3 39c0 7 5 12 12 9c16 -6 32 -4 49 -3h8c6 0 10 -4 9 -10v-6c-1 -24 -2 -47 -3 -71c0 -3 -1 -5 -1 -8c-1 -5 -5 -8 -10 -8c-2 0 -3 1 -4 1c-17 4 -34 6 -51 6c-11 0 -13 3 -13 13v26
c0 4 0 8 1 12v0zM67 803c0 -9 1 -17 2 -26c0 -8 -3 -12 -11 -10c-5 1 -10 1 -14 -3c-6 -4 -12 -3 -18 -2c-9 3 -19 3 -29 1c-6 -2 -10 1 -11 8c0 12 -1 25 -1 37c1 14 2 27 4 40c1 10 6 13 15 11l21 -3l18 -3c15 -1 23 -13 25 -30v-20h-1z" />
    <glyph glyph-name="Eth" unicode="&#xd0;" horiz-adv-x="517" 
d="M49 742c12 1 23 1 34 -1c19 -3 39 -2 58 -1c30 0 61 1 91 2c11 0 23 2 34 -1c1 -1 3 0 5 0c21 3 41 0 62 -3c20 -3 39 -8 57 -15c11 -4 19 -9 28 -16l20 -16l8 -9c6 -18 16 -35 20 -54c4 -21 10 -41 12 -62c1 -2 1 -4 1 -6c2 -22 4 -43 5 -65c1 -14 3 -28 3 -42
c-1 -37 -3 -74 -3 -111c-1 -48 -8 -96 -13 -143c-3 -32 -12 -63 -27 -91c-4 -7 -8 -13 -13 -18c-9 -11 -19 -23 -29 -33c-11 -10 -23 -18 -36 -24c-29 -14 -59 -20 -91 -19c-9 0 -17 -1 -26 -2c-16 -2 -32 2 -47 4c-20 4 -39 3 -58 2c-16 0 -32 -3 -48 -3c-12 0 -25 2 -37 4
c-11 1 -16 8 -15 18c4 18 0 36 0 54c0 19 -2 38 -3 57c0 6 -1 11 -1 16c1 5 3 10 3 15s-2 9 -3 14c-3 12 -1 25 -2 37c0 13 -1 27 -2 40c0 13 2 25 1 38s1 26 2 38c-21 -2 -42 -1 -64 0c-1 5 -4 9 -3 14c0 17 3 34 2 51c-1 13 6 18 18 19h28c7 0 14 -1 20 0
c-1 13 -1 27 -1 41c0 46 1 92 2 138c0 18 1 36 4 53c3 20 1 39 1 58c0 7 0 14 3 22zM323 419c3 -21 -8 -42 1 -64c-4 -2 -7 -5 -11 -5c-37 0 -74 -5 -111 -4c-20 0 -40 1 -60 0c-6 -1 -13 -2 -19 -2c1 -9 1 -18 1 -27c-1 -29 -1 -57 1 -86c0 -23 1 -46 2 -69
c1 -17 0 -33 7 -50c20 3 38 -3 55 -8c23 7 45 13 69 13c11 0 22 2 33 5c23 7 44 16 61 35c9 9 18 18 22 30c7 18 14 35 16 55c3 28 6 57 6 85c0 17 -2 34 -2 51c-1 25 -5 50 -5 74c-1 26 -7 50 -13 75c-4 20 -9 40 -12 60c-5 35 -29 60 -63 68c-15 4 -30 7 -45 12
c-21 8 -42 9 -64 6c-14 -2 -28 -4 -41 -7c-8 -2 -14 -5 -21 -7c-6 -2 -9 -6 -9 -12c0 -12 -1 -24 1 -36c3 -12 2 -23 0 -35c-1 -7 -2 -13 -2 -20c1 -30 1 -60 1 -89c0 -14 1 -27 1 -41c8 0 16 -1 24 -1l16 -2c3 0 5 -1 8 0c14 5 28 2 43 3c6 1 13 1 20 0c28 -5 56 -4 84 -5
c1 0 3 -1 6 -2z" />
    <glyph glyph-name="Ntilde" unicode="&#xd1;" horiz-adv-x="629" 
d="M485 205v17c0 25 0 49 3 74c2 23 -1 47 -1 71c-1 31 -1 62 -2 92c-1 17 0 33 -3 50c-2 13 0 27 0 41c0 22 -4 44 0 66c1 5 0 12 -1 18c-2 9 -3 18 -1 27c1 3 0 7 0 10v20c0 9 2 18 -2 27c-1 4 0 8 0 12c1 8 7 12 14 11c20 -4 40 -3 60 0c0 0 1 0 2 1c8 1 13 -3 11 -12
c-2 -5 -4 -9 -1 -15c-2 -18 4 -35 7 -52c2 -18 1 -35 3 -52c1 -11 3 -22 2 -34c-1 -17 0 -35 3 -52c1 -12 2 -23 1 -34c-1 -13 0 -25 0 -38c0 -12 1 -24 0 -36c-3 -35 1 -71 1 -107c0 -22 1 -44 0 -66c-1 -30 1 -59 3 -89c2 -29 4 -57 6 -85c1 -14 4 -28 5 -42
c1 -11 -2 -14 -13 -14c-9 0 -19 0 -28 1l-30 3s-20 1 -28 1c-17 27 -31 54 -48 79c-21 32 -40 65 -60 97c-7 11 -15 20 -23 30c-13 19 -26 39 -39 57c-22 30 -45 60 -68 90c-26 33 -49 69 -73 104c-14 23 -31 45 -47 67c-3 4 -6 7 -11 11c-4 -9 -4 -16 -4 -24
c1 -19 3 -39 4 -58v-53c0 -9 1 -18 1 -26c-1 -19 -2 -37 -3 -56c0 -16 0 -33 2 -50c2 -21 1 -43 1 -65c0 -44 -1 -88 0 -132c1 -26 5 -53 7 -79c1 -2 1 -3 1 -4c2 -10 -2 -14 -11 -14c-14 0 -28 0 -42 1c-9 1 -17 3 -26 5c-8 2 -10 5 -10 14c1 9 1 19 2 28c0 3 0 5 -1 8
c-6 17 -3 34 -4 51c0 9 2 17 -1 26c-1 3 0 6 0 10c1 2 2 4 2 5c-5 21 -3 43 -3 64c0 31 -2 62 -3 94c-1 26 0 53 0 79c0 20 -2 40 -2 60c-1 48 -1 96 -1 144c0 19 2 38 3 57c0 20 1 39 1 58c0 7 1 13 1 19c8 7 16 3 23 0c6 -1 10 -1 16 0c15 2 29 7 45 3c4 -2 9 -1 13 1
c18 6 20 2 29 -9l18 -24c19 -23 37 -46 56 -70c7 -8 15 -17 22 -26c6 -8 12 -15 17 -24s11 -18 17 -27c19 -30 38 -60 54 -92c10 -20 23 -37 35 -56c3 -4 5 -8 7 -12c18 -34 34 -70 52 -105c10 -19 19 -39 29 -58c2 -4 4 -7 7 -10c0 -1 1 -1 4 -2zM427 937c1 -4 2 -7 2 -9
c0 -22 1 -44 -1 -66c-2 -19 -8 -38 -25 -51c-11 -9 -21 -20 -34 -27c-29 -18 -61 -21 -92 -4c-8 5 -14 10 -19 18c-5 9 -10 19 -15 28c-5 10 -11 20 -16 30c-4 7 -10 10 -18 12c-7 -3 -15 -5 -19 -13c-4 -10 -6 -20 -4 -31c2 -12 5 -25 16 -33c3 -3 3 -7 1 -11s-6 -6 -10 -4
c-11 3 -21 2 -32 -1c-13 -3 -22 3 -24 16c-1 5 0 10 -1 14c0 3 0 8 -2 10c-8 7 -8 17 -8 26c-2 18 3 37 6 55c2 9 7 16 15 20c12 7 23 15 35 19c22 8 45 11 68 3c9 -3 14 -8 16 -16c3 -13 8 -26 10 -39c2 -14 10 -23 20 -31c11 -8 24 -12 37 -3c6 3 12 6 17 10
c8 7 13 16 11 27l-3 21c0 4 -1 7 -1 10c-2 14 0 17 15 16c14 0 27 1 41 4h14z" />
    <glyph glyph-name="Ograve" unicode="&#xd2;" horiz-adv-x="673" 
d="M33 178c0 12 -2 26 1 37c4 19 2 37 3 56c3 35 6 71 5 107c-1 12 2 23 2 35s3 24 4 36c3 25 5 51 10 76c4 26 7 52 16 76s17 49 30 71c11 20 29 34 51 43c30 12 62 14 94 13c6 0 13 -2 18 0c16 4 32 2 48 0c3 0 6 0 9 1c14 4 27 2 40 1s26 0 39 3c10 2 20 2 30 2
c15 0 30 -1 45 -2c2 0 4 -1 6 -1c10 0 21 2 29 -7c1 -1 4 0 6 -1c20 -4 40 -9 57 -20c19 -12 35 -27 45 -47c10 -23 18 -47 19 -73c0 -12 2 -23 1 -35c-1 -11 -2 -22 -2 -34c-1 -16 -2 -31 -2 -47c0 -26 -2 -52 -7 -77c-1 -5 0 -10 0 -14c2 -26 0 -51 -4 -76
c-4 -29 -8 -58 -12 -86c-3 -20 -7 -40 -11 -59c-5 -29 -16 -56 -34 -80c-5 -8 -11 -13 -19 -16c-13 -6 -25 -13 -38 -17c-15 -4 -29 -6 -44 -7c-12 -1 -24 -1 -35 -1c-14 -1 -28 -3 -42 -3c-34 -1 -67 -11 -101 -14c-4 -1 -9 -2 -14 -1c-29 1 -59 3 -89 5c-11 1 -21 2 -31 6
c-23 7 -46 14 -68 23c-27 12 -44 34 -51 63c-4 21 -4 42 -4 64zM553 432v0c0 7 1 13 1 20c1 43 0 86 -10 129c-2 11 -8 21 -13 31c-5 8 -12 15 -22 20c-12 6 -25 9 -38 9c-15 1 -31 7 -45 -1c-3 -1 -6 -1 -8 -1c-15 5 -29 1 -44 1c-18 -1 -36 -1 -54 0c-20 1 -40 1 -59 -6
c-17 -5 -34 -10 -51 -17c-15 -6 -28 -18 -35 -33s-13 -31 -19 -46c-7 -22 -8 -45 -12 -67c-3 -23 -5 -46 -8 -69c-4 -22 -7 -43 -7 -65c-1 -49 -2 -97 7 -145c3 -12 7 -24 15 -32c8 -9 18 -16 27 -24c1 0 3 -1 4 -1c20 -6 41 -12 62 -13c12 0 24 0 35 -1c12 -2 24 -1 36 -1
c17 -1 34 -2 51 2c9 2 19 5 28 4c10 -1 20 2 31 3c4 1 8 2 11 2c11 -1 20 3 29 6c16 6 27 17 35 31c19 34 33 70 42 107c7 24 11 48 11 73v84zM299 903c2 -5 4 -9 5 -13c4 -8 9 -16 15 -23c9 -8 18 -16 22 -27c10 -6 15 -16 22 -23c4 -4 8 -9 12 -14c5 -7 2 -13 -7 -15
c-4 -1 -7 -1 -10 -1c-14 0 -27 0 -40 -5c-5 -2 -10 0 -14 4c-17 16 -34 32 -48 51c-9 12 -19 24 -28 36c-4 7 -9 14 -12 20c-4 7 1 14 8 13c10 -1 20 -2 30 -4c11 -3 21 -3 31 0c4 1 8 0 14 1z" />
    <glyph glyph-name="Oacute" unicode="&#xd3;" horiz-adv-x="673" 
d="M33 178c0 -22 0 -43 4 -64c7 -29 24 -51 51 -63c22 -9 45 -16 68 -23c10 -4 20 -5 31 -6c30 -2 60 -4 89 -5c5 -1 10 0 14 1c34 3 67 13 101 14c14 0 28 2 42 3c11 0 23 0 35 1c15 1 29 3 44 7c13 4 25 11 38 17c8 3 14 8 19 16c18 24 29 51 34 80c4 19 8 39 11 59
c4 28 8 57 12 86c4 25 6 50 4 76c0 4 -1 9 0 14c5 25 7 51 7 77c0 16 1 31 2 47c0 12 1 23 2 34c1 12 -1 23 -1 35c-1 26 -9 50 -19 73c-10 20 -26 35 -45 47c-17 11 -37 16 -57 20c-2 1 -5 0 -6 1c-8 9 -19 7 -29 7c-2 0 -4 1 -6 1c-15 1 -30 2 -45 2c-10 0 -20 0 -30 -2
c-13 -3 -26 -4 -39 -3s-26 3 -40 -1c-3 -1 -6 -1 -9 -1c-16 2 -32 4 -48 0c-5 -2 -12 0 -18 0c-32 1 -64 -1 -94 -13c-22 -9 -40 -23 -51 -43c-13 -22 -21 -47 -30 -71s-12 -50 -16 -76c-5 -25 -7 -51 -10 -76c-1 -12 -4 -24 -4 -36s-3 -23 -2 -35c1 -36 -2 -72 -5 -107
c-1 -19 1 -37 -3 -56c-3 -11 -1 -25 -1 -37zM553 432v-84c0 -25 -4 -49 -11 -73c-9 -37 -23 -73 -42 -107c-8 -14 -19 -25 -35 -31c-9 -3 -18 -7 -29 -6c-3 0 -7 -1 -11 -2c-11 -1 -21 -4 -31 -3c-9 1 -19 -2 -28 -4c-17 -4 -34 -3 -51 -2c-12 0 -24 -1 -36 1
c-11 1 -23 1 -35 1c-21 1 -42 7 -62 13c-1 0 -3 1 -4 1c-9 8 -19 15 -27 24c-8 8 -12 20 -15 32c-9 48 -8 96 -7 145c0 22 3 43 7 65c3 23 5 46 8 69c4 22 5 45 12 67c6 15 12 31 19 46s20 27 35 33c17 7 34 12 51 17c19 7 39 7 59 6c18 -1 36 -1 54 0c15 0 29 4 44 -1
c2 0 5 0 8 1c14 8 30 2 45 1c13 0 26 -3 38 -9c10 -5 17 -12 22 -20c5 -10 11 -20 13 -31c10 -43 11 -86 10 -129c0 -7 -1 -13 -1 -20v0zM390 903c6 -1 10 0 14 -1c10 -3 20 -3 31 0c10 2 20 3 30 4c7 1 12 -6 8 -13c-3 -6 -8 -13 -12 -20c-9 -12 -19 -24 -28 -36
c-14 -19 -31 -35 -48 -51c-4 -4 -9 -6 -14 -4c-13 5 -26 5 -40 5c-3 0 -6 0 -10 1c-9 2 -12 8 -7 15c4 5 8 10 12 14c7 7 12 17 22 23c4 11 13 19 22 27c6 7 11 15 15 23c1 4 3 8 5 13z" />
    <glyph glyph-name="Ocircumflex" unicode="&#xd4;" horiz-adv-x="673" 
d="M33 178c0 -22 0 -43 4 -64c7 -29 24 -51 51 -63c22 -9 45 -16 68 -23c10 -4 20 -5 31 -6c30 -2 60 -4 89 -5c5 -1 10 0 14 1c34 3 67 13 101 14c14 0 28 2 42 3c11 0 23 0 35 1c15 1 29 3 44 7c13 4 25 11 38 17c8 3 14 8 19 16c18 24 29 51 34 80c4 19 8 39 11 59
c4 28 8 57 12 86c4 25 6 50 4 76c0 4 -1 9 0 14c5 25 7 51 7 77c0 16 1 31 2 47c0 12 1 23 2 34c1 12 -1 23 -1 35c-1 26 -9 50 -19 73c-10 20 -26 35 -45 47c-17 11 -37 16 -57 20c-2 1 -5 0 -6 1c-8 9 -19 7 -29 7c-2 0 -4 1 -6 1c-15 1 -30 2 -45 2c-10 0 -20 0 -30 -2
c-13 -3 -26 -4 -39 -3s-26 3 -40 -1c-3 -1 -6 -1 -9 -1c-16 2 -32 4 -48 0c-5 -2 -12 0 -18 0c-32 1 -64 -1 -94 -13c-22 -9 -40 -23 -51 -43c-13 -22 -21 -47 -30 -71s-12 -50 -16 -76c-5 -25 -7 -51 -10 -76c-1 -12 -4 -24 -4 -36s-3 -23 -2 -35c1 -36 -2 -72 -5 -107
c-1 -19 1 -37 -3 -56c-3 -11 -1 -25 -1 -37zM553 432v-84c0 -25 -4 -49 -11 -73c-9 -37 -23 -73 -42 -107c-8 -14 -19 -25 -35 -31c-9 -3 -18 -7 -29 -6c-3 0 -7 -1 -11 -2c-11 -1 -21 -4 -31 -3c-9 1 -19 -2 -28 -4c-17 -4 -34 -3 -51 -2c-12 0 -24 -1 -36 1
c-11 1 -23 1 -35 1c-21 1 -42 7 -62 13c-1 0 -3 1 -4 1c-9 8 -19 15 -27 24c-8 8 -12 20 -15 32c-9 48 -8 96 -7 145c0 22 3 43 7 65c3 23 5 46 8 69c4 22 5 45 12 67c6 15 12 31 19 46s20 27 35 33c17 7 34 12 51 17c19 7 39 7 59 6c18 -1 36 -1 54 0c15 0 29 4 44 -1
c2 0 5 0 8 1c14 8 30 2 45 1c13 0 26 -3 38 -9c10 -5 17 -12 22 -20c5 -10 11 -20 13 -31c10 -43 11 -86 10 -129c0 -7 -1 -13 -1 -20v0zM493 790c-20 -5 -40 -11 -60 -16c-6 -2 -10 0 -14 5c0 0 0 1 -1 1c-11 15 -23 29 -38 41c-15 13 -28 28 -42 42c-3 2 -7 4 -10 7
c-6 -6 -12 -11 -16 -16c-12 -15 -24 -29 -35 -44c-3 -3 -5 -8 -9 -11c-14 -13 -11 -16 -32 -14c-10 2 -20 2 -30 2c-8 0 -15 -3 -23 -4c-4 3 -4 7 -2 10c10 15 19 31 29 46c8 12 18 23 26 35c12 17 28 30 44 43c12 11 24 22 33 37c5 8 12 9 17 1c4 -5 9 -7 14 -10
c10 -6 18 -13 24 -23c2 -3 5 -5 7 -7c13 -9 25 -20 36 -32c6 -7 13 -12 20 -18c13 -12 24 -25 36 -36c10 -9 17 -19 25 -29c2 -2 1 -6 1 -10z" />
    </font>
</defs>
</svg>
