<?xml version="1.0" encoding="utf-8"?>
<!-- Generator: Adobe Illustrator 22.1.0, SVG Export Plug-In . SVG Version: 6.00 Build 0)  -->
<svg version="1.1" id="Слой_1" xmlns="http://www.w3.org/2000/svg" xmlns:xlink="http://www.w3.org/1999/xlink" x="0px" y="0px"
	 viewBox="0 0 1920 787" style="enable-background:new 0 0 1920 787;" xml:space="preserve">
<style type="text/css">
	.st0{fill:#F0F0F0;}
	.st1{fill:none;stroke:#FFFFFF;stroke-width:8;}
	.st2{fill:#F5F5F5;}
	.st3{fill:#FFFFFF;}
	.st4{fill:none;stroke:#FFFFFF;stroke-width:12;}
</style>
<g>
	<path class="st0" d="M816.7,31.4C295.7,100,77.6-9.7,0,19.3v719.5c203.4-117.3,467.2-30.9,745.4,0
		c316.6,35.1,487.4-39.8,744.9-51.8c284.2-13.2,417.8,28.8,429.8,65V0C1382,212.4,1296.9-31.9,816.7,31.4z"/>
	<circle class="st1" cx="481.3" cy="665.2" r="14.1"/>
	<path class="st2" d="M512.1,682c-283.9-76.4-467.4-2.5-523.7,44v22c98.5-53.5,233-63.6,353.5-41.5
		c602.6,110.5,584.2,61,1008.9,19.5c339.7-33.2,531.8,33.5,585.4,71l22.2-58.5c-119.3-85.5-404.4-113-650.1-56.5
		C1062.6,738.5,867,777.5,512.1,682z"/>
	<g>
		<path class="st3" d="M327.2,275.7l12.3,4.3L318,342.4l-12.3-4.3L327.2,275.7z"/>
		<path class="st3" d="M288.9,304.3l4.3-12.3l62.4,21.5l-4.3,12.3L288.9,304.3z"/>
	</g>
	<circle class="st1" cx="227.9" cy="434" r="14.1"/>
	<circle class="st1" cx="1490.7" cy="503.4" r="14.1"/>
	
		<rect x="1562.8" y="575.9" transform="matrix(0.6853 -0.7282 0.7282 0.6853 64.9922 1337.947)" class="st4" width="35.8" height="35.8"/>
</g>
</svg>
