<svg width="90" height="95" viewBox="0 0 90 95" fill="none" xmlns="http://www.w3.org/2000/svg">
<path d="M25.2439 43.4623H24.2122V35.0965C24.2122 34.105 23.4086 33.3011 22.4169 33.3011H22.2627V16.1856C22.2627 15.5057 21.8787 14.8841 21.2702 14.5798L7.37669 7.63113C6.82038 7.35297 6.15945 7.38242 5.62995 7.70965C5.10044 8.03664 4.77824 8.6145 4.77824 9.23688V33.3011H4.62408C3.63233 33.3011 2.82874 34.105 2.82874 35.0965V43.4623H1.79534C0.803594 43.4623 0 44.2661 0 45.2576V92.3839C0 93.3754 0.803594 94.1792 1.79534 94.1792H25.2434C26.2352 94.1792 27.0388 93.3754 27.0388 92.3839V45.2576C27.0393 44.2661 26.2357 43.4623 25.2439 43.4623ZM8.3694 12.1422L18.6723 17.2951V33.3011H8.3694V12.1422ZM6.42013 36.8918H20.6218V43.4623H6.42013V36.8918ZM23.4486 90.5885H3.59116V47.053H23.4486V90.5885Z" fill="#1D1D1D"/>
<path d="M88.2036 72.8372H29.89C28.8983 72.8372 28.0947 73.641 28.0947 74.6325C28.0947 75.624 28.8983 76.4279 29.89 76.4279H85.3471L84.9366 77.2813C82.6814 81.9673 77.8639 84.9955 72.6634 84.9955H29.89C28.8983 84.9955 28.0947 85.7993 28.0947 86.7908C28.0947 87.7823 28.8983 88.5862 29.89 88.5862H72.6634C79.2351 88.5862 85.3227 84.7599 88.172 78.8382L89.8213 75.411C90.0892 74.8547 90.0523 74.1997 89.7237 73.6772C89.395 73.1546 88.821 72.8372 88.2036 72.8372Z" fill="#1D1D1D"/>
<path d="M25.7452 13.2015C32.4395 7.00398 41.1538 3.59068 50.2835 3.59068C70.2031 3.59068 86.4091 19.7966 86.4091 39.7163C86.4091 50.4555 81.6768 60.5676 73.4261 67.4595C72.6649 68.0953 72.5634 69.2274 73.1992 69.9883C73.5542 70.4135 74.0641 70.6328 74.578 70.6328C74.9838 70.6328 75.3922 70.4958 75.728 70.2153C84.7983 62.6392 90 51.5227 90 39.716C89.9998 17.8167 72.183 0 50.2835 0C40.2466 0 30.6659 3.75274 23.3057 10.5669C22.5783 11.2405 22.5345 12.3764 23.2081 13.1041C23.8814 13.8313 25.0173 13.8751 25.7452 13.2015Z" fill="#1D1D1D"/>
<path d="M50.2864 11.0578C66.0893 11.0578 78.9458 23.9144 78.9458 39.7172C78.9458 55.52 66.0893 68.3766 50.2864 68.3766C43.1819 68.3766 36.3673 65.7583 31.0971 61.0044C30.3613 60.3404 29.2259 60.3986 28.5614 61.1349C27.8973 61.871 27.9558 63.0064 28.6921 63.6704C34.6229 69.0208 42.2919 71.9673 50.2864 71.9673C68.0692 71.9673 82.5365 57.4999 82.5365 39.7172C82.5365 21.9345 68.0692 7.46716 50.2864 7.46716C40.0733 7.46716 30.3574 12.384 24.2966 20.6198C23.7087 21.4184 23.8799 22.5423 24.6784 23.1299C25.477 23.7174 26.6004 23.5467 27.1885 22.7481C32.5755 15.4282 41.2104 11.0578 50.2864 11.0578Z" fill="#1D1D1D"/>
<path d="M70.0369 25.5738L37.2736 58.337C36.5725 59.0382 36.5725 60.175 37.2736 60.8759C37.6243 61.2263 38.0839 61.4018 38.5433 61.4018C39.0026 61.4018 39.4622 61.2266 39.8129 60.8759L72.576 28.1126C73.2771 27.4115 73.2771 26.2747 72.576 25.5738C71.8746 24.8726 70.738 24.8726 70.0369 25.5738Z" fill="#1D1D1D"/>
<path d="M47.2517 58.5587C46.5505 59.2598 46.5505 60.3967 47.2517 61.0976C47.6024 61.448 48.062 61.6235 48.5214 61.6235C48.9807 61.6235 49.4403 61.4482 49.791 61.0976L74.3896 36.499C75.0907 35.7979 75.0907 34.6611 74.3896 33.9602C73.6882 33.259 72.5516 33.259 71.8505 33.9602L47.2517 58.5587Z" fill="#1D1D1D"/>
</svg>
