<svg width="109" height="80" viewBox="0 0 109 80" fill="none" xmlns="http://www.w3.org/2000/svg">
<path fill-rule="evenodd" clip-rule="evenodd" d="M20 0.999585C17 2.99959 15.425 4.97799 15.015 8.43614L14.75 10.6723L11.75 10.9884C5.591 11.6374 4 12.9996 2 14.8963C2 14.8963 0.5 16.4996 0 18.3549V73.0225C0 77.9996 1.5 78.9996 1.5 78.9996C3.5 80.4996 0.976501 79.7261 45.75 79.8951C67.475 79.9766 86.1935 79.7964 87.37 79.741C92.5 79.4996 94 77.9996 95 72.9996L95.3565 69.8073L98.553 69.5559C102.443 69.2503 106.365 68.4952 108 65.9996C108 65.9996 108.797 65.3349 109 63.1126L108.997 6.19994C109 3.49957 107.5 2.49956 107 1.99957C106.5 1.49959 105.637 1.22712 105 0.999573C102.359 0.0558999 98.3425 -0.0112183 61.507 0.00120499L23.25 0.0136284C22 0.0136284 20 0.999585 20 0.999585ZM102.343 4.93276C103.22 5.46398 104.178 6.34654 104.473 6.89366C104.84 7.57644 104.968 16.5963 104.879 35.5985C104.879 35.5985 105.231 61.9758 104.75 63.3079C104.269 64.64 103 64.9996 103 64.9996C101 65.4996 100.757 65.5998 98.2695 65.48L95.25 65.3349L94.9675 42.2276C94.812 29.5185 94.503 18.495 94.28 17.7308C94.057 16.9665 92.989 15.4782 91.906 14.4237C88.2335 10.8458 89.0945 10.9208 51.7655 10.9208C21.784 10.9208 18.438 10.8423 18.1635 10.1302C17.688 8.89878 19.316 6.04838 21.1185 4.95612C22.7105 3.99157 23.699 3.96722 61.75 3.96722C99.487 3.96722 100.802 3.99853 102.343 4.93276ZM87.848 15.8683C90.1905 17.288 91.088 18.9229 90.9055 21.4399L90.75 23.5926H47.5L4.1275 23.4996V21.1079C3.9985 18.4772 5.17251 17.1029 6 15.9996C6.82749 14.8963 8.135 14.8963 8.135 14.8963L47.1925 14.8983C85.0245 14.8997 86.3 14.9306 87.848 15.8683ZM90.75 30.5496L47.6105 30.6769C9.576 30.7887 4.4365 30.7151 4.182 30.0557C4.023 29.6442 4.023 28.9704 4.182 28.5589C4.4365 27.8995 9.576 27.8259 47.6105 27.9378L90.75 28.065V30.5496ZM91.012 72.6453C91.012 72.6453 91 74.4996 90 75.4996C89 76.4996 87.1175 76.5159 87.1175 76.5159H7.4C6 76.4996 5 75.9996 5 75.9996C5 75.9996 4 74.9996 4 73.1368V54.2866C4 43.9186 4.151 35.2859 4.336 35.102C4.521 34.9182 24.0395 34.8252 47.711 34.8948L90.75 35.022L91.012 72.6453Z" fill="black"/>
<path d="M75 61.9996C75 65.8656 71.866 68.9996 68 68.9996C64.134 68.9996 61 65.8656 61 61.9996C61 58.1336 64.134 54.9996 68 54.9996C71.866 54.9996 75 58.1336 75 61.9996ZM64.138 61.9996C64.138 64.1325 65.8671 65.8615 68 65.8615C70.1329 65.8615 71.862 64.1325 71.862 61.9996C71.862 59.8667 70.1329 58.1376 68 58.1376C65.8671 58.1376 64.138 59.8667 64.138 61.9996Z" fill="black"/>
<path d="M86 61.9996C86 65.8656 82.866 68.9996 79 68.9996C75.134 68.9996 72 65.8656 72 61.9996C72 58.1336 75.134 54.9996 79 54.9996C82.866 54.9996 86 58.1336 86 61.9996ZM75.138 61.9996C75.138 64.1325 76.8671 65.8615 79 65.8615C81.1329 65.8615 82.862 64.1325 82.862 61.9996C82.862 59.8667 81.1329 58.1376 79 58.1376C76.8671 58.1376 75.138 59.8667 75.138 61.9996Z" fill="black"/>
</svg>
