<svg width="115" height="116" viewBox="0 0 115 116" fill="none" xmlns="http://www.w3.org/2000/svg">
<path d="M113 46.4807C113 48.4239 111.246 50.7971 106.974 52.802C102.862 54.7325 97.0391 55.9807 90.5 55.9807C83.9609 55.9807 78.1385 54.7325 74.0257 52.802C69.7544 50.7971 68 48.4239 68 46.4807C68 44.5375 69.7544 42.1644 74.0257 40.1595C78.1385 38.229 83.9609 36.9807 90.5 36.9807C97.0391 36.9807 102.862 38.229 106.974 40.1595C111.246 42.1644 113 44.5375 113 46.4807Z" stroke="#FDBA3D" stroke-width="4"/>
<rect x="112" y="46.9807" width="3" height="59" rx="1.5" fill="#FDBA3D"/>
<path fill-rule="evenodd" clip-rule="evenodd" d="M68.5393 103.038L66.0285 102.981C65.9988 103.269 65.9924 103.557 66.0089 103.845C66.0705 104.918 66.4521 105.982 67.1434 107.007C67.2513 107.167 67.3668 107.326 67.4898 107.484C68.6117 108.924 70.3359 110.244 72.5611 111.367C74.7863 112.49 77.4674 113.393 80.4468 114.022C83.4261 114.651 86.6435 114.994 89.9096 115.031C93.1758 115.068 96.4246 114.798 99.4651 114.237C102.506 113.676 105.276 112.835 107.614 111.764C109.952 110.693 111.81 109.413 113.078 108C113.216 107.846 113.347 107.691 113.47 107.535C114.481 106.256 115 104.901 115 103.535H112.221C111.958 104.033 111.629 104.522 111.235 105C110.07 106.413 108.364 107.693 106.217 108.764C104.07 109.835 101.526 110.676 98.7333 111.237C95.941 111.798 92.9573 112.068 89.9578 112.031C86.9583 111.994 84.0036 111.651 81.2674 111.022C78.5313 110.393 76.069 109.49 74.0255 108.367C71.982 107.244 70.3985 105.924 69.3682 104.484C69.0296 104.01 68.753 103.527 68.5393 103.038Z" fill="#FDBA3D"/>
<path fill-rule="evenodd" clip-rule="evenodd" d="M68.5393 88.0376L66.0285 87.9807C65.9988 88.2689 65.9924 88.5571 66.0089 88.8446C66.0705 89.9178 66.4521 90.9824 67.1434 92.007C67.2513 92.1669 67.3668 92.3259 67.4898 92.4838C68.6117 93.9241 70.3359 95.2445 72.5611 96.3673C74.7863 97.4901 77.4674 98.3928 80.4468 99.022C83.4261 99.6513 86.6435 99.9945 89.9096 100.031C93.1758 100.068 96.4246 99.7983 99.4651 99.2372C102.506 98.676 105.276 97.8351 107.614 96.7639C109.952 95.6927 111.81 94.4128 113.078 92.9996C113.216 92.8458 113.347 92.6909 113.47 92.5348C114.481 91.2559 115 89.9015 115 88.5348H112.221C111.958 89.0327 111.629 89.5221 111.235 89.9996C110.07 91.4128 108.364 92.6927 106.217 93.7639C104.07 94.8351 101.526 95.676 98.7333 96.2372C95.941 96.7983 92.9573 97.0684 89.9578 97.0314C86.9583 96.9945 84.0036 96.6513 81.2674 96.022C78.5313 95.3928 76.069 94.4901 74.0255 93.3673C71.982 92.2445 70.3985 90.9241 69.3682 89.4838C69.0296 89.0104 68.753 88.5273 68.5393 88.0376Z" fill="#FDBA3D"/>
<path fill-rule="evenodd" clip-rule="evenodd" d="M68.5393 75.0376L66.0285 74.9807C65.9988 75.2689 65.9924 75.5571 66.0089 75.8446C66.0705 76.9178 66.4521 77.9824 67.1434 79.007C67.2513 79.1669 67.3668 79.3259 67.4898 79.4838C68.6117 80.9241 70.3359 82.2445 72.5611 83.3673C74.7863 84.4901 77.4674 85.3928 80.4468 86.022C83.4261 86.6513 86.6435 86.9945 89.9096 87.0314C93.1758 87.0684 96.4246 86.7983 99.4651 86.2372C102.506 85.676 105.276 84.8351 107.614 83.7639C109.952 82.6927 111.81 81.4128 113.078 79.9996C113.216 79.8458 113.347 79.6909 113.47 79.5348C114.481 78.2559 115 76.9015 115 75.5348H112.221C111.958 76.0327 111.629 76.5221 111.235 76.9996C110.07 78.4128 108.364 79.6927 106.217 80.7639C104.07 81.8351 101.526 82.676 98.7333 83.2372C95.941 83.7983 92.9573 84.0684 89.9578 84.0314C86.9583 83.9945 84.0036 83.6513 81.2674 83.022C78.5313 82.3928 76.069 81.4901 74.0255 80.3673C71.982 79.2445 70.3985 77.9241 69.3682 76.4838C69.0296 76.0104 68.753 75.5273 68.5393 75.0376Z" fill="#FDBA3D"/>
<path fill-rule="evenodd" clip-rule="evenodd" d="M68.5393 61.0376L66.0285 60.9807C65.9988 61.2689 65.9924 61.5571 66.0089 61.8446C66.0705 62.9178 66.4521 63.9824 67.1434 65.007C67.2513 65.1669 67.3668 65.3259 67.4898 65.4838C68.6117 66.9241 70.3359 68.2445 72.5611 69.3673C74.7863 70.4901 77.4674 71.3928 80.4468 72.022C83.4261 72.6513 86.6435 72.9945 89.9096 73.0314C93.1758 73.0684 96.4246 72.7983 99.4651 72.2372C102.506 71.676 105.276 70.8351 107.614 69.7639C109.952 68.6927 111.81 67.4128 113.078 65.9996C113.216 65.8458 113.347 65.6909 113.47 65.5348C114.481 64.2559 115 62.9015 115 61.5348H112.221C111.958 62.0327 111.629 62.5221 111.235 62.9996C110.07 64.4128 108.364 65.6927 106.217 66.7639C104.07 67.8351 101.526 68.676 98.7333 69.2372C95.941 69.7983 92.9573 70.0684 89.9578 70.0314C86.9583 69.9945 84.0036 69.6513 81.2674 69.022C78.5313 68.3928 76.069 67.4901 74.0255 66.3673C71.982 65.2445 70.3985 63.9241 69.3682 62.4838C69.0296 62.0104 68.753 61.5273 68.5393 61.0376Z" fill="#FDBA3D"/>
<rect x="66" y="45.9807" width="3" height="59" rx="1" fill="#FDBA3D"/>
<path fill-rule="evenodd" clip-rule="evenodd" d="M57 0.480813C56.5875 0.747313 55.575 0.972313 54.75 0.980313C51.3845 1.01381 45.803 3.65231 43.0105 6.52981L41.062 8.53731L40.904 21.3843C40.7565 33.3898 40.807 34.2883 41.6785 35.1058C43.0385 36.3823 44.441 36.2013 45.0215 34.6743C45.5725 33.2258 46.0215 33.2338 50 34.7643C53.5935 36.1473 56.7585 36.5923 64.5965 36.8183C71.0335 37.0043 72.1785 36.9148 73.8465 36.0953C74.8935 35.5808 76.7625 34.8793 78 34.5363C79.2375 34.1938 80.941 33.7033 81.7855 33.4468C82.63 33.1908 84.554 32.9808 86.0605 32.9808C87.567 32.9808 89.07 32.7108 89.4 32.3808C89.8305 31.9503 89.9995 28.6663 89.998 20.7558C89.9965 10.6888 89.911 9.59131 89.0165 8.12381C87.526 5.67931 83.9175 3.35681 79.622 2.07831C77.4925 1.44431 75.059 0.712813 74.2145 0.453313C72.199 -0.166687 57.967 -0.144187 57 0.480813ZM71.5 4.72581C76.385 5.23631 81.4835 7.05081 83.5875 9.02831C84.6395 10.0173 85.5 11.1208 85.5 11.4808C85.5 11.8408 84.6395 12.9443 83.5875 13.9333C78.788 18.4438 65.239 19.8623 53.25 17.1088C49.38 16.2203 45 13.2323 45 11.4808C45 8.91131 52.6505 5.01081 57.75 4.98031C59.125 4.97231 60.5875 4.73831 61 4.46031C61.7105 3.98181 65.225 4.07081 71.5 4.72581ZM48.158 20.0683C49.198 20.6278 49.9295 20.8223 55.75 22.0863C58.917 22.7743 71.9475 22.7938 75.25 22.1163C76.625 21.8338 79.273 21.1033 81.135 20.4923C85.5745 19.0353 86 19.2373 86 22.8008C86 25.5123 85.894 25.7523 83.847 27.6913C76.8715 34.2988 53.482 34.2293 46.375 27.5803C45.1635 26.4468 45 25.9278 45 23.2208C45 19.2978 45.604 18.6943 48.158 20.0683ZM29 37.4807C25 36.9807 19.5 37.4093 19 37.4807C15.5 37.9807 14.63 38.1908 13.7855 38.4468C12.941 38.7033 11.2375 39.1933 10 39.5358C6.53 40.4963 3 42.5053 1.5 44.4807C0 46.4561 0 46.5823 0 46.5823V69.9413V93.3008L1.7585 95.3553C5.8925 100.185 13.469 102.598 24.5 102.598C34.258 102.598 42.4405 100.434 46.4225 96.8008C49.0275 94.4233 49 94.7118 48.998 69.8808C48.9965 48.1573 48.9385 46.6363 48.062 45.1988C46.107 41.9928 39.143 38.7668 32.25 37.8743C26.374 37.1133 29.9923 37.6047 29 37.4807ZM33.2145 42.4533C34.059 42.7133 36.0785 43.3078 37.702 43.7743C40.887 44.6893 44.5 47.4563 44.5 48.9808C44.5 49.4668 43.6345 50.6463 42.577 51.6018C40.7935 53.2133 39.877 53.5908 33 55.5488C29.3905 56.5763 15.7005 55.6403 10.3395 53.9993C8.0745 53.3058 4.5 50.2338 4.5 48.9808C4.5 47.4573 8.113 44.6893 11.298 43.7728C12.9215 43.3058 14.8125 42.7358 15.5 42.5053C17.2475 41.9208 31.349 41.8793 33.2145 42.4533ZM54.192 46.7018C53.3515 48.8923 56.0205 50.9128 59.814 50.9568C63.4055 50.9988 64.1505 48.4253 60.9935 46.8813C58.788 45.8028 54.5795 45.6913 54.192 46.7018ZM8.145 57.5638C10.6665 58.8603 12.922 59.4178 18.25 60.0593C26.4725 61.0498 33.928 60.3018 41.1715 57.7593C44.565 56.5683 45 56.8688 45 60.4013C45 63.2403 44.9175 63.4293 42.8435 65.3413C41.3785 66.6913 39.7355 67.6023 37.7185 68.1823C36.086 68.6518 34.059 69.2483 33.2145 69.5083C32.37 69.7683 28.4485 69.9808 24.5 69.9808C20.5515 69.9808 16.63 69.7683 15.7855 69.5083C14.941 69.2483 12.914 68.6518 11.2815 68.1823C9.2645 67.6023 7.6215 66.6913 6.1565 65.3413C4.0595 63.4083 4 63.2673 4 60.2503C4 55.9838 4.475 55.6758 8.145 57.5638ZM54.6 60.5808C52.6965 62.4843 55.339 64.9808 59.256 64.9808C62.047 64.9808 63.2175 64.2283 62.91 62.6313C62.5325 60.6733 56.096 59.0848 54.6 60.5808ZM6.7635 71.1358C7.65 71.7248 9.174 72.2433 13 73.2578C20.928 75.3598 32.004 74.9558 39.682 72.2853C41.845 71.5333 43.926 71.0373 44.307 71.1838C45.4835 71.6348 45.2255 77.0593 43.9505 78.6798C42.5965 80.4013 38.4335 82.5328 35.25 83.1343C31.545 83.8343 18.03 84.1248 16 83.5478C8.8865 81.5258 8.2155 81.2393 6.1565 79.3413C4.0595 77.4083 4 77.2673 4 74.2503C4 70.3158 4.567 69.6768 6.7635 71.1358ZM54.625 74.5453C53.628 75.5588 53.8945 76.8253 55.3455 77.9668C56.415 78.8078 57.251 78.9948 59.419 78.8778C62.4765 78.7128 63.692 77.6898 62.6995 76.1163C61.7875 74.6698 55.6725 73.4803 54.625 74.5453ZM9.412 86.3113C14.408 88.0433 18.067 88.5978 24.5 88.5978C30.9605 88.5978 34.5905 88.0433 39.682 86.2798C41.845 85.5308 43.926 85.0373 44.307 85.1838C44.8045 85.3743 45 86.4188 45 88.8878C45 92.8158 44.8165 93.0758 40.5 95.2558C36.4275 97.3123 34.5915 97.6233 25.25 97.8398C17.066 98.0298 16.5925 97.9858 12.5085 96.6618C9.394 95.6523 7.701 94.7648 6.1335 93.3203C4.101 91.4468 4 91.2183 4 88.5003C4 84.3848 3.933 84.4123 9.412 86.3113ZM54.625 88.5453C53.628 89.5588 53.8945 90.8253 55.3455 91.9668C56.415 92.8078 57.251 92.9948 59.419 92.8778C62.4765 92.7128 63.692 91.6898 62.6995 90.1163C61.7875 88.6698 55.6725 87.4803 54.625 88.5453Z" fill="black"/>
</svg>
