<svg width="90" height="90" viewBox="0 0 90 90" fill="none" xmlns="http://www.w3.org/2000/svg">
<path d="M14.7896 16.5656C15.0658 16.8489 15.4452 17.0071 15.8399 17.0027C16.0399 17.0071 16.2391 16.9718 16.4251 16.8974C16.7855 16.7363 17.0741 16.4464 17.2352 16.0836C17.3084 15.8967 17.3443 15.6973 17.3399 15.4957C17.3436 15.0998 17.1869 14.7187 16.9049 14.4413C16.7679 14.3008 16.6046 14.1882 16.4251 14.1094C16.1475 14.0057 15.848 13.9741 15.555 14.0189C15.4649 14.0491 15.3602 14.0793 15.2701 14.1094C15.18 14.1396 15.0899 14.1999 15.0145 14.2456C14.8556 14.3648 14.7142 14.5075 14.5948 14.6672C14.5501 14.7422 14.5047 14.8327 14.46 14.9233C14.4146 15.0138 14.4 15.119 14.37 15.2095C14.3575 15.3044 14.3524 15.4001 14.3546 15.4957C14.3502 15.6973 14.3861 15.8967 14.46 16.0836C14.5377 16.2646 14.6497 16.428 14.7896 16.5656Z" fill="#1D1D1D"/>
<path d="M11.6104 17.6362C11.1695 18.06 11.0376 18.7156 11.2801 19.2785C11.3526 19.4618 11.4654 19.6266 11.6104 19.7605C11.8887 20.0512 12.2732 20.2145 12.6753 20.213C12.8709 20.2094 13.0642 20.1681 13.2452 20.0924C13.4275 20.0195 13.5916 19.9062 13.7249 19.7605C13.8648 19.6229 13.9768 19.4588 14.0552 19.2785C14.2742 18.7134 14.1453 18.0718 13.7249 17.6362C13.1324 17.0704 12.2029 17.0704 11.6104 17.6362Z" fill="#1D1D1D"/>
<path d="M10.5447 20.8304C10.2678 20.5427 9.88623 20.3801 9.48779 20.3801C9.08862 20.3801 8.70703 20.5427 8.43018 20.8304C8.28149 20.9672 8.1687 21.138 8.09985 21.3278C8.02295 21.5088 7.98267 21.7038 7.97974 21.9003C7.98413 22.3028 8.146 22.6868 8.43018 22.9701C8.71289 23.2439 9.08789 23.3999 9.47974 23.4072C9.87744 23.4043 10.259 23.2483 10.5447 22.9701C10.8245 22.6854 10.9812 22.3005 10.9797 21.9003C10.9827 21.7045 10.9475 21.5103 10.875 21.3278C10.801 21.1409 10.6882 20.9717 10.5447 20.8304Z" fill="#1D1D1D"/>
<path d="M15.8401 23.4072C16.0408 23.405 16.2393 23.3645 16.4253 23.2873C16.604 23.2137 16.7673 23.1063 16.905 22.9701C17.1848 22.6854 17.3408 22.3005 17.3401 21.9003C17.343 21.7045 17.3071 21.5103 17.2354 21.3278C17.1606 21.1409 17.0486 20.9717 16.905 20.8304C16.6274 20.5427 16.2458 20.3801 15.8474 20.3801C15.449 20.3801 15.0674 20.5427 14.7898 20.8304C14.6462 20.9717 14.5342 21.1409 14.4602 21.3278C14.3833 21.5088 14.3423 21.7038 14.3401 21.9003C14.3459 22.7303 15.0139 23.4021 15.8401 23.4072Z" fill="#1D1D1D"/>
<path d="M13.7248 24.0253C13.1294 23.4676 12.2058 23.4676 11.6103 24.0253C11.4616 24.1622 11.3488 24.3329 11.28 24.5227C11.2031 24.7037 11.1621 24.8987 11.1599 25.0952C11.1562 25.7074 11.5217 26.2607 12.0849 26.4962C12.6474 26.7309 13.2956 26.5999 13.7248 26.1651C14.0046 25.8803 14.1613 25.4955 14.1599 25.0952C14.1628 24.8994 14.1269 24.7045 14.0551 24.5227C13.9812 24.3358 13.8684 24.1658 13.7248 24.0253Z" fill="#1D1D1D"/>
<path d="M19.0351 13.8085C19.2299 13.8114 19.424 13.7754 19.6049 13.7025C19.7851 13.6245 19.9477 13.512 20.0854 13.3714C20.2297 13.2375 20.3425 13.0727 20.415 12.8887C20.4904 12.7077 20.5315 12.5135 20.5351 12.3163C20.5366 11.913 20.374 11.5267 20.0854 11.2464C19.9521 11.1014 19.788 10.9881 19.6049 10.9145C19.0432 10.6916 18.4023 10.8211 17.9702 11.2464C17.6853 11.5282 17.5285 11.9152 17.5351 12.3163C17.5351 12.7143 17.694 13.0962 17.9753 13.3766C18.2573 13.6569 18.6389 13.8122 19.0351 13.8085Z" fill="#1D1D1D"/>
<path d="M21.6454 10.5084C21.8263 10.5805 22.0204 10.6165 22.2152 10.6136C22.6137 10.6143 22.9967 10.4576 23.2802 10.1765C23.5563 9.8888 23.7123 9.50618 23.7152 9.10663C23.7072 8.71223 23.5519 8.3355 23.2802 8.05147C22.8466 7.62911 22.2079 7.49961 21.6454 7.72035C21.4557 7.78879 21.2865 7.90284 21.1503 8.05147C21.0104 8.18981 20.8983 8.35316 20.82 8.53417C20.7482 8.71591 20.7123 8.9109 20.7152 9.10663C20.7079 9.50765 20.8654 9.89469 21.1503 10.1765C21.2902 10.3207 21.4586 10.4333 21.6454 10.5084Z" fill="#1D1D1D"/>
<path d="M10.5447 8.03676C10.1104 7.61513 9.46948 7.49152 8.90991 7.72035C8.53345 7.85722 8.23608 8.15522 8.09985 8.53417C8.02295 8.71518 7.98267 8.90943 7.97974 9.10663C7.98267 9.50618 8.13867 9.8888 8.41479 10.1765C8.56421 10.309 8.73047 10.4208 8.90991 10.5084C9.09155 10.5805 9.28491 10.6165 9.47974 10.6136C9.58081 10.6187 9.68188 10.6084 9.78003 10.5834C9.87158 10.565 9.9624 10.54 10.0503 10.5084C10.1433 10.4635 10.2334 10.4134 10.3198 10.3575C10.3989 10.3016 10.4736 10.2413 10.5447 10.1765C10.6099 10.1051 10.6699 10.0293 10.7249 9.95061C10.7805 9.86305 10.8311 9.77254 10.875 9.6791C10.9072 9.5908 10.9321 9.50029 10.9497 9.40758C10.9746 9.30972 10.9849 9.20817 10.9797 9.10663C10.9827 8.9109 10.9475 8.71591 10.875 8.53417C10.7878 8.35389 10.6772 8.18686 10.5447 8.03676Z" fill="#1D1D1D"/>
<path d="M13.7249 4.84184L13.5 4.66083C13.3352 4.5534 13.1521 4.47688 12.9602 4.43494C12.668 4.37386 12.364 4.4055 12.0901 4.52544C11.9106 4.59829 11.748 4.70572 11.6104 4.84184C11.3291 5.12734 11.168 5.5107 11.1599 5.91172C11.1628 6.01253 11.1724 6.11333 11.1899 6.2134L11.28 6.48418C11.3188 6.57763 11.3643 6.66814 11.4148 6.7557C11.4756 6.83443 11.5408 6.91022 11.6104 6.9816C11.748 7.11772 11.9106 7.22515 12.0901 7.298C12.2681 7.38262 12.4629 7.42382 12.6599 7.41867C12.7603 7.41646 12.8606 7.40616 12.9602 7.3885C13.1521 7.34656 13.3352 7.27004 13.5 7.16261C13.5784 7.10668 13.6538 7.04635 13.7249 6.9816C13.7937 6.9139 13.8545 6.83811 13.905 6.7557C13.9607 6.66887 14.0105 6.57763 14.0552 6.48418C14.0867 6.39589 14.1123 6.30538 14.1299 6.2134C14.1548 6.1148 14.165 6.01326 14.1599 5.91172C14.1628 5.71599 14.127 5.521 14.0552 5.33925C13.9731 5.15604 13.8618 4.98827 13.7249 4.84184Z" fill="#1D1D1D"/>
<path d="M7.36523 11.2464C7.29346 11.1772 7.21875 11.1117 7.13965 11.0507C7.05322 10.9992 6.96313 10.9543 6.87012 10.9145L6.59985 10.8248C6.30762 10.763 6.00366 10.7946 5.72974 10.9145C5.54443 10.9911 5.37598 11.1036 5.23535 11.2464C4.96289 11.5304 4.80762 11.9071 4.80029 12.3015C4.80249 12.4024 4.81274 12.5032 4.83032 12.6025C4.87207 12.796 4.94824 12.9792 5.05518 13.1455L5.23535 13.3714C5.38037 13.509 5.54736 13.6209 5.72974 13.7025C5.91138 13.7754 6.10474 13.8114 6.30029 13.8085C6.40064 13.8129 6.50171 13.8033 6.59985 13.7783C6.69214 13.7599 6.78223 13.7349 6.87012 13.7025C6.96313 13.6584 7.05322 13.6084 7.13965 13.5517C7.22241 13.5009 7.29785 13.4406 7.36523 13.3714C7.42969 13.2993 7.48975 13.2243 7.54468 13.1455C7.65234 12.9792 7.72852 12.796 7.77026 12.6025C7.78711 12.5032 7.79736 12.4024 7.80029 12.3015C7.80542 12.1036 7.7644 11.9071 7.68018 11.7283C7.60693 11.5488 7.5 11.3847 7.36523 11.2464Z" fill="#1D1D1D"/>
<path d="M13.7249 11.2464C13.6538 11.1772 13.5784 11.1117 13.5 11.0507C13.418 10.9991 13.333 10.9543 13.2451 10.9145C13.155 10.8851 13.0503 10.8549 12.9602 10.8248C12.668 10.7637 12.364 10.7953 12.0901 10.9145C11.729 11.0764 11.4404 11.3663 11.28 11.7283C11.2031 11.9101 11.1621 12.1043 11.1599 12.3015C11.1628 12.4023 11.1724 12.5032 11.1899 12.6025C11.22 12.693 11.25 12.7982 11.28 12.8887C11.3188 12.9778 11.3643 13.0631 11.4148 13.1455C11.4756 13.2243 11.5408 13.2993 11.6104 13.3714C11.7473 13.512 11.9099 13.6245 12.0901 13.7025C12.271 13.7754 12.4651 13.8114 12.6599 13.8085C12.761 13.8129 12.8621 13.8033 12.9602 13.7783C13.0569 13.7599 13.1521 13.7349 13.2451 13.7025C13.333 13.6584 13.4187 13.6076 13.5 13.5517C13.6633 13.4479 13.8018 13.3096 13.905 13.1455C13.9607 13.0631 14.0105 12.9778 14.0552 12.8887C14.0867 12.7953 14.1123 12.6996 14.1299 12.6025C14.1548 12.5039 14.165 12.4023 14.1599 12.3015C14.1628 12.1051 14.127 11.9108 14.0552 11.7283C13.9768 11.5481 13.8647 11.384 13.7249 11.2464Z" fill="#1D1D1D"/>
<path d="M14.46 9.69455C14.5047 9.78432 14.5501 9.86011 14.5948 9.95061C14.6556 10.0293 14.7208 10.1051 14.7896 10.1765C14.8541 10.2494 14.9303 10.3104 15.0145 10.3575C15.0943 10.4164 15.18 10.4672 15.2701 10.5084C15.3631 10.54 15.4583 10.565 15.555 10.5834C15.648 10.6084 15.744 10.6187 15.8399 10.6136C16.2391 10.6173 16.6229 10.4598 16.9049 10.1765C17.1898 9.89469 17.3465 9.50765 17.3399 9.10663C17.3451 9.01024 17.3348 8.91385 17.3099 8.8204C17.2938 8.72254 17.2689 8.62688 17.2352 8.53417C17.1532 8.35095 17.0418 8.18245 16.9049 8.03676C16.7672 7.90063 16.6038 7.7932 16.4251 7.72035C16.1512 7.60115 15.8473 7.56951 15.555 7.62985C15.4561 7.64604 15.3602 7.67621 15.2701 7.72035C15.1778 7.74979 15.0914 7.79614 15.0145 7.85574C14.9398 7.91608 14.8497 7.97642 14.7896 8.03676C14.5099 8.32152 14.3538 8.70635 14.3546 9.10663C14.3524 9.20744 14.3575 9.30824 14.37 9.40758C14.4 9.49809 14.43 9.60404 14.46 9.69455Z" fill="#1D1D1D"/>
<path d="M17.9698 6.9816C18.0342 7.05444 18.1104 7.11551 18.1946 7.16261C18.2767 7.21853 18.3616 7.26856 18.4495 7.31345C18.5425 7.34509 18.6377 7.37084 18.7352 7.3885C18.8326 7.41352 18.9336 7.42382 19.0347 7.41867C19.4295 7.42235 19.8089 7.26489 20.085 6.9816C20.233 6.84473 20.3465 6.67476 20.4146 6.48418C20.4915 6.30317 20.5325 6.10892 20.5347 5.91172C20.5303 5.50996 20.3685 5.12513 20.085 4.84184C19.9466 4.70572 19.784 4.59829 19.6045 4.52544C19.3313 4.40477 19.0274 4.37313 18.7352 4.43494C18.5425 4.47688 18.3594 4.5534 18.1946 4.66083C18.1199 4.72117 18.0298 4.78151 17.9698 4.84184C17.69 5.12661 17.534 5.51144 17.5347 5.91172C17.5318 6.10745 17.5677 6.30244 17.6394 6.48418C17.7142 6.67182 17.8262 6.84106 17.9698 6.9816Z" fill="#1D1D1D"/>
<path d="M10.875 14.9233C10.834 14.8328 10.7834 14.7474 10.7249 14.6672C10.678 14.5818 10.6172 14.5053 10.5447 14.4413C10.4736 14.3714 10.3989 14.3059 10.3198 14.2456C10.2297 14.2 10.155 14.1551 10.0649 14.1094C9.97485 14.0646 9.87012 14.0491 9.78003 14.0189C9.28418 13.9328 8.77734 14.0896 8.41479 14.4413C8.35474 14.5016 8.29468 14.5921 8.23535 14.6672C8.17529 14.7437 8.12988 14.8305 8.09985 14.9233C8.05664 15.0138 8.02661 15.1102 8.00977 15.2095C7.99292 15.3044 7.98267 15.4001 7.97974 15.4957C7.98047 15.6981 8.02148 15.8975 8.09985 16.0836C8.17236 16.2639 8.28003 16.4273 8.41479 16.5656C8.56055 16.7032 8.72754 16.8158 8.90991 16.8974C9.0022 16.9313 9.09814 16.9563 9.19482 16.9725C9.28784 16.9975 9.38379 17.0078 9.47974 17.0027C9.87964 17.01 10.2649 16.8518 10.5447 16.5656C10.8274 16.2823 10.9841 15.8967 10.9797 15.4957C10.9849 15.3993 10.9746 15.3029 10.9497 15.2095C10.9321 15.1124 10.9072 15.0167 10.875 14.9233Z" fill="#1D1D1D"/>
<path d="M7.69482 18.1182C7.65088 18.0299 7.60034 17.9438 7.54468 17.8621C7.49854 17.7767 7.43774 17.7002 7.36523 17.6362C7.22461 17.492 7.05615 17.3787 6.87012 17.3044C6.30762 17.0807 5.66675 17.2109 5.23535 17.6362C5.17529 17.6958 5.11523 17.7863 5.05518 17.8621C4.94824 18.0277 4.87207 18.2116 4.83032 18.4044C4.81274 18.5037 4.80249 18.6045 4.80029 18.7061C4.80762 19.0997 4.96289 19.4765 5.23535 19.7605C5.51733 20.046 5.89966 20.2086 6.30029 20.213C6.49585 20.2101 6.68994 20.1696 6.87012 20.0924C7.05908 20.0232 7.229 19.9099 7.36523 19.7605C7.64648 19.4831 7.80396 19.102 7.80029 18.7061C7.80469 18.6045 7.79517 18.503 7.77026 18.4044C7.75195 18.3073 7.72705 18.2116 7.69482 18.1182Z" fill="#1D1D1D"/>
<path d="M19.0351 20.213C19.2314 20.2101 19.4248 20.1696 19.605 20.0924C19.966 19.9305 20.2546 19.6406 20.415 19.2785C20.4919 19.0975 20.5329 18.9025 20.5351 18.7061C20.5366 18.3021 20.374 17.9158 20.0854 17.6362C19.7309 17.283 19.2248 17.1307 18.7356 17.2293C18.6382 17.247 18.5429 17.272 18.4499 17.3044C18.3606 17.3492 18.2851 17.3949 18.195 17.4397C18.0361 17.5597 17.8948 17.7017 17.7754 17.8621C17.73 17.9526 17.6853 18.0277 17.6399 18.1182C17.6084 18.2116 17.5835 18.3073 17.5652 18.4044C17.5403 18.503 17.53 18.6045 17.5351 18.7061C17.5315 19.102 17.6882 19.4831 17.9702 19.7605C18.2492 20.0512 18.6338 20.2145 19.0351 20.213Z" fill="#1D1D1D"/>
<path d="M21.1502 16.5656C21.29 16.7098 21.4585 16.8231 21.6453 16.8974C21.8262 16.9703 22.0203 17.0056 22.2151 17.0027C22.6135 17.0041 22.9966 16.8474 23.28 16.5656C23.4155 16.4273 23.5225 16.2639 23.595 16.0836C23.6719 15.8975 23.7129 15.6981 23.7151 15.4957C23.7122 15.1013 23.5562 14.7224 23.28 14.4413C22.8464 14.0182 22.2078 13.8887 21.6453 14.1094C21.4585 14.1838 21.29 14.2971 21.1502 14.4413C20.8682 14.7187 20.7114 15.0999 20.7151 15.4957C20.7107 15.6973 20.7466 15.8967 20.8198 16.0836C20.8982 16.2646 21.0103 16.428 21.1502 16.5656Z" fill="#1D1D1D"/>
<path d="M24.8247 13.7025C25.0064 13.7754 25.1997 13.8114 25.3953 13.8085C25.9981 13.8056 26.5408 13.4406 26.773 12.8821C27.0051 12.3229 26.8821 11.679 26.4602 11.2464C26.0266 10.824 25.3879 10.6945 24.8247 10.9145C24.6357 10.9837 24.4658 11.0977 24.3303 11.2464C23.7488 11.8343 23.7488 12.7835 24.3303 13.3714C24.4702 13.5156 24.6387 13.6282 24.8247 13.7025Z" fill="#1D1D1D"/>
<path d="M89.0456 87.0222L82.1732 83.6043C79.6098 82.3416 77.9889 79.7192 77.9999 76.8517V75.6582C77.9962 71.8702 75.977 68.3736 72.7052 66.4914L64.5973 61.8411C65.2206 60.1825 64.8222 58.3114 63.5771 57.0546L62.4835 55.956C63.8773 54.2327 63.8136 51.7464 62.3341 50.0975L37.0077 21.9503L39.1815 19.7664C39.4628 19.4838 39.621 19.1005 39.621 18.7002C39.621 18.3006 39.4628 17.9173 39.1815 17.6347L34.9394 13.3729C34.6581 13.0903 34.2765 12.9314 33.8788 12.9314C33.5888 12.9395 33.3068 13.0344 33.0702 13.2037C31.393 5.09423 24.0146 -0.526667 15.7895 0.0391753C7.56436 0.604282 1.01651 7.18174 0.454006 15.4457C-0.108494 23.7089 5.48648 31.1215 13.5585 32.8065C13.39 33.0442 13.2956 33.3267 13.2868 33.6189C13.2868 34.0184 13.445 34.4018 13.7262 34.6843L17.9684 38.9454C18.2497 39.2287 18.6313 39.3877 19.0297 39.3877C19.4281 39.3877 19.8097 39.2287 20.091 38.9454L22.2626 36.7623L50.2873 62.2097C51.9228 63.71 54.4079 63.7748 56.1181 62.3606L57.213 63.4606C58.6383 64.9028 60.8524 65.1986 62.6037 64.181L71.2184 69.1227C73.5519 70.4641 74.994 72.9563 74.9999 75.6582V76.8517C74.9853 80.8685 77.258 84.5403 80.8498 86.3047L87.7228 89.7226C87.9294 89.8234 88.1564 89.8749 88.3856 89.8727C89.088 89.8793 89.7003 89.3966 89.86 88.7101C90.0204 88.0236 89.685 87.3172 89.0536 87.0097L89.0456 87.0222ZM7.36221 6.97865C11.1261 3.19656 16.7519 1.99056 21.725 3.89926C26.6981 5.80723 30.0907 10.4738 30.3866 15.8143L29.6366 16.5678C30.1413 16.0594 30.2189 15.2647 29.8219 14.6672C29.4257 14.0704 28.6654 13.8372 28.0048 14.1094C27.8224 14.1919 27.6554 14.3037 27.5097 14.4413C27.2343 14.7224 27.0783 15.1013 27.0746 15.4957C27.0768 15.5973 27.0871 15.6981 27.1046 15.7974C27.1215 15.8967 27.1515 15.9931 27.1947 16.0836C27.2248 16.1763 27.2702 16.2632 27.3302 16.3397C27.3822 16.4206 27.443 16.4964 27.5097 16.5656C27.7939 16.8482 28.1754 17.01 28.5746 17.0181C28.9738 17.0122 29.3539 16.8496 29.6352 16.5656L26.4616 19.7546C26.737 19.4728 26.8922 19.0946 26.8952 18.6995C26.8915 18.4978 26.8505 18.2992 26.7751 18.1123C26.7025 17.932 26.5949 17.7687 26.4601 17.6296C26.0265 17.2072 25.3878 17.0777 24.8246 17.2985C24.6386 17.3728 24.4701 17.4861 24.3302 17.6296C24.1947 17.7687 24.0878 17.932 24.0146 18.1123C23.9391 18.2992 23.8988 18.4978 23.8952 18.6995C23.8981 19.0946 24.0541 19.4728 24.3302 19.7546C24.4657 19.9033 24.6356 20.0173 24.8246 20.0865C25.0055 20.1637 25.1989 20.2042 25.3952 20.2064C25.7943 20.2013 26.1752 20.0394 26.4572 19.7546L23.307 22.9194C23.5597 22.639 23.704 22.2763 23.7121 21.8973C23.7099 21.7009 23.6688 21.5059 23.5919 21.3249C23.5231 21.1387 23.4154 20.9695 23.277 20.8274C23.1276 20.695 22.9613 20.5832 22.7819 20.4963C22.4164 20.3455 22.007 20.3455 21.6422 20.4963C21.268 20.6508 20.9706 20.9489 20.8168 21.3249C20.6769 21.6935 20.6769 22.1011 20.8168 22.4705C20.904 22.6501 21.0146 22.8178 21.1471 22.9672C21.2877 23.107 21.4562 23.2144 21.6422 23.2836C21.8224 23.3609 22.0158 23.4021 22.2121 23.4043C22.5885 23.3962 22.9496 23.252 23.2287 22.9974L20.0792 26.1621C20.362 25.8796 20.5238 25.4962 20.529 25.0952C20.5268 24.8987 20.4857 24.7037 20.4088 24.5227C20.34 24.3329 20.2272 24.1622 20.0792 24.0253C19.4896 23.4506 18.5529 23.4506 17.964 24.0253C17.8205 24.1658 17.7084 24.3358 17.6337 24.5227C17.5619 24.7045 17.526 24.8994 17.529 25.0952C17.5275 25.4955 17.6842 25.8803 17.964 26.1651C18.1017 26.3012 18.265 26.4086 18.4438 26.4814C18.6298 26.558 18.8283 26.5984 19.029 26.6021C19.4223 26.5999 19.7987 26.4439 20.0792 26.1665L16.9049 29.3555C17.1876 29.073 17.3488 28.6904 17.3546 28.2901C17.3473 27.8883 17.1862 27.5057 16.9049 27.2202C16.8361 27.1525 16.7606 27.0922 16.6801 27.0392C16.6032 26.9796 16.5168 26.934 16.4252 26.9038C16.3344 26.8597 16.2384 26.8295 16.1396 26.8133C15.651 26.7213 15.1479 26.8729 14.7897 27.2202C14.6527 27.3659 14.5414 27.5344 14.4601 27.7176C14.3832 27.8986 14.3422 28.0929 14.34 28.2901C14.3371 28.9008 14.7011 29.4527 15.2621 29.6881C15.8239 29.9229 16.4706 29.7948 16.9005 29.3629L16.1505 30.1164C10.8332 29.8184 6.1874 26.4086 4.28897 21.4102C2.39053 16.4118 3.5939 10.7593 7.36221 6.97865ZM19.0304 35.7498L16.9079 33.6189L33.8788 16.5693L35.9999 18.7009L19.0304 35.7498ZM52.2992 59.9736L24.3866 34.6284L34.8866 24.0797L60.1127 52.1239C60.6481 52.7199 60.6254 53.633 60.06 54.2004L54.3603 59.9272C53.7941 60.4894 52.8896 60.51 52.2992 59.9736ZM59.3341 61.3297L58.2736 60.2642L60.3961 58.1318L61.4552 59.1973C62.0412 59.7859 62.0412 60.7403 61.456 61.3289C60.87 61.9183 59.9201 61.9183 59.3341 61.3297Z" fill="#1D1D1D"/>
<path d="M89.376 5.89553C88.9856 5.61224 88.4832 5.53498 88.0261 5.6873L70.0261 11.7151C69.4131 11.9204 69 12.4965 69 13.1455V26.0385C68.0918 25.4962 67.0562 25.207 66 25.2011C62.6865 25.2011 60 27.8994 60 31.2289C60 34.5578 62.6865 37.2567 66 37.2567C69.3135 37.2567 72 34.5578 72 31.2289V14.2316L87 9.20744V20.0107C86.0918 19.4684 85.0562 19.1792 84 19.1733C80.6865 19.1733 78 21.8716 78 25.2011C78 28.53 80.6865 31.2289 84 31.2289C87.3135 31.2289 90 28.53 90 25.2011V7.11772C90 6.63282 89.7671 6.17809 89.376 5.89553ZM66 34.2428C64.3433 34.2428 63 32.8933 63 31.2289C63 29.5638 64.3433 28.215 66 28.215C67.6567 28.215 69 29.5638 69 31.2289C69 32.8933 67.6567 34.2428 66 34.2428ZM84 28.215C82.3433 28.215 81 26.8655 81 25.2011C81 23.536 82.3433 22.1872 84 22.1872C85.6567 22.1872 87 23.536 87 25.2011C87 26.8655 85.6567 28.215 84 28.215Z" fill="#1D1D1D"/>
<path d="M31.0876 55.3983L10.0876 61.4261C9.44385 61.6115 9 62.2024 9 62.8749V78.7818C8.0918 78.2395 7.05615 77.9503 6 77.9444C2.68652 77.9444 0 80.6426 0 83.9722C0 87.301 2.68652 90 6 90C9.31348 90 12 87.301 12 83.9722V70.0417L30 64.9087V72.754C29.0918 72.2117 28.0562 71.9225 27 71.9166C23.6865 71.9166 21 74.6148 21 77.9444C21 81.2732 23.6865 83.9722 27 83.9722C30.3135 83.9722 33 81.2732 33 77.9444V56.8471C33 56.374 32.7788 55.9288 32.4031 55.644C32.0273 55.3593 31.5403 55.2688 31.0876 55.3983ZM6 86.9861C4.34326 86.9861 3 85.6366 3 83.9722C3 82.307 4.34326 80.9583 6 80.9583C7.65674 80.9583 9 82.307 9 83.9722C9 85.6366 7.65674 86.9861 6 86.9861ZM12 66.9086V64.011L30 58.8448V61.7778L12 66.9086ZM27 80.9583C25.3433 80.9583 24 79.6088 24 77.9444C24 76.2792 25.3433 74.9305 27 74.9305C28.6567 74.9305 30 76.2792 30 77.9444C30 79.6088 28.6567 80.9583 27 80.9583Z" fill="#1D1D1D"/>
</svg>
