<svg width="118" height="116" viewBox="0 0 118 116" fill="none" xmlns="http://www.w3.org/2000/svg">
<path d="M103.087 40.6777L70 23.1782C70 23.1782 61 18.1782 59 18.1777C57 18.1773 48 23.1782 48 23.1782L14.9129 40.6777C14.9129 40.6777 0 46.4828 0 53.6178V102.738C0 109.873 6.69009 115.678 14.9129 115.678H103.087C111.31 115.678 118 109.873 118 102.738V53.6178C118 46.4828 103.087 40.6777 103.087 40.6777ZM110.5 49.6777L59 77.0144L8 49.6777L59 23.1782L110.5 49.6777ZM103.087 110.678H14.9129C11.9943 110.678 6.5 105.27 6.5 102.738V54.4625L56.0596 80.6777C56.9254 81.2581 57.963 81.6777 59 81.6777C60.037 81.6777 61.0746 81.2581 61.9404 80.6777L112.5 53.6178V102.738C112.5 105.271 106.006 110.678 103.087 110.678Z" fill="#FDBA3D"/>
<path fill-rule="evenodd" clip-rule="evenodd" d="M82.5417 1.77982C80.1052 3.48682 66.9812 16.4103 65.7027 18.3613C64.0987 20.8098 66.2637 23.0733 68.6892 21.4843C69.3412 21.0568 73.2782 17.3338 77.4382 13.2108C86.4757 4.25332 88.2642 3.30432 93.1837 4.85532C97.0997 6.08982 103.043 12.0333 104.278 15.9493C105.966 21.3038 105.367 22.2408 91.2257 36.3818C76.0422 51.5658 74.8862 52.1468 67.4667 48.3303C61.1612 45.0868 59.7202 49.0143 65.7537 52.9998C69.5442 55.5043 75.2997 55.4438 80.5592 52.8453C83.6172 51.3343 104.225 30.8418 106.993 26.5588C109.539 22.6198 109.879 15.9673 107.749 11.7648C106.363 9.02982 101.607 4.02632 98.2212 1.74082C94.7562 -0.597676 85.9042 -0.575676 82.5417 1.77982ZM60.4382 26.9243C55.9097 28.1683 53.9852 29.6848 42.9352 40.7203C29.3597 54.2773 26.7447 57.9818 28.4727 61.2108C29.5417 63.2083 31.3957 62.4373 32.7187 59.4453C34.5312 55.3473 56.7602 33.1788 60.2492 31.9903C64.5297 30.5318 68.4877 31.5723 72.4552 35.2003C75.4002 37.8928 76.2527 38.3213 77.4217 37.6958C79.1102 36.7918 78.6282 35.4708 75.4272 32.2298C70.0447 26.7803 66.0772 25.3758 60.4382 26.9243ZM67.6497 60.3028C66.2617 61.3873 56.1337 71.4223 54.3182 73.5118C52.5392 75.5598 55.3947 77.9878 57.7597 76.4383C59.1562 75.5228 69.2317 65.5393 70.8317 63.4853C73.2797 60.3423 70.7887 57.8508 67.6497 60.3028Z" fill="black"/>
</svg>
