<svg width="90" height="76" viewBox="0 0 90 76" fill="none" xmlns="http://www.w3.org/2000/svg">
<path d="M86.4496 66.8557L79.8387 57.5988V8.70968H81.5575C82.1586 10.3952 83.7555 11.6129 85.6452 11.6129C88.0459 11.6129 90 9.65875 90 7.25806C90 4.85737 88.0459 2.90323 85.6452 2.90323C83.7555 2.90323 82.1586 4.12094 81.5575 5.80645H62.4194C62.4194 2.60411 59.8152 0 56.6129 0C53.4106 0 50.8064 2.60411 50.8064 5.80645H31.9355C31.9355 2.60411 29.3314 0 26.129 0C22.9267 0 20.3226 2.60411 20.3226 5.80645H8.44246C7.8414 4.12094 6.24449 2.90323 4.35484 2.90323C1.95415 2.90323 0 4.85737 0 7.25806C0 9.65875 1.95415 11.6129 4.35484 11.6129C6.24449 11.6129 7.8414 10.3952 8.44246 8.70968H10.1613V57.5988L3.55036 66.8557C1.53312 67.2342 0 69.0041 0 71.129V75.4839H90V71.129C90 69.0041 88.4669 67.2342 86.4496 66.8557ZM85.6452 5.80645C86.4461 5.80645 87.0968 6.45854 87.0968 7.25806C87.0968 8.05759 86.4461 8.70968 85.6452 8.70968C84.8442 8.70968 84.1936 8.05759 84.1936 7.25806C84.1936 6.45854 84.8442 5.80645 85.6452 5.80645ZM56.6129 2.90323C58.2141 2.90323 59.5161 4.20528 59.5161 5.80645H53.7097C53.7097 4.20528 55.0117 2.90323 56.6129 2.90323ZM56.6129 45V23.2258H65.3226V45H56.6129ZM65.3226 20.3226H56.6129C55.0117 20.3226 53.7097 21.6246 53.7097 23.2258H50.8064V17.4194H53.9592C56.5328 17.4194 58.976 16.5702 60.9677 15.0024C62.9595 16.5702 65.4027 17.4194 67.9763 17.4194H71.129V23.2258H68.2258C68.2258 21.6246 66.9238 20.3226 65.3226 20.3226ZM26.129 2.90323C27.7302 2.90323 29.0323 4.20528 29.0323 5.80645H23.2258C23.2258 4.20528 24.5279 2.90323 26.129 2.90323ZM24.2713 33.3871H36.695L41.9097 49.0323C40.6381 50.3826 36.8595 53.7097 30.4839 53.7097C24.1054 53.7097 20.3254 50.3798 19.0567 49.0323L24.2713 33.3871ZM36.3733 30.4839H24.5959C24.1954 26.9349 22.3349 23.6454 19.4529 21.4836L18.871 21.0484V17.4194H23.3725C24.0473 20.7273 26.9782 23.2258 30.4839 23.2258C33.9896 23.2258 36.9204 20.7273 37.5952 17.4194H42.0968V21.0484L41.5177 21.4836C38.6329 23.6454 36.7737 26.9349 36.3733 30.4839ZM30.4839 20.3226C28.4518 20.3226 26.7549 18.9192 26.2772 17.0331C27.7997 16.6468 29.2371 15.9855 30.4839 15.0038C31.7321 15.9855 33.1681 16.6489 34.6906 17.0331C34.2128 18.9192 32.516 20.3226 30.4839 20.3226ZM4.35484 8.70968C3.5539 8.70968 2.90323 8.05759 2.90323 7.25806C2.90323 6.45854 3.5539 5.80645 4.35484 5.80645C5.15578 5.80645 5.80645 6.45854 5.80645 7.25806C5.80645 8.05759 5.15578 8.70968 4.35484 8.70968ZM29.0323 8.70968V12.4245C27.4906 13.7712 25.5429 14.5161 23.4753 14.5161H15.9677V22.5L17.71 23.8063C20.2007 25.6747 21.7005 28.629 21.7629 31.7363L15.8026 49.6164L16.2583 50.226C16.454 50.4868 21.1561 56.6129 30.4839 56.6129C39.8116 56.6129 44.5138 50.4868 44.7094 50.226L45.1652 49.6178L39.2049 31.7377C39.2673 28.6304 40.7671 25.6761 43.2592 23.8077L45 22.5V14.5161H37.4924C35.4249 14.5161 33.4757 13.7712 31.9355 12.4245V8.70968H59.5161V12.4245C57.9745 13.7712 56.0267 14.5161 53.9592 14.5161H47.9032V26.129H53.7097V53.7097H56.6129V47.9032H59.5161V53.7097H62.4194V47.9032H65.3226V53.7097H68.2258V26.129H74.0323V14.5161H67.9763C65.9088 14.5161 63.9596 13.7712 62.4194 12.4245V8.70968H76.9355V57.5988L70.3246 66.8557C68.3073 67.2342 66.7742 69.0041 66.7742 71.129V72.5807H23.2258V71.129C23.2258 69.0041 21.6927 67.2342 19.6754 66.8557L13.0645 57.5988V8.70968H29.0323ZM72.5807 72.5807H69.6774V71.129C69.6774 70.3295 70.3281 69.6774 71.129 69.6774C71.93 69.6774 72.5807 70.3295 72.5807 71.129V72.5807ZM18.871 69.6774C19.6719 69.6774 20.3226 70.3295 20.3226 71.129V72.5807H17.4194V71.129C17.4194 70.3295 18.07 69.6774 18.871 69.6774ZM5.80645 72.5807H2.90323V71.129C2.90323 70.3295 3.5539 69.6774 4.35484 69.6774C5.15578 69.6774 5.80645 70.3295 5.80645 71.129V72.5807ZM6.68323 67.4624L11.6129 60.563L16.5426 67.4624C15.3277 68.2357 14.5161 69.586 14.5161 71.129V72.5807H8.70968V71.129C8.70968 69.586 7.89811 68.2357 6.68323 67.4624ZM81.2903 71.129V72.5807H75.4839V71.129C75.4839 69.586 74.6723 68.2357 73.4574 67.4624L78.3871 60.563L83.3168 67.4624C82.1019 68.2357 81.2903 69.586 81.2903 71.129ZM87.0968 72.5807H84.1936V71.129C84.1936 70.3295 84.8442 69.6774 85.6452 69.6774C86.4461 69.6774 87.0968 70.3295 87.0968 71.129V72.5807Z" fill="#1D1D1D"/>
</svg>
