<svg width="90" height="77" viewBox="0 0 90 77" fill="none" xmlns="http://www.w3.org/2000/svg">
<path d="M60.7593 35.6251C60.753 35.6251 60.747 35.6251 60.7407 35.6251H53.2037V28.2032C53.2139 26.7063 51.9868 25.4846 50.463 25.4746C50.4567 25.4746 50.4505 25.4746 50.4444 25.4746H39.5556C38.0317 25.4746 36.7963 26.6881 36.7963 28.185V35.6069H29.2593C27.7354 35.5969 26.4917 36.802 26.4815 38.2989C26.4815 38.3112 26.4815 38.3232 26.4815 38.3355V49.0136C26.4815 50.5104 27.7169 51.724 29.2407 51.724H36.7963V59.1277C36.7861 60.6246 38.0132 61.8463 39.537 61.8563C39.5433 61.8563 39.5495 61.8563 39.5556 61.8563H50.4259C51.9498 61.8563 53.1852 60.6428 53.1852 59.1459V51.724H60.7407C62.2646 51.734 63.5083 50.5286 63.5185 49.0318C63.5185 49.0256 63.5185 49.0195 63.5185 49.0136V38.3355C63.5185 36.8386 62.2833 35.6251 60.7593 35.6251ZM59.8148 48.0858H51.3519C50.3292 48.0858 49.5 48.9003 49.5 49.9049V58.2182H40.5V49.9049C40.5 48.9003 39.6708 48.0858 38.6482 48.0858H30.1852V39.2632H38.6482C39.6708 39.2632 40.5 38.4487 40.5 37.4442V29.1127H49.4815V37.426C49.4815 38.4306 50.3106 39.2451 51.3333 39.2451H59.8148V48.0858Z" fill="#1D1D1D"/>
<path d="M77.2222 11.8678H61.963V5.46457C62.059 2.54266 59.7255 0.0973462 56.7509 0.00298095C56.5993 -0.00179416 56.4477 -0.000430048 56.2963 0.00730108H33.7037C30.7315 -0.14482 28.1965 2.09857 28.0414 5.01798C28.0336 5.16669 28.0319 5.31563 28.037 5.46457V11.8314H12.7778C6.88889 11.8314 0 15.1239 0 24.3831V63.9483C0 73.2074 6.88889 76.5 12.7778 76.5H77.2222C83.1111 76.5 90 73.2074 90 63.9483V24.4195C90 15.1603 83.1296 11.8678 77.2222 11.8678ZM31.7407 5.46457C31.7407 4.93703 31.7407 3.51814 33.7222 3.51814H56.2963C58.2778 3.51814 58.2778 4.91884 58.2778 5.46457V11.8314H31.7407V5.46457ZM86.2963 63.9483C86.2963 71.9887 79.963 72.8618 77.2222 72.8618H12.7778C10.0556 72.8618 3.7037 71.9887 3.7037 63.9483V24.4195C3.7037 16.3791 10.037 15.5059 12.7778 15.5059H77.2222C79.9445 15.5059 86.2963 16.3791 86.2963 24.4195V63.9483Z" fill="#1D1D1D"/>
</svg>
