<svg width="90" height="90" viewBox="0 0 90 90" fill="none" xmlns="http://www.w3.org/2000/svg">
<path fill-rule="evenodd" clip-rule="evenodd" d="M5.8825 14.3685C5.754 28.304 5.72 28.741 4.75 28.881C4.2 28.9605 2.9065 29.2805 1.875 29.5925L0 30.16V33.046C0 35.6445 0.141 36.0325 1.4175 36.941C2.4375 37.6675 3.804 37.9925 6.2925 38.1005L9.75 38.25L10.0645 40.5C10.616 44.4415 11.8935 47.455 13.8415 49.4105C14.8825 50.4555 14.6635 50.7525 11.906 52.0395C8.4085 53.6715 3.5625 58.5935 2.068 62.031C1.418 63.5265 0.6865 65.1405 0.443 65.618C0.1995 66.0955 0 68.177 0 70.243C0 73.9595 0.0215 74.0215 2 76L4 78V84V90H24.0195H44.0385L43.8385 79.625C43.572 65.7985 43.248 64.278 39.336 58.5C37.42 55.67 36.1215 54.533 32.1615 52.217C30.4225 51.2 29 50.2155 29 50.0285C29 49.8415 29.4115 49.2465 29.915 48.7065C32.0135 46.454 32.7555 44.726 33 41.525L33.25 38.25L60.5 37.9865C75.4875 37.8415 88.256 37.534 88.875 37.303C89.891 36.924 90 36.552 90 33.471C90 29.6275 89.8225 29.4015 86.5 29.013L84.25 28.75L84.1175 14.375L83.9845 0H65H46.0155L45.8825 14.375C45.7685 26.7605 45.646 28.75 45 28.75C44.354 28.75 44.2315 26.7605 44.1175 14.375L43.9845 0H25H6.0155L5.8825 14.3685ZM17 6L17.25 8.75H24.5H31.75L32 6L32.25 3.25H36.5H40.75V16V28.75H36.5H32.25L32 26L31.75 23.25L25.3065 23.1095C17.8545 22.947 17.1515 23.2455 16.901 26.679L16.75 28.75H13H9.25L9.116 16.5095C9.042 9.777 9.095 3.9735 9.2335 3.6125C9.417 3.134 10.4715 2.996 13.118 3.103L16.75 3.25L17 6ZM28.75 4.5C28.75 5.7015 28.6135 5.7555 25.2205 5.895C22.2275 6.018 21.555 5.89 20.7965 5.0515C19.3105 3.4095 20.228 2.9485 24.6665 3.1055C28.6505 3.2465 28.75 3.2805 28.75 4.5ZM58 6L58.25 8.75L64.6935 8.8905C72.1455 9.053 72.8485 8.7545 73.099 5.321L73.25 3.25H77H80.75V16V28.75H77H73.25L73 26L72.75 23.25H65.5H58.25L58 26L57.75 28.75H53.5H49.25L49.116 16.5095C49.042 9.777 49.095 3.974 49.233 3.614C49.4185 3.1305 50.5645 2.9975 53.617 3.1045L57.75 3.25L58 6ZM69.7695 3.5315C69.95 3.824 69.7035 4.499 69.2215 5.0315C68.077 6.2965 61.6495 6.471 61.181 5.25C60.4885 3.4455 61.3345 3 65.455 3C67.7305 3 69.582 3.228 69.7695 3.5315ZM28.75 27.5C28.75 28.721 28.6535 28.7535 24.617 28.8955C20.303 29.047 19.458 28.6335 20.1885 26.7295C20.4285 26.1045 21.264 25.9865 24.617 26.1045C28.6535 26.2465 28.75 26.279 28.75 27.5ZM69.75 27.5C69.75 28.721 69.6535 28.7535 65.617 28.8955C62.264 29.0135 61.4285 28.8955 61.1885 28.2705C60.458 26.3665 61.303 25.953 65.617 26.1045C69.6535 26.2465 69.75 26.279 69.75 27.5ZM13.5 32.4805C13.5 32.745 13.0075 33.42 12.4055 33.9805C11.4975 34.827 10.6455 35 7.39 35C3.3375 35 2.491 34.5475 3.181 32.75C3.41 32.1525 4.487 32 8.4845 32C11.359 32 13.5 32.205 13.5 32.4805ZM25.998 33.059C28.7355 34.5975 30 37.155 30 41.1535C30 44.368 29.9625 44.4585 27.7105 46.7105C25.448 48.973 25.3815 49 22.0855 48.998C17.848 48.996 15.991 47.9355 14.2675 44.5345C12.731 41.502 12.6635 39.308 14.0385 37.0525C15.3335 34.929 15.929 34.3335 18.0525 33.0385C20.2855 31.6775 23.5545 31.6855 25.998 33.059ZM86.75 33.5V34.75L59.724 34.8795C33.0895 35.0065 32.682 34.9935 31.599 33.985C30.9945 33.4215 30.5 32.743 30.5 32.4765C30.5 32.1675 40.712 32.0385 58.625 32.121L86.75 32.25V33.5ZM26.9345 53.105C30.3515 54.244 34.052 56.409 35.675 58.2185C36.9795 59.673 39.567 64.8735 40.1685 67.25C40.4465 68.35 40.6915 73.1875 40.712 78L40.75 86.75H38.5H36.25L36.1145 76.636L35.9795 66.522L31.7045 62.2475L27.43 57.973L20.34 58.1115L13.25 58.25L13 63L12.75 67.75L11 68C9.5335 68.2095 9.25 68.4525 9.25 69.5V70.75L15.229 70.892C21.6595 71.044 23.199 71.6125 22.897 73.7225C22.7555 74.7105 22.399 74.755 13.6435 74.886L4.5375 75.0225L3.7685 73.536C1.0035 68.1885 6.156 57.9715 13.493 54.2535C14.8535 53.564 16.4805 52.9965 17.1085 52.9925C17.7365 52.988 18.5875 52.7665 19 52.5C20.2465 51.6945 23.43 51.937 26.9345 53.105ZM46.8275 55.9145C46.0925 56.7265 46 58.683 46 73.4145V90H68H90V72.5V55H68.8275C48.951 55 47.6045 55.056 46.8275 55.9145ZM61 61L61.25 63.75L67.6935 63.8905C75.1455 64.053 75.8485 63.7545 76.099 60.321L76.25 58.25H81.5H86.75V72.5V86.75H68H49.25L49.1165 73.007C49.0435 65.4485 49.0955 58.9725 49.2325 58.6155C49.4205 58.1255 50.856 58.0015 55.1155 58.1085L60.75 58.25L61 61ZM72.75 59.5C72.75 60.721 72.6535 60.7535 68.617 60.8955C64.303 61.047 63.458 60.6335 64.1885 58.7295C64.4285 58.1045 65.264 57.9865 68.617 58.1045C72.6535 58.2465 72.75 58.279 72.75 59.5ZM26 64.5L26.25 67.75L29.5 68L32.75 68.25V77.5V86.75H24.5H16.25V82.5V78.25L19.828 78.104C22.9055 77.9785 23.587 77.777 24.703 76.661C26.682 74.6815 26.5015 72.1015 24.223 69.823C22.6225 68.2225 22.1395 68.0315 19.348 67.898L16.25 67.75L16.0965 65.0595C15.86 60.9095 15.819 60.9415 21.1165 61.106L25.75 61.25L26 64.5ZM70.1865 75.7355C70.025 76.156 70.025 76.844 70.1865 77.2645C70.433 77.9075 71.535 78.007 77.115 77.8895L83.75 77.75V76.5V75.25L77.115 75.1105C71.535 74.993 70.433 75.0925 70.1865 75.7355ZM12.75 82.5V86.75H10H7.25L7.101 83.316C6.913 78.988 7.684 77.8775 10.724 78.101L12.75 78.25V82.5ZM70.1945 81.715C69.6965 83.0125 70.394 84.0845 71.623 83.91C72.449 83.7925 72.75 83.4165 72.75 82.5C72.75 81.5835 72.449 81.2075 71.623 81.09C70.9465 80.994 70.375 81.244 70.1945 81.715ZM75.7505 81.9995C75.092 82.727 74.9785 83.1785 75.3585 83.5585C76.2795 84.4795 77.75 83.8495 77.75 82.535C77.75 80.954 76.902 80.727 75.7505 81.9995ZM81.1945 81.715C80.6965 83.0125 81.394 84.0845 82.623 83.91C83.449 83.7925 83.75 83.4165 83.75 82.5C83.75 81.5835 83.449 81.2075 82.623 81.09C81.9465 80.994 81.375 81.244 81.1945 81.715Z" fill="black"/>
</svg>
