<svg width="122" height="116" viewBox="0 0 122 116" fill="none" xmlns="http://www.w3.org/2000/svg">
<path d="M63.9869 21.2339C64.0995 18.0903 63.4871 14.9629 62.1972 12.0939C60.9073 9.22481 58.9745 6.69111 56.5483 4.68888C54.1221 2.68665 51.2677 1.26962 48.2061 0.547486C45.1444 -0.174649 41.9576 -0.182514 38.8925 0.5245C35.8273 1.23151 32.9659 2.63444 30.5299 4.62466C28.0939 6.61489 26.1485 9.13903 24.8445 12.0017C23.5404 14.8643 22.9127 17.9886 23.0098 21.1328C23.1069 24.277 23.9262 27.3566 25.4045 30.1333L31.1692 27.0644C30.1619 25.1723 29.6036 23.0737 29.5374 20.9312C29.4712 18.7887 29.899 16.6597 30.7876 14.709C31.6762 12.7583 33.0019 11.0383 34.6618 9.68212C36.3218 8.32593 38.2716 7.36994 40.3603 6.88816C42.449 6.40638 44.6206 6.41174 46.7068 6.90383C48.7931 7.39591 50.7382 8.36151 52.3915 9.72588C54.0447 11.0903 55.3618 12.8168 56.2408 14.7718C57.1198 16.7269 57.537 18.858 57.4603 21.0001L63.9869 21.2339Z" fill="#FDBA3D"/>
<path fill-rule="evenodd" clip-rule="evenodd" d="M89.998 12.9573C89.0355 13.4843 87.9565 13.9248 87.6005 13.9363C86.71 13.9653 79.4465 18.8758 78.391 20.1628C77.92 20.7373 76.6695 22.4448 75.613 23.9573C73.476 27.0153 73.9355 26.9093 67.248 25.8903C60.741 24.8988 50.646 25.3193 44.248 26.8478C42.393 27.2908 37.645 28.9123 33.498 30.5188C30.7135 31.5978 21.4415 37.9313 19.2225 40.2703C18.1085 41.4448 16.421 43.7683 15.4725 45.4338C14.524 47.0988 13.3575 49.1358 12.8805 49.9593C11.821 51.7883 10.795 51.8413 8.36951 50.1928C5.96651 48.5603 4.99801 46.6253 4.99801 43.4573C4.99801 40.3628 5.86651 38.5578 8.21851 36.7638C10.1935 35.2573 10.46 34.0308 9.08351 32.7848C7.88751 31.7023 7.10551 31.7433 5.05051 32.9958C1.12551 35.3888 0.00200777 37.5798 7.76984e-06 42.8488C-0.00149223 46.2723 0.213508 47.4163 1.24151 49.4448C2.73001 52.3818 4.39151 54.1278 6.93201 55.4238C9.78701 56.8803 10.147 57.5358 9.75651 60.5678C8.95001 66.8223 9.38851 73.4443 10.941 78.4778C12.2195 82.6213 17.4045 89.8928 21.765 93.6563C24.517 96.0313 24.5925 96.1643 24.287 98.0768C24.1135 99.1618 23.5275 100.919 22.985 101.983C22.439 103.053 21.998 104.914 21.998 106.148C21.998 108.13 22.2525 108.633 24.2875 110.668C25.5465 111.927 26.893 112.957 27.2795 112.957C27.666 112.957 29.3755 113.632 31.0785 114.457C33.643 115.699 34.7955 115.957 37.785 115.957C41.2615 115.957 41.449 115.895 42.882 114.263C43.7005 113.331 44.7665 111.308 45.2505 109.769C46.356 106.254 46.9525 105.74 49.366 106.222C50.401 106.429 55.7445 106.67 61.24 106.758C72.1195 106.931 72.2005 106.954 72.819 109.969C72.961 110.663 73.8495 112.294 74.7925 113.594L76.5075 115.957H80.1645C83.2055 115.957 84.342 115.705 86.9175 114.457C88.6205 113.632 90.33 112.957 90.7165 112.957C91.103 112.957 92.4495 111.927 93.7085 110.668C95.784 108.592 95.9965 108.16 95.9805 106.043C95.9705 104.758 95.641 103.145 95.248 102.457C93.8825 100.069 94.276 99.1448 97.623 96.8798C101.604 94.1863 105.278 90.3628 107.467 86.6343C110.109 82.1343 110.324 81.9583 113.201 81.9498C116.832 81.9388 119.54 80.8773 120.873 78.9423C121.941 77.3918 121.998 76.8378 121.998 67.9768V58.6443L120.623 57.3618C118.517 55.3973 117.321 54.9573 114.092 54.9573C110.74 54.9573 110.455 54.7408 109.306 51.3248C107.008 44.4888 100.979 36.9848 95.5925 34.2553C92.484 32.6798 91.7915 31.8238 92.22 30.0853C92.407 29.3273 92.7565 27.6948 92.9975 26.4573C93.7565 22.5558 94.3405 20.2773 95.1745 17.9573C96.1395 15.2733 96.218 13.3773 95.398 12.5573C94.5165 11.6758 91.9975 11.8628 89.998 12.9573ZM88.6595 21.5063C88.6105 22.1668 88.302 23.7198 87.9735 24.9573C87.062 28.3918 86.803 34.3698 87.5285 35.2438C87.8645 35.6488 89.879 36.8853 92.0055 37.9913C96.888 40.5318 99.3145 42.6228 101.389 46.0763C103.215 49.1163 104.998 53.6398 104.998 55.2318C104.998 56.3108 106.948 58.4238 108.84 59.3963C109.441 59.7048 111.281 59.9573 112.929 59.9573C115.571 59.9573 116.048 60.1133 116.962 61.2748C117.876 62.4368 117.998 63.2813 117.998 68.4313C117.998 74.1758 117.976 74.2918 116.596 75.6138C115.363 76.7953 114.794 76.9573 111.884 76.9573C107.742 76.9573 106.502 77.8838 103.187 83.4573C100.421 88.1068 98.3465 90.3488 94.2585 93.1063C88.7335 96.8328 87.943 98.7588 90.1075 103.214C91.376 105.825 91.1255 106.631 88.5835 108.12C86.4685 109.359 82.0095 110.957 80.6665 110.957C79.2845 110.957 77.6625 108.925 76.959 106.313C76.3295 103.975 74.2155 101.656 72.2675 101.167C71.5205 100.98 70.0855 101.095 69.0785 101.424C67.261 102.017 57.2125 101.905 48.457 101.192L44.666 100.884L43.103 102.664C42.2435 103.643 41.305 105.318 41.0175 106.385C40.332 108.931 38.6965 110.959 37.3365 110.95C35.039 110.935 28.757 108.224 27.495 106.704C26.9275 106.02 26.92 105.603 27.45 104.292C31.094 95.2813 31.185 95.7823 24.691 89.1378C17.14 81.4113 14.3515 75.6693 14.4055 67.9573C14.456 60.6933 16.2615 53.6713 19.4105 48.4918C21.834 44.5058 23.897 42.3928 28.195 39.4943C41.177 30.7393 53.581 28.6288 73.801 31.7333C76.0795 32.0833 75.8175 32.3058 79.748 26.6818C81.7145 23.8688 87.0665 19.7218 88.2165 20.1208C88.509 20.2218 88.708 20.8453 88.6595 21.5063ZM88.947 56.1023C87.365 57.1683 87.248 57.4333 87.248 59.9573C87.248 62.4813 87.365 62.7463 88.947 63.8123C91.4035 65.4678 93.061 65.2943 95.198 63.1573C96.188 62.1673 96.998 61.0273 96.998 60.6243C96.998 58.4948 93.8645 54.9573 91.9785 54.9573C91.2455 54.9573 89.8815 55.4723 88.947 56.1023Z" fill="black"/>
</svg>
