<svg width="90" height="81" viewBox="0 0 90 81" fill="none" xmlns="http://www.w3.org/2000/svg">
<path d="M34.8011 30.2747C34.0429 29.4449 32.9635 28.9588 31.8397 28.9414C29.5793 28.9124 27.7094 30.7145 27.671 32.9731C27.6587 33.7012 28.239 34.3013 28.9669 34.3136C28.9746 34.3138 28.982 34.3138 28.9898 34.3138C29.7075 34.3138 30.2953 33.7381 30.3074 33.0176C30.3209 32.211 30.984 31.5637 31.7984 31.5778C32.205 31.5841 32.5799 31.7529 32.8543 32.0531C33.3454 32.5908 34.1795 32.6284 34.7169 32.1373C35.2544 31.6463 35.2922 30.8123 34.8011 30.2747Z" fill="#1D1D1D"/>
<path d="M41.8103 34.5713C41.4062 33.6214 40.6196 32.8717 39.6516 32.5143C37.705 31.7962 35.535 32.7941 34.8137 34.7385C34.5604 35.4212 34.9087 36.1799 35.5912 36.4332C35.7424 36.4892 35.8972 36.5158 36.0495 36.5158C36.5851 36.5158 37.0885 36.1871 37.2857 35.6555C37.5023 35.0716 38.155 34.7727 38.7386 34.9881C39.0319 35.0964 39.2612 35.3148 39.3837 35.6031C39.6686 36.273 40.4431 36.5856 41.1128 36.3005C41.7831 36.0155 42.0951 35.2414 41.8103 34.5713Z" fill="#1D1D1D"/>
<path d="M50.3121 22.8951C49.7967 22.3806 48.962 22.3816 48.4478 22.897L47.205 24.1422C46.6907 24.6576 46.6916 25.4924 47.207 26.0066C47.4641 26.2634 47.8011 26.3917 48.1381 26.3917C48.4759 26.3917 48.8138 26.2627 49.0713 26.0046L50.3141 24.7594C50.8284 24.244 50.8275 23.4092 50.3121 22.8951Z" fill="#1D1D1D"/>
<path d="M42.1103 39.9149H40.3532C39.6249 39.9149 39.0349 40.5051 39.0349 41.2332C39.0349 41.9613 39.6249 42.5516 40.3532 42.5516H42.1103C42.8386 42.5516 43.4286 41.9613 43.4286 41.2332C43.4286 40.5051 42.8386 39.9149 42.1103 39.9149Z" fill="#1D1D1D"/>
<path d="M55.5786 39.9149H53.8213C53.0931 39.9149 52.503 40.5051 52.503 41.2332C52.503 41.9613 53.0932 42.5516 53.8213 42.5516H55.5786C56.3067 42.5516 56.897 41.9613 56.897 41.2332C56.897 40.5051 56.3067 39.9149 55.5786 39.9149Z" fill="#1D1D1D"/>
<path d="M89.9577 63.6862L89.6144 61.8331C89.3955 60.6491 88.3616 59.7897 87.1559 59.7897C87.0046 59.7897 86.852 59.8036 86.7019 59.8312L79.7128 61.1151L82.8779 58.9992C83.7074 58.4448 84.1267 57.453 83.9458 56.4692C83.8955 56.1997 83.8013 55.9411 83.6649 55.6991L82.7071 54.003C82.3789 53.4203 81.8192 52.9873 81.1732 52.8158C80.8568 52.7314 80.526 52.7126 80.2033 52.7546C80.5557 50.8094 80.7375 48.8227 80.7375 46.8004C80.7375 45.903 80.1978 45.1308 79.427 44.7879C80.4342 42.3923 80.503 39.6498 79.5073 37.1382C79.4267 36.934 79.3068 36.7517 79.1516 36.5963C78.9976 36.4423 78.8174 36.3233 78.613 36.2412C77.4199 35.7661 76.1661 35.5253 74.8862 35.5253C74.7226 35.5253 74.5596 35.5295 74.3972 35.5372C74.2146 31.8576 71.1692 28.9201 67.4514 28.9201C66.9619 28.9201 66.4845 28.9722 66.0234 29.0692C66.3437 27.1532 66.155 25.1488 65.4089 23.2669C65.3287 23.06 65.2083 22.8743 65.0446 22.708C64.8871 22.5505 64.7024 22.4291 64.4974 22.3477C63.2123 21.8358 61.8616 21.5764 60.4828 21.5764C58.4058 21.5764 56.4189 22.1603 54.7036 23.2459C54.077 21.4306 53.0436 19.7265 51.5997 18.2793C51.1768 17.8556 50.6143 17.6222 50.0157 17.6222C49.4172 17.6222 48.8547 17.8556 48.4313 18.2796L42.0481 24.6773C40.8669 23.6237 39.3125 22.9939 37.6253 22.9939C37.2425 22.9939 36.8559 23.0274 36.4764 23.0935C35.1013 23.3329 33.8358 24.006 32.8657 24.9918C31.6217 24.3915 30.1967 24.1867 28.8271 24.4251C28.5259 24.4775 28.2335 24.5513 27.9498 24.6413V19.7113C27.9498 16.3163 25.2212 13.5493 21.8458 13.491V10.695C22.8791 10.5163 23.668 9.61573 23.668 8.53222V2.19726C23.668 0.985778 22.6824 0 21.4707 0H10.7497C9.53803 0 8.55243 0.985778 8.55243 2.19726V8.53222C8.55243 9.61573 9.34133 10.5163 10.3746 10.695V13.4906C6.99923 13.5488 4.27077 16.3158 4.27077 19.711V58.1887C1.63863 60.5657 0 63.8825 0 67.5504C0 74.7655 6.3325 80.6355 14.1164 80.6355L66.8835 80.62C68.6845 80.6193 70.3783 79.8278 71.5304 78.4486C72.6526 77.106 73.1295 75.3621 72.8547 73.6422L83.394 75.5363C83.5399 75.5625 83.6893 75.5758 83.8375 75.5758C84.3631 75.5758 84.8667 75.4145 85.2932 75.1097C85.8414 74.718 86.2125 74.1118 86.3115 73.4468L86.5969 71.5313C86.6381 71.2569 86.6335 70.9806 86.5834 70.7097C86.402 69.7302 85.6562 68.9531 84.6832 68.7302L80.9684 67.878L87.9506 66.5954C88.6091 66.4744 89.1804 66.1048 89.5594 65.5544C89.9376 65.0054 90.079 64.342 89.9577 63.6862ZM74.8862 38.1616C75.6799 38.1616 76.4602 38.2873 77.2104 38.535C77.8808 40.5765 77.6298 42.7785 76.5801 44.5975H73.0286L74.1618 43.4616C74.6762 42.9462 74.6751 42.1114 74.1596 41.5971C73.644 41.0827 72.8092 41.0836 72.2952 41.5992L71.6956 42.2002C71.4146 41.2747 70.9238 40.4461 70.2787 39.7663C71.5872 38.7273 73.1935 38.1616 74.8862 38.1616ZM67.4514 31.5565C69.8324 31.5565 71.7693 33.4992 71.7693 35.8872C71.7693 35.9315 71.7672 35.9753 71.766 36.0192C70.3762 36.4711 69.0953 37.2261 68.0028 38.2514C67.829 38.1855 67.6527 38.1244 67.4716 38.0743C67.086 35.9909 65.682 34.321 63.8274 33.5411C64.5971 32.3486 65.9327 31.5565 67.4514 31.5565ZM60.4826 24.2127C61.378 24.2127 62.258 24.3576 63.1059 24.6441C63.7874 26.6705 63.6482 28.8472 62.7799 30.7326C62.066 31.3828 61.4868 32.1791 61.091 33.0742C60.8556 33.0879 60.6202 33.1139 60.3877 33.1543C59.3546 33.3342 58.3913 33.7824 57.5852 34.4324C57.3103 33.9297 56.9737 33.4658 56.588 33.0482L59.6113 30.0181C60.1256 29.5027 60.1245 28.6679 59.609 28.1537C59.0936 27.6394 58.2588 27.6403 57.7445 28.1558L54.4401 31.4677C53.8114 31.1705 53.1318 30.9638 52.4176 30.8671C52.7261 29.2938 53.4895 27.8115 54.6704 26.6278C56.2241 25.0704 58.2883 24.2127 60.4826 24.2127ZM50.3805 44.5975H49.2377C49.0453 44.1078 48.5694 43.7606 48.0113 43.7606C47.4532 43.7606 46.9774 44.1079 46.7849 44.5975H45.4405C45.7527 44.0891 45.6896 43.4155 45.2489 42.9757C44.7335 42.4614 43.8988 42.4623 43.3844 42.9777L42.1418 44.2229C42.0302 44.3347 41.9444 44.4621 41.8813 44.5975H39.198C38.1931 43.0554 37.5798 41.2351 37.5072 39.277H58.4226C58.35 41.2351 57.7367 43.0554 56.7318 44.5975H53.9395C53.8766 44.4621 53.7905 44.3345 53.679 44.2227L52.4366 42.9775C51.9221 42.4623 51.0877 42.4609 50.5723 42.9754C50.1312 43.4152 50.0681 44.0889 50.3805 44.5975ZM47.3143 36.6402C47.8113 34.7986 49.4912 33.4396 51.4821 33.4396C53.4732 33.4396 55.1531 34.7988 55.65 36.6402H47.3143ZM50.0103 20.4296C51.2643 21.7848 52.0935 23.3939 52.5001 25.0853C51.827 25.8167 51.2678 26.625 50.8268 27.4851C50.6266 27.3624 50.3919 27.2905 50.14 27.2905H48.3833C47.6552 27.2905 47.0649 27.8807 47.0649 28.6088C47.0649 29.3369 47.6552 29.9272 48.3833 29.9272H49.9243C49.8377 30.2912 49.7704 30.6597 49.7215 31.0309C49.198 31.1684 48.6981 31.3642 48.2302 31.6134C47.3514 30.097 45.8963 28.9669 44.1723 28.5136C44.1717 28.5099 44.171 28.5062 44.1703 28.5025C44.067 27.9059 43.8866 27.3399 43.6407 26.8138L50.0103 20.4296ZM26.1783 32.3257C26.101 32.1095 26.0424 31.8877 26.0039 31.6651C25.6258 29.4853 27.0954 27.4026 29.2791 27.0224C29.5093 26.9823 29.7433 26.9619 29.9743 26.9619C30.8428 26.9619 31.6729 27.239 32.3744 27.763C32.6646 27.9799 33.0316 28.0676 33.3888 28.0057C33.746 27.9437 34.0619 27.7375 34.2623 27.4353C34.8812 26.5017 35.8281 25.8823 36.9285 25.6907C37.1593 25.6504 37.3938 25.6302 37.6253 25.6302C39.5786 25.6302 41.2387 27.0277 41.5723 28.9534C41.6106 29.174 41.6303 29.4039 41.6307 29.6368C41.6319 30.3192 42.1538 30.888 42.8337 30.9478C44.3076 31.0773 45.5623 32.0049 46.144 33.3117C45.3653 34.2463 44.8255 35.3875 44.6205 36.6402H37.102C36.1672 36.6402 35.3651 37.2173 35.0306 38.034C33.3765 36.9074 31.4271 36.3005 29.3842 36.3005C28.1043 36.3005 26.8505 36.5415 25.6566 37.0168C25.4541 37.0976 25.273 37.217 25.1187 37.3713C24.9623 37.5278 24.8422 37.7111 24.7634 37.9122C24.4601 38.6774 24.2577 39.464 24.1484 40.2555C23.6759 39.7176 23.343 39.0488 23.2129 38.2982C22.9028 36.5095 23.8392 34.7285 25.4892 33.967C26.1094 33.6808 26.4084 32.9685 26.1783 32.3257ZM30.1084 44.237L30.4681 44.5975H27.3017C26.5909 42.9483 26.4829 41.0711 27.06 39.3105C27.8113 39.0625 28.5912 38.937 29.3842 38.937C31.3707 38.937 33.2394 39.7134 34.6458 41.123C34.8329 41.3106 35.0071 41.5071 35.1707 41.7101C35.3941 42.7215 35.7374 43.6878 36.1797 44.5973H34.1928L31.975 42.3744C31.4605 41.8592 30.6257 41.8578 30.1107 42.3723C29.5951 42.8868 29.5941 43.7216 30.1084 44.237ZM24.494 44.5975H19.7941C20.0037 43.3204 20.7718 42.2318 21.8381 41.5899C22.4693 42.4356 23.2932 43.1193 24.2424 43.5825C24.3096 43.9246 24.392 44.2637 24.494 44.5975ZM11.1891 2.63671H21.0313V8.09276H11.1891V2.63671ZM19.2091 10.7295V13.488H13.0115V10.7295H19.2091ZM6.90765 25.0575H15.4687C16.197 25.0575 16.7871 24.4673 16.7871 23.7392C16.7871 23.0111 16.197 22.4208 15.4687 22.4208H6.90765V19.711C6.90765 17.7335 8.51147 16.1247 10.4829 16.1247H21.7377C23.7093 16.1247 25.3131 17.7335 25.3131 19.711V22.4208H22.8515C22.1232 22.4208 21.5331 23.0111 21.5331 23.7392C21.5331 24.4673 22.1232 25.0575 22.8515 25.0575H25.3131V26.2277C23.8026 27.7087 23.0181 29.8804 23.4055 32.1144C23.4062 32.1188 23.4071 32.1234 23.4078 32.128C21.2928 33.579 20.1659 36.1588 20.6147 38.7486C20.6409 38.8997 20.6737 39.0484 20.7096 39.1956C20.0509 39.5587 19.4594 40.0277 18.9525 40.5765H6.90765V25.0575ZM6.90748 43.213H17.4216C17.2817 43.6574 17.1829 44.1199 17.1347 44.5975H16.9126C15.6991 44.5975 14.7118 45.5855 14.7118 46.8C14.7118 48.8934 14.9064 50.9484 15.2834 52.959C14.9046 52.9286 14.5161 52.9123 14.121 52.9123C12.5267 52.9123 11.0076 53.1652 9.84407 53.6247C8.06429 54.3275 7.57228 55.3254 7.46488 56.0158C7.27626 56.1097 7.09099 56.2088 6.90748 56.3103V43.213ZM23.6015 59.4086C24.0763 59.7884 24.3665 60.1114 24.5348 60.3443C24.5189 60.3444 24.5024 60.3446 24.4857 60.3446C23.7395 60.3446 22.3988 60.0439 20.8743 59.1999C20.3067 58.8855 19.7838 58.5302 19.3619 58.1728C18.8701 57.7561 18.1488 57.7564 17.6573 58.173C17.2355 58.5307 16.7127 58.8858 16.1456 59.1996C14.6207 60.0439 13.2801 60.3446 12.534 60.3446C12.517 60.3446 12.5006 60.3444 12.4846 60.3443C12.6527 60.1114 12.9429 59.7883 13.4179 59.4082C13.8329 59.076 14.0078 58.5269 13.8614 58.0159C13.7148 57.5047 13.2757 57.1315 12.7474 57.0696C11.4609 56.9188 10.6474 56.5913 10.2665 56.353C10.7437 56.0557 11.9503 55.549 14.1215 55.549C15.9197 55.549 17.2341 55.9271 17.8644 56.2811C18.2654 56.5061 18.7542 56.5061 19.1552 56.2813C19.7859 55.9272 21.1004 55.5491 22.8986 55.5491C25.07 55.5491 26.2764 56.0561 26.7535 56.3532C26.3727 56.5917 25.559 56.919 24.2721 57.0698C23.7439 57.1319 23.3046 57.5049 23.1582 58.0162C23.0113 58.5274 23.1862 59.0765 23.6015 59.4086ZM20.9643 75.4549L21.0097 75.6992C21.1665 76.546 21.4971 77.3231 21.959 77.9988H14.1164C7.78656 77.9988 2.63671 73.3118 2.63671 67.5504C2.63671 63.6131 5.0428 60.179 8.58583 58.3984C8.99276 58.7021 9.50006 58.964 10.1019 59.1753C9.86323 59.583 9.69694 60.0214 9.65774 60.4786C9.60571 61.0864 9.79169 61.6637 10.1819 62.1042C10.6975 62.6864 11.4888 62.9815 12.534 62.9815C13.9269 62.9815 15.7545 62.4301 17.4227 61.5065C17.8068 61.294 18.1699 61.0695 18.5099 60.835C18.8497 61.0694 19.2128 61.2938 19.5971 61.5067C21.2652 62.4301 23.0928 62.9813 24.4857 62.9815C25.5306 62.9815 26.3221 62.6864 26.8375 62.1044C27.2279 61.6638 27.414 61.0866 27.3618 60.4786C27.3226 60.0214 27.1564 59.583 26.9176 59.1753C27.5195 58.9639 28.027 58.7019 28.4339 58.3984C31.2438 59.8106 33.3375 62.2629 34.084 65.1814L24.7598 68.7235C22.0304 69.7607 20.4341 72.5914 20.9643 75.4549ZM69.5068 76.7581C68.8568 77.5365 67.9 77.983 66.8822 77.9833L65.4985 77.9838L64.634 73.316C64.5013 72.6 63.8138 72.1267 63.0975 72.2597C62.3817 72.3923 61.9087 73.0801 62.0412 73.7961L62.8171 77.9847L58.2809 77.9865L57.6965 74.83C57.5638 74.114 56.8761 73.6412 56.16 73.7737C55.4442 73.9063 54.9712 74.5941 55.1037 75.3101L55.5994 77.9875L45.0482 77.9916L44.254 73.7047C44.1211 72.9887 43.4338 72.5158 42.7175 72.6486C42.0016 72.7811 41.5287 73.4691 41.6612 74.1851L42.3666 77.9926L26.9605 77.9986C26.9609 77.9986 26.9602 77.9986 26.9605 77.9986C25.3131 77.9986 23.9002 76.8297 23.6017 75.2185L23.5564 74.9741C23.2584 73.3647 24.1581 71.7726 25.6956 71.1883L30.8771 69.22L31.2631 71.3033C31.3807 71.938 31.9348 72.3817 32.5577 72.3817C32.6375 72.3817 32.7184 72.3743 32.7996 72.3594C33.5154 72.2267 33.9882 71.5388 33.8555 70.8229L33.3821 68.2683L41.0734 65.3465C41.7541 65.0879 42.0963 64.3264 41.8377 63.6458C41.5792 62.965 40.8168 62.6229 40.1372 62.8815L36.5582 64.2411C35.5541 60.6863 32.9747 57.7169 29.5542 56.0157C29.4468 55.3252 28.9548 54.3273 27.1752 53.6245C26.0117 53.165 24.4926 52.9121 22.8982 52.9121C21.801 52.9121 20.7532 53.0332 19.8282 53.2538V52.4575C19.8282 51.7294 19.2381 51.1392 18.5099 51.1392C18.2021 51.1392 17.9198 51.2453 17.6953 51.4222C17.4874 50.047 17.371 48.6503 17.3517 47.2338H60.2928C61.021 47.2338 61.6111 46.6436 61.6111 45.9155C61.6111 45.1874 61.021 44.5971 60.2928 44.5971H59.7533C60.5928 42.8682 61.0671 40.9296 61.0671 38.8809C61.0671 37.7178 60.1771 36.7596 59.043 36.6508C59.5367 36.1852 60.153 35.8712 60.84 35.7515C61.0412 35.7165 61.2455 35.6988 61.4473 35.6988C63.1494 35.6988 64.5957 36.9164 64.8863 38.5937C64.9198 38.7879 64.9371 38.9883 64.9372 39.1896C64.9381 39.8723 65.4602 40.4415 66.1403 40.5013C67.7158 40.6396 69.0048 41.8245 69.275 43.3827C69.3467 43.797 69.3377 44.2058 69.2658 44.5971H67.8513C67.1231 44.5971 66.533 45.1874 66.533 45.9155C66.533 46.6436 67.1231 47.2338 67.8513 47.2338H78.0979C78.0652 49.6522 77.7538 52.0145 77.1728 54.3065L70.028 58.5242C69.591 57.0034 68.5754 55.7133 67.176 54.93C65.6064 54.0517 63.7412 53.9144 62.059 54.5533L47.3442 60.1435C46.6634 60.4021 46.3214 61.1636 46.5799 61.8442C46.8385 62.525 47.6007 62.8667 48.2804 62.6085L50.2189 61.8722L50.8208 65.1218C50.9384 65.7565 51.4925 66.2004 52.1156 66.2004C52.1952 66.2004 52.2761 66.193 52.3573 66.1781C53.0731 66.0455 53.5461 65.3577 53.4136 64.6417L52.7243 60.9205L62.995 57.0187C63.9467 56.6573 65.001 56.7348 65.8882 57.2314C66.7738 57.7269 67.3873 58.5812 67.5715 59.5747L70.2386 73.9738C70.4225 74.9668 70.1558 75.9815 69.5068 76.7581ZM74.2107 66.4388C73.5957 66.5518 73.1448 67.0812 73.1309 67.7065C73.1172 68.3317 73.5447 68.8805 74.1541 69.0203L83.9697 71.2717L83.7245 72.9168L72.3455 70.8719L70.5668 61.2683L80.478 55.4177L81.3036 56.8796L72.9439 62.4679C72.4241 62.8154 72.2198 63.4802 72.455 64.0596C72.69 64.6389 73.3 64.9736 73.9149 64.8606L87.0467 62.4484L87.3392 64.0269L74.2107 66.4388Z" fill="#1D1D1D"/>
</svg>
