<svg width="95" height="110" viewBox="0 0 95 110" fill="none" xmlns="http://www.w3.org/2000/svg">
<path fill-rule="evenodd" clip-rule="evenodd" d="M43.6956 0.427993C43.1456 0.657957 41.9836 1.10992 41.1126 1.43297C40.2421 1.75601 38.3701 3.09896 36.9521 4.41702C33.9291 7.22737 35.2136 6.93269 17.9456 8.77639C15.8831 8.99689 13.6721 9.46827 13.0326 9.82417C11.9396 10.4329 11.8856 10.6873 12.1366 14.0427C12.2836 16.0068 12.5486 18.8087 12.7256 20.2691C13.0356 22.8226 12.9821 22.9859 11.3481 24.5001C10.4131 25.3667 8.42113 28.0914 6.92213 30.5553L4.19563 35.0351L3.82413 43.7459C3.61963 48.5368 3.22263 56.3765 2.94213 61.1674C2.26363 72.7433 1.50563 88.5495 1.18813 97.7526C1.04663 101.859 0.68913 105.689 0.39363 106.265C0.0981304 106.84 -0.0673697 107.848 0.0261303 108.505L0.19563 109.699H47.4456H94.6956L94.8541 107.488C94.9411 106.273 94.7751 104.817 94.4851 104.253C94.1951 103.689 93.8451 99.5321 93.7071 95.0149C93.4166 85.4968 92.6756 69.5581 91.9606 57.4342C91.6861 52.7802 91.2891 45.8365 91.0786 42.0037C90.8396 37.6518 90.4346 34.5677 90.0006 33.7907C87.7481 29.7579 84.6766 24.9958 83.9916 24.4737C83.5536 24.1402 82.5591 23.8599 81.7811 23.8515C80.4801 23.837 80.3896 23.7151 80.6561 22.3423C80.8151 21.521 81.0711 20.1979 81.2251 19.4025C81.5941 17.4916 80.0566 16.0516 77.2766 15.7052C74.8731 15.406 71.5611 14.7012 68.6956 13.8799C67.5956 13.5648 65.9431 13.1562 65.0236 12.9715C63.6731 12.7007 63.2316 12.2896 62.7306 10.8366C61.1201 6.16764 57.2956 2.58528 51.9456 0.735607C49.5351 -0.0981372 45.3306 -0.254433 43.6956 0.427993ZM51.5336 4.54744C52.8671 4.94763 54.5921 6.14574 56.3726 7.9073L59.1396 10.645L55.9686 10.8939C53.8376 11.0611 52.6781 11.3876 52.4326 11.8894C51.7636 13.2572 50.9456 16.178 50.9456 17.1985C50.9456 18.4443 49.1011 20.2154 48.4776 19.5678C48.2336 19.3144 47.9011 17.8192 47.7396 16.2447C47.5781 14.6703 47.3121 12.0949 47.1486 10.5205C46.7931 7.09944 45.8861 5.91627 43.6181 5.91627C39.8141 5.91627 43.1176 4.06611 47.0786 3.978C48.3891 3.94913 50.3936 4.20548 51.5336 4.54744ZM43.9456 14.627C44.0831 17.0909 44.3621 19.3617 44.5651 19.6728C45.3006 20.7992 43.0976 21.7828 37.4456 22.8505C36.2081 23.0839 34.1831 23.5274 32.9456 23.8351C31.7081 24.1427 30.0206 24.52 29.1956 24.6733C26.7566 25.1267 25.8111 26.2661 26.1811 28.3054C26.3556 29.2691 26.5431 30.8415 26.5971 31.7997L26.6956 33.5418H22.4456H18.1956L17.8106 30.5553C17.5986 28.9127 17.1886 26.0008 16.8996 24.0844C16.6106 22.1681 16.3341 18.9202 16.2851 16.8674L16.1956 13.1348L18.4456 12.7331C22.6301 11.9864 27.6746 11.3538 32.2806 10.9989C34.8026 10.8043 37.0436 10.4673 37.2601 10.2507C37.4771 10.0337 39.0136 9.92173 40.6751 10.0019L43.6956 10.1472L43.9456 14.627ZM60.4456 15.8222C61.6831 16.0929 63.7081 16.5633 64.9456 16.8669C67.2031 17.4209 69.3731 17.9127 73.3116 18.7624C77.1501 19.5902 77.4696 20.4145 75.9546 25.5777C75.6331 26.6728 75.2036 28.4647 75.0001 29.5598C74.2261 33.7225 74.0321 33.843 68.3531 33.6832L63.3136 33.5418L62.5926 31.053C62.1956 29.6842 61.6476 27.6683 61.3746 26.5732C61.1011 25.4782 60.6681 23.8943 60.4116 23.0536C60.1556 22.2129 59.9456 21.0715 59.9456 20.5175C59.9456 18.8854 58.2631 17.7141 56.4791 18.1039C55.0416 18.4185 54.9456 18.3483 54.9456 16.9894C54.9456 15.1492 55.3776 14.7326 56.9426 15.0641C57.6316 15.2099 59.2081 15.5509 60.4456 15.8222ZM57.0866 24.5822C57.6276 26.3457 58.4446 30.5354 58.5916 32.2974L58.6956 33.5418H45.0151H31.3341L30.5791 31.6568C29.8911 29.9401 29.8991 29.6897 30.6661 28.8455C31.1291 28.3363 32.2256 27.8007 33.1021 27.6553C33.9786 27.5105 35.5956 27.1621 36.6956 26.8808C43.4096 25.1656 46.9881 24.3169 49.3256 23.8863C50.4966 23.6708 51.6136 23.3368 51.8066 23.1442C52.0001 22.9515 53.1641 22.8604 54.3936 22.9416C56.3891 23.073 56.6776 23.2492 57.0866 24.5822ZM82.3461 28.8276C83.8961 30.2656 85.1336 32.8071 84.5611 33.3771C84.3026 33.6344 82.7646 33.7768 81.1436 33.6932C78.8631 33.5762 78.2201 33.3726 78.3051 32.7952C78.4686 31.6762 79.0006 29.1461 79.2206 28.4398C79.5146 27.4956 81.1251 27.6952 82.3461 28.8276ZM13.8466 30.9286C13.7041 33.395 13.6151 33.5508 12.2596 33.7051C9.89863 33.9739 9.66813 33.1272 11.4146 30.6001C12.2831 29.3437 13.2196 28.3154 13.4956 28.3154C13.7871 28.3154 13.9346 29.4109 13.8466 30.9286ZM87.1111 41.0082C87.5016 43.8161 87.7336 47.8832 88.9426 73.1136C89.2116 78.7258 89.6541 87.1255 89.9266 91.7795C90.1986 96.4335 90.4831 101.585 90.5586 103.228L90.6956 106.214H47.4456C4.46213 106.214 4.19663 106.209 4.39613 105.219C4.59513 104.234 4.99963 96.9014 5.94863 77.0956C7.20313 50.9215 7.87763 39.3233 8.20013 38.392C8.37163 37.8957 16.4996 37.7932 47.5561 37.8942L86.6956 38.0217L87.1111 41.0082ZM31.6091 41.6035C31.0116 41.719 29.9426 42.3915 29.2341 43.0968C28.2086 44.1177 27.9456 44.8653 27.9456 46.7618C27.9456 48.8847 28.1641 49.3576 29.9456 51.0963L31.9456 53.048L31.9501 58.4765C31.9546 63.597 32.0391 64.0464 33.4361 66.3939C35.4291 69.7433 35.8356 70.1908 38.4456 71.9175C41.9751 74.252 43.4655 75.0052 48 75.0052C51.535 75.0052 52.3906 74.3993 54.4456 73.3625C60.6941 70.2102 63.4191 65.0489 63.6571 55.9146C63.7406 52.704 63.8851 52.262 65.3471 50.7389C68.4681 47.4875 67.0006 42.2421 62.7646 41.5065C61.9016 41.3566 60.5206 41.4228 59.6956 41.6533C57.9396 42.1436 55.9446 44.82 55.9476 46.6816C55.9496 48.2785 57.5391 50.9609 58.9186 51.6956C59.8386 52.1859 59.9456 52.713 59.9456 56.7583C59.9456 60.7368 59.7701 61.6378 58.4696 64.3316C56.8501 67.6875 54.7426 69.3665 50.2461 70.8836C47.9556 71.6566 47.6211 71.6552 45.0836 70.8602C41.3321 69.686 38.5821 67.4252 36.6211 63.9051C35.0986 61.1719 34.9571 60.5542 34.9516 56.6204C34.9456 52.4765 34.9951 52.2904 36.3206 51.4313C38.4216 50.0699 38.9126 49.1754 38.9296 46.6757C38.9421 44.8738 38.6751 44.1102 37.6886 43.1282C36.6216 42.0659 34.0896 41.0903 33.0081 41.3248C32.8361 41.3621 32.2066 41.4875 31.6091 41.6035ZM62.8571 45.9027C62.9811 46.5393 62.6426 46.7324 61.4046 46.7324C59.8156 46.7324 59.8051 46.7165 60.7066 45.725C61.7371 44.5911 62.6161 44.6637 62.8571 45.9027ZM34.4456 45.9858C34.9761 46.6224 34.8381 46.7324 33.5066 46.7324C32.0191 46.7324 31.5541 46.2924 32.2791 45.5711C32.8366 45.0157 33.7891 45.1978 34.4456 45.9858Z" fill="black"/>
</svg>
