<svg width="91" height="90" viewBox="0 0 91 90" fill="none" xmlns="http://www.w3.org/2000/svg">
<path fill-rule="evenodd" clip-rule="evenodd" d="M71.5 0.447223C71.0875 0.683223 70.031 1.14222 69.1525 1.46722C67.3945 2.11722 63.691 5.41822 62.267 7.60472C60.6365 10.1082 60.3095 13.0072 60.3095 24.9592C60.3095 37.0822 60.5615 39.2062 62.4325 42.8447C64.2165 46.3127 67.311 48.6452 72.138 50.1592C72.946 50.4127 73.0135 51.1262 72.888 58.0737L72.75 65.7092L70.2465 65.8562C67.9685 65.9897 67.564 65.8387 65.7515 64.1787C63.517 62.1322 59.546 59.9592 58.04 59.9592C57.494 59.9592 56.474 59.6982 55.7735 59.3787C54.801 58.9357 54.1895 58.9402 53.185 59.3977C52.0865 59.8987 51.717 59.8577 50.935 59.1507C50.421 58.6852 50 58.0077 50 57.6452C50 57.2827 49.55 55.9672 49 54.7227C48.45 53.4777 47.58 51.5027 47.067 50.3342C46.554 49.1652 45.9715 47.4672 45.7725 46.5612L45.4105 44.9137L49.0805 45.0612C51.943 45.1767 52.75 45.3742 52.75 45.9592C52.75 46.4352 52.111 46.8007 51 46.9592C49.5335 47.1687 49.25 47.4117 49.25 48.4592C49.25 49.5987 49.4635 49.7227 51.664 49.8632C54.2995 50.0312 55.159 49.5687 56.296 47.3707C56.9415 46.1222 56.935 45.7837 56.2385 44.4372C54.8445 41.7417 52.877 40.9632 47.4525 40.9612C43.438 40.9597 42.52 41.1087 41.8275 41.8737C40.742 43.0727 40.7835 44.1537 42.042 47.4662C43.9345 52.4472 44.529 51.9592 36.571 51.9592H29.5255L28.7025 50.3342C27.056 47.0837 26.7905 46.9592 21.4905 46.9592C16.8905 46.9592 16.566 47.0292 15.294 48.3017C14.2045 49.3907 13.9795 50.0242 14.101 51.6602C14.311 54.4987 16.51 55.9592 20.574 55.9592C23.869 55.9592 24.1955 56.4397 22.4285 58.6862C21.456 59.9227 21.1445 60.0202 19.0535 59.7397C15.7035 59.2907 14.487 59.3062 12.25 59.8277C7.681 60.8922 2.7915 64.6532 1.5205 68.0802C1.1885 68.9762 0.710499 70.0997 0.458499 70.5772C-0.161001 71.7507 -0.127001 78.8217 0.499999 79.2092C0.774999 79.3792 1.0005 79.8987 1.001 80.3637C1.002 80.8287 1.6765 81.9967 2.5 82.9592C3.3235 83.9217 3.998 84.8947 3.999 85.1212C3.9995 85.3482 3.1025 85.9107 2.005 86.3712C-0.0115008 87.2182 -0.500501 88.2587 0.599999 89.3592C1.3275 90.0867 18.0335 90.2127 19.382 89.5007C19.8595 89.2487 20.983 88.7707 21.879 88.4387C25.016 87.2757 28.913 82.4777 29.984 78.4592C30.282 77.3427 30.6605 77.1717 33.5335 76.8567C40.2925 76.1152 39.686 76.0077 40.0185 78.0072C40.183 78.9957 41.0335 81.0737 41.909 82.6247C42.784 84.1752 43.5 85.5602 43.5 85.7017C43.5 85.8432 42.7015 85.9592 41.725 85.9592C39.136 85.9592 37 87.2082 37 88.7222V89.9592H47.728H58.456L61.103 88.4012C65.759 85.6607 66.499 84.9362 68.3055 81.3492C69.925 78.1337 70.0575 77.5467 69.852 74.5202C69.728 72.6992 69.542 70.7592 69.4385 70.2092C69.2595 69.2592 69.586 69.1967 76 68.9592L82.75 68.7092V67.4592C82.75 66.3077 82.5335 66.1897 80 65.9592L77.25 65.7092V57.9677V50.2262L79.109 49.9242C80.132 49.7577 82.1915 48.8097 83.6865 47.8167C85.835 46.3907 86.782 45.3022 88.2025 42.6272L90 39.2417V25.1302C90 16.2617 89.814 10.9032 89.5 10.7092C89.225 10.5392 89 10.0732 89 9.67372C89 7.34472 82.6145 0.959223 80.2855 0.959223C79.886 0.959223 79.42 0.734223 79.25 0.459223C78.876 -0.146277 72.554 -0.155777 71.5 0.447223ZM80.9475 4.99772C83.071 6.29272 83.6665 6.88822 84.9615 9.01172C85.9435 10.6222 85.9965 11.4327 85.998 24.8507C86 38.7947 85.983 39.0252 84.799 41.3507C83.9045 43.1077 82.891 44.1352 80.825 45.3797C79.2995 46.2982 77.815 46.9037 77.526 46.7252C77.2365 46.5462 77 44.8782 77 43.0182C77 39.6497 77.01 39.6252 79.5 36.9592C80.875 35.4867 82 33.8652 82 33.3552C82 32.0152 80.606 31.6812 78.992 32.6342C78.224 33.0882 77.4615 33.4592 77.298 33.4592C77.134 33.4592 77 32.3742 77 31.0477C77 28.8442 77.2155 28.4052 79.5 25.9592C80.875 24.4867 82 22.8652 82 22.3552C82 21.0152 80.606 20.6812 78.992 21.6342C77.223 22.6792 77 22.6687 77 21.5367C77 21.0292 76.55 20.2067 76 19.7092C75.035 18.8357 74.965 18.8357 74 19.7092C73.1855 20.4462 73 21.2492 73 24.0367C73 25.9192 72.825 27.4592 72.6115 27.4592C72.3975 27.4592 71.722 27.1087 71.1105 26.6802C68.29 24.7047 68.2055 28.3712 71 31.4592L73 33.6692V40.1227C73 46.5707 72.999 46.5757 71.875 46.2742C71.256 46.1087 70.502 45.9697 70.199 45.9662C69.1935 45.9537 66.542 43.0087 65.262 40.4832C64.0075 38.0077 64 37.9127 64.002 24.8507C64.0035 12.5277 64.067 11.6057 65.0185 10.0452C66.307 7.93122 67.972 6.26622 70.086 4.97772C72.4655 3.52672 78.553 3.53822 80.9475 4.99772ZM28.75 9.44622C28.2 9.67722 27.031 10.1342 26.1525 10.4617C25.2735 10.7897 23.507 12.0472 22.227 13.2562C20.106 15.2597 19.7335 15.4282 18.025 15.1552C15.8305 14.8042 13.696 15.7397 11.5365 18.0002C9.325 20.3137 9.1225 23.4512 10.9625 26.8897C11.5285 27.9467 11.7125 27.9592 26.94 27.9592C41.71 27.9592 42.3825 27.9182 43.25 26.9592C44.1235 25.9942 44.1235 25.9242 43.25 24.9592C42.7525 24.4092 41.735 23.9592 40.9895 23.9592H39.6335L39.8775 20.5517C40.1765 16.3737 39.1755 14.1017 35.914 11.5542C35.2915 11.0682 29.8005 8.78422 29.757 8.99322C29.753 9.01172 29.3 9.21572 28.75 9.44622ZM33 14.0217C35.955 15.8092 37.2415 18.9137 36.2375 21.8342L35.593 23.7092H24.4215C13.5085 23.7092 13.2465 23.6852 13.102 22.6752C13.015 22.0667 13.5235 21.0722 14.337 20.2582C15.507 19.0882 15.992 18.9247 17.485 19.1942C21.5155 19.9212 22.739 19.7852 22.909 18.5897C22.9965 17.9737 24.083 16.4552 25.3235 15.2147C27.18 13.3582 27.904 12.9597 29.4145 12.9612C30.424 12.9622 32.0375 13.4392 33 14.0217ZM23.9 50.5592C25.0365 51.6957 24.49 51.9592 21 51.9592C19.075 51.9592 17.5 51.7792 17.5 51.5592C17.5 50.5872 18.874 49.9592 21 49.9592C22.265 49.9592 23.57 50.2292 23.9 50.5592ZM46.4095 58.6512L47.1885 61.0932L45.1405 62.9012C42.542 65.1952 40.4185 68.4907 40.0405 70.8177C39.638 73.2942 38.684 73.4182 37.702 71.1227C34.553 63.7617 33.751 61.9127 32.6925 59.5732C32.0365 58.1232 31.5 56.7107 31.5 56.4342C31.5 56.1147 34.0715 55.9822 38.5655 56.0707L45.631 56.2092L46.4095 58.6512ZM29.0065 60.2092C29.553 61.4467 30.4825 63.5282 31.0725 64.8342C33.062 69.2412 33.996 72.1632 33.556 72.6032C33.3175 72.8417 32.4785 72.9637 31.692 72.8732C30.475 72.7337 30.218 72.4362 29.9665 70.8772C29.639 68.8432 28.6335 67.1132 26.454 64.8322C25.654 63.9957 25 62.9977 25 62.6152C25 61.5657 26.9495 57.9592 27.5165 57.9592C27.7895 57.9592 28.46 58.9717 29.0065 60.2092ZM18.8445 63.7752C19.017 64.2242 18.8555 65.0682 18.486 65.6502C17.438 67.3027 13.5 74.4467 13.5 74.6967C13.5 74.8197 13.9925 75.3792 14.5945 75.9397C15.381 76.6727 16.3645 76.9592 18.0945 76.9592C20.4785 76.9592 20.827 77.1852 20.1175 78.2712C19.564 79.1182 16.3625 80.9552 15.436 80.9572C14.9885 80.9582 14.3425 81.2967 14 81.7092C13.064 82.8367 14.2455 83.9592 16.368 83.9592C19.0455 83.9592 21.7205 82.1802 23.239 79.3907C24.159 77.7007 24.8755 76.9592 25.5895 76.9592C26.4105 76.9592 26.556 77.1847 26.315 78.0842C26.1495 78.7032 26.0105 79.4467 26.007 79.7367C25.996 80.5557 22.9215 83.7172 20.99 84.8947C19.6195 85.7302 18.453 85.9532 15.5 85.9457C8.0165 85.9262 4.033 81.9427 4.0135 74.4592C4 69.2232 5.307 67.0812 10.1425 64.4152C13.2625 62.6947 18.288 62.3257 18.8445 63.7752ZM59.3915 64.1597C64.4055 66.7117 65.9955 69.1647 65.998 74.3507C66.0005 79.0247 64.5105 82.2162 61.2905 84.4312C59.25 85.8352 58.7325 85.9592 54.91 85.9572C49.1545 85.9547 46.833 84.5227 44.2005 79.3507C42.356 75.7272 42.536 72.4197 44.772 68.8452C47.519 64.4537 49.199 64.4387 50.454 68.7952C51.2655 71.6112 53.2465 75.7437 54.0125 76.2167C54.7885 76.6967 56.001 75.5062 55.9925 74.2732C55.9845 73.0952 54.832 69.5607 53.792 67.5242C53.4225 66.8007 52.963 65.4777 52.7705 64.5842L52.4205 62.9592H54.727C56.1735 62.9592 57.9125 63.4067 59.3915 64.1597ZM25.3845 69.1167C26.5945 71.0662 27.005 72.1542 26.6595 72.4997C26.38 72.7792 24.598 72.9412 22.7005 72.8587C19.784 72.7322 19.2605 72.5747 19.318 71.8412C19.415 70.6137 22.531 65.8862 23.115 66.0807C23.382 66.1697 24.403 67.5362 25.3845 69.1167ZM87 66.7092C86.166 67.7137 87.1685 68.9592 88.811 68.9592C90.3 68.9592 90.454 67.2372 89.033 66.4767C87.7905 65.8122 87.74 65.8177 87 66.7092ZM61.2215 73.7992C60.3135 76.8157 58.7905 78.9267 56.8295 79.8877C55.686 80.4482 54.3405 81.0302 53.84 81.1807C53.2365 81.3622 52.984 81.8347 53.09 82.5822C53.218 83.4842 53.618 83.7397 55.095 83.8627C59.388 84.2197 64.2605 79.3472 63.9035 75.0542C63.7805 73.5772 63.525 73.1772 62.623 73.0492C61.8755 72.9432 61.403 73.1957 61.2215 73.7992ZM30.6 87.0592C30.27 87.3892 30 88.1767 30 88.8092C30 89.7537 30.268 89.9592 31.5 89.9592C32.732 89.9592 33 89.7537 33 88.8092C33 87.7367 32.1845 86.4592 31.5 86.4592C31.335 86.4592 30.93 86.7292 30.6 87.0592Z" fill="black"/>
</svg>
