<svg width="35" height="34" viewBox="0 0 35 34" fill="none" xmlns="http://www.w3.org/2000/svg">
<path d="M19.3751 11.875L13.7501 22.5L17.5001 24.375L23.1251 13.75L19.3751 11.875Z" fill="white"/>
<path d="M35 16.8966C35 26.2283 27.165 33.7931 17.5 33.7931C7.83502 33.7931 0 26.2283 0 16.8966C0 7.56485 7.83502 0 17.5 0C27.165 0 35 7.56485 35 16.8966ZM1.95702 16.8966C1.95702 25.1847 8.91585 31.9036 17.5 31.9036C26.0842 31.9036 33.043 25.1847 33.043 16.8966C33.043 8.60841 26.0842 1.88953 17.5 1.88953C8.91585 1.88953 1.95702 8.60841 1.95702 16.8966Z" fill="white"/>
<path d="M20.5862 9.59735C20.835 9.10429 21.4364 8.9063 21.9295 9.15511L23.9075 10.1533C24.4006 10.4021 24.5986 11.0036 24.3498 11.4966L23.674 12.8358L19.9104 10.9365L20.5862 9.59735Z" fill="white"/>
<path d="M13.1907 23.5925L16.7962 25.4695C16.7962 25.4695 14.4075 27.194 13.3679 27.6535C12.3283 28.113 13.1907 23.5925 13.1907 23.5925Z" fill="white"/>
<path d="M19 27.5H24.75C25.0261 27.5 25.25 27.7239 25.25 28V28.25C25.25 28.5261 25.0261 28.75 24.75 28.75H16.5L19 27.5Z" fill="white"/>
<circle cx="12.5001" cy="11.25" r="3.75" fill="white"/>
<rect x="12.2795" y="8.82275" width="0.441177" height="4.85294" rx="0.220588" fill="#F85B2A"/>
<rect x="10.0735" y="11.4697" width="0.441177" height="4.85294" rx="0.220588" transform="rotate(-90 10.0735 11.4697)" fill="#F85B2A"/>
</svg>
