<?xml version="1.0" encoding="utf-8"?>
<!-- Generator: Adobe Illustrator 24.0.1, SVG Export Plug-In . SVG Version: 6.00 Build 0)  -->
<svg version="1.1" id="Слой_1" xmlns="http://www.w3.org/2000/svg" xmlns:xlink="http://www.w3.org/1999/xlink" x="0px" y="0px"
	 viewBox="0 0 1920 700" style="enable-background:new 0 0 1920 700;" xml:space="preserve">
<style type="text/css">
	.st0{fill:#F2F2F2;fill-opacity:0.9;}
	.st1{fill:none;stroke:#FFFFFF;stroke-width:2;}
	.st2{fill:none;stroke:#F2F2F2;stroke-width:2;}
</style>
<g>
	<path class="st0" d="M433.23,466.98c66.37,45.31,127.21,6.13,154.35-30.35c9.76-10.17,31.88-82.83,32.2-100.13
		c0.62-33.09,17.04-106-28.33-152.16c-77.97-79.33-237.53-79.54-270.59-67.65c-34.24,12.31-89.98,56.03-61.99,135.17
		C278.5,307.36,350.27,410.34,433.23,466.98z"/>
	<path class="st1" d="M435.79,438.51c55.44,37.85,106.26,5.12,128.94-25.35c8.15-8.49,26.63-69.19,26.9-83.65
		c0.51-27.64,14.23-88.55-23.66-127.11c-65.14-66.27-198.42-66.44-226.04-56.51c-28.61,10.29-75.16,46.81-51.78,112.91
		C306.54,305.17,366.49,391.2,435.79,438.51z"/>
	<path class="st2" d="M422.49,549.01c97.22,66.37,186.34,8.98,226.1-44.46c14.3-14.89,46.69-121.33,47.16-146.68
		c0.9-48.47,24.96-155.27-41.5-222.89C540.04,18.77,306.32,18.47,257.89,35.88c-50.16,18.04-131.8,82.07-90.8,197.99
		C195.85,315.19,300.97,466.05,422.49,549.01z"/>
</g>
<g>
	<path class="st0" d="M1506.16,190.96c-82.51-40.23-146.69,11.98-172.62,56.26c-9.74,12.66-24.78,96.14-22.69,115.29
		c3.99,36.62-4.48,119.53,54.07,163.8c100.64,76.09,283.57,52.79,319.78,34.79c37.51-18.64,95.19-75.12,51.87-158.35
		C1706.17,344.36,1609.29,241.25,1506.16,190.96z"/>
	<path class="st2" d="M1506.65,87.73c-120.86-58.93-214.87,17.55-252.86,82.41c-14.27,18.54-36.3,140.83-33.24,168.87
		c5.85,53.64-6.57,175.09,79.21,239.94c147.43,111.45,415.38,77.33,468.42,50.97c54.94-27.31,139.43-110.03,75.97-231.96
		C1799.64,312.43,1657.73,161.4,1506.65,87.73z"/>
	<path class="st2" d="M1495.89,30.71c-141.99-69.24-252.44,20.62-297.08,96.82c-16.77,21.79-42.64,165.45-39.05,198.4
		c6.87,63.02-7.72,205.71,93.06,281.89c173.2,130.94,488.01,90.86,550.33,59.88c64.55-32.08,163.82-129.28,89.26-272.52
		C1840.11,294.71,1673.38,117.26,1495.89,30.71z"/>
</g>
</svg>
