<?xml version="1.0" encoding="utf-8"?>
<!-- Generator: Adobe Illustrator 24.0.1, SVG Export Plug-In . SVG Version: 6.00 Build 0)  -->
<svg version="1.1" id="Слой_1" xmlns="http://www.w3.org/2000/svg" xmlns:xlink="http://www.w3.org/1999/xlink" x="0px" y="0px"
	 viewBox="0 0 1920 795" style="enable-background:new 0 0 1920 795;" xml:space="preserve">
<style type="text/css">
	.st0{fill:#F9F9F9;}
	.st1{fill:none;stroke:#F9F9F9;stroke-width:2;}
	.st2{fill:none;stroke:#FFC035;stroke-width:15;stroke-miterlimit:4;}
	.st3{fill:none;stroke:#FFC035;stroke-width:12;}
	.st4{fill:none;stroke:#FFC035;stroke-width:15;}
	.st5{fill:#FFC035;fill-opacity:0.7;}
</style>
<g>
	<path class="st0" d="M415.01,91.46c-123.58-22.3-188.67,70.29-206.36,138.22c-8.12,20.29,3.11,135.78,12.97,160.21
		c18.87,46.73,38.52,159.04,132.07,195.56c160.78,62.77,392.96-35.88,433.94-73.04c42.45-38.48,97.4-134.27,9.43-227.76
		C735.36,219.08,569.49,119.34,415.01,91.46z"/>
	<path class="st1" d="M399.57,29.15C246.2,1.44,165.41,116.47,143.46,200.87c-10.08,25.21,3.86,168.69,16.1,199.04
		c23.42,58.05,47.81,197.58,163.91,242.95c199.55,77.98,487.71-44.58,538.58-90.74c52.69-47.81,120.89-166.81,11.71-282.95
		C797.16,187.7,591.3,63.78,399.57,29.15z"/>
</g>
<rect x="1695.55" y="244.01" transform="matrix(0.7741 -0.633 0.633 0.7741 219.1584 1148.2054)" class="st2" width="45.99" height="45.99"/>
<circle class="st3" cx="1810.31" cy="381" r="21.69"/>
<circle class="st4" cx="150.92" cy="656.54" r="27"/>
<g>
	<path class="st5" d="M1602.57,579.04l-9.84,3.39l17.19,49.81l9.84-3.39L1602.57,579.04z"/>
	<path class="st5" d="M1633.16,601.86l-3.39-9.84l-49.81,17.18l3.39,9.84L1633.16,601.86z"/>
</g>
</svg>
